<svg width="313" height="317" viewBox="0 0 313 317" fill="none" xmlns="http://www.w3.org/2000/svg">
    <g clip-path="url(#clip0_261_109)">
        <path opacity="0.46"
            d="M164.47 2.99281L11.3389 44.0527C5.43903 45.6347 1.93869 51.6999 3.52065 57.5998L64.0746 283.432C65.6565 289.332 71.7217 292.833 77.6216 291.251L230.752 250.191C236.652 248.609 240.153 242.543 238.571 236.644L178.017 10.811C176.435 4.91119 170.369 1.41084 164.47 2.99281Z"
            fill="#C5A1F9" />
        <path d="M32.8604 72.5299L157.51 39.0999" stroke="white" stroke-width="0.92" />
        <path d="M51.75 143L176.4 109.57" stroke="white" stroke-width="0.92" />
        <path d="M39.1504 95.9999L163.81 62.5699" stroke="white" stroke-width="0.92" />
        <path d="M58.0503 166.48L182.7 133.06" stroke="white" stroke-width="0.92" />
        <path d="M45.4502 119.5L170.1 86.08" stroke="white" stroke-width="0.92" />
        <path d="M64.3501 190L189 156.55" stroke="white" stroke-width="0.92" />
        <path d="M70.6401 213.46L114.25 201.77" stroke="white" stroke-width="0.92" />
        <path d="M75.7002 239.27L200.35 205.84" stroke="white" stroke-width="0.92" />
        <path d="M94.5903 309.73L219.25 276.31" stroke="white" stroke-width="0.92" />
        <path
            d="M259.32 60.87H100.8C94.692 60.87 89.7402 65.8217 89.7402 71.93V305.71C89.7402 311.818 94.692 316.77 100.8 316.77H259.32C265.429 316.77 270.38 311.818 270.38 305.71V71.93C270.38 65.8217 265.429 60.87 259.32 60.87Z"
            fill="white" />
        <path
            d="M117.06 113.24V89.72H128.27C131.837 89.72 133.62 91.5166 133.62 95.11V99.57C133.62 103.137 131.837 104.923 128.27 104.93H120.5V113.24H117.06ZM120.5 101.79H128.24C128.503 101.826 128.772 101.801 129.024 101.717C129.276 101.632 129.505 101.49 129.693 101.303C129.881 101.115 130.022 100.886 130.107 100.634C130.192 100.381 130.217 100.113 130.18 99.85V94.77C130.216 94.5081 130.19 94.2416 130.104 93.9915C130.019 93.7414 129.877 93.5146 129.688 93.3292C129.5 93.1438 129.271 93.0049 129.02 92.9234C128.768 92.842 128.501 92.8202 128.24 92.86H120.5V101.79Z"
            fill="#CD9DFF" />
        <path
            d="M138.26 107.86V95.11C138.26 91.5233 140.044 89.7266 143.61 89.72H151.52C155.087 89.72 156.87 91.5166 156.87 95.11V107.86C156.87 111.447 155.087 113.24 151.52 113.24H143.61C140.044 113.24 138.26 111.447 138.26 107.86ZM141.7 108.2C141.664 108.467 141.692 108.739 141.782 108.994C141.871 109.248 142.019 109.478 142.214 109.664C142.409 109.85 142.645 109.988 142.904 110.065C143.162 110.143 143.435 110.158 143.7 110.11H151.54C151.802 110.15 152.068 110.128 152.32 110.046C152.571 109.965 152.8 109.826 152.988 109.641C153.177 109.455 153.319 109.229 153.405 108.978C153.49 108.728 153.516 108.462 153.48 108.2V94.77C153.516 94.5081 153.49 94.2416 153.405 93.9915C153.319 93.7414 153.177 93.5146 152.988 93.3292C152.8 93.1438 152.571 93.0049 152.32 92.9234C152.068 92.842 151.802 92.8202 151.54 92.86H143.7C143.435 92.8118 143.162 92.8271 142.904 92.9046C142.645 92.9821 142.409 93.1196 142.214 93.3059C142.019 93.4921 141.871 93.7218 141.782 93.9763C141.692 94.2307 141.664 94.5027 141.7 94.77V108.2Z"
            fill="#CD9DFF" />
        <path d="M162.53 113.24V89.72H166V110.11H177.08V113.24H162.53Z" fill="#CD9DFF" />
        <path d="M180.87 113.24V89.72H184.31V113.24H180.87Z" fill="#CD9DFF" />
        <path
            d="M190 107.86V95.11C190 91.5233 191.783 89.7266 195.35 89.72H204.83L206.56 91.09V92.86H195.35C195.089 92.8202 194.822 92.842 194.57 92.9234C194.319 93.0049 194.09 93.1438 193.902 93.3292C193.713 93.5146 193.571 93.7414 193.486 93.9915C193.4 94.2416 193.374 94.5081 193.41 94.77V108.2C193.374 108.462 193.4 108.728 193.486 108.978C193.571 109.229 193.713 109.455 193.902 109.641C194.09 109.826 194.319 109.965 194.57 110.046C194.822 110.128 195.089 110.15 195.35 110.11H206.53V111.88L204.8 113.24H195.32C191.773 113.24 190 111.447 190 107.86Z"
            fill="#CD9DFF" />
        <path
            d="M208.89 90.44L209.33 89.72H212.26L218.26 101.07L224.26 89.72H227.26L227.67 90.44L220 104.65V113.24H216.53V104.65L208.89 90.44Z"
            fill="#CD9DFF" />
        <path d="M114.06 140.18H243.06" stroke="#707070" stroke-width="0.92" />
        <path d="M114.06 213.13H243.06" stroke="#707070" stroke-width="0.92" />
        <path d="M114.06 164.5H243.06" stroke="#707070" stroke-width="0.92" />
        <path d="M114.06 237.45H243.06" stroke="#707070" stroke-width="0.92" />
        <path d="M114.06 188.82H243.06" stroke="#707070" stroke-width="0.92" />
        <path d="M114.06 261.76H243.06" stroke="#707070" stroke-width="0.92" />
        <path d="M114.06 286.08H159.2" stroke="#707070" stroke-width="0.92" />
        <path
            d="M270.38 235.72C293.405 235.72 312.07 217.055 312.07 194.03C312.07 171.005 293.405 152.34 270.38 152.34C247.355 152.34 228.69 171.005 228.69 194.03C228.69 217.055 247.355 235.72 270.38 235.72Z"
            fill="#C5A1F9" />
        <path
            d="M297.46 214L286.82 203.36C286.337 202.879 285.682 202.61 285 202.61H283.27C286.755 198.157 288.41 192.542 287.897 186.91C287.385 181.279 284.744 176.055 280.513 172.304C276.281 168.553 270.779 166.556 265.126 166.723C259.474 166.889 254.098 169.204 250.094 173.198C246.091 177.191 243.761 182.561 243.58 188.213C243.399 193.865 245.381 199.373 249.121 203.614C252.862 207.855 258.079 210.509 263.709 211.036C269.339 211.563 274.958 209.923 279.42 206.45V208.19C279.42 208.872 279.69 209.526 280.17 210.01L290.81 220.64C291.047 220.877 291.329 221.066 291.638 221.194C291.948 221.323 292.28 221.389 292.615 221.389C292.951 221.389 293.283 221.323 293.592 221.194C293.902 221.066 294.183 220.877 294.42 220.64L297.42 217.64C297.901 217.158 298.171 216.505 298.171 215.825C298.171 215.144 297.901 214.492 297.42 214.01L297.46 214ZM265.77 202.61C263.066 202.612 260.422 201.811 258.173 200.309C255.925 198.807 254.172 196.671 253.138 194.173C252.104 191.674 251.835 188.924 252.365 186.273C252.895 183.621 254.201 181.186 256.115 179.277C258.03 177.367 260.469 176.069 263.122 175.547C265.776 175.025 268.524 175.302 271.02 176.343C273.516 177.384 275.646 179.143 277.142 181.396C278.637 183.649 279.43 186.296 279.42 189C279.423 190.793 279.072 192.569 278.388 194.226C277.703 195.883 276.699 197.389 275.432 198.658C274.165 199.927 272.661 200.933 271.005 201.62C269.349 202.306 267.573 202.66 265.78 202.66L265.77 202.61Z"
            fill="white" />
        <mask id="mask0_261_109" style="mask-type:luminance" maskUnits="userSpaceOnUse" x="209"
            y="131" width="62" height="136">
            <path d="M270.38 131.5H209.01V266.98H270.38V131.5Z" fill="white" />
        </mask>
        <g mask="url(#mask0_261_109)">
            <path
                d="M270.38 152.34C262.133 152.338 254.071 154.782 247.213 159.363C240.355 163.944 235.01 170.456 231.854 178.076C228.698 185.695 227.873 194.08 229.483 202.168C231.092 210.257 235.065 217.686 240.898 223.516C246.731 229.347 254.163 233.316 262.252 234.922C270.341 236.528 278.725 235.699 286.343 232.539C293.961 229.379 300.471 224.031 305.048 217.171C309.626 210.311 312.066 202.247 312.06 194C312.058 182.946 307.666 172.345 299.85 164.527C292.035 156.71 281.435 152.315 270.38 152.31M270.38 143.1C280.448 143.1 290.289 146.085 298.659 151.678C307.029 157.271 313.553 165.221 317.406 174.521C321.258 183.822 322.266 194.056 320.302 203.93C318.338 213.804 313.491 222.873 306.372 229.992C299.254 237.11 290.184 241.958 280.311 243.922C270.437 245.886 260.203 244.878 250.902 241.025C241.601 237.173 233.652 230.649 228.059 222.279C222.466 213.908 219.48 204.067 219.48 194C219.515 180.514 224.889 167.59 234.428 158.057C243.967 148.523 256.894 143.156 270.38 143.13V143.1Z"
                fill="white" />
        </g>
    </g>
    <defs>
        <clipPath id="clip0_261_109">
            <rect width="312.344" height="316.872" fill="white"
                transform="translate(0.65625 0.128418)" />
        </clipPath>
    </defs>
</svg>
    