<svg viewBox="0 0 480 371" fill="none" xmlns="http://www.w3.org/2000/svg">
    <g clip-path="url(#clip0_973_1129)">
        <path
            d="M347.892 241.161L285.744 209.119C284.807 208.635 284.1 207.798 283.779 206.794C283.458 205.789 283.548 204.698 284.031 203.76L287.875 196.303C288.359 195.366 289.196 194.659 290.201 194.338C291.206 194.017 292.297 194.107 293.235 194.59L355.383 226.632C356.32 227.116 357.027 227.953 357.348 228.958C357.67 229.962 357.579 231.053 357.097 231.992L353.252 239.448C353.014 239.913 352.685 240.326 352.286 240.664C351.887 241.001 351.425 241.256 350.926 241.413C350.533 241.54 350.122 241.604 349.708 241.605C349.076 241.604 348.453 241.452 347.892 241.161Z"
            fill="#CD9DFF" />
        <path
            d="M328.947 211.187C329.438 210.996 329.962 210.904 330.488 210.918C331.015 210.932 331.533 211.051 332.013 211.267L352.38 222.529C354.609 223.76 356.279 225.8 357.047 228.228C357.814 230.656 357.619 233.286 356.503 235.575C355.436 237.761 353.604 239.481 351.354 240.408C349.104 241.334 346.593 241.403 344.296 240.601L322.208 232.881C321.729 232.669 321.297 232.366 320.936 231.988C320.575 231.61 320.293 231.164 320.104 230.676C319.915 230.189 319.825 229.669 319.837 229.146C319.85 228.623 319.965 228.108 320.177 227.63L326.744 213.289C326.858 213.029 327 212.783 327.166 212.553C327.615 211.935 328.234 211.461 328.947 211.187Z"
            fill="#2F2E41" />
        <path
            d="M375.808 207.747C392.609 207.747 406.228 194.127 406.228 177.326C406.228 160.525 392.609 146.905 375.808 146.905C359.007 146.905 345.387 160.525 345.387 177.326C345.387 194.127 359.007 207.747 375.808 207.747Z"
            fill="#CD9DFF" />
        <path
            d="M372.074 366.519V296.597C372.075 295.542 372.495 294.531 373.241 293.785C373.987 293.039 374.998 292.619 376.053 292.618H384.442C385.497 292.619 386.509 293.039 387.255 293.785C388.001 294.531 388.42 295.542 388.421 296.597V366.519C388.42 367.574 388.001 368.585 387.255 369.331C386.509 370.077 385.497 370.497 384.442 370.498H376.053C374.998 370.497 373.987 370.077 373.241 369.331C372.495 368.585 372.075 367.574 372.074 366.519Z"
            fill="#CD9DFF" />
        <path
            d="M353.887 366.519V296.597C353.888 295.542 354.307 294.531 355.053 293.785C355.799 293.039 356.811 292.619 357.866 292.618H366.255C367.31 292.619 368.321 293.039 369.067 293.785C369.813 294.531 370.233 295.542 370.234 296.597V366.519C370.233 367.574 369.813 368.585 369.067 369.331C368.321 370.077 367.31 370.497 366.255 370.498H357.866C356.811 370.497 355.799 370.077 355.053 369.331C354.307 368.585 353.888 367.574 353.887 366.519Z"
            fill="#CD9DFF" />
        <path
            d="M376.447 188.601L376.479 187.464C374.364 187.405 372.499 187.273 371.098 186.249C370.701 185.942 370.375 185.554 370.141 185.11C369.907 184.665 369.772 184.176 369.745 183.675C369.72 183.369 369.766 183.061 369.88 182.776C369.994 182.49 370.172 182.235 370.4 182.03C371.33 181.244 372.827 181.499 373.917 181.999L374.858 182.43L373.054 169.248L371.928 169.403L373.462 180.615C371.98 180.18 370.607 180.367 369.666 181.162C369.305 181.477 369.022 181.871 368.838 182.314C368.655 182.757 368.576 183.237 368.609 183.715C368.642 184.388 368.822 185.046 369.136 185.642C369.45 186.239 369.891 186.759 370.428 187.167C372.228 188.483 374.567 188.548 376.447 188.601Z"
            fill="#2F2E41" />
        <path d="M366.357 170.37H360.234V171.506H366.357V170.37Z" fill="#2F2E41" />
        <path d="M385.685 170.37H379.562V171.506H385.685V170.37Z" fill="#2F2E41" />
        <path
            d="M404.918 308.167L394.396 239.041C394.239 237.998 394.501 236.935 395.127 236.085C395.752 235.235 396.688 234.668 397.731 234.509L406.025 233.246C407.068 233.089 408.131 233.351 408.981 233.976C409.83 234.602 410.397 235.538 410.557 236.581L421.079 305.707C421.236 306.75 420.974 307.813 420.349 308.663C419.723 309.513 418.787 310.08 417.744 310.239L409.45 311.502C408.934 311.581 408.406 311.557 407.899 311.432C407.391 311.308 406.914 311.084 406.493 310.774C406.072 310.464 405.716 310.075 405.446 309.627C405.175 309.18 404.996 308.684 404.918 308.167Z"
            fill="#CD9DFF" />
        <path
            d="M396.786 263.798C396.343 263.513 395.961 263.143 395.663 262.709C395.365 262.275 395.156 261.786 395.049 261.27L392.197 238.173C391.883 235.646 392.553 233.095 394.067 231.048C395.581 229 397.823 227.613 400.331 227.172C402.728 226.75 405.195 227.222 407.267 228.498C409.338 229.775 410.87 231.767 411.57 234.097L418.3 256.507C418.41 257.018 418.419 257.545 418.325 258.06C418.231 258.574 418.036 259.065 417.752 259.504C417.469 259.943 417.101 260.322 416.671 260.619C416.241 260.916 415.756 261.125 415.245 261.235L399.781 264.346C399.504 264.406 399.221 264.437 398.938 264.437C398.174 264.436 397.427 264.214 396.786 263.798Z"
            fill="#2F2E41" />
        <path
            d="M397.604 313.763H316.308C315.484 313.763 314.673 313.552 313.953 313.15C313.233 312.748 312.628 312.168 312.195 311.467C311.763 310.765 311.517 309.964 311.481 309.14C311.445 308.316 311.621 307.497 311.992 306.761L351.297 228.597C354.028 223.166 358.511 218.816 364.021 216.249C369.532 213.682 375.747 213.049 381.662 214.452C387.576 215.855 392.845 219.213 396.615 223.982C400.384 228.751 402.435 234.652 402.435 240.731V308.931C402.434 310.212 401.924 311.44 401.019 312.346C400.113 313.252 398.885 313.761 397.604 313.763Z"
            fill="#2F2E41" />
        <path
            d="M376.886 152.228C370.659 153.618 365.406 157.677 359.145 158.939C356.291 159.514 353.149 159.491 350.528 158.086C348.588 157.032 347.103 155.3 346.359 153.221C345.623 151.095 345.434 148.817 345.808 146.598C346.182 144.379 347.108 142.29 348.501 140.522C352.015 136.219 357.62 134.237 362.996 133.678C373.756 132.56 384.809 136.105 393.567 142.282C402.61 148.66 409.547 158.236 411.874 169.135C413.118 174.961 412.995 181.158 410.872 186.768C408.829 192.137 404.808 196.519 399.635 199.015C398.4 199.61 397.113 200.09 395.789 200.446C395.578 200.513 395.401 200.658 395.295 200.852C395.189 201.047 395.163 201.274 395.222 201.488C395.28 201.701 395.42 201.883 395.61 201.995C395.8 202.108 396.027 202.142 396.242 202.091C402.059 200.502 407.077 196.807 410.32 191.724C413.652 186.395 414.769 179.871 414.256 173.671C413.264 161.678 406.669 150.655 397.449 143.109C388.592 135.859 377.134 131.448 365.614 131.799C359.836 131.974 353.839 133.441 349.346 137.248C347.41 138.886 345.912 140.978 344.985 143.338C344.058 145.698 343.732 148.252 344.037 150.769C344.295 153.124 345.23 155.354 346.728 157.189C348.561 159.259 351.1 160.571 353.85 160.866C360.661 161.753 366.568 157.892 372.588 155.41C374.125 154.762 375.714 154.248 377.339 153.872C378.41 153.633 377.957 151.989 376.886 152.228Z"
            fill="#2F2E41" />
        <path
            d="M393.995 140.177C391.549 131.021 397.932 121.492 406.604 118.633C411.581 117.083 416.919 117.143 421.86 118.803C426.677 120.433 431.003 123.257 434.433 127.011C442.035 135.099 445.402 146.014 446.978 156.777C448.605 167.889 447.687 180.059 453.373 190.157C455.73 194.343 459.229 198.009 463.75 199.812C467.968 201.493 473.021 201.501 477.062 199.315C478.034 198.783 478.934 198.126 479.736 197.362C480.536 196.607 479.329 195.403 478.531 196.156C475.147 199.349 470.104 199.951 465.755 198.698C461.011 197.331 457.36 193.686 454.954 189.488C452.172 184.633 451.013 179.084 450.381 173.579C449.692 167.568 449.426 161.526 448.505 155.54C446.843 144.744 443.254 133.907 435.638 125.806C432.155 122.022 427.812 119.132 422.977 117.381C417.999 115.599 412.605 115.326 407.472 116.598C402.807 117.807 398.695 120.572 395.816 124.437C393.018 128.105 391.596 132.638 391.796 137.246C391.869 138.39 392.055 139.523 392.35 140.63C392.416 140.841 392.562 141.018 392.756 141.124C392.95 141.23 393.178 141.256 393.391 141.197C393.605 141.139 393.787 140.999 393.899 140.809C394.012 140.618 394.046 140.392 393.995 140.177Z"
            fill="#2F2E41" />
        <path
            d="M59.2624 217.701H9.66298C7.10109 217.698 4.64494 216.679 2.83341 214.868C1.02187 213.056 0.00288404 210.6 0 208.038V9.66299C0.00288404 7.10109 1.02187 4.64495 2.83341 2.83341C4.64494 1.02188 7.10109 0.00288404 9.66298 0H144.195L168.818 21.9851V61.9568H167.681V22.4941L143.761 1.13682H9.66298C7.40249 1.13938 5.23531 2.03849 3.6369 3.6369C2.03849 5.23531 1.13938 7.40249 1.13682 9.66299V208.038C1.13938 210.299 2.03849 212.466 3.6369 214.064C5.23531 215.663 7.40249 216.562 9.66298 216.565H59.2624V217.701Z"
            fill="#CCCCCC" />
        <path
            d="M168.248 22.7364H152.901C150.339 22.7336 147.883 21.7146 146.072 19.903C144.26 18.0915 143.241 15.6354 143.238 13.0735V0.568411C143.238 0.417659 143.298 0.273081 143.405 0.166483C143.511 0.0598855 143.656 0 143.807 0C143.957 0 144.102 0.0598855 144.209 0.166483C144.315 0.273081 144.375 0.417659 144.375 0.568411V13.0735C144.378 15.3339 145.277 17.5011 146.875 19.0995C148.474 20.6979 150.641 21.5971 152.901 21.5996H168.248C168.399 21.5996 168.544 21.6595 168.65 21.7661C168.757 21.8727 168.817 22.0173 168.817 22.168C168.817 22.3188 168.757 22.4634 168.65 22.57C168.544 22.6766 168.399 22.7364 168.248 22.7364Z"
            fill="#CCCCCC" />
        <path
            d="M149.231 51.4412H19.6332C18.4272 51.4412 17.2706 51.9202 16.4178 52.773C15.565 53.6258 15.0859 54.7824 15.0859 55.9884C15.0859 57.1945 15.565 58.3511 16.4178 59.2039C17.2706 60.0566 18.4272 60.5357 19.6332 60.5357H149.231C150.437 60.5357 151.594 60.0566 152.446 59.2039C153.299 58.3511 153.778 57.1945 153.778 55.9884C153.778 54.7824 153.299 53.6258 152.446 52.773C151.594 51.9202 150.437 51.4412 149.231 51.4412Z"
            fill="#E6E6E6" />
        <path
            d="M83.8636 32.1152H19.6332C18.4272 32.1152 17.2706 32.5943 16.4178 33.4471C15.565 34.2999 15.0859 35.4565 15.0859 36.6625C15.0859 37.8685 15.565 39.0252 16.4178 39.8779C17.2706 40.7307 18.4272 41.2098 19.6332 41.2098H83.8636C85.0697 41.2098 86.2263 40.7307 87.0791 39.8779C87.9318 39.0252 88.4109 37.8685 88.4109 36.6625C88.4109 35.4565 87.9318 34.2999 87.0791 33.4471C86.2263 32.5943 85.0697 32.1152 83.8636 32.1152Z"
            fill="#E6E6E6" />
        <path
            d="M19.6332 89.5247C18.4272 89.5247 17.2706 90.0038 16.4178 90.8565C15.565 91.7093 15.0859 92.8659 15.0859 94.0719C15.0859 95.278 15.565 96.4346 16.4178 97.2874C17.2706 98.1401 18.4272 98.6192 19.6332 98.6192H60.2519V89.5247H19.6332Z"
            fill="#E6E6E6" />
        <path
            d="M19.6332 70.1987C19.0361 70.1987 18.4448 70.3163 17.8931 70.5449C17.3414 70.7734 16.8401 71.1083 16.4178 71.5306C15.9955 71.9529 15.6606 72.4541 15.4321 73.0058C15.2036 73.5575 15.0859 74.1489 15.0859 74.746C15.0859 75.3432 15.2036 75.9345 15.4321 76.4862C15.6606 77.0379 15.9955 77.5392 16.4178 77.9614C16.8401 78.3837 17.3414 78.7186 17.8931 78.9472C18.4448 79.1757 19.0361 79.2933 19.6332 79.2933H60.2519V70.1987H19.6332Z"
            fill="#E6E6E6" />
        <path
            d="M60.5376 185.87H24.1366C21.65 185.867 19.2661 184.878 17.5079 183.12C15.7496 181.362 14.7606 178.978 14.7578 176.491V128.745C14.7606 126.258 15.7497 123.875 17.5079 122.116C19.2662 120.358 21.65 119.369 24.1366 119.366H60.5376V185.87Z"
            fill="#E6E6E6" />
        <path
            d="M119.231 278.805H69.6317C67.0698 278.803 64.6137 277.784 62.8021 275.972C60.9906 274.161 59.9716 271.704 59.9688 269.142V70.7671C59.9716 68.2052 60.9906 65.7491 62.8021 63.9375C64.6137 62.126 67.0698 61.107 69.6317 61.1041H204.164L228.787 83.0892V120.787H227.65V83.5983L203.73 62.2409H69.6317C67.3712 62.2435 65.2041 63.1426 63.6057 64.741C62.0072 66.3394 61.1081 68.5066 61.1056 70.7671V269.142C61.1081 271.403 62.0072 273.57 63.6057 275.169C65.2041 276.767 67.3712 277.666 69.6317 277.669H119.231V278.805Z"
            fill="#CCCCCC" />
        <path
            d="M228.217 83.8405H212.87C210.308 83.8377 207.852 82.8187 206.04 81.0072C204.229 79.1956 203.21 76.7395 203.207 74.1776V61.6725C203.207 61.5218 203.267 61.3772 203.374 61.2706C203.48 61.164 203.625 61.1041 203.775 61.1041C203.926 61.1041 204.071 61.164 204.177 61.2706C204.284 61.3772 204.344 61.5218 204.344 61.6725V74.1776C204.346 76.4381 205.246 78.6052 206.844 80.2037C208.442 81.8021 210.61 82.7012 212.87 82.7037H228.217C228.368 82.7037 228.512 82.7636 228.619 82.8702C228.726 82.9768 228.786 83.1214 228.786 83.2721C228.786 83.4229 228.726 83.5675 228.619 83.6741C228.512 83.7807 228.368 83.8405 228.217 83.8405Z"
            fill="#CCCCCC" />
        <path
            d="M209.2 112.545H79.602C78.396 112.545 77.2393 113.024 76.3866 113.877C75.5338 114.73 75.0547 115.887 75.0547 117.093C75.0547 118.299 75.5338 119.455 76.3866 120.308C77.2393 121.161 78.396 121.64 79.602 121.64H209.2C210.406 121.64 211.562 121.161 212.415 120.308C213.268 119.455 213.747 118.299 213.747 117.093C213.747 115.887 213.268 114.73 212.415 113.877C211.562 113.024 210.406 112.545 209.2 112.545Z"
            fill="#E6E6E6" />
        <path
            d="M143.832 93.2194H79.602C78.396 93.2194 77.2393 93.6985 76.3866 94.5512C75.5338 95.404 75.0547 96.5606 75.0547 97.7666C75.0547 98.9727 75.5338 100.129 76.3866 100.982C77.2393 101.835 78.396 102.314 79.602 102.314H143.832C145.038 102.314 146.195 101.835 147.048 100.982C147.901 100.129 148.38 98.9727 148.38 97.7666C148.38 96.5606 147.901 95.404 147.048 94.5512C146.195 93.6985 145.038 93.2194 143.832 93.2194Z"
            fill="#E6E6E6" />
        <path
            d="M209.2 112.545H79.602C78.396 112.545 77.2393 113.024 76.3866 113.877C75.5338 114.73 75.0547 115.887 75.0547 117.093C75.0547 118.299 75.5338 119.455 76.3866 120.308C77.2393 121.161 78.396 121.64 79.602 121.64H209.2C210.406 121.64 211.562 121.161 212.415 120.308C213.268 119.455 213.747 118.299 213.747 117.093C213.747 115.887 213.268 114.73 212.415 113.877C211.562 113.024 210.406 112.545 209.2 112.545Z"
            fill="#E6E6E6" />
        <path
            d="M143.832 93.2194H79.602C78.396 93.2194 77.2393 93.6985 76.3866 94.5512C75.5338 95.404 75.0547 96.5606 75.0547 97.7666C75.0547 98.9727 75.5338 100.129 76.3866 100.982C77.2393 101.835 78.396 102.314 79.602 102.314H143.832C145.038 102.314 146.195 101.835 147.048 100.982C147.901 100.129 148.38 98.9727 148.38 97.7666C148.38 96.5606 147.901 95.404 147.048 94.5512C146.195 93.6985 145.038 93.2194 143.832 93.2194Z"
            fill="#E6E6E6" />
        <path
            d="M79.602 150.629C78.396 150.629 77.2393 151.108 76.3866 151.961C75.5338 152.814 75.0547 153.97 75.0547 155.176C75.0547 156.382 75.5338 157.539 76.3866 158.392C77.2393 159.244 78.396 159.723 79.602 159.723H120.221V150.629H79.602Z"
            fill="#E6E6E6" />
        <path
            d="M79.602 131.303C78.396 131.303 77.2393 131.782 76.3866 132.635C75.5338 133.488 75.0547 134.644 75.0547 135.85C75.0547 137.056 75.5338 138.213 76.3866 139.066C77.2393 139.918 78.396 140.397 79.602 140.397H120.221V131.303H79.602Z"
            fill="#E6E6E6" />
        <path
            d="M79.602 150.629C78.396 150.629 77.2393 151.108 76.3866 151.961C75.5338 152.814 75.0547 153.97 75.0547 155.176C75.0547 156.382 75.5338 157.539 76.3866 158.392C77.2393 159.244 78.396 159.723 79.602 159.723H120.221V150.629H79.602Z"
            fill="#E6E6E6" />
        <path
            d="M79.602 131.303C78.396 131.303 77.2393 131.782 76.3866 132.635C75.5338 133.488 75.0547 134.644 75.0547 135.85C75.0547 137.056 75.5338 138.213 76.3866 139.066C77.2393 139.918 78.396 140.397 79.602 140.397H120.221V131.303H79.602Z"
            fill="#E6E6E6" />
        <path
            d="M120.502 246.975H84.1014C81.6149 246.972 79.231 245.983 77.4727 244.224C75.7145 242.466 74.7255 240.082 74.7227 237.596V189.849C74.7255 187.363 75.7145 184.979 77.4727 183.221C79.231 181.462 81.6149 180.473 84.1014 180.47H120.502V246.975Z"
            fill="#E6E6E6" />
        <path
            d="M123.709 122.777C122.296 123.639 121.129 124.85 120.319 126.293C119.508 127.736 119.083 129.364 119.082 131.019V132.44H120.219V131.019C120.221 129.139 120.843 127.313 121.989 125.822C123.135 124.332 124.741 123.262 126.557 122.777H123.709ZM263.277 121.356H128.745C126.183 121.359 123.727 122.378 121.916 124.189C120.104 126.001 119.085 128.457 119.082 131.019V329.394C119.086 331.956 120.105 334.411 121.916 336.223C123.728 338.034 126.183 339.053 128.745 339.057H278.237C280.799 339.053 283.254 338.034 285.066 336.223C286.877 334.411 287.896 331.956 287.9 329.394V143.342L263.277 121.356ZM286.763 329.394C286.76 331.655 285.861 333.822 284.263 335.42C282.665 337.018 280.497 337.917 278.237 337.92H128.745C126.485 337.917 124.318 337.018 122.719 335.42C121.121 333.822 120.222 331.655 120.219 329.394L120.219 131.019C120.221 129.139 120.843 127.313 121.989 125.822C123.135 124.332 124.741 123.262 126.557 122.777C127.27 122.587 128.006 122.491 128.745 122.493H262.844L286.763 143.848V329.394ZM123.709 122.777C122.296 123.639 121.129 124.85 120.319 126.293C119.508 127.736 119.083 129.364 119.082 131.019V132.44H120.219V131.019C120.221 129.139 120.843 127.313 121.989 125.822C123.135 124.332 124.741 123.262 126.557 122.777H123.709Z"
            fill="#3F3D56" />
        <path
            d="M287.33 144.092H271.983C269.421 144.089 266.965 143.07 265.154 141.259C263.342 139.447 262.323 136.991 262.32 134.429V121.924C262.32 121.773 262.38 121.629 262.487 121.522C262.593 121.416 262.738 121.356 262.889 121.356C263.039 121.356 263.184 121.416 263.291 121.522C263.397 121.629 263.457 121.773 263.457 121.924V134.429C263.46 136.69 264.359 138.857 265.957 140.455C267.556 142.054 269.723 142.953 271.983 142.955H287.33C287.481 142.955 287.626 143.015 287.732 143.122C287.839 143.228 287.899 143.373 287.899 143.524C287.899 143.674 287.839 143.819 287.732 143.926C287.626 144.032 287.481 144.092 287.33 144.092Z"
            fill="#3F3D56" />
        <path
            d="M268.313 181.891H138.715C137.509 181.891 136.353 181.412 135.5 180.56C134.647 179.707 134.168 178.55 134.168 177.344C134.168 176.138 134.647 174.982 135.5 174.129C136.353 173.276 137.509 172.797 138.715 172.797H268.313C269.519 172.797 270.676 173.276 271.528 174.129C272.381 174.982 272.86 176.138 272.86 177.344C272.86 178.55 272.381 179.707 271.528 180.56C270.676 181.412 269.519 181.891 268.313 181.891Z"
            fill="#CCCCCC" />
        <path
            d="M202.946 162.566H138.715C137.509 162.566 136.353 162.086 135.5 161.234C134.647 160.381 134.168 159.224 134.168 158.018C134.168 156.812 134.647 155.656 135.5 154.803C136.353 153.95 137.509 153.471 138.715 153.471H202.946C204.152 153.471 205.308 153.95 206.161 154.803C207.014 155.656 207.493 156.812 207.493 158.018C207.493 159.224 207.014 160.381 206.161 161.234C205.308 162.086 204.152 162.566 202.946 162.566Z"
            fill="#CCCCCC" />
        <path
            d="M268.313 219.975H138.715C137.509 219.975 136.353 219.496 135.5 218.643C134.647 217.79 134.168 216.634 134.168 215.428C134.168 214.222 134.647 213.065 135.5 212.212C136.353 211.359 137.509 210.88 138.715 210.88H268.313C269.519 210.88 270.676 211.359 271.528 212.212C272.381 213.065 272.86 214.222 272.86 215.428C272.86 216.634 272.381 217.79 271.528 218.643C270.676 219.496 269.519 219.975 268.313 219.975Z"
            fill="#CCCCCC" />
        <path
            d="M202.946 200.649H138.715C137.509 200.649 136.353 200.17 135.5 199.317C134.647 198.464 134.168 197.308 134.168 196.102C134.168 194.896 134.647 193.739 135.5 192.886C136.353 192.034 137.509 191.554 138.715 191.554H202.946C204.152 191.554 205.308 192.034 206.161 192.886C207.014 193.739 207.493 194.896 207.493 196.102C207.493 197.308 207.014 198.464 206.161 199.317C205.308 200.17 204.152 200.649 202.946 200.649Z"
            fill="#CCCCCC" />
        <path
            d="M263.718 307.226H143.215C140.728 307.223 138.344 306.234 136.586 304.476C134.828 302.718 133.839 300.334 133.836 297.847V250.101C133.839 247.614 134.828 245.23 136.586 243.472C138.344 241.714 140.728 240.725 143.215 240.722H263.718C266.204 240.725 268.588 241.714 270.346 243.472C272.105 245.23 273.094 247.614 273.097 250.101V297.847C273.094 300.334 272.105 302.718 270.347 304.476C268.588 306.234 266.204 307.223 263.718 307.226Z"
            fill="#CD9DFF" />
    </g>
    <defs>
        <clipPath id="clip0_973_1129">
            <rect width="480" height="370.498" fill="white" />
        </clipPath>
    </defs>
</svg>
    