<svg viewBox="0 0 480 374" fill="none" xmlns="http://www.w3.org/2000/svg">
    <g clip-path="url(#clip0_973_1913)">
        <path
            d="M99.6485 245.717C77.9469 224.353 68.7812 202.065 73.839 182.96C80.3298 158.442 109.165 141.49 152.952 136.45L153.114 137.857C109.937 142.826 81.541 159.397 75.2074 183.322C70.285 201.915 79.3177 223.716 100.642 244.708L99.6485 245.717Z"
            fill="#F0F0F0" />
        <path
            d="M309.032 321.551C281.947 321.551 252.514 317.526 223.279 309.787C187.126 300.215 153.978 285.769 127.418 268.008L128.204 266.832C154.637 284.507 187.638 298.887 223.641 308.418C256.177 317.032 288.957 321.023 318.425 319.97L318.476 321.384C315.364 321.496 312.216 321.552 309.032 321.551Z"
            fill="#F0F0F0" />
        <path
            d="M371.167 312.65L370.713 311.31C394.937 303.119 410.088 289.926 414.528 273.154C420.173 251.834 407.91 227.092 380 203.488C351.948 179.763 311.496 160.078 266.094 148.058L266.456 146.69C312.056 158.762 352.705 178.549 380.914 202.407C409.265 226.384 421.689 251.638 415.897 273.516C411.329 290.769 395.862 304.301 371.167 312.65Z"
            fill="#F0F0F0" />
        <path
            d="M148.737 322.143C95.5171 298.539 54.5068 267.916 33.2617 235.914L34.4407 235.131C55.539 266.911 96.334 297.353 149.311 320.849L148.737 322.143Z"
            fill="#F0F0F0" />
        <path
            d="M335.855 363.035C330.366 363.035 324.782 362.912 319.105 362.667L319.166 361.253C361.531 363.087 398.911 358.017 427.271 346.588L427.8 347.901C403.061 357.87 371.529 363.035 335.855 363.035Z"
            fill="#F0F0F0" />
        <path
            d="M304.977 137.72C296.18 134.856 287.133 132.189 278.085 129.794C226.017 116.01 174.835 111.116 130.068 115.643L129.926 114.235C174.859 109.692 226.217 114.598 278.447 128.425C287.52 130.828 296.594 133.502 305.415 136.374L304.977 137.72Z"
            fill="#F0F0F0" />
        <path
            d="M66.3868 247.84C44.6852 226.476 35.5195 204.188 40.5773 185.083C47.0681 160.565 75.9036 143.613 119.69 138.573L119.852 139.98C76.6749 144.949 48.2793 161.52 41.9457 185.445C37.0233 204.038 46.056 225.839 67.3799 246.831L66.3868 247.84Z"
            fill="#F0F0F0" />
        <path
            d="M275.77 323.674C248.685 323.674 219.252 319.649 190.017 311.91C153.865 302.339 120.716 287.892 94.1562 270.132L94.9427 268.955C121.375 286.63 154.376 301.01 190.38 310.541C222.915 319.155 255.695 323.146 285.163 322.093L285.214 323.507C282.102 323.619 278.954 323.675 275.77 323.674Z"
            fill="#F0F0F0" />
        <path
            d="M337.905 314.774L337.452 313.433C361.675 305.243 376.826 292.049 381.267 275.277C386.911 253.957 374.649 229.215 346.739 205.611C318.686 181.886 278.234 162.201 232.832 150.182L233.194 148.813C278.794 160.885 319.444 180.673 347.652 204.53C376.003 228.507 388.427 253.761 382.635 275.64C378.068 292.892 362.6 306.424 337.905 314.774Z"
            fill="#F0F0F0" />
        <path
            d="M115.476 324.266C62.2554 300.662 21.2451 270.039 0 238.037L1.17903 237.254C22.2773 269.034 63.0723 299.476 116.049 322.972L115.476 324.266Z"
            fill="#F0F0F0" />
        <path
            d="M302.593 365.158C297.104 365.158 291.521 365.035 285.844 364.79L285.905 363.376C328.27 365.21 365.649 360.14 394.009 348.711L394.539 350.025C369.799 359.993 338.267 365.158 302.593 365.158Z"
            fill="#F0F0F0" />
        <path
            d="M271.715 139.843C262.919 136.979 253.871 134.312 244.823 131.917C192.756 118.133 141.573 113.239 96.8064 117.767L96.6641 116.358C141.598 111.815 192.956 116.721 245.185 130.548C254.259 132.951 263.332 135.625 272.153 138.497L271.715 139.843Z"
            fill="#F0F0F0" />
        <path
            d="M24.1259 209.93C34.297 198.526 50.5215 191.576 65.2247 195.736C51.6604 205.335 41.9287 219.423 37.7513 235.507C36.1627 241.715 35.0423 248.786 29.879 252.582C26.6662 254.944 22.4092 255.508 18.4582 254.97C14.507 254.432 10.771 252.896 7.0855 251.373L6.09375 251.459C8.94509 236.447 13.9548 221.334 24.1259 209.93Z"
            fill="#F2F2F2" />
        <path
            d="M65.1778 196.054C52.885 199.03 41.8425 205.804 33.6188 215.414C31.8117 217.451 30.3371 219.76 29.2491 222.257C28.2679 224.723 27.9649 227.407 28.3718 230.03C28.702 232.483 29.3239 234.954 29.052 237.445C28.8939 238.718 28.4686 239.943 27.8038 241.04C27.139 242.137 26.2499 243.081 25.1947 243.81C22.6128 245.695 19.5074 246.54 16.4418 247.261C13.0381 248.062 9.49006 248.84 6.71549 251.102C6.37931 251.376 5.9737 250.838 6.30937 250.564C11.1366 246.629 17.8455 247.134 23.1864 244.276C25.6786 242.942 27.7839 240.849 28.2957 237.977C28.7433 235.465 28.1042 232.917 27.7484 230.436C27.314 227.883 27.5113 225.262 28.3231 222.803C29.2804 220.26 30.6637 217.897 32.4136 215.818C36.2786 211.073 40.8655 206.965 46.0065 203.645C51.8529 199.823 58.3099 197.029 65.0983 195.385C65.5185 195.283 65.5953 195.953 65.1778 196.054Z"
            fill="white" />
        <path
            d="M36.0856 212.164C34.6607 210.565 33.8504 208.512 33.7994 206.371C33.7485 204.23 34.4602 202.141 35.8075 200.476C36.0813 200.14 36.6161 200.55 36.3419 200.886C35.0845 202.434 34.4217 204.38 34.4732 206.374C34.5247 208.367 35.2871 210.277 36.6229 211.757C36.9128 212.08 36.3739 212.484 36.0856 212.164Z"
            fill="white" />
        <path
            d="M28.0421 228.808C32.4102 229.098 36.7271 227.731 40.1322 224.98C40.4693 224.707 40.875 225.245 40.5383 225.517C36.9896 228.374 32.4943 229.787 27.9494 229.475C27.5162 229.445 27.6113 228.778 28.0421 228.808Z"
            fill="white" />
        <path
            d="M52.0034 200.703C52.4259 201.436 53.0239 202.053 53.7437 202.498C54.4636 202.944 55.2827 203.203 56.1276 203.253C56.561 203.278 56.4654 203.945 56.0349 203.921C55.1017 203.861 54.1974 203.573 53.401 203.083C52.6045 202.593 51.9403 201.915 51.4662 201.109C51.4151 201.037 51.3935 200.948 51.4057 200.86C51.4178 200.773 51.4629 200.693 51.5317 200.637C51.6031 200.584 51.6927 200.561 51.7811 200.573C51.8694 200.585 51.9493 200.632 52.0034 200.703Z"
            fill="white" />
        <path
            d="M86.0956 243.077C85.8246 243.069 85.5536 243.061 85.2791 243.058C81.635 242.975 77.99 243.188 74.3803 243.694C74.1006 243.729 73.8176 243.768 73.5395 243.811C64.8558 245.125 56.4915 248.039 48.8717 252.406C45.8413 254.147 42.9476 256.115 40.2158 258.295C36.4432 261.305 32.5923 264.869 28.1756 266.412C27.7166 266.578 27.2478 266.716 26.7718 266.824L6.27512 252.662C6.24469 252.607 6.21082 252.556 6.18016 252.5L5.33594 251.972C5.46898 251.85 5.60959 251.726 5.74263 251.604C5.81951 251.532 5.90097 251.464 5.97783 251.393C6.03053 251.347 6.08348 251.3 6.12837 251.255C6.14586 251.24 6.16357 251.224 6.17784 251.213C6.22274 251.168 6.26921 251.131 6.31088 251.091C7.09495 250.396 7.88526 249.706 8.68183 249.019C8.68506 249.015 8.68506 249.015 8.69287 249.013C14.7756 243.799 21.3471 239.047 28.431 235.444C28.6441 235.336 28.8603 235.222 29.0828 235.121C32.2849 233.514 35.6129 232.172 39.0337 231.108C40.9086 230.531 42.8116 230.049 44.7352 229.665C49.7075 228.681 54.8036 228.486 59.8366 229.086C69.8697 230.284 79.408 234.677 85.6264 242.476C85.7853 242.676 85.9399 242.872 86.0956 243.077Z"
            fill="#F2F2F2" />
        <path
            d="M85.8693 243.305C74.2622 238.28 61.367 237.041 49.0152 239.762C46.3457 240.301 43.7779 241.257 41.4062 242.595C39.1379 243.973 37.2801 245.934 36.0259 248.273C34.8126 250.431 33.8213 252.778 32.1047 254.603C31.2121 255.524 30.1349 256.246 28.9437 256.722C27.7525 257.197 26.4742 257.416 25.1927 257.363C21.996 257.314 19.0076 256.119 16.1259 254.849C12.9262 253.439 9.62511 251.924 6.04789 252.059C5.61446 252.076 5.6143 251.402 6.04708 251.386C12.2708 251.15 17.3232 255.592 23.3087 256.526C26.1016 256.961 29.0427 256.557 31.1805 254.572C33.05 252.837 34.0742 250.417 35.2838 248.222C36.474 245.922 38.2091 243.949 40.3377 242.474C42.6337 241.019 45.1604 239.966 47.8098 239.359C53.7526 237.897 59.8882 237.379 65.9919 237.823C72.9609 238.292 79.7984 239.949 86.2085 242.723C86.6052 242.895 86.2634 243.476 85.8693 243.305Z"
            fill="white" />
        <path
            d="M52.9405 238.652C52.7652 236.517 53.3543 234.39 54.6026 232.65C55.8509 230.91 57.6771 229.67 59.7551 229.152C60.1759 229.049 60.3562 229.698 59.9349 229.802C57.999 230.28 56.298 231.435 55.1389 233.058C53.9798 234.681 53.4389 236.664 53.6139 238.651C53.6515 239.083 52.9778 239.081 52.9405 238.652Z"
            fill="white" />
        <path
            d="M36.4959 247.098C39.8089 249.96 44.0787 251.467 48.454 251.321C48.8874 251.306 48.8877 251.979 48.4548 251.994C43.9015 252.138 39.4613 250.56 36.0203 247.575C35.6925 247.29 36.1699 246.815 36.4959 247.098Z"
            fill="white" />
        <path
            d="M72.5508 239.086C72.4465 239.926 72.5525 240.778 72.8592 241.567C73.1659 242.356 73.6638 243.056 74.3081 243.605C74.6393 243.886 74.1615 244.361 73.8324 244.082C73.1234 243.472 72.5745 242.698 72.2337 241.827C71.8929 240.956 71.7705 240.015 71.8773 239.086C71.88 238.998 71.9163 238.914 71.9788 238.851C72.0412 238.789 72.1252 238.752 72.2136 238.749C72.3028 238.75 72.3882 238.785 72.4513 238.848C72.5145 238.911 72.5502 238.996 72.5508 239.086Z"
            fill="white" />
        <path
            d="M422.664 303.413C416.917 289.254 403.973 277.255 388.727 276.231C398.275 289.831 402.706 306.37 401.235 322.922C400.644 329.303 399.323 336.339 402.91 341.65C405.142 344.954 408.962 346.917 412.864 347.738C416.766 348.559 420.801 348.368 424.784 348.172L425.689 348.587C428.049 333.489 428.411 317.571 422.664 303.413Z"
            fill="#F2F2F2" />
        <path
            d="M388.663 276.545C399.24 283.48 407.363 293.572 411.879 305.386C412.896 307.912 413.509 310.583 413.694 313.3C413.79 315.952 413.173 318.582 411.908 320.915C410.773 323.115 409.356 325.233 408.775 327.67C408.496 328.922 408.485 330.219 408.743 331.476C409 332.732 409.52 333.92 410.269 334.962C412.067 337.605 414.708 339.445 417.353 341.154C420.289 343.052 423.369 344.977 425.222 348.04C425.447 348.411 426.01 348.041 425.785 347.671C422.562 342.342 416.073 340.563 412.004 336.075C410.105 333.981 408.826 331.303 409.309 328.426C409.731 325.91 411.19 323.724 412.359 321.507C413.626 319.249 414.321 316.715 414.383 314.126C414.336 311.408 413.827 308.718 412.878 306.172C410.833 300.404 407.893 294.993 404.167 290.138C399.946 284.574 394.803 279.773 388.962 275.942C388.601 275.705 388.303 276.31 388.663 276.545Z"
            fill="white" />
        <path
            d="M410.647 301.496C412.526 300.47 413.979 298.808 414.747 296.809C415.514 294.81 415.546 292.603 414.837 290.582C414.692 290.174 414.05 290.38 414.196 290.789C414.86 292.669 414.83 294.725 414.111 296.585C413.393 298.446 412.033 299.988 410.277 300.933C409.896 301.139 410.268 301.701 410.647 301.496Z"
            fill="white" />
        <path
            d="M412.63 319.876C408.418 318.681 404.812 315.943 402.529 312.207C402.304 311.837 401.741 312.207 401.966 312.577C404.349 316.46 408.107 319.302 412.493 320.536C412.911 320.653 413.045 319.993 412.63 319.876Z"
            fill="white" />
        <path
            d="M399.504 285.352C398.86 285.901 398.089 286.281 397.262 286.458C396.434 286.636 395.576 286.605 394.763 286.368C394.347 286.245 394.212 286.906 394.626 287.027C395.525 287.285 396.473 287.318 397.388 287.124C398.303 286.93 399.156 286.515 399.874 285.915C399.946 285.864 399.997 285.788 400.015 285.701C400.033 285.614 400.017 285.524 399.971 285.449C399.921 285.374 399.845 285.323 399.757 285.304C399.67 285.286 399.579 285.303 399.504 285.352Z"
            fill="white" />
        <path
            d="M353.156 313.803C353.414 313.887 353.672 313.971 353.931 314.06C357.392 315.206 360.753 316.632 363.983 318.322C364.234 318.449 364.488 318.581 364.735 318.715C372.472 322.871 379.37 328.427 385.079 335.101C387.348 337.758 389.412 340.585 391.252 343.556C393.794 347.659 396.223 352.31 399.864 355.248C400.24 355.558 400.636 355.845 401.048 356.107L425.112 349.659C425.159 349.617 425.208 349.58 425.256 349.538L426.228 349.324C426.144 349.164 426.053 349 425.969 348.84C425.921 348.748 425.867 348.656 425.818 348.563C425.784 348.502 425.75 348.44 425.723 348.383C425.711 348.362 425.7 348.342 425.69 348.327C425.663 348.269 425.632 348.219 425.606 348.167C425.101 347.249 424.589 346.333 424.069 345.419C424.068 345.413 424.068 345.413 424.061 345.409C420.085 338.454 415.492 331.77 410.032 325.995C409.867 325.822 409.702 325.642 409.527 325.472C407.051 322.882 404.367 320.5 401.503 318.348C399.931 317.174 398.301 316.081 396.618 315.073C392.266 312.475 387.532 310.578 382.59 309.452C372.738 307.208 362.278 308.14 353.8 313.395C353.583 313.53 353.372 313.663 353.156 313.803Z"
            fill="#F2F2F2" />
        <path
            d="M353.294 314.094C365.914 313.263 378.476 316.429 389.194 323.144C391.528 324.548 393.625 326.312 395.409 328.369C397.082 330.43 398.172 332.901 398.568 335.525C398.985 337.965 399.13 340.509 400.133 342.805C400.664 343.972 401.436 345.015 402.398 345.863C403.36 346.711 404.491 347.347 405.716 347.727C408.743 348.755 411.959 348.635 415.1 348.407C418.587 348.154 422.206 347.837 425.529 349.167C425.932 349.328 426.158 348.694 425.756 348.533C419.974 346.219 413.722 348.705 407.771 347.572C404.994 347.043 402.36 345.675 401.014 343.087C399.836 340.824 399.685 338.2 399.284 335.726C398.936 333.16 397.965 330.719 396.456 328.614C394.782 326.473 392.756 324.631 390.465 323.169C385.359 319.795 379.755 317.245 373.857 315.612C367.136 313.711 360.139 312.973 353.17 313.432C352.738 313.46 352.865 314.122 353.294 314.094Z"
            fill="white" />
        <path
            d="M385.871 320.779C386.753 318.827 386.914 316.626 386.323 314.568C385.732 312.509 384.429 310.728 382.646 309.542C382.284 309.303 381.896 309.854 382.258 310.093C383.92 311.194 385.134 312.854 385.681 314.772C386.227 316.689 386.07 318.739 385.237 320.552C385.057 320.946 385.692 321.17 385.871 320.779Z"
            fill="white" />
        <path
            d="M398.519 334.261C394.437 335.842 389.908 335.827 385.837 334.218C385.434 334.058 385.207 334.693 385.61 334.852C389.85 336.518 394.562 336.525 398.806 334.869C399.211 334.711 398.921 334.103 398.519 334.261Z"
            fill="white" />
        <path
            d="M367.253 314.596C367.069 315.422 366.682 316.19 366.128 316.83C365.574 317.469 364.87 317.962 364.079 318.262C363.672 318.415 363.963 319.023 364.366 318.871C365.239 318.535 366.016 317.99 366.63 317.285C367.243 316.579 367.675 315.734 367.887 314.823C367.914 314.739 367.908 314.648 367.87 314.568C367.832 314.488 367.765 314.425 367.683 314.393C367.599 314.363 367.507 314.368 367.426 314.406C367.345 314.444 367.283 314.512 367.253 314.596Z"
            fill="white" />
        <path
            d="M311.177 351.625C314.304 351.625 316.839 349.091 316.839 345.964C316.839 342.837 314.304 340.302 311.177 340.302C308.05 340.302 305.516 342.837 305.516 345.964C305.516 349.091 308.05 351.625 311.177 351.625Z"
            fill="#FD6584" />
        <path
            d="M331.232 255.198C334.359 255.198 336.893 252.663 336.893 249.536C336.893 246.409 334.359 243.875 331.232 243.875C328.105 243.875 325.57 246.409 325.57 249.536C325.57 252.663 328.105 255.198 331.232 255.198Z"
            fill="#E6E6E6" />
        <path
            d="M225.884 98.1583C229.011 98.1583 231.546 95.6236 231.546 92.4968C231.546 89.3701 229.011 86.8353 225.884 86.8353C222.757 86.8353 220.223 89.3701 220.223 92.4968C220.223 95.6236 222.757 98.1583 225.884 98.1583Z"
            fill="#E6E6E6" />
        <path
            d="M107.242 309.671C107.242 311.112 107.29 312.554 107.391 313.983C107.497 315.691 107.681 317.387 107.93 319.071C108.767 324.743 110.367 330.275 112.687 335.517C112.805 335.778 112.924 336.039 113.043 336.3L113.22 336.692C113.28 336.822 113.345 336.953 113.404 337.077C113.487 337.249 113.564 337.415 113.647 337.581C113.748 337.789 113.849 337.996 113.956 338.204C113.968 338.228 113.98 338.257 113.997 338.287C114.086 338.465 114.169 338.637 114.264 338.815C114.282 338.854 114.301 338.891 114.324 338.928C114.424 339.129 114.531 339.337 114.638 339.538C114.757 339.752 114.869 339.971 114.988 340.185C115.272 340.713 115.569 341.235 115.871 341.757C115.96 341.911 116.049 342.065 116.144 342.219C116.227 342.362 116.31 342.504 116.399 342.646C116.459 342.741 116.518 342.842 116.577 342.937C116.672 343.097 116.767 343.251 116.868 343.411C117.087 343.761 117.313 344.111 117.532 344.461H117.538C117.639 344.621 117.746 344.781 117.852 344.935V344.941C118.167 345.416 118.493 345.89 118.819 346.359L118.821 346.359L118.823 346.361L118.825 346.362L118.825 346.365C119.086 346.744 119.359 347.112 119.626 347.48V347.486C119.804 347.717 119.976 347.954 120.153 348.185C120.296 348.375 120.444 348.571 120.592 348.761C120.622 348.802 120.658 348.838 120.687 348.879V348.885C120.729 348.939 120.77 348.986 120.812 349.04C121.44 349.846 122.089 350.635 122.757 351.406L122.864 351.53C122.899 351.572 122.941 351.613 122.977 351.661C123.036 351.726 123.089 351.791 123.148 351.857C123.202 351.922 123.261 351.987 123.32 352.052C126.804 355.976 130.753 359.459 135.081 362.425C135.656 362.823 136.244 363.208 136.831 363.582C136.979 363.677 137.127 363.771 137.276 363.86C137.317 363.89 137.364 363.92 137.406 363.949C137.489 363.997 137.566 364.044 137.649 364.098C137.726 364.145 137.803 364.193 137.886 364.24C138.201 364.436 138.521 364.625 138.841 364.815C138.918 364.863 139.001 364.91 139.084 364.958C139.162 364.999 139.245 365.047 139.328 365.094C139.328 365.1 139.328 365.1 139.333 365.1H139.339V365.106H139.345C139.743 365.337 140.146 365.563 140.555 365.782C140.775 365.901 141 366.025 141.225 366.138C141.735 366.417 142.251 366.683 142.767 366.938C142.951 367.027 143.141 367.116 143.325 367.211C143.479 367.282 143.633 367.36 143.787 367.431C143.835 367.454 143.876 367.472 143.918 367.496C144.048 367.555 144.173 367.615 144.303 367.674C144.446 367.739 144.588 367.804 144.725 367.87C144.885 367.941 145.039 368.012 145.199 368.077C145.792 368.344 146.391 368.599 146.99 368.842C149.137 369.722 151.331 370.483 153.561 371.12C153.662 371.149 153.769 371.179 153.876 371.209C154.831 371.476 155.791 371.719 156.758 371.938C158.448 372.33 160.154 372.65 161.876 372.899H161.888C162.096 372.929 162.297 372.958 162.505 372.988C162.523 372.988 162.541 372.994 162.564 372.994C162.564 373 162.564 373 162.57 372.994C162.796 373.023 163.027 373.053 163.252 373.083C163.268 373.087 163.284 373.089 163.3 373.089C163.513 373.118 163.733 373.142 163.946 373.166C164.177 373.189 164.409 373.213 164.64 373.237C164.818 373.255 164.996 373.273 165.174 373.29C165.189 373.296 165.205 373.298 165.221 373.296C165.381 373.308 165.541 373.326 165.702 373.338H165.725C165.862 373.35 166.004 373.362 166.14 373.373C167.795 373.504 169.456 373.563 171.14 373.563C172.961 373.563 174.77 373.492 176.555 373.338H176.573C176.958 373.302 177.338 373.267 177.717 373.231C177.818 373.219 177.913 373.213 178.014 373.201C178.032 373.201 178.055 373.195 178.073 373.195C178.103 373.19 178.132 373.19 178.168 373.184C178.184 373.184 178.2 373.182 178.215 373.178C178.346 373.166 178.476 373.148 178.613 373.136L179.058 373.083C179.206 373.065 179.354 373.041 179.502 373.023C179.538 373.018 179.568 373.018 179.603 373.012C179.71 373 179.817 372.982 179.924 372.964C179.977 372.958 180.03 372.952 180.078 372.946C180.184 372.929 180.285 372.917 180.392 372.899H180.398C183.652 372.43 186.865 371.707 190.006 370.734C190.172 370.681 190.338 370.633 190.504 370.58C190.51 370.58 190.516 370.574 190.522 370.574C190.569 370.556 190.623 370.544 190.67 370.527C191.115 370.384 191.554 370.236 191.993 370.082C192.598 369.88 193.197 369.661 193.796 369.435C193.956 369.37 194.116 369.311 194.276 369.246C194.602 369.121 194.922 368.991 195.243 368.86C195.788 368.641 196.334 368.409 196.874 368.172C197.378 367.947 197.876 367.721 198.374 367.484C198.386 367.478 198.404 367.478 198.416 367.466C198.528 367.413 198.641 367.36 198.748 367.306H198.754C201.485 365.995 204.119 364.491 206.636 362.805C207.442 362.265 208.237 361.708 209.02 361.132C209.648 360.664 210.265 360.189 210.882 359.703C213.925 357.283 216.742 354.591 219.298 351.661V351.655C219.482 351.453 219.654 351.246 219.832 351.038C219.861 351.009 219.885 350.979 219.909 350.955C220.021 350.819 220.128 350.688 220.241 350.558V350.552C220.389 350.38 220.537 350.202 220.68 350.024C220.715 349.983 220.745 349.947 220.775 349.911V349.905C220.893 349.763 221.006 349.621 221.124 349.472C221.184 349.401 221.237 349.33 221.296 349.259V349.253C221.646 348.814 221.984 348.375 222.322 347.925C222.411 347.806 222.5 347.681 222.595 347.557C223.022 346.982 223.437 346.394 223.841 345.807V345.801C223.995 345.582 224.143 345.357 224.297 345.137C224.446 344.912 224.594 344.686 224.742 344.461C224.89 344.224 225.045 343.993 225.193 343.755L225.211 343.72C225.359 343.494 225.507 343.257 225.65 343.026C225.762 342.836 225.875 342.652 225.988 342.468C226.059 342.344 226.136 342.219 226.207 342.089C226.235 342.049 226.261 342.007 226.284 341.964C226.45 341.674 226.616 341.383 226.782 341.092C226.978 340.754 227.168 340.41 227.358 340.066C227.429 339.924 227.506 339.782 227.583 339.639C227.613 339.592 227.636 339.544 227.66 339.497C227.749 339.331 227.838 339.159 227.921 338.987C228.01 338.821 228.099 338.649 228.188 338.477C228.271 338.311 228.36 338.139 228.443 337.967C228.508 337.836 228.568 337.706 228.633 337.575C228.637 337.565 228.643 337.555 228.651 337.546C228.68 337.481 228.71 337.421 228.734 337.362C228.741 337.353 228.747 337.343 228.751 337.332C228.817 337.202 228.876 337.065 228.941 336.935C229.024 336.763 229.101 336.585 229.184 336.413C229.238 336.294 229.297 336.17 229.35 336.045C229.427 335.873 229.511 335.701 229.582 335.523C229.665 335.345 229.742 335.168 229.819 334.984C229.841 334.939 229.861 334.894 229.878 334.847C229.92 334.764 229.949 334.681 229.985 334.598C230.08 334.379 230.175 334.153 230.264 333.934C230.37 333.685 230.471 333.43 230.566 333.181C230.661 332.949 230.75 332.712 230.839 332.475L230.875 332.392C232.256 328.752 233.305 324.995 234.006 321.165V321.159C234.402 318.973 234.685 316.768 234.854 314.552C234.86 314.428 234.872 314.309 234.878 314.191C234.985 312.69 235.032 311.184 235.032 309.671C235.032 309.001 235.02 308.337 235.002 307.673C234.588 293.781 229.635 280.407 220.899 269.597C220.709 269.36 220.519 269.123 220.324 268.886C220.128 268.648 219.926 268.417 219.731 268.186C213.229 260.572 205.03 254.592 195.793 250.729C186.557 246.865 176.542 245.226 166.555 245.944C156.569 246.661 146.891 249.715 138.302 254.859C129.712 260.003 122.452 267.093 117.105 275.558C116.814 276.02 116.524 276.489 116.245 276.957C115.96 277.432 115.688 277.906 115.415 278.387C110.042 287.937 107.227 298.713 107.242 309.671Z"
            fill="#F2F2F2" />
        <path
            d="M168.602 267.879C179.109 270.575 189.876 272.129 200.716 272.515C202.355 272.604 203.998 272.593 205.636 272.481C209.235 272.178 212.319 271.047 215.752 270.429C217.403 270.132 219.242 269.916 220.904 269.596C220.52 269.119 220.129 268.649 219.731 268.184C216.147 268.487 212.508 269.478 208.882 269.938C202.717 270.722 195.81 269.847 191.137 267.69C188.869 266.643 187.132 265.336 184.873 264.285C184.566 264.127 184.233 264.025 183.89 263.984C183.239 263.964 182.595 264.131 182.035 264.465C178.245 266.379 172.741 267.934 167.633 267.078C167.252 267.376 167.976 267.715 168.602 267.879Z"
            fill="white" />
        <path
            d="M145.996 274.614C145.949 274.605 145.902 274.599 145.855 274.591C146.052 274.469 146.236 274.33 146.408 274.175L145.996 274.614Z"
            fill="white" />
        <path
            d="M115.418 278.389C117.551 278.56 119.696 278.687 121.852 278.77C123.491 278.858 125.134 278.847 126.772 278.737C130.372 278.432 133.455 277.302 136.888 276.684C140.035 276.119 143.859 275.846 145.857 274.591C140.693 273.697 135.343 275.516 130.018 276.193C125.711 276.723 121.344 276.508 117.11 275.556C116.521 276.484 115.957 277.428 115.418 278.389Z"
            fill="white" />
        <path
            d="M141.227 366.138C141.737 366.417 142.253 366.683 142.769 366.939C142.952 367.027 143.142 367.116 143.326 367.211C143.48 367.283 143.634 367.36 143.789 367.431C143.836 367.454 143.878 367.472 143.919 367.496C144.05 367.555 144.174 367.615 144.305 367.674C144.447 367.739 144.589 367.804 144.726 367.87C144.886 367.941 145.04 368.012 145.2 368.077C145.793 368.344 146.392 368.599 146.991 368.842C149.138 369.722 151.332 370.483 153.563 371.12C153.663 371.149 153.77 371.179 153.877 371.209C154.832 371.476 155.793 371.719 156.759 371.938C158.449 372.33 160.156 372.65 161.877 372.899H161.889C162.097 372.929 162.299 372.958 162.506 372.988C162.524 372.988 162.542 372.994 162.565 372.994C162.565 373 162.565 373 162.571 372.994C162.797 373.023 163.028 373.053 163.253 373.083C163.269 373.087 163.285 373.089 163.301 373.089C163.514 373.118 163.734 373.142 163.947 373.166C164.179 373.19 164.41 373.213 164.641 373.237C164.819 373.255 164.997 373.273 165.175 373.29C165.19 373.296 165.206 373.298 165.222 373.296C165.383 373.308 165.543 373.326 165.703 373.338H165.727C165.863 373.35 166.005 373.362 166.142 373.373C167.796 373.504 169.457 373.563 171.141 373.563C172.962 373.563 174.771 373.492 176.556 373.338H176.574C176.959 373.302 177.339 373.267 177.718 373.231C177.819 373.219 177.914 373.213 178.015 373.201C178.033 373.201 178.057 373.195 178.074 373.195C178.104 373.19 178.134 373.19 178.169 373.184C178.185 373.184 178.201 373.182 178.217 373.178C178.347 373.166 178.478 373.148 178.614 373.136L179.059 373.083C179.207 373.065 179.355 373.041 179.504 373.023C179.539 373.018 179.569 373.018 179.604 373.012C179.711 373 179.818 372.982 179.925 372.964C179.978 372.958 180.031 372.952 180.079 372.946C180.186 372.929 180.286 372.917 180.393 372.899H180.399C183.654 372.43 186.866 371.707 190.007 370.734C190.173 370.681 190.339 370.633 190.505 370.58C189.739 367.009 188.163 363.661 185.897 360.796C183.632 357.931 180.738 355.626 177.44 354.057C178.256 353.28 178.82 352.276 179.059 351.175C179.213 350.465 179.225 349.732 179.095 349.017C178.964 348.303 178.694 347.621 178.3 347.011C177.53 345.83 176.323 345.002 174.943 344.71L166.154 342.872C164.739 342.596 163.272 342.89 162.073 343.689C160.873 344.489 160.038 345.73 159.748 347.142C159.659 347.575 159.619 348.016 159.63 348.458C151.167 354.093 145.076 359.934 141.227 366.138Z"
            fill="#CD9DFF" />
        <path
            d="M167.179 339.4C177.292 339.4 185.49 331.202 185.49 321.089C185.49 310.975 177.292 302.777 167.179 302.777C157.066 302.777 148.867 310.975 148.867 321.089C148.867 331.202 157.066 339.4 167.179 339.4Z"
            fill="#FFB8B8" />
        <path
            d="M155.764 336.876C153.812 335.542 151.817 332.979 150.486 331.058C148.722 328.533 147.508 325.665 146.923 322.641C146.339 319.616 146.396 316.503 147.091 313.502C147.313 312.302 147.858 311.186 148.667 310.273C149.53 309.419 150.938 309.015 151.991 309.618C151.704 308.849 151.577 308.029 151.619 307.209C151.661 306.389 151.871 305.586 152.235 304.85C152.975 303.381 154.047 302.104 155.366 301.121C157.889 299.178 160.891 297.955 164.053 297.58C167.215 297.206 170.42 297.695 173.326 298.995C174.47 299.525 172.592 295.431 173.789 295.826C174.978 296.286 176.3 296.263 177.473 295.761C178.599 295.194 182.331 298.562 181.899 297.378C182.754 297.766 183.496 298.364 184.057 299.116C184.619 299.868 184.98 300.75 185.109 301.68C185.237 302.609 185.129 303.556 184.793 304.432C184.457 305.309 183.904 306.086 183.187 306.691C182.242 307.489 181.062 307.948 180.027 308.625C178.214 309.901 176.931 311.796 176.42 313.953C175.909 316.11 176.205 318.379 177.252 320.333C176.164 319.633 174.969 319.114 173.715 318.796C173.086 318.642 172.429 318.641 171.799 318.792C171.169 318.944 170.585 319.244 170.094 319.666C169.685 320.136 169.375 320.684 169.184 321.277C168.994 321.87 168.927 322.496 168.987 323.116C169.028 324.358 169.324 325.583 169.357 326.825C169.454 330.472 171.407 337.406 168.58 339.344C166.348 340.874 158.43 338.697 155.764 336.876Z"
            fill="#2F2E41" />
        <path
            d="M479.399 22.1215H0.601002C0.44039 22.118 0.287558 22.0517 0.175227 21.9368C0.0628968 21.822 0 21.6677 0 21.5071C0 21.3464 0.0628968 21.1921 0.175227 21.0773C0.287558 20.9624 0.44039 20.8961 0.601002 20.8926H479.399C479.559 20.8961 479.712 20.9624 479.825 21.0773C479.937 21.1921 480 21.3464 480 21.5071C480 21.6677 479.937 21.822 479.825 21.9368C479.712 22.0517 479.559 22.118 479.399 22.1215Z"
            fill="#CACACA" />
        <path
            d="M14.1315 13.5187C17.7833 13.5187 20.7436 10.4925 20.7436 6.75937C20.7436 3.02627 17.7833 0 14.1315 0C10.4798 0 7.51953 3.02627 7.51953 6.75937C7.51953 10.4925 10.4798 13.5187 14.1315 13.5187Z"
            fill="#3F3D56" />
        <path
            d="M36.9714 13.5187C40.6231 13.5187 43.5834 10.4925 43.5834 6.75937C43.5834 3.02627 40.6231 0 36.9714 0C33.3197 0 30.3594 3.02627 30.3594 6.75937C30.3594 10.4925 33.3197 13.5187 36.9714 13.5187Z"
            fill="#3F3D56" />
        <path
            d="M59.8151 13.5187C63.4669 13.5187 66.4272 10.4925 66.4272 6.75937C66.4272 3.02627 63.4669 0 59.8151 0C56.1634 0 53.2031 3.02627 53.2031 6.75937C53.2031 10.4925 56.1634 13.5187 59.8151 13.5187Z"
            fill="#3F3D56" />
        <path
            d="M465.713 4.13447H449.483C449.162 4.12737 448.856 3.99478 448.632 3.76507C448.407 3.53536 448.281 3.22681 448.281 2.90549C448.281 2.58416 448.407 2.27561 448.632 2.04591C448.856 1.8162 449.162 1.68361 449.483 1.67651H465.713C466.034 1.68361 466.34 1.8162 466.565 2.04591C466.789 2.27561 466.915 2.58416 466.915 2.90549C466.915 3.22681 466.789 3.53536 466.565 3.76507C466.34 3.99478 466.034 4.12737 465.713 4.13447Z"
            fill="#3F3D56" />
        <path
            d="M465.713 8.74311H449.484C449.162 8.73605 448.857 8.60347 448.632 8.37376C448.407 8.14405 448.281 7.83548 448.281 7.51413C448.281 7.19278 448.407 6.88422 448.632 6.65451C448.857 6.4248 449.162 6.29221 449.484 6.28516H465.713C466.034 6.29221 466.34 6.4248 466.565 6.65451C466.789 6.88422 466.915 7.19278 466.915 7.51413C466.915 7.83548 466.789 8.14405 466.565 8.37376C466.34 8.60347 466.034 8.73605 465.713 8.74311Z"
            fill="#3F3D56" />
        <path
            d="M465.713 13.3518H449.484C449.162 13.3447 448.857 13.2121 448.632 12.9824C448.407 12.7527 448.281 12.4441 448.281 12.1228C448.281 11.8014 448.407 11.4929 448.632 11.2631C448.857 11.0334 449.162 10.9009 449.484 10.8938H465.713C466.034 10.9009 466.34 11.0334 466.565 11.2631C466.789 11.4929 466.915 11.8014 466.915 12.1228C466.915 12.4441 466.789 12.7527 466.565 12.9824C466.34 13.2121 466.034 13.3447 465.713 13.3518Z"
            fill="#3F3D56" />
        <path
            d="M179.767 229.434C179.382 229.434 179 229.356 178.644 229.207C178.114 228.994 177.659 228.626 177.342 228.15C177.024 227.674 176.857 227.114 176.863 226.541V223.643C176.862 223.035 176.62 222.452 176.191 222.022C175.761 221.592 175.178 221.35 174.57 221.35C173.805 221.349 173.071 221.045 172.53 220.503C171.989 219.962 171.684 219.229 171.684 218.463V178.754C171.684 177.989 171.989 177.255 172.53 176.714C173.071 176.173 173.804 175.869 174.57 175.868H306.129C306.895 175.869 307.628 176.173 308.169 176.714C308.71 177.255 309.015 177.989 309.016 178.754V218.463C309.015 219.229 308.71 219.962 308.169 220.503C307.628 221.045 306.895 221.349 306.129 221.35H189.972C189.671 221.349 189.373 221.408 189.094 221.523C188.816 221.638 188.563 221.808 188.351 222.021L181.79 228.582C181.526 228.851 181.212 229.065 180.864 229.211C180.517 229.357 180.144 229.433 179.767 229.434Z"
            fill="white" />
        <path
            d="M179.771 230.027C179.307 230.027 178.848 229.934 178.42 229.755C177.78 229.498 177.233 229.054 176.85 228.48C176.467 227.907 176.266 227.231 176.273 226.541V223.643C176.273 223.192 176.093 222.76 175.775 222.441C175.456 222.123 175.024 221.943 174.573 221.943C173.651 221.942 172.766 221.575 172.114 220.922C171.462 220.27 171.095 219.386 171.094 218.463V178.754C171.095 177.832 171.462 176.947 172.114 176.295C172.766 175.643 173.65 175.276 174.573 175.275H306.133C307.055 175.276 307.939 175.643 308.592 176.295C309.244 176.947 309.611 177.832 309.612 178.754V218.463C309.611 219.386 309.244 220.27 308.592 220.922C307.94 221.575 307.055 221.942 306.133 221.943H189.976C189.752 221.942 189.531 221.986 189.325 222.071C189.118 222.157 188.931 222.282 188.773 222.441L182.213 229.001C181.894 229.325 181.514 229.583 181.095 229.759C180.675 229.935 180.225 230.026 179.771 230.027ZM174.573 176.461C173.965 176.462 173.382 176.703 172.952 177.133C172.522 177.563 172.281 178.146 172.28 178.754V218.463C172.28 219.071 172.522 219.654 172.952 220.084C173.382 220.514 173.965 220.756 174.573 220.757C175.338 220.758 176.072 221.062 176.613 221.603C177.154 222.144 177.458 222.878 177.459 223.643V226.541C177.459 226.995 177.594 227.438 177.846 227.815C178.098 228.192 178.456 228.486 178.875 228.66C179.294 228.833 179.755 228.879 180.2 228.79C180.645 228.702 181.053 228.483 181.374 228.163L187.935 221.602C188.202 221.333 188.52 221.12 188.87 220.975C189.221 220.83 189.596 220.756 189.976 220.757H306.133C306.741 220.756 307.324 220.514 307.754 220.084C308.183 219.654 308.425 219.071 308.426 218.463V178.754C308.425 178.146 308.183 177.563 307.753 177.133C307.324 176.703 306.741 176.461 306.133 176.461L174.573 176.461Z"
            fill="#3F3D56" />
        <path
            d="M294.827 193.845H188.146C187.738 193.845 187.348 193.683 187.059 193.395C186.771 193.107 186.609 192.716 186.609 192.309C186.609 191.901 186.771 191.51 187.059 191.222C187.348 190.934 187.738 190.772 188.146 190.772H294.827C295.235 190.772 295.626 190.934 295.914 191.222C296.202 191.51 296.364 191.901 296.364 192.309C296.364 192.716 296.202 193.107 295.914 193.395C295.626 193.683 295.235 193.845 294.827 193.845Z"
            fill="#CD9DFF" />
        <path
            d="M294.631 200.373H188.146C187.738 200.373 187.348 200.211 187.059 199.923C186.771 199.635 186.609 199.244 186.609 198.837C186.609 198.429 186.771 198.038 187.059 197.75C187.348 197.462 187.738 197.3 188.146 197.3H294.631C295.039 197.3 295.43 197.462 295.718 197.75C296.006 198.038 296.168 198.429 296.168 198.837C296.168 199.244 296.006 199.635 295.718 199.923C295.43 200.211 295.039 200.373 294.631 200.373Z"
            fill="#E6E6E6" />
        <path
            d="M294.525 206.901H188.146C187.738 206.901 187.348 206.739 187.059 206.451C186.771 206.163 186.609 205.772 186.609 205.364C186.609 204.957 186.771 204.566 187.059 204.278C187.348 203.99 187.738 203.828 188.146 203.828H294.525C294.933 203.828 295.324 203.99 295.612 204.278C295.9 204.566 296.062 204.957 296.062 205.364C296.062 205.772 295.9 206.163 295.612 206.451C295.324 206.739 294.933 206.901 294.525 206.901Z"
            fill="#E6E6E6" />
        <path
            d="M462.825 169.706C462.825 171.147 462.778 172.588 462.677 174.017C462.57 175.725 462.386 177.422 462.137 179.106C461.3 184.777 459.7 190.309 457.381 195.552C457.262 195.813 457.143 196.074 457.025 196.335L456.847 196.726C456.787 196.857 456.722 196.987 456.663 197.112C456.58 197.284 456.503 197.45 456.42 197.616C456.319 197.823 456.218 198.031 456.111 198.239C456.1 198.262 456.088 198.292 456.07 198.322C455.981 198.499 455.898 198.671 455.803 198.849C455.786 198.888 455.766 198.926 455.744 198.962C455.643 199.164 455.536 199.371 455.429 199.573C455.311 199.786 455.198 200.006 455.079 200.219C454.795 200.747 454.498 201.269 454.196 201.791C454.107 201.945 454.018 202.099 453.923 202.254C453.84 202.396 453.757 202.538 453.668 202.681C453.609 202.776 453.549 202.876 453.49 202.971C453.395 203.131 453.3 203.286 453.199 203.446C452.98 203.796 452.755 204.146 452.535 204.495H452.529C452.428 204.656 452.322 204.816 452.215 204.97V204.976C451.901 205.45 451.574 205.925 451.248 206.393C451.247 206.393 451.247 206.393 451.246 206.394C451.245 206.394 451.244 206.394 451.244 206.395C451.243 206.396 451.243 206.396 451.243 206.397C451.242 206.398 451.242 206.398 451.242 206.399C450.981 206.779 450.708 207.146 450.442 207.514V207.52C450.264 207.751 450.092 207.989 449.914 208.22C449.771 208.41 449.623 208.605 449.475 208.795C449.445 208.837 449.41 208.872 449.38 208.914V208.92C449.338 208.973 449.297 209.021 449.255 209.074C448.627 209.881 447.978 210.669 447.31 211.44L447.203 211.565C447.168 211.606 447.126 211.648 447.091 211.695C447.031 211.761 446.978 211.826 446.919 211.891C446.865 211.956 446.806 212.022 446.747 212.087C443.264 216.01 439.314 219.494 434.986 222.46C434.411 222.857 433.824 223.243 433.236 223.616C433.088 223.711 432.94 223.806 432.792 223.895C432.75 223.925 432.703 223.954 432.661 223.984C432.578 224.031 432.501 224.079 432.418 224.132C432.341 224.18 432.264 224.227 432.181 224.274C431.866 224.47 431.546 224.66 431.226 224.85C431.149 224.897 431.066 224.945 430.983 224.992C430.906 225.034 430.823 225.081 430.74 225.129C430.74 225.134 430.74 225.134 430.734 225.134H430.728V225.14H430.722C430.324 225.372 429.921 225.597 429.512 225.816C429.293 225.935 429.067 226.06 428.842 226.172C428.332 226.451 427.816 226.718 427.3 226.973C427.116 227.062 426.926 227.151 426.742 227.246C426.588 227.317 426.434 227.394 426.28 227.465C426.232 227.489 426.191 227.507 426.149 227.53C426.019 227.59 425.894 227.649 425.764 227.708C425.621 227.774 425.479 227.839 425.343 227.904C425.183 227.975 425.028 228.046 424.868 228.112C424.275 228.379 423.676 228.634 423.077 228.877C420.93 229.757 418.737 230.517 416.506 231.154C416.405 231.184 416.298 231.213 416.191 231.243C415.237 231.51 414.276 231.753 413.309 231.973C411.619 232.364 409.913 232.684 408.191 232.933H408.179C407.971 232.963 407.77 232.993 407.562 233.022C407.544 233.022 407.527 233.028 407.503 233.028C407.503 233.034 407.503 233.034 407.497 233.028C407.272 233.058 407.04 233.088 406.815 233.117C406.8 233.122 406.784 233.124 406.768 233.123C406.554 233.153 406.335 233.177 406.121 233.2C405.89 233.224 405.658 233.248 405.427 233.271C405.249 233.289 405.071 233.307 404.893 233.325C404.878 233.33 404.862 233.332 404.846 233.331C404.686 233.343 404.526 233.36 404.366 233.372H404.342C404.205 233.384 404.063 233.396 403.927 233.408C402.272 233.538 400.611 233.598 398.927 233.598C397.106 233.598 395.297 233.526 393.512 233.372H393.495C393.109 233.337 392.729 233.301 392.35 233.265C392.249 233.254 392.154 233.248 392.053 233.236C392.036 233.236 392.012 233.23 391.994 233.23C391.964 233.224 391.935 233.224 391.899 233.218C391.883 233.219 391.867 233.217 391.852 233.212C391.721 233.2 391.591 233.182 391.454 233.171L391.01 233.117C390.861 233.099 390.713 233.076 390.565 233.058C390.529 233.052 390.499 233.052 390.464 233.046C390.357 233.034 390.25 233.016 390.144 232.999C390.09 232.993 390.037 232.987 389.989 232.981C389.883 232.963 389.782 232.951 389.675 232.933H389.669C386.415 232.465 383.202 231.741 380.061 230.769C379.895 230.715 379.729 230.668 379.563 230.614C379.557 230.614 379.551 230.609 379.545 230.609C379.498 230.591 379.445 230.579 379.397 230.561C378.952 230.419 378.513 230.27 378.075 230.116C377.47 229.915 376.871 229.695 376.272 229.47C376.112 229.405 375.951 229.345 375.791 229.28C375.465 229.156 375.145 229.025 374.825 228.895C374.279 228.675 373.733 228.444 373.194 228.207C372.689 227.981 372.191 227.756 371.693 227.519C371.681 227.513 371.663 227.513 371.652 227.501C371.539 227.447 371.426 227.394 371.319 227.341H371.314C368.582 226.03 365.948 224.526 363.432 222.839C362.625 222.3 361.83 221.742 361.047 221.167C360.419 220.698 359.802 220.224 359.185 219.737C356.142 217.317 353.325 214.625 350.769 211.695V211.689C350.586 211.488 350.414 211.28 350.236 211.073C350.206 211.043 350.182 211.013 350.159 210.99C350.046 210.853 349.939 210.723 349.826 210.592V210.586C349.678 210.414 349.53 210.236 349.388 210.059C349.352 210.017 349.322 209.981 349.293 209.946V209.94C349.174 209.798 349.061 209.655 348.943 209.507C348.883 209.436 348.83 209.365 348.771 209.293V209.287C348.421 208.849 348.083 208.41 347.745 207.959C347.656 207.84 347.567 207.716 347.472 207.591C347.045 207.016 346.63 206.429 346.226 205.842V205.836C346.072 205.616 345.924 205.391 345.77 205.172C345.622 204.946 345.473 204.721 345.325 204.495C345.177 204.258 345.023 204.027 344.874 203.79L344.856 203.754C344.708 203.529 344.56 203.292 344.418 203.06C344.305 202.87 344.192 202.687 344.08 202.503C344.008 202.378 343.931 202.254 343.86 202.123C343.832 202.083 343.807 202.041 343.783 201.999C343.617 201.708 343.451 201.417 343.285 201.127C343.089 200.789 342.899 200.445 342.71 200.101C342.638 199.958 342.561 199.816 342.484 199.674C342.455 199.626 342.431 199.579 342.407 199.531C342.318 199.365 342.229 199.193 342.146 199.021C342.057 198.855 341.968 198.683 341.879 198.511C341.796 198.345 341.707 198.173 341.624 198.001C341.559 197.871 341.5 197.74 341.434 197.61C341.43 197.599 341.424 197.589 341.417 197.58C341.387 197.515 341.357 197.456 341.334 197.396C341.326 197.387 341.32 197.377 341.316 197.367C341.251 197.236 341.191 197.1 341.126 196.969C341.043 196.797 340.966 196.619 340.883 196.447C340.829 196.329 340.77 196.204 340.717 196.08C340.64 195.908 340.557 195.736 340.486 195.558C340.402 195.38 340.325 195.202 340.248 195.018C340.226 194.974 340.206 194.928 340.189 194.882C340.147 194.799 340.118 194.716 340.082 194.633C339.987 194.413 339.892 194.188 339.803 193.968C339.697 193.719 339.596 193.464 339.501 193.215C339.406 192.984 339.317 192.747 339.228 192.509L339.193 192.426C337.811 188.787 336.763 185.029 336.061 181.2V181.194C335.666 179.007 335.382 176.802 335.213 174.587C335.207 174.462 335.195 174.344 335.189 174.225C335.083 172.724 335.035 171.218 335.035 169.706C335.035 169.036 335.047 168.371 335.065 167.707C335.479 153.815 340.433 140.441 349.168 129.632C349.358 129.394 349.548 129.157 349.743 128.92C349.939 128.683 350.141 128.451 350.336 128.22C356.838 120.606 365.037 114.627 374.274 110.763C383.511 106.9 393.526 105.261 403.512 105.978C413.498 106.695 423.176 109.749 431.765 114.893C440.355 120.037 447.616 127.127 452.962 135.592C453.253 136.055 453.543 136.523 453.822 136.992C454.107 137.466 454.38 137.941 454.652 138.421C460.025 147.971 462.84 158.748 462.825 169.706Z"
            fill="#F2F2F2" />
        <path
            d="M401.47 127.914C390.963 130.61 380.196 132.164 369.356 132.549C367.716 132.638 366.073 132.627 364.435 132.515C360.836 132.213 357.753 131.081 354.319 130.463C352.669 130.167 350.83 129.95 349.168 129.63C349.552 129.153 349.943 128.683 350.341 128.218C353.924 128.521 357.563 129.512 361.19 129.972C367.354 130.756 374.262 129.882 378.935 127.724C381.202 126.677 382.939 125.371 385.198 124.319C385.506 124.162 385.839 124.06 386.181 124.018C386.833 123.999 387.476 124.166 388.036 124.499C391.827 126.413 397.33 127.968 402.438 127.112C402.819 127.41 402.096 127.75 401.47 127.914Z"
            fill="white" />
        <path
            d="M424.072 134.648C424.119 134.64 424.166 134.633 424.212 134.625C424.016 134.503 423.831 134.364 423.66 134.209L424.072 134.648Z"
            fill="white" />
        <path
            d="M454.654 138.424C452.521 138.594 450.376 138.721 448.22 138.804C446.581 138.893 444.938 138.882 443.3 138.771C439.701 138.467 436.617 137.337 433.184 136.719C430.037 136.153 426.213 135.881 424.215 134.625C429.379 133.731 434.729 135.551 440.054 136.228C444.362 136.758 448.728 136.542 452.962 135.591C453.552 136.518 454.116 137.462 454.654 138.424Z"
            fill="white" />
        <path
            d="M391.726 197.664C402.325 197.664 410.917 188.88 410.917 178.045C410.917 167.21 402.325 158.427 391.726 158.427C381.127 158.427 372.535 167.21 372.535 178.045C372.535 188.88 381.127 197.664 391.726 197.664Z"
            fill="#FFB6B6" />
        <path
            d="M428.845 226.172C428.335 226.451 427.819 226.718 427.303 226.973C427.119 227.062 426.929 227.151 426.746 227.246C426.591 227.317 426.437 227.394 426.283 227.465C426.235 227.489 426.194 227.507 426.152 227.53C426.022 227.59 425.897 227.649 425.767 227.708C425.625 227.774 425.482 227.839 425.346 227.904C425.186 227.975 425.032 228.046 424.871 228.112C424.278 228.379 423.679 228.634 423.08 228.877C420.934 229.757 418.74 230.517 416.509 231.154C416.408 231.184 416.301 231.213 416.195 231.243C415.24 231.51 414.279 231.753 413.312 231.973C411.622 232.364 409.916 232.684 408.194 232.933H408.182C407.975 232.963 407.773 232.993 407.565 233.022C407.548 233.022 407.53 233.028 407.506 233.028C407.506 233.034 407.506 233.034 407.5 233.028C407.275 233.058 407.044 233.088 406.818 233.117C406.803 233.122 406.787 233.124 406.771 233.123C406.557 233.153 406.338 233.177 406.124 233.2C405.893 233.224 405.662 233.248 405.43 233.271C405.252 233.289 405.075 233.307 404.897 233.325C404.881 233.33 404.865 233.332 404.849 233.331C404.689 233.343 404.529 233.36 404.369 233.372H404.345C404.209 233.384 404.066 233.396 403.93 233.408C402.275 233.538 400.615 233.598 398.93 233.598C397.11 233.598 395.301 233.526 393.516 233.372H393.498C393.112 233.337 392.733 233.301 392.353 233.265C392.252 233.254 392.157 233.248 392.057 233.236C392.039 233.236 392.015 233.23 391.997 233.23C391.968 233.224 391.938 233.224 391.902 233.218C391.886 233.219 391.87 233.217 391.855 233.212C391.724 233.2 391.594 233.182 391.458 233.171L391.013 233.117C390.864 233.099 390.716 233.076 390.568 233.058C390.532 233.052 390.503 233.052 390.467 233.046C390.36 233.034 390.254 233.016 390.147 232.999C390.093 232.993 390.04 232.987 389.993 232.981C389.886 232.963 389.785 232.951 389.678 232.933H389.672C386.418 232.465 383.205 231.741 380.065 230.769C379.899 230.715 379.732 230.668 379.566 230.614C380.332 227.043 381.909 223.696 384.174 220.831C386.44 217.966 389.333 215.66 392.632 214.091C391.816 213.314 391.252 212.31 391.013 211.209C390.859 210.499 390.847 209.766 390.977 209.052C391.107 208.337 391.377 207.655 391.772 207.046C392.541 205.864 393.749 205.036 395.129 204.745L403.918 202.906C405.333 202.63 406.8 202.924 407.999 203.724C409.198 204.523 410.034 205.764 410.323 207.176C410.413 207.609 410.453 208.051 410.442 208.493C418.905 214.127 424.996 219.969 428.845 226.172Z"
            fill="#CD9DFF" />
        <path
            d="M443.078 169.537C439.816 165.733 438.265 160.686 435.657 156.366C433.049 152.046 428.511 148.18 423.717 149.185C420.412 149.878 417.858 152.794 416.565 156.046C415.272 159.297 415.03 162.882 414.803 166.395C414.883 159.177 410.128 152.179 403.577 149.875C397.026 147.572 389.186 150.141 385.07 155.941C383.273 154.276 380.929 153.328 378.48 153.276C376.031 153.225 373.649 154.074 371.784 155.662C368.102 158.952 367.287 165.216 369.995 169.414C372.703 173.611 378.567 175.175 382.87 172.847L384.392 174.246C383.535 177.241 385.196 180.779 387.988 181.907C390.251 182.821 393.447 182.669 394.294 185.044C394.886 186.704 393.78 188.476 392.603 189.752C391.426 191.027 390.029 192.344 389.887 194.109C389.674 196.772 392.426 198.638 394.928 199.2C400.96 200.555 407.654 197.761 411.13 192.438C411.197 192.335 411.27 192.232 411.349 192.129C413.3 189.635 414.721 186.768 415.527 183.706C416.333 180.643 416.505 177.449 416.035 174.317C415.839 173.087 416.036 172.171 416.884 171.88C420.551 170.621 430.824 173.264 433.933 175.653C437.043 178.042 439.532 181.204 442.527 183.747C445.522 186.291 449.338 188.252 453.141 187.56C456.186 187.005 458.777 184.794 460.52 182.127C462.262 179.46 463.265 176.352 464.163 173.262C457.429 177.153 448.212 175.524 443.078 169.537Z"
            fill="#2F2E41" />
        <path
            d="M49.1212 129.97C49.1212 131.411 49.1686 132.852 49.2694 134.281C49.3762 135.989 49.56 137.686 49.8091 139.37C50.6462 145.041 52.2462 150.573 54.5656 155.816C54.6842 156.077 54.8028 156.338 54.9214 156.599L55.0993 156.99C55.1586 157.121 55.2239 157.251 55.2832 157.376C55.3662 157.548 55.4433 157.714 55.5264 157.88C55.6272 158.087 55.728 158.295 55.8347 158.503C55.8466 158.526 55.8585 158.556 55.8763 158.586C55.9652 158.763 56.0483 158.935 56.1432 159.113C56.1606 159.152 56.1804 159.19 56.2025 159.226C56.3033 159.428 56.41 159.635 56.5168 159.837C56.6354 160.05 56.7481 160.27 56.8667 160.483C57.1514 161.011 57.4479 161.533 57.7504 162.055C57.8393 162.209 57.9283 162.363 58.0232 162.518C58.1062 162.66 58.1893 162.802 58.2782 162.945C58.3375 163.04 58.3968 163.14 58.4561 163.235C58.551 163.395 58.6459 163.55 58.7467 163.71C58.9662 164.06 59.1915 164.41 59.411 164.759H59.4169C59.5177 164.92 59.6245 165.08 59.7313 165.234V165.24C60.0456 165.714 60.3718 166.189 60.698 166.657C60.6987 166.657 60.6995 166.657 60.7002 166.658C60.701 166.658 60.7016 166.658 60.7022 166.659C60.7028 166.66 60.7032 166.66 60.7035 166.661C60.7038 166.662 60.7039 166.662 60.7039 166.663C60.9649 167.043 61.2377 167.41 61.5045 167.778V167.784C61.6825 168.015 61.8545 168.253 62.0324 168.484C62.1747 168.674 62.323 168.869 62.4713 169.059C62.5009 169.101 62.5365 169.136 62.5661 169.178V169.184C62.6077 169.237 62.6492 169.285 62.6907 169.338C63.3193 170.145 63.9678 170.933 64.636 171.704L64.7427 171.829C64.7783 171.87 64.8198 171.912 64.8554 171.959C64.9147 172.025 64.9681 172.09 65.0274 172.155C65.0808 172.22 65.1401 172.286 65.1994 172.351C68.6826 176.274 72.6321 179.758 76.9601 182.724C77.5354 183.121 78.1225 183.507 78.7096 183.88C78.8579 183.975 79.0062 184.07 79.1544 184.159C79.196 184.189 79.2434 184.218 79.2849 184.248C79.3679 184.295 79.445 184.343 79.5281 184.396C79.6052 184.444 79.6823 184.491 79.7653 184.538C80.0796 184.734 80.3999 184.924 80.7202 185.114C80.7973 185.161 80.8803 185.209 80.9633 185.256C81.0404 185.298 81.1234 185.345 81.2065 185.393C81.2065 185.398 81.2065 185.398 81.2124 185.398H81.2183V185.404H81.2243C81.6216 185.636 82.0249 185.861 82.4341 186.08C82.6536 186.199 82.879 186.324 83.1043 186.436C83.6144 186.715 84.1303 186.982 84.6463 187.237C84.8302 187.326 85.02 187.415 85.2038 187.51C85.358 187.581 85.5122 187.658 85.6664 187.729C85.7139 187.753 85.7554 187.771 85.7969 187.794C85.9274 187.854 86.0519 187.913 86.1824 187.972C86.3247 188.038 86.467 188.103 86.6035 188.168C86.7636 188.239 86.9178 188.31 87.0779 188.376C87.671 188.643 88.27 188.898 88.869 189.141C91.0157 190.021 93.2094 190.781 95.4403 191.418C95.5411 191.448 95.6478 191.477 95.7546 191.507C96.7095 191.774 97.6703 192.017 98.637 192.237C100.327 192.628 102.033 192.948 103.755 193.197H103.767C103.975 193.227 104.176 193.257 104.384 193.286C104.402 193.286 104.419 193.292 104.443 193.292C104.443 193.298 104.443 193.298 104.449 193.292C104.674 193.322 104.906 193.352 105.131 193.381C105.147 193.386 105.163 193.388 105.179 193.387C105.392 193.417 105.612 193.441 105.825 193.464C106.056 193.488 106.288 193.512 106.519 193.535C106.697 193.553 106.875 193.571 107.053 193.589C107.068 193.594 107.084 193.596 107.1 193.595C107.26 193.607 107.42 193.624 107.581 193.636H107.604C107.741 193.648 107.883 193.66 108.019 193.672C109.674 193.802 111.335 193.862 113.019 193.862C114.84 193.862 116.649 193.79 118.434 193.636H118.452C118.837 193.601 119.217 193.565 119.596 193.529C119.697 193.518 119.792 193.512 119.893 193.5C119.911 193.5 119.934 193.494 119.952 193.494C119.982 193.488 120.011 193.488 120.047 193.482C120.063 193.483 120.079 193.481 120.094 193.476C120.225 193.464 120.355 193.446 120.492 193.435L120.937 193.381C121.085 193.363 121.233 193.34 121.381 193.322C121.417 193.316 121.447 193.316 121.482 193.31C121.589 193.298 121.696 193.28 121.802 193.263C121.856 193.257 121.909 193.251 121.957 193.245C122.063 193.227 122.164 193.215 122.271 193.197H122.277C125.531 192.729 128.744 192.005 131.885 191.033C132.051 190.979 132.217 190.932 132.383 190.878C132.389 190.878 132.395 190.873 132.401 190.873C132.448 190.855 132.502 190.843 132.549 190.825C132.994 190.683 133.433 190.535 133.872 190.38C134.476 190.179 135.075 189.959 135.674 189.734C135.835 189.669 135.995 189.609 136.155 189.544C136.481 189.42 136.801 189.289 137.122 189.159C137.667 188.939 138.213 188.708 138.753 188.471C139.257 188.245 139.755 188.02 140.253 187.783C140.265 187.777 140.283 187.777 140.295 187.765C140.407 187.711 140.52 187.658 140.627 187.605H140.633C143.364 186.294 145.998 184.79 148.515 183.103C149.321 182.564 150.116 182.006 150.899 181.431C151.527 180.962 152.144 180.488 152.761 180.002C155.804 177.581 158.621 174.889 161.177 171.959V171.953C161.361 171.752 161.533 171.544 161.71 171.337C161.74 171.307 161.764 171.277 161.788 171.254C161.9 171.117 162.007 170.987 162.12 170.856V170.85C162.268 170.678 162.416 170.5 162.559 170.323C162.594 170.281 162.624 170.245 162.653 170.21V170.204C162.772 170.062 162.885 169.919 163.003 169.771C163.063 169.7 163.116 169.629 163.175 169.557V169.552C163.525 169.113 163.863 168.674 164.201 168.223C164.29 168.104 164.379 167.98 164.474 167.855C164.901 167.28 165.316 166.693 165.72 166.106V166.1C165.874 165.88 166.022 165.655 166.176 165.436C166.325 165.21 166.473 164.985 166.621 164.76C166.769 164.522 166.924 164.291 167.072 164.054L167.09 164.018C167.238 163.793 167.386 163.556 167.528 163.324C167.641 163.134 167.754 162.951 167.867 162.767C167.938 162.642 168.015 162.518 168.086 162.387C168.114 162.347 168.14 162.305 168.163 162.263C168.329 161.972 168.495 161.681 168.661 161.391C168.857 161.053 169.047 160.709 169.237 160.365C169.308 160.222 169.385 160.08 169.462 159.938C169.492 159.89 169.515 159.843 169.539 159.795C169.628 159.629 169.717 159.457 169.8 159.285C169.889 159.119 169.978 158.947 170.067 158.775C170.15 158.609 170.239 158.437 170.322 158.265C170.387 158.135 170.446 158.004 170.512 157.874C170.516 157.863 170.522 157.853 170.529 157.844C170.559 157.779 170.589 157.72 170.612 157.66C170.62 157.651 170.626 157.641 170.63 157.631C170.696 157.5 170.755 157.364 170.82 157.233C170.903 157.061 170.98 156.883 171.063 156.711C171.117 156.593 171.176 156.468 171.229 156.344C171.306 156.172 171.389 156 171.461 155.822C171.544 155.644 171.621 155.466 171.698 155.282C171.72 155.238 171.74 155.192 171.757 155.146C171.799 155.063 171.828 154.98 171.864 154.897C171.959 154.677 172.054 154.452 172.143 154.232C172.249 153.983 172.35 153.728 172.445 153.479C172.54 153.248 172.629 153.011 172.718 152.773L172.754 152.69C174.135 149.051 175.183 145.293 175.885 141.464V141.458C176.281 139.271 176.564 137.066 176.733 134.851C176.739 134.726 176.751 134.608 176.757 134.489C176.864 132.989 176.911 131.482 176.911 129.97C176.911 129.3 176.899 128.635 176.881 127.971C176.467 114.079 171.514 100.705 162.778 89.8957C162.588 89.6585 162.398 89.4213 162.203 89.184C162.007 88.9468 161.805 88.7155 161.61 88.4842C155.108 80.8704 146.909 74.8908 137.672 71.0273C128.436 67.1639 118.421 65.5248 108.434 66.2421C98.4481 66.9595 88.7701 70.0132 80.1807 75.1571C71.5912 80.301 64.3305 87.3912 58.984 95.8561C58.6934 96.3187 58.4028 96.7873 58.1241 97.2558C57.8394 97.7303 57.5666 98.2047 57.2937 98.6851C51.9209 108.236 49.1058 119.012 49.1212 129.97Z"
            fill="#F2F2F2" />
        <path
            d="M110.481 88.1779C120.987 90.8739 131.754 92.4279 142.595 92.813C144.234 92.9023 145.877 92.8911 147.515 92.7795C151.114 92.4768 154.197 91.3455 157.631 90.7273C159.282 90.4309 161.121 90.2142 162.782 89.8939C162.398 89.4175 162.007 88.947 161.61 88.4822C158.026 88.785 154.387 89.776 150.761 90.2365C144.596 91.0205 137.689 90.1457 133.015 87.9883C130.748 86.9415 129.011 85.6349 126.752 84.5833C126.445 84.4256 126.112 84.3236 125.769 84.2822C125.117 84.2626 124.474 84.4296 123.914 84.7634C120.124 86.677 114.62 88.2321 109.512 87.3765C109.131 87.6744 109.855 88.0138 110.481 88.1779Z"
            fill="white" />
        <path
            d="M87.8745 94.9122C87.8278 94.9037 87.7811 94.897 87.7344 94.8889C87.9306 94.7673 88.1154 94.6281 88.2864 94.473L87.8745 94.9122Z"
            fill="white" />
        <path
            d="M57.2969 98.6876C59.4304 98.8581 61.575 98.985 63.7308 99.0684C65.3701 99.1569 67.0132 99.1457 68.6511 99.035C72.2504 98.7306 75.3336 97.6009 78.7672 96.9827C81.9141 96.4171 85.7381 96.1446 87.7362 94.8891C82.5722 93.9952 77.2217 95.8148 71.8967 96.492C67.5894 97.0216 63.2231 96.806 58.989 95.8546C58.3995 96.7819 57.8354 97.7263 57.2969 98.6876Z"
            fill="white" />
        <path
            d="M83.1055 186.436C83.6155 186.715 84.1315 186.982 84.6475 187.237C84.8313 187.326 85.0211 187.415 85.205 187.51C85.3592 187.581 85.5134 187.658 85.6676 187.729C85.715 187.753 85.7565 187.771 85.798 187.795C85.9285 187.854 86.0531 187.913 86.1835 187.972C86.3259 188.038 86.4682 188.103 86.6046 188.168C86.7648 188.239 86.9189 188.31 87.0791 188.376C87.6721 188.643 88.2711 188.898 88.8702 189.141C91.0168 190.021 93.2106 190.781 95.4414 191.418C95.5423 191.448 95.649 191.477 95.7558 191.507C96.7106 191.774 97.6714 192.017 98.6381 192.237C100.328 192.628 102.034 192.948 103.756 193.197H103.768C103.976 193.227 104.177 193.257 104.385 193.286C104.403 193.286 104.421 193.292 104.444 193.292C104.444 193.298 104.444 193.298 104.45 193.292C104.676 193.322 104.907 193.352 105.132 193.381C105.148 193.386 105.164 193.388 105.18 193.387C105.393 193.417 105.613 193.441 105.826 193.464C106.057 193.488 106.289 193.512 106.52 193.535C106.698 193.553 106.876 193.571 107.054 193.589C107.069 193.594 107.085 193.596 107.101 193.595C107.261 193.607 107.422 193.624 107.582 193.636H107.605C107.742 193.648 107.884 193.66 108.021 193.672C109.675 193.802 111.336 193.862 113.02 193.862C114.841 193.862 116.65 193.79 118.435 193.636H118.453C118.838 193.601 119.218 193.565 119.597 193.53C119.698 193.518 119.793 193.512 119.894 193.5C119.912 193.5 119.935 193.494 119.953 193.494C119.983 193.488 120.013 193.488 120.048 193.482C120.064 193.483 120.08 193.481 120.096 193.476C120.226 193.464 120.357 193.447 120.493 193.435L120.938 193.381C121.086 193.363 121.234 193.34 121.383 193.322C121.418 193.316 121.448 193.316 121.483 193.31C121.59 193.298 121.697 193.28 121.804 193.263C121.857 193.257 121.91 193.251 121.958 193.245C122.065 193.227 122.165 193.215 122.272 193.197H122.278C125.532 192.729 128.745 192.005 131.886 191.033C132.052 190.979 132.218 190.932 132.384 190.879C131.618 187.307 130.042 183.96 127.776 181.095C125.511 178.23 122.617 175.924 119.319 174.355C120.134 173.578 120.698 172.574 120.938 171.473C121.092 170.763 121.104 170.03 120.974 169.316C120.843 168.601 120.573 167.919 120.179 167.31C119.409 166.128 118.202 165.3 116.822 165.009L108.032 163.17C106.618 162.894 105.151 163.188 103.952 163.988C102.752 164.787 101.917 166.028 101.627 167.44C101.538 167.873 101.498 168.315 101.509 168.757C93.0454 174.391 86.9545 180.233 83.1055 186.436Z"
            fill="#CD9DFF" />
        <path
            d="M117.875 157.237C129.69 157.237 139.269 147.659 139.269 135.843C139.269 124.027 129.69 114.449 117.875 114.449C106.059 114.449 96.4805 124.027 96.4805 135.843C96.4805 147.659 106.059 157.237 117.875 157.237Z"
            fill="#9E616A" />
        <path
            d="M114.835 156.094C109.479 157.54 103.574 155.617 99.3939 151.969C95.2141 148.321 92.5995 143.152 91.0929 137.812C89.9896 133.902 89.4664 129.561 91.2076 125.89C92.9487 122.219 97.6348 119.742 101.25 121.596C99.0198 118.998 100.134 114.7 102.739 112.477C105.344 110.254 108.92 109.617 112.327 109.269C117.271 108.763 122.377 108.706 127.082 110.308C131.786 111.91 136.061 115.411 137.533 120.158C139.037 120.858 140.73 121.04 142.348 120.674C143.966 120.309 145.418 119.417 146.475 118.139C146.747 119.607 146.528 121.124 145.852 122.456C145.175 123.787 144.079 124.858 142.732 125.503L149.941 123.166C151.18 125.79 149.008 129.038 146.23 129.878C143.453 130.718 140.454 129.8 137.818 128.586C135.182 127.372 132.628 125.837 129.765 125.364C126.902 124.89 123.538 125.81 122.214 128.393C121.52 129.745 121.484 131.329 121.082 132.795C120.679 134.26 119.659 135.78 118.143 135.9C117.186 135.976 116.249 135.466 115.294 135.57C114.708 135.685 114.169 135.969 113.742 136.386C113.315 136.804 113.018 137.336 112.89 137.919C112.652 139.089 112.649 140.295 112.881 141.466L114.712 155.461L114.835 156.094Z"
            fill="#2F2E41" />
    </g>
    <defs>
        <clipPath id="clip0_973_1913">
            <rect width="480" height="373.563" fill="white" />
        </clipPath>
    </defs>
</svg>
    