<svg width="295" height="295" viewBox="0 0 295 295" fill="none" xmlns="http://www.w3.org/2000/svg">
    <g clip-path="url(#clip0_862_259)">
        <path
            d="M228.449 182.45C226.99 179.7 224.499 177.642 221.523 176.729C218.547 175.816 215.33 176.122 212.579 177.58L212.049 177.88L183.299 194.72C182.15 197.522 180.261 199.959 177.834 201.769C175.406 203.58 172.532 204.697 169.519 205L128.999 209.27H128.719C128.031 209.278 127.366 209.019 126.865 208.547C126.363 208.076 126.064 207.428 126.031 206.74C125.997 206.053 126.231 205.379 126.684 204.86C127.137 204.342 127.773 204.019 128.459 203.96H128.739L168.739 199.75C171.64 199.443 174.323 198.072 176.272 195.902C178.221 193.732 179.295 190.917 179.289 188C179.291 185.075 178.205 182.255 176.242 180.086C174.279 177.918 171.58 176.558 168.669 176.27L129.409 172.35C127.221 172.129 125.069 171.643 122.999 170.9L102.359 163.39C98.7454 162.078 94.8907 161.563 91.0592 161.88L67.3892 163.88C66.7234 163.938 66.1034 164.243 65.6516 164.735C65.1999 165.228 64.9492 165.872 64.9492 166.54V211.96C64.9492 212.665 65.2295 213.342 65.7283 213.841C66.2272 214.34 66.9037 214.62 67.6092 214.62H76.9192C81.259 214.62 85.533 215.681 89.3692 217.71L119.739 233.79C125.537 236.861 132.264 237.68 138.629 236.09L189.329 223.41C191.474 222.88 193.484 221.905 195.229 220.55L224.889 197.55C227.165 195.855 228.772 193.414 229.43 190.653C230.088 187.893 229.755 184.99 228.489 182.45H228.449Z"
            fill="white" />
        <path opacity="0.5"
            d="M167.999 68.57L174.079 60.19C174.442 59.6065 175.023 59.1913 175.692 59.0356C176.362 58.8799 177.066 58.9966 177.649 59.36C178.233 59.7233 178.648 60.3036 178.803 60.9731C178.959 61.6426 178.842 62.3465 178.479 62.93L178.389 63.07L178.279 63.23L172.189 71.61C172.011 71.9002 171.778 72.1525 171.502 72.3526C171.227 72.5526 170.915 72.6964 170.584 72.7758C170.253 72.8552 169.909 72.8686 169.573 72.8153C169.237 72.7619 168.914 72.6429 168.624 72.465C168.334 72.287 168.081 72.0537 167.881 71.7782C167.681 71.5028 167.538 71.1906 167.458 70.8595C167.379 70.5285 167.365 70.1851 167.419 69.8488C167.472 69.5126 167.591 69.1902 167.769 68.9V68.83C167.823 68.7394 167.883 68.6526 167.949 68.57H167.999Z"
            fill="#C5A1F9" />
        <path opacity="0.5"
            d="M116.78 59.62C117.054 59.4177 117.365 59.2717 117.696 59.1904C118.026 59.1091 118.37 59.094 118.706 59.146C119.043 59.1981 119.366 59.3163 119.656 59.4937C119.947 59.6712 120.2 59.9044 120.4 60.18L126.49 68.56C126.744 68.8299 126.938 69.1511 127.058 69.502C127.177 69.8528 127.221 70.2253 127.185 70.5944C127.149 70.9635 127.035 71.3206 126.849 71.6418C126.664 71.963 126.412 72.2409 126.111 72.4568C125.809 72.6726 125.465 72.8215 125.101 72.8934C124.738 72.9653 124.363 72.9586 124.002 72.8736C123.641 72.7887 123.302 72.6275 123.009 72.401C122.715 72.1744 122.473 71.8876 122.3 71.56L116.21 63.19C115.823 62.6372 115.666 61.9558 115.773 61.2897C115.879 60.6236 116.24 60.0248 116.78 59.62Z"
            fill="#C5A1F9" />
        <path opacity="0.5"
            d="M111.081 116L101.231 119.2C100.589 119.374 99.9054 119.295 99.3208 118.978C98.7361 118.662 98.2954 118.133 98.0899 117.501C97.8843 116.869 97.9296 116.182 98.2164 115.583C98.5033 114.983 99.0096 114.517 99.6307 114.28L109.481 111.08C110.123 110.835 110.836 110.854 111.463 111.135C112.09 111.415 112.58 111.933 112.826 112.575C113.071 113.217 113.051 113.93 112.771 114.557C112.491 115.184 111.973 115.675 111.331 115.92L111.081 116Z"
            fill="#C5A1F9" />
        <path opacity="0.5"
            d="M149.83 150.78C149.83 151.467 149.558 152.126 149.072 152.611C148.586 153.097 147.927 153.37 147.24 153.37C146.553 153.37 145.895 153.097 145.409 152.611C144.923 152.126 144.65 151.467 144.65 150.78V140.41C144.65 139.723 144.923 139.064 145.409 138.579C145.895 138.093 146.553 137.82 147.24 137.82C147.927 137.82 148.586 138.093 149.072 138.579C149.558 139.064 149.83 139.723 149.83 140.41V150.78Z"
            fill="#C5A1F9" />
        <path
            d="M180.149 93.33L165.579 107.54L168.999 127.59C169.058 127.926 169.05 128.271 168.975 128.604C168.9 128.937 168.76 129.252 168.563 129.531C168.366 129.81 168.116 130.047 167.827 130.229C167.538 130.41 167.216 130.533 166.879 130.59C166.322 130.681 165.75 130.59 165.249 130.33L147.249 120.86L129.249 130.33C128.64 130.647 127.93 130.711 127.274 130.507C126.619 130.303 126.07 129.847 125.749 129.24C125.49 128.735 125.399 128.16 125.489 127.6L128.929 107.55L114.349 93.34C114.108 93.1002 113.916 92.8151 113.786 92.501C113.655 92.1869 113.588 91.8501 113.588 91.51C113.588 91.1698 113.655 90.833 113.786 90.5189C113.916 90.2049 114.108 89.9197 114.349 89.68C114.738 89.2809 115.248 89.0209 115.799 88.94L135.919 86L144.919 67.74C145.277 67.1194 145.866 66.6658 146.558 66.4784C147.249 66.291 147.987 66.385 148.609 66.74C149.022 66.9836 149.366 67.3276 149.609 67.74L158.609 86L178.749 88.93C179.086 88.98 179.41 89.0962 179.702 89.2716C179.994 89.4471 180.249 89.6785 180.451 89.9526C180.654 90.2266 180.8 90.5379 180.882 90.8686C180.964 91.1994 180.98 91.5431 180.929 91.88C180.848 92.4314 180.588 92.9409 180.189 93.33H180.149Z"
            fill="#C5A1F9" />
        <path opacity="0.5"
            d="M194.07 119.35C193.798 119.348 193.528 119.304 193.27 119.22L183.42 116.02C182.768 115.831 182.217 115.393 181.885 114.802C181.553 114.211 181.465 113.513 181.642 112.858C181.819 112.203 182.246 111.644 182.831 111.3C183.415 110.956 184.112 110.856 184.77 111.02L185.02 111.1L194.88 114.31C195.432 114.525 195.893 114.922 196.188 115.436C196.482 115.949 196.592 116.548 196.498 117.133C196.405 117.718 196.113 118.253 195.673 118.649C195.233 119.045 194.671 119.278 194.08 119.31L194.07 119.35Z"
            fill="#C5A1F9" />
        <g opacity="0.5">
            <path
                d="M147.32 294.91C66.3203 294.91 0.320312 228.98 0.320312 147.91C0.320312 66.84 66.2503 0.910034 147.32 0.910034C228.39 0.910034 294.32 66.84 294.32 147.91C294.32 228.98 228.35 294.91 147.32 294.91ZM147.32 3.16004C67.4803 3.16004 2.54031 68.16 2.54031 147.95C2.54031 227.74 67.4803 292.72 147.32 292.72C227.16 292.72 292.1 227.78 292.1 148C292.1 68.22 227.15 3.16004 147.32 3.16004Z"
                fill="white" />
        </g>
        <g opacity="0.5">
            <path
                d="M147.32 279.17C74.9996 279.17 16.0996 220.3 16.0996 148C16.0996 75.7 74.9996 16.72 147.32 16.72C219.64 16.72 278.54 75.59 278.54 148C278.54 220.41 219.67 279.17 147.32 279.17ZM147.32 17.6C112.757 17.645 79.6232 31.4005 55.1909 55.8478C30.7586 80.2951 17.0234 113.437 16.9996 148C16.9996 219.87 75.4696 278.34 147.35 278.34C181.901 278.292 215.022 264.544 239.451 240.11C263.879 215.676 277.62 182.551 277.66 148C277.66 76.07 219.19 17.6 147.32 17.6Z"
                fill="#C5A1F9" />
        </g>
    </g>
    <defs>
        <clipPath id="clip0_862_259">
            <rect width="295" height="295" fill="white" />
        </clipPath>
    </defs>
</svg>
    