<svg width="381" height="285" viewBox="0 0 381 285" fill="none" xmlns="http://www.w3.org/2000/svg">
    <g clip-path="url(#clip0_862_231)">
        <path opacity="0.46"
            d="M286.619 0.550049H111.689C105.062 0.550049 99.6895 5.92263 99.6895 12.55V272.65C99.6895 279.277 105.062 284.65 111.689 284.65H286.619C293.247 284.65 298.619 279.277 298.619 272.65V12.55C298.619 5.92263 293.247 0.550049 286.619 0.550049Z"
            fill="#C5A1F9" />
        <path d="M128.1 114.68H270.21" stroke="white" />
        <path d="M128.1 141.46H270.21" stroke="white" />
        <path d="M128.1 168.23H270.21" stroke="white" />
        <path d="M128.1 204.16H270.21" stroke="white" />
        <path d="M128.1 230.94H270.21" stroke="white" />
        <path d="M128.1 257.72H270.21" stroke="white" />
        <path
            d="M374.949 137.63H23.3691C20.0554 137.63 17.3691 140.316 17.3691 143.63V201.77C17.3691 205.084 20.0554 207.77 23.3691 207.77H374.949C378.263 207.77 380.949 205.084 380.949 201.77V143.63C380.949 140.316 378.263 137.63 374.949 137.63Z"
            fill="#C5A1F9" />
        <path
            d="M132.619 186.52V184.44H144.939C145.246 184.486 145.559 184.46 145.854 184.365C146.148 184.269 146.417 184.106 146.638 183.889C146.859 183.672 147.027 183.406 147.128 183.113C147.228 182.82 147.26 182.507 147.219 182.2V179C147.259 178.737 147.245 178.469 147.18 178.211C147.114 177.953 146.998 177.711 146.838 177.499C146.678 177.287 146.477 177.108 146.247 176.975C146.017 176.841 145.763 176.754 145.499 176.72L137.139 175C134.139 174.42 132.619 172.4 132.619 169V166.84C132.619 162.627 134.712 160.52 138.899 160.52H148.419L150.419 162.12V164.2H138.939C138.633 164.154 138.32 164.18 138.025 164.275C137.73 164.371 137.461 164.534 137.24 164.751C137.019 164.968 136.852 165.234 136.751 165.527C136.65 165.82 136.619 166.133 136.659 166.44V169.16C136.62 169.423 136.633 169.691 136.699 169.949C136.764 170.207 136.88 170.449 137.04 170.661C137.201 170.873 137.401 171.052 137.631 171.185C137.861 171.319 138.115 171.406 138.379 171.44L146.779 173.08C149.779 173.72 151.259 175.75 151.259 179.16V181.8C151.259 186.02 149.166 188.127 144.979 188.12H134.659L132.619 186.52Z"
            fill="white" />
        <path
            d="M156.539 182V167.24H160.419V182.36C160.372 182.681 160.401 183.008 160.503 183.316C160.604 183.624 160.777 183.904 161.006 184.133C161.236 184.362 161.515 184.535 161.823 184.637C162.131 184.739 162.458 184.767 162.779 184.72H170.099V167.24H173.999V188.12H162.659C158.579 188.12 156.539 186.08 156.539 182Z"
            fill="white" />
        <path
            d="M180.219 188.12V158.52H184.099V167.24H191.539C195.619 167.24 197.659 169.28 197.659 173.36V182C197.659 186.107 195.619 188.16 191.539 188.16L180.219 188.12ZM184.099 184.72H191.459C191.777 184.762 192.101 184.73 192.404 184.626C192.708 184.522 192.983 184.348 193.208 184.119C193.433 183.89 193.602 183.612 193.701 183.307C193.8 183.002 193.827 182.677 193.779 182.36V173C193.822 172.685 193.791 172.365 193.69 172.064C193.589 171.763 193.419 171.489 193.194 171.264C192.97 171.04 192.696 170.87 192.395 170.769C192.094 170.667 191.774 170.637 191.459 170.68H184.099V184.72Z"
            fill="white" />
        <path
            d="M203.58 188.12V167.24H227.29C231.37 167.24 233.413 169.28 233.42 173.36V188.12H229.54V173C229.583 172.684 229.553 172.363 229.451 172.061C229.349 171.759 229.179 171.485 228.953 171.26C228.727 171.035 228.452 170.866 228.15 170.765C227.847 170.664 227.526 170.635 227.21 170.68H220.46V188.16H216.54V170.64H207.46V188.12H203.58Z"
            fill="white" />
        <path
            d="M239.34 163.48V159.24H243.5V163.48H239.34ZM239.5 188.12V167.24H243.37V188.12H239.5Z"
            fill="white" />
        <path
            d="M249.459 182V160.52H253.329V167.24H260.739V170.64H253.329V182.36C253.284 182.681 253.314 183.009 253.417 183.317C253.52 183.624 253.694 183.904 253.924 184.133C254.154 184.362 254.434 184.534 254.742 184.636C255.05 184.738 255.378 184.767 255.699 184.72H261.129V186.72L259.289 188.08H255.579C251.499 188.107 249.459 186.08 249.459 182Z"
            fill="white" />
        <path d="M128.1 34.62H270.21" stroke="white" />
        <path d="M128.1 61.4H270.21" stroke="white" />
        <path d="M128.1 88.1799H270.21" stroke="white" />
        <path d="M298.721 165.06L355.801 180.23L313.901 222.13L298.721 165.06Z" fill="white" />
        <path d="M339.183 185.283L319.674 204.792L343.517 228.636L363.027 209.127L339.183 185.283Z"
            fill="white" />
        <path
            d="M38.1 218.37C38.1 218.37 75.94 200.1 75.94 172.7V140.7L38.1 127L0.25 140.7V172.7C0.25 200.1 38.1 218.37 38.1 218.37Z"
            fill="white" />
        <path
            d="M48.7506 176.55C41.9606 176.55 36.3106 175.08 32.6406 172.55V176.55C32.6406 180.36 39.8506 183.45 48.7506 183.45C57.6506 183.45 64.8706 180.36 64.8706 176.55V172.55C61.1906 175.08 55.5506 176.55 48.7506 176.55Z"
            fill="#C5A1F9" />
        <path
            d="M48.7506 188.06C41.9606 188.06 36.3106 186.59 32.6406 184.12V188.06C32.6406 191.87 39.8506 194.97 48.7506 194.97C57.6506 194.97 64.8706 191.88 64.8706 188.06V184.12C61.1906 186.59 55.5506 188.06 48.7506 188.06Z"
            fill="#C5A1F9" />
        <path d="M30.3303 160.43H18.8203V155.82H25.7303V148.92H30.3303V160.43Z" fill="#C5A1F9" />
        <path
            d="M48.6607 172.09C57.6022 172.09 64.8507 168.893 64.8507 164.95C64.8507 161.007 57.6022 157.81 48.6607 157.81C39.7192 157.81 32.4707 161.007 32.4707 164.95C32.4707 168.893 39.7192 172.09 48.6607 172.09Z"
            fill="#C5A1F9" />
        <path
            d="M28 171.94C25.4367 171.939 22.9241 171.226 20.7431 169.879C18.5621 168.533 16.7985 166.606 15.6496 164.314C14.5006 162.023 14.0116 159.457 14.2371 156.904C14.4626 154.351 15.3938 151.91 16.9266 149.856C18.4594 147.801 20.5333 146.214 22.9167 145.27C25.3 144.327 27.8987 144.065 30.4224 144.513C32.9461 144.962 35.2953 146.104 37.2074 147.811C39.1195 149.518 40.5192 151.723 41.25 154.18C42.7799 153.891 44.3262 153.698 45.88 153.6L45.65 152.84C44.6693 149.569 42.7988 146.635 40.2472 144.366C37.6956 142.097 34.5635 140.581 31.2005 139.989C27.8376 139.397 24.3762 139.751 21.2029 141.012C18.0297 142.273 15.2694 144.392 13.2304 147.131C11.1914 149.87 9.95391 153.122 9.65612 156.524C9.35834 159.925 10.012 163.343 11.5441 166.395C13.0761 169.446 15.4263 172.012 18.3322 173.805C21.2381 175.599 24.5853 176.549 28 176.55V171.94Z"
            fill="#C5A1F9" />
    </g>
    <defs>
        <clipPath id="clip0_862_231">
            <rect width="381" height="285" fill="white" />
        </clipPath>
    </defs>
</svg>
