<svg width="24" height="24" viewBox="0 0 24 24" fill="none" xmlns="http://www.w3.org/2000/svg">
<g clip-path="url(#clip0_534_3961)">
<g clip-path="url(#clip1_534_3961)">
<path d="M12 24C18.6274 24 24 18.6274 24 12C24 5.37258 18.6274 0 12 0C5.37258 0 0 5.37258 0 12C0 18.6274 5.37258 24 12 24Z" fill="#213147"/>
<g clip-path="url(#clip2_534_3961)">
<path d="M5.44727 8.86405V15.136C5.44727 15.5392 5.65847 15.904 6.01047 16.1088L11.4441 19.2448C11.7897 19.4432 12.2185 19.4432 12.5641 19.2448L17.9977 16.1088C18.3433 15.9104 18.5609 15.5392 18.5609 15.136V8.86405C18.5609 8.46085 18.3497 8.09605 17.9977 7.89125L12.5641 4.75525C12.2185 4.55685 11.7897 4.55685 11.4441 4.75525L6.01047 7.89125C5.66487 8.08965 5.45367 8.46085 5.45367 8.86405H5.44727Z" fill="#213147"/>
<path d="M13.1843 13.2159L12.4099 15.3407C12.3907 15.3983 12.3907 15.4623 12.4099 15.5263L13.7411 19.1807L15.2835 18.2911L13.4339 13.2159C13.3891 13.1007 13.2291 13.1007 13.1843 13.2159Z" fill="#12AAFF"/>
<path d="M14.7396 9.64475C14.6948 9.52955 14.5348 9.52955 14.49 9.64475L13.7156 11.7695C13.6964 11.8271 13.6964 11.8911 13.7156 11.9551L15.898 17.9391L17.4404 17.0496L14.7396 9.65115V9.64475Z" fill="#12AAFF"/>
<path d="M12.0004 4.992C12.0388 4.992 12.0772 5.0048 12.1092 5.024L17.9844 8.416C18.0548 8.4544 18.0932 8.5312 18.0932 8.608V15.392C18.0932 15.4688 18.0484 15.5456 17.9844 15.584L12.1092 18.976C12.0772 18.9952 12.0388 19.008 12.0004 19.008C11.962 19.008 11.9236 18.9952 11.8916 18.976L6.01638 15.584C5.94598 15.5456 5.90758 15.4688 5.90758 15.392V8.6016C5.90758 8.5248 5.95238 8.448 6.01638 8.4096L11.8916 5.0176C11.9236 4.9984 11.962 4.9856 12.0004 4.9856V4.992ZM12.0004 4C11.7892 4 11.5844 4.0512 11.3924 4.16L5.51718 7.552C5.13958 7.7696 4.90918 8.1664 4.90918 8.6016V15.3856C4.90918 15.8208 5.13958 16.2176 5.51718 16.4352L11.3924 19.8272C11.578 19.936 11.7892 19.9872 12.0004 19.9872C12.2116 19.9872 12.4164 19.936 12.6084 19.8272L18.4836 16.4352C18.8612 16.2176 19.0916 15.8208 19.0916 15.3856V8.6016C19.0916 8.1664 18.8612 7.7696 18.4836 7.552L12.602 4.16C12.4164 4.0512 12.2052 4 11.994 4H12.0004Z" fill="#9DCCED"/>
<path d="M8.10938 17.9456L8.65338 16.4608L9.74138 17.3632L8.72378 18.2976L8.10938 17.9456Z" fill="#213147"/>
<path d="M11.5008 8.12163H10.0096C9.90081 8.12163 9.79841 8.19203 9.76001 8.29443L6.56641 17.0496L8.10881 17.9392L11.6288 8.29443C11.6608 8.20483 11.5968 8.11523 11.5072 8.11523L11.5008 8.12163Z" fill="white"/>
<path d="M14.1124 8.12163H12.6212C12.5124 8.12163 12.41 8.19203 12.3716 8.29443L8.72363 18.2912L10.266 19.1808L14.234 8.29443C14.266 8.20483 14.202 8.11523 14.1124 8.11523V8.12163Z" fill="white"/>
</g>
</g>
</g>
<defs>
<clipPath id="clip0_534_3961">
<rect width="24" height="24" fill="white"/>
</clipPath>
<clipPath id="clip1_534_3961">
<rect width="24" height="24" fill="white"/>
</clipPath>
<clipPath id="clip2_534_3961">
<rect width="16" height="16" fill="white" transform="translate(4 4)"/>
</clipPath>
</defs>
</svg>
