<svg width="24" height="24" viewBox="0 0 24 24" fill="none" xmlns="http://www.w3.org/2000/svg">
<g clip-path="url(#clip0_534_4102)">
<mask id="mask0_534_4102" style="mask-type:luminance" maskUnits="userSpaceOnUse" x="0" y="0" width="24" height="24">
<path d="M0 0H23.984V24H0V0Z" fill="white"/>
</mask>
<g mask="url(#mask0_534_4102)">
<path d="M19.3891 4.11694H4.58008V17.5849H19.3901L19.3891 4.11694Z" fill="white"/>
<path fill-rule="evenodd" clip-rule="evenodd" d="M23.9758 12C23.9758 18.619 18.6098 23.984 11.9918 23.984C5.37281 23.984 0.0078125 18.619 0.0078125 12C0.0078125 5.38099 5.37281 0.0159912 11.9918 0.0159912C18.6098 0.0159912 23.9758 5.38099 23.9758 12ZM8.59581 16.769H6.26981C5.78081 16.769 5.53981 16.769 5.39281 16.675C5.31501 16.6244 5.25021 16.5563 5.20365 16.476C5.15709 16.3957 5.13008 16.3056 5.12481 16.213C5.11581 16.039 5.23681 15.827 5.47781 15.403L11.2208 5.28099C11.4648 4.85099 11.5888 4.63599 11.7448 4.55699C11.8279 4.51491 11.9197 4.49298 12.0128 4.49298C12.1059 4.49298 12.1977 4.51491 12.2808 4.55699C12.4368 4.63699 12.5608 4.85099 12.8048 5.28099L13.9848 7.34099L13.9908 7.35199C14.2548 7.81299 14.3888 8.04699 14.4478 8.29199C14.5118 8.56124 14.5118 8.84175 14.4478 9.11099C14.3878 9.35799 14.2558 9.59399 13.9878 10.062L10.9718 15.394L10.9638 15.408C10.6978 15.873 10.5638 16.108 10.3768 16.286C10.1749 16.4792 9.92976 16.6215 9.66181 16.701C9.41681 16.769 9.14381 16.769 8.59581 16.769ZM14.4688 16.769H17.8018C18.2928 16.769 18.5408 16.769 18.6878 16.672C18.7661 16.6213 18.8313 16.5526 18.8779 16.4718C18.9244 16.3909 18.9512 16.3002 18.9558 16.207C18.9648 16.039 18.8458 15.835 18.6148 15.436C18.6067 15.422 18.5987 15.408 18.5908 15.394L16.9208 12.539L16.9028 12.506C16.6678 12.11 16.5498 11.909 16.3978 11.832C16.3153 11.7899 16.224 11.7679 16.1313 11.7679C16.0387 11.7679 15.9473 11.7899 15.8648 11.832C15.7118 11.912 15.5878 12.12 15.3438 12.542L13.6798 15.397L13.6748 15.407C13.4308 15.827 13.3088 16.037 13.3178 16.21C13.3231 16.303 13.3501 16.3936 13.3966 16.4743C13.4431 16.555 13.5079 16.6238 13.5858 16.675C13.7298 16.769 13.9778 16.769 14.4688 16.769Z" fill="#E84142"/>
</g>
</g>
<defs>
<clipPath id="clip0_534_4102">
<rect width="24" height="24" fill="white"/>
</clipPath>
</defs>
</svg>
