<svg width="24" height="24" viewBox="0 0 24 24" fill="none" xmlns="http://www.w3.org/2000/svg">
<g clip-path="url(#clip0_534_4902)">
<g clip-path="url(#clip1_534_4902)">
<mask id="mask0_534_4902" style="mask-type:luminance" maskUnits="userSpaceOnUse" x="0" y="0" width="24" height="24">
<path d="M12 24C5.37216 24 0 18.6278 0 12C0 5.37216 5.37216 0 12 0C18.6278 0 24 5.37216 24 12C24 18.6278 18.6278 24 12 24Z" fill="white"/>
</mask>
<g mask="url(#mask0_534_4902)">
<path fill-rule="evenodd" clip-rule="evenodd" d="M12.0001 12L-4.97266 11.8954L-4.9573 11.2714L12.0001 12Z" fill="#FEFEFF"/>
<path fill-rule="evenodd" clip-rule="evenodd" d="M12.0004 12L-4.95996 11.3751L-4.93404 10.8547L12.0004 12Z" fill="#FDFEFF"/>
<path fill-rule="evenodd" clip-rule="evenodd" d="M11.9997 12.0001L-4.94043 10.9594L-4.90203 10.4401L11.9997 12.0001Z" fill="#FCFDFF"/>
<path fill-rule="evenodd" clip-rule="evenodd" d="M12.0003 12L-4.90918 10.5437L-4.8583 10.0253L12.0003 12Z" fill="#FBFCFF"/>
<path fill-rule="evenodd" clip-rule="evenodd" d="M12 12.0001L-4.86816 10.129L-4.8048 9.61255L12 12.0001Z" fill="#FAFCFF"/>
<path fill-rule="evenodd" clip-rule="evenodd" d="M11.9999 12L-4.81738 9.7162L-4.74154 9.20068L11.9999 12Z" fill="#F9FBFF"/>
<path fill-rule="evenodd" clip-rule="evenodd" d="M12 12.0001L-4.75586 9.30341L-4.66754 8.79077L12 12.0001Z" fill="#F8FAFF"/>
<path fill-rule="evenodd" clip-rule="evenodd" d="M12.0002 12L-4.68457 8.89341L-4.58377 8.38269L12.0002 12Z" fill="#F7FAFF"/>
<path fill-rule="evenodd" clip-rule="evenodd" d="M11.9997 12L-4.60449 8.48548L-4.49025 7.97668L11.9997 12Z" fill="#F6F9FF"/>
<path fill-rule="evenodd" clip-rule="evenodd" d="M12.0003 12L-4.5127 8.07845L-4.38598 7.57349L12.0003 12Z" fill="#F5F8FF"/>
<path fill-rule="evenodd" clip-rule="evenodd" d="M12.0001 12.0001L-4.41113 7.67432L-4.27289 7.17224L12.0001 12.0001Z" fill="#F4F8FF"/>
<path fill-rule="evenodd" clip-rule="evenodd" d="M12 12.0001L-4.30078 7.27302L-4.1491 6.77478L12 12.0001Z" fill="#F3F7FF"/>
<path fill-rule="evenodd" clip-rule="evenodd" d="M12.0002 12L-4.17969 6.87453L-4.01553 6.38013L12.0002 12Z" fill="#F2F6FF"/>
<path fill-rule="evenodd" clip-rule="evenodd" d="M12.0005 12L-4.04883 6.47909L-3.87315 5.98853L12.0005 12Z" fill="#F1F6FF"/>
<path fill-rule="evenodd" clip-rule="evenodd" d="M12 12.0001L-3.9082 6.08647L-3.721 5.60071L12 12.0001Z" fill="#F0F5FF"/>
<path fill-rule="evenodd" clip-rule="evenodd" d="M12.0006 12L-3.75781 5.69763L-3.55909 5.21667L12.0006 12Z" fill="#EFF4FF"/>
<path fill-rule="evenodd" clip-rule="evenodd" d="M12.0004 12L-3.59863 5.3126L-3.38743 4.8374L12.0004 12Z" fill="#EEF3FF"/>
<path fill-rule="evenodd" clip-rule="evenodd" d="M12.0004 12.0001L-3.42969 4.93256L-3.20697 4.46216L12.0004 12.0001Z" fill="#EDF3FF"/>
<path fill-rule="evenodd" clip-rule="evenodd" d="M12.0005 12L-3.25195 4.55618L-3.01771 4.09058L12.0005 12Z" fill="#ECF2FF"/>
<path fill-rule="evenodd" clip-rule="evenodd" d="M11.9999 12.0001L-3.06543 4.18373L-2.81967 3.72485L11.9999 12.0001Z" fill="#EBF1FF"/>
<path fill-rule="evenodd" clip-rule="evenodd" d="M12.0003 12L-2.86816 3.817L-2.61184 3.36292L12.0003 12Z" fill="#EAF1FF"/>
<path fill-rule="evenodd" clip-rule="evenodd" d="M12 12L-2.66309 3.45409L-2.39525 3.00769L12 12Z" fill="#E9F0FF"/>
<path fill-rule="evenodd" clip-rule="evenodd" d="M11.9997 12.0001L-2.44922 3.09701L-2.17082 2.65637L11.9997 12.0001Z" fill="#E8EFFF"/>
<path fill-rule="evenodd" clip-rule="evenodd" d="M11.9997 12L-2.22656 2.74461L-1.93664 2.31165L11.9997 12Z" fill="#E7EFFF"/>
<path fill-rule="evenodd" clip-rule="evenodd" d="M11.9998 12L-1.99512 2.39806L-1.6956 1.97278L11.9998 12Z" fill="#E6EEFF"/>
<path fill-rule="evenodd" clip-rule="evenodd" d="M12 12L-1.75488 2.05821L-1.4448 1.63965L12 12Z" fill="#E5EDFF"/>
<path fill-rule="evenodd" clip-rule="evenodd" d="M12.0004 12.0001L-1.50684 1.72326L-1.1862 1.31238L12.0004 12.0001Z" fill="#E4EDFF"/>
<path fill-rule="evenodd" clip-rule="evenodd" d="M11.9999 12L-1.25098 1.39492L-0.920737 0.992676L11.9999 12Z" fill="#E3ECFF"/>
<path fill-rule="evenodd" clip-rule="evenodd" d="M12.0006 12L-0.985352 1.07327L-0.645512 0.678711L12.0006 12Z" fill="#E2EBFF"/>
<path fill-rule="evenodd" clip-rule="evenodd" d="M12.0004 12.0001L-0.713867 0.757502L-0.364427 0.371582L12.0004 12.0001Z" fill="#E1EBFF"/>
<path fill-rule="evenodd" clip-rule="evenodd" d="M12.0003 12L-0.43457 0.449301L-0.0755304 0.0720215L12.0003 12Z" fill="#E0EAFF"/>
<path fill-rule="evenodd" clip-rule="evenodd" d="M12.0004 12L-0.147461 0.147815L0.221179 -0.220825L12.0004 12Z" fill="#DFE9FF"/>
<path fill-rule="evenodd" clip-rule="evenodd" d="M12.0006 12.0001L0.148438 -0.147779L0.524757 -0.505859L12.0006 12.0001Z" fill="#DEE9FF"/>
<path fill-rule="evenodd" clip-rule="evenodd" d="M11.9999 12L0.449219 -0.434862L0.835139 -0.784302L11.9999 12Z" fill="#DDE8FF"/>
<path fill-rule="evenodd" clip-rule="evenodd" d="M12.0004 12L0.757812 -0.714237L1.15237 -1.05408L12.0004 12Z" fill="#DCE7FF"/>
<path fill-rule="evenodd" clip-rule="evenodd" d="M12 12L1.07324 -0.985922L1.47548 -1.31616L12 12Z" fill="#DBE7FF"/>
<path fill-rule="evenodd" clip-rule="evenodd" d="M12.0006 12L1.39551 -1.25088L1.80639 -1.57056L12.0006 12Z" fill="#DAE6FF"/>
<path fill-rule="evenodd" clip-rule="evenodd" d="M12.0004 12L1.72363 -1.50718L2.14219 -1.81726L12.0004 12Z" fill="#D9E5FF"/>
<path fill-rule="evenodd" clip-rule="evenodd" d="M12.0004 12.0001L2.05859 -1.7548L2.48387 -2.05432L12.0004 12.0001Z" fill="#D8E5FF"/>
<path fill-rule="evenodd" clip-rule="evenodd" d="M12.0004 12L2.39844 -1.99485L2.8314 -2.28381L12.0004 12Z" fill="#D7E4FF"/>
<path fill-rule="evenodd" clip-rule="evenodd" d="M12.0005 12L2.74512 -2.22624L3.18576 -2.50464L12.0005 12Z" fill="#D6E3FF"/>
<path fill-rule="evenodd" clip-rule="evenodd" d="M11.9997 12L3.09668 -2.44896L3.54308 -2.7168L11.9997 12Z" fill="#D5E3FF"/>
<path fill-rule="evenodd" clip-rule="evenodd" d="M12 12L3.4541 -2.66299L3.90722 -2.91931L12 12Z" fill="#D4E2FF"/>
<path fill-rule="evenodd" clip-rule="evenodd" d="M12.0004 12L3.81738 -2.8685L4.27626 -3.11426L12.0004 12Z" fill="#D3E1FF"/>
<path fill-rule="evenodd" clip-rule="evenodd" d="M11.9999 12L4.18359 -3.0653L4.64919 -3.29858L11.9999 12Z" fill="#D2E0FF"/>
<path fill-rule="evenodd" clip-rule="evenodd" d="M12.0005 12L4.55664 -3.25248L5.02704 -3.47424L12.0005 12Z" fill="#D1E0FF"/>
<path fill-rule="evenodd" clip-rule="evenodd" d="M12.0001 12L4.93262 -3.43004L5.40878 -3.64124L12.0001 12Z" fill="#D0DFFF"/>
<path fill-rule="evenodd" clip-rule="evenodd" d="M11.9999 12L5.3125 -3.59903L5.79442 -3.79871L11.9999 12Z" fill="#CFDEFF"/>
<path fill-rule="evenodd" clip-rule="evenodd" d="M11.9997 12L5.69727 -3.75836L6.18399 -3.94556L11.9997 12Z" fill="#CEDEFF"/>
<path fill-rule="evenodd" clip-rule="evenodd" d="M12.0005 12L6.08691 -3.90818L6.57747 -4.08386L12.0005 12Z" fill="#CDDDFF"/>
<path fill-rule="evenodd" clip-rule="evenodd" d="M12.0005 12L6.47949 -4.04931L6.97389 -4.21155L12.0005 12Z" fill="#CCDCFF"/>
<path fill-rule="evenodd" clip-rule="evenodd" d="M12.0004 12L6.875 -4.17985L7.37324 -4.33057L12.0004 12Z" fill="#CBDCFF"/>
<path fill-rule="evenodd" clip-rule="evenodd" d="M12.0005 12.0001L7.27344 -4.30072L7.77552 -4.43896L12.0005 12.0001Z" fill="#CADBFF"/>
<path fill-rule="evenodd" clip-rule="evenodd" d="M12.0006 12.0001L7.6748 -4.41112L8.17976 -4.53784L12.0006 12.0001Z" fill="#C9DAFF"/>
<path fill-rule="evenodd" clip-rule="evenodd" d="M11.9997 12L8.07812 -4.51294L8.58597 -4.62622L11.9997 12Z" fill="#C8DAFF"/>
<path fill-rule="evenodd" clip-rule="evenodd" d="M11.9999 12L8.48535 -4.60416L8.99511 -4.70496L11.9999 12Z" fill="#C7D9FF"/>
<path fill-rule="evenodd" clip-rule="evenodd" d="M12.0001 12L8.89355 -4.68477L9.40619 -4.77405L12.0001 12Z" fill="#C6D8FF"/>
<path fill-rule="evenodd" clip-rule="evenodd" d="M12.0004 12L9.30371 -4.75584L9.81923 -4.83264L12.0004 12Z" fill="#C5D8FF"/>
<path fill-rule="evenodd" clip-rule="evenodd" d="M11.9997 12L9.71582 -4.81726L10.2323 -4.88062L11.9997 12Z" fill="#C4D7FF"/>
<path fill-rule="evenodd" clip-rule="evenodd" d="M11.9999 12L10.1289 -4.86819L10.6473 -4.91907L11.9999 12Z" fill="#C3D6FF"/>
<path fill-rule="evenodd" clip-rule="evenodd" d="M12.0003 12L10.5439 -4.90948L11.0633 -4.94788L12.0003 12Z" fill="#C2D6FF"/>
<path fill-rule="evenodd" clip-rule="evenodd" d="M12.0006 12L10.96 -4.94013L11.4803 -4.96509L12.0006 12Z" fill="#C1D5FF"/>
<path fill-rule="evenodd" clip-rule="evenodd" d="M12 12L11.375 -4.9603L11.8953 -4.97278L12 12Z" fill="#C0D4FF"/>
<path fill-rule="evenodd" clip-rule="evenodd" d="M12.0003 12.0001L11.792 -4.97083H12.3123L12.0003 12.0001Z" fill="#BFD4FF"/>
<path fill-rule="evenodd" clip-rule="evenodd" d="M12 12.0001L12.2083 -4.97083L12.7286 -4.95739L12 12.0001Z" fill="#BED3FF"/>
<path fill-rule="evenodd" clip-rule="evenodd" d="M12 12L12.625 -4.96033L13.1443 -4.93441L12 12Z" fill="#BDD2FF"/>
<path fill-rule="evenodd" clip-rule="evenodd" d="M12 12L13.0406 -4.94019L13.56 -4.90179L12 12Z" fill="#BCD2FF"/>
<path fill-rule="evenodd" clip-rule="evenodd" d="M12 12L13.4563 -4.90942L13.9747 -4.85854L12 12Z" fill="#BBD1FF"/>
<path fill-rule="evenodd" clip-rule="evenodd" d="M12 12L13.8701 -4.86816L14.3875 -4.8048L12 12Z" fill="#BAD0FF"/>
<path fill-rule="evenodd" clip-rule="evenodd" d="M12 12L14.2838 -4.81726L14.7994 -4.74142L12 12Z" fill="#B9D0FF"/>
<path fill-rule="evenodd" clip-rule="evenodd" d="M12 12L14.6957 -4.75586L15.2093 -4.66754L12 12Z" fill="#B8CFFF"/>
<path fill-rule="evenodd" clip-rule="evenodd" d="M12 12L15.1066 -4.68481L15.6173 -4.58401L12 12Z" fill="#B7CEFF"/>
<path fill-rule="evenodd" clip-rule="evenodd" d="M12 12L15.5146 -4.60413L16.0234 -4.48989L12 12Z" fill="#B6CDFF"/>
<path fill-rule="evenodd" clip-rule="evenodd" d="M12 12L15.9216 -4.51294L16.4266 -4.38622L12 12Z" fill="#B5CDFF"/>
<path fill-rule="evenodd" clip-rule="evenodd" d="M12 12.0001L16.3258 -4.41113L16.8269 -4.27289L12 12.0001Z" fill="#B4CCFF"/>
<path fill-rule="evenodd" clip-rule="evenodd" d="M12 12L16.727 -4.30078L17.2253 -4.1491L12 12Z" fill="#B3CBFF"/>
<path fill-rule="evenodd" clip-rule="evenodd" d="M12 12L17.1254 -4.17981L17.6198 -4.01565L12 12Z" fill="#B2CBFF"/>
<path fill-rule="evenodd" clip-rule="evenodd" d="M12 12L17.521 -4.04932L18.0115 -3.87364L12 12Z" fill="#B1CAFF"/>
<path fill-rule="evenodd" clip-rule="evenodd" d="M12 12.0001L17.9136 -3.90808L18.3994 -3.72088L12 12.0001Z" fill="#B0C9FF"/>
<path fill-rule="evenodd" clip-rule="evenodd" d="M12 12L18.3014 -3.75842L18.7834 -3.5597L12 12Z" fill="#AFC9FF"/>
<path fill-rule="evenodd" clip-rule="evenodd" d="M12 12L18.6864 -3.599L19.1626 -3.3878L12 12Z" fill="#AEC8FF"/>
<path fill-rule="evenodd" clip-rule="evenodd" d="M12 12L19.0675 -3.43005L19.5379 -3.20733L12 12Z" fill="#ADC7FF"/>
<path fill-rule="evenodd" clip-rule="evenodd" d="M12 12L19.4438 -3.25244L19.9094 -3.0182L12 12Z" fill="#ACC7FF"/>
<path fill-rule="evenodd" clip-rule="evenodd" d="M12 12L19.8163 -3.06531L20.2752 -2.81955L12 12Z" fill="#ABC6FF"/>
<path fill-rule="evenodd" clip-rule="evenodd" d="M12 12.0001L20.183 -2.86841L20.6371 -2.61209L12 12.0001Z" fill="#AAC5FF"/>
<path fill-rule="evenodd" clip-rule="evenodd" d="M12 12.0001L20.5459 -2.66296L20.9923 -2.39512L12 12.0001Z" fill="#A9C5FF"/>
<path fill-rule="evenodd" clip-rule="evenodd" d="M12 12L20.903 -2.44897L21.3427 -2.17057L12 12Z" fill="#A8C4FF"/>
<path fill-rule="evenodd" clip-rule="evenodd" d="M12 12L21.2554 -2.2262L21.6883 -1.93628L12 12Z" fill="#A7C3FF"/>
<path fill-rule="evenodd" clip-rule="evenodd" d="M12 12L21.6019 -1.99487L22.0272 -1.69535L12 12Z" fill="#A6C3FF"/>
<path fill-rule="evenodd" clip-rule="evenodd" d="M12 12L21.9418 -1.75488L22.3603 -1.4448L12 12Z" fill="#A5C2FF"/>
<path fill-rule="evenodd" clip-rule="evenodd" d="M12 12L22.2768 -1.5072L22.6867 -1.18656L12 12Z" fill="#A4C1FF"/>
<path fill-rule="evenodd" clip-rule="evenodd" d="M12 12L22.6051 -1.25085L23.0074 -0.920614L12 12Z" fill="#A3C1FF"/>
<path fill-rule="evenodd" clip-rule="evenodd" d="M12 12.0001L22.9267 -0.98584L23.3213 -0.646L12 12.0001Z" fill="#A2C0FF"/>
<path fill-rule="evenodd" clip-rule="evenodd" d="M12 12L23.2426 -0.714233L23.6285 -0.364793L12 12Z" fill="#A1BFFF"/>
<path fill-rule="evenodd" clip-rule="evenodd" d="M12 12.0001L23.5507 -0.434814L23.928 -0.0757745L12 12.0001Z" fill="#A0BFFF"/>
<path fill-rule="evenodd" clip-rule="evenodd" d="M12 12L23.8522 -0.147827L24.2208 0.220813L12 12Z" fill="#9FBEFF"/>
<path fill-rule="evenodd" clip-rule="evenodd" d="M12 12L24.1469 0.147827L24.5059 0.524147L12 12Z" fill="#9EBDFF"/>
<path fill-rule="evenodd" clip-rule="evenodd" d="M12 12.0001L24.4349 0.449341L24.7843 0.835261L12 12.0001Z" fill="#9DBDFF"/>
<path fill-rule="evenodd" clip-rule="evenodd" d="M12 12L24.7142 0.757446L25.0541 1.15201L12 12Z" fill="#9CBCFF"/>
<path fill-rule="evenodd" clip-rule="evenodd" d="M12 12L24.9859 1.07324L25.3162 1.47548L12 12Z" fill="#9BBBFF"/>
<path fill-rule="evenodd" clip-rule="evenodd" d="M12 12L25.2509 1.3949L25.5706 1.80578L12 12Z" fill="#9ABAFF"/>
<path fill-rule="evenodd" clip-rule="evenodd" d="M12 12.0001L25.5072 1.72327L25.8173 2.14183L12 12.0001Z" fill="#99BAFF"/>
<path fill-rule="evenodd" clip-rule="evenodd" d="M12 12L25.7549 2.05823L26.0544 2.48351L12 12Z" fill="#98B9FF"/>
<path fill-rule="evenodd" clip-rule="evenodd" d="M12 12L25.9949 2.39807L26.2838 2.83103L12 12Z" fill="#97B8FF"/>
<path fill-rule="evenodd" clip-rule="evenodd" d="M12 12L26.2262 2.74463L26.5046 3.18527L12 12Z" fill="#96B8FF"/>
<path fill-rule="evenodd" clip-rule="evenodd" d="M12 12L26.449 3.09692L26.7168 3.54332L12 12Z" fill="#95B7FF"/>
<path fill-rule="evenodd" clip-rule="evenodd" d="M12 12L26.663 3.4541L26.9194 3.90722L12 12Z" fill="#94B6FF"/>
<path fill-rule="evenodd" clip-rule="evenodd" d="M12 12.0001L26.8685 3.81702L27.1133 4.2759L12 12.0001Z" fill="#93B6FF"/>
<path fill-rule="evenodd" clip-rule="evenodd" d="M12 12L27.0643 4.18372L27.2986 4.64932L12 12Z" fill="#92B5FF"/>
<path fill-rule="evenodd" clip-rule="evenodd" d="M12 12L27.2525 4.55615L27.4742 5.02655L12 12Z" fill="#91B4FF"/>
<path fill-rule="evenodd" clip-rule="evenodd" d="M12 12L27.4301 4.9325L27.6413 5.40866L12 12Z" fill="#90B4FF"/>
<path fill-rule="evenodd" clip-rule="evenodd" d="M12 12L27.599 5.31262L27.7978 5.79454L12 12Z" fill="#8FB3FF"/>
<path fill-rule="evenodd" clip-rule="evenodd" d="M12 12L27.7584 5.69763L27.9456 6.18435L12 12Z" fill="#8EB2FF"/>
<path fill-rule="evenodd" clip-rule="evenodd" d="M12 12L27.9082 6.08643L28.0838 6.57699L12 12Z" fill="#8DB2FF"/>
<path fill-rule="evenodd" clip-rule="evenodd" d="M12 12L28.0483 6.479L28.2115 6.9734L12 12Z" fill="#8CB1FF"/>
<path fill-rule="evenodd" clip-rule="evenodd" d="M12 12.0001L28.1789 6.87463L28.3306 7.37287L12 12.0001Z" fill="#8BB0FF"/>
<path fill-rule="evenodd" clip-rule="evenodd" d="M12 12L28.2998 7.27295L28.439 7.77503L12 12Z" fill="#8AB0FF"/>
<path fill-rule="evenodd" clip-rule="evenodd" d="M12 12.0001L28.4112 7.67432L28.5379 8.17928L12 12.0001Z" fill="#89AFFF"/>
<path fill-rule="evenodd" clip-rule="evenodd" d="M12 12L28.513 8.07837L28.6262 8.58621L12 12Z" fill="#88AEFF"/>
<path fill-rule="evenodd" clip-rule="evenodd" d="M12 12L28.6032 8.48547L28.705 8.99523L12 12Z" fill="#87AEFF"/>
<path fill-rule="evenodd" clip-rule="evenodd" d="M12 12L28.6848 8.89343L28.7741 9.40607L12 12Z" fill="#86ADFF"/>
<path fill-rule="evenodd" clip-rule="evenodd" d="M12 12L28.7558 9.30334L28.8326 9.81886L12 12Z" fill="#85ACFF"/>
<path fill-rule="evenodd" clip-rule="evenodd" d="M12 12L28.8173 9.71619L28.8806 10.2327L12 12Z" fill="#84ACFF"/>
<path fill-rule="evenodd" clip-rule="evenodd" d="M12 12.0001L28.8682 10.129L28.919 10.6474L12 12.0001Z" fill="#83ABFF"/>
<path fill-rule="evenodd" clip-rule="evenodd" d="M12 12L28.9094 10.5437L28.9478 11.0631L12 12Z" fill="#82AAFF"/>
<path fill-rule="evenodd" clip-rule="evenodd" d="M12 12L28.9402 10.9594L28.9651 11.4797L12 12Z" fill="#81AAFF"/>
<path fill-rule="evenodd" clip-rule="evenodd" d="M12 12L28.9603 11.375L28.9728 11.8953L12 12Z" fill="#80A9FF"/>
<path fill-rule="evenodd" clip-rule="evenodd" d="M12 12.0001L28.9699 11.7917V12.3121L12 12.0001Z" fill="#7FA8FF"/>
<path fill-rule="evenodd" clip-rule="evenodd" d="M12 12L28.9699 12.2083L28.9574 12.7286L12 12Z" fill="#7EA7FF"/>
<path fill-rule="evenodd" clip-rule="evenodd" d="M12 12L28.9603 12.625L28.9344 13.1443L12 12Z" fill="#7DA7FF"/>
<path fill-rule="evenodd" clip-rule="evenodd" d="M12 12L28.9402 13.0406L28.9018 13.56L12 12Z" fill="#7CA6FF"/>
<path fill-rule="evenodd" clip-rule="evenodd" d="M12 12L28.9094 13.4563L28.8586 13.9747L12 12Z" fill="#7BA5FF"/>
<path fill-rule="evenodd" clip-rule="evenodd" d="M12 12L28.8682 13.8701L28.8048 14.3875L12 12Z" fill="#7AA5FF"/>
<path fill-rule="evenodd" clip-rule="evenodd" d="M12 12L28.8173 14.2838L28.7405 14.7994L12 12Z" fill="#79A4FF"/>
<path fill-rule="evenodd" clip-rule="evenodd" d="M12 12L28.7558 14.6957L28.6675 15.2093L12 12Z" fill="#78A3FF"/>
<path fill-rule="evenodd" clip-rule="evenodd" d="M12 12L28.6848 15.1066L28.583 15.6173L12 12Z" fill="#77A3FF"/>
<path fill-rule="evenodd" clip-rule="evenodd" d="M12 12L28.6032 15.5146L28.4899 16.0234L12 12Z" fill="#76A2FF"/>
<path fill-rule="evenodd" clip-rule="evenodd" d="M12 12L28.513 15.9216L28.3862 16.4266L12 12Z" fill="#75A1FF"/>
<path fill-rule="evenodd" clip-rule="evenodd" d="M12 12L28.4112 16.3258L28.273 16.8269L12 12Z" fill="#74A1FF"/>
<path fill-rule="evenodd" clip-rule="evenodd" d="M12 12L28.2998 16.727L28.1491 17.2253L12 12Z" fill="#73A0FF"/>
<path fill-rule="evenodd" clip-rule="evenodd" d="M12 12L28.1789 17.1254L28.0157 17.6198L12 12Z" fill="#729FFF"/>
<path fill-rule="evenodd" clip-rule="evenodd" d="M12 12L28.0483 17.521L27.8736 18.0115L12 12Z" fill="#719FFF"/>
<path fill-rule="evenodd" clip-rule="evenodd" d="M12 12L27.9082 17.9136L27.721 18.3994L12 12Z" fill="#709EFF"/>
<path fill-rule="evenodd" clip-rule="evenodd" d="M12 12L27.7584 18.3014L27.5587 18.7834L12 12Z" fill="#6F9DFF"/>
<path fill-rule="evenodd" clip-rule="evenodd" d="M12 12L27.599 18.6864L27.3878 19.1626L12 12Z" fill="#6E9DFF"/>
<path fill-rule="evenodd" clip-rule="evenodd" d="M12 12L27.4301 19.0675L27.2074 19.5379L12 12Z" fill="#6D9CFF"/>
<path fill-rule="evenodd" clip-rule="evenodd" d="M12 12L27.2525 19.4438L27.0182 19.9094L12 12Z" fill="#6C9BFF"/>
<path fill-rule="evenodd" clip-rule="evenodd" d="M12 12L27.0643 19.8163L26.8195 20.2752L12 12Z" fill="#6B9BFF"/>
<path fill-rule="evenodd" clip-rule="evenodd" d="M12 12L26.8685 20.183L26.6122 20.6371L12 12Z" fill="#6A9AFF"/>
<path fill-rule="evenodd" clip-rule="evenodd" d="M12 12L26.663 20.5459L26.3952 20.9923L12 12Z" fill="#6999FF"/>
<path fill-rule="evenodd" clip-rule="evenodd" d="M12 12L26.449 20.903L26.1706 21.3427L12 12Z" fill="#6899FF"/>
<path fill-rule="evenodd" clip-rule="evenodd" d="M12 12L26.2262 21.2554L25.9363 21.6883L12 12Z" fill="#6798FF"/>
<path fill-rule="evenodd" clip-rule="evenodd" d="M12 12L25.9949 21.6019L25.6954 22.0272L12 12Z" fill="#6697FF"/>
<path fill-rule="evenodd" clip-rule="evenodd" d="M12 12L25.7549 21.9418L25.4448 22.3603L12 12Z" fill="#6597FF"/>
<path fill-rule="evenodd" clip-rule="evenodd" d="M12 12L25.5072 22.2768L25.1866 22.6867L12 12Z" fill="#6496FF"/>
<path fill-rule="evenodd" clip-rule="evenodd" d="M12 12L25.2509 22.6051L24.9206 23.0074L12 12Z" fill="#6395FF"/>
<path fill-rule="evenodd" clip-rule="evenodd" d="M12 12L24.9859 22.9267L24.6461 23.3213L12 12Z" fill="#6294FF"/>
<path fill-rule="evenodd" clip-rule="evenodd" d="M12 12L24.7142 23.2426L24.3648 23.6285L12 12Z" fill="#6194FF"/>
<path fill-rule="evenodd" clip-rule="evenodd" d="M12 12L24.4349 23.5507L24.0758 23.928L12 12Z" fill="#6093FF"/>
<path fill-rule="evenodd" clip-rule="evenodd" d="M12 12L24.1469 23.8522L23.7792 24.2208L12 12Z" fill="#5F92FF"/>
<path fill-rule="evenodd" clip-rule="evenodd" d="M12 12L23.8522 24.1469L23.4758 24.5059L12 12Z" fill="#5E92FF"/>
<path fill-rule="evenodd" clip-rule="evenodd" d="M12 12L23.5507 24.4349L23.1648 24.7843L12 12Z" fill="#5D91FF"/>
<path fill-rule="evenodd" clip-rule="evenodd" d="M12 12L23.2426 24.7142L22.848 25.0541L12 12Z" fill="#5C90FF"/>
<path fill-rule="evenodd" clip-rule="evenodd" d="M12 12L22.9267 24.9859L22.5245 25.3162L12 12Z" fill="#5B90FF"/>
<path fill-rule="evenodd" clip-rule="evenodd" d="M12 12L22.6051 25.2509L22.1942 25.5706L12 12Z" fill="#5A8FFF"/>
<path fill-rule="evenodd" clip-rule="evenodd" d="M12 12L22.2768 25.5072L21.8582 25.8173L12 12Z" fill="#598EFF"/>
<path fill-rule="evenodd" clip-rule="evenodd" d="M12 12L21.9418 25.7549L21.5165 26.0544L12 12Z" fill="#588EFF"/>
<path fill-rule="evenodd" clip-rule="evenodd" d="M12 12L21.6019 25.9949L21.168 26.2838L12 12Z" fill="#578DFF"/>
<path fill-rule="evenodd" clip-rule="evenodd" d="M12 12L21.2554 26.2262L20.8147 26.5046L12 12Z" fill="#568CFF"/>
<path fill-rule="evenodd" clip-rule="evenodd" d="M12 12L20.903 26.449L20.4566 26.7168L12 12Z" fill="#558CFF"/>
<path fill-rule="evenodd" clip-rule="evenodd" d="M12 12L20.5459 26.663L20.0928 26.9194L12 12Z" fill="#548BFF"/>
<path fill-rule="evenodd" clip-rule="evenodd" d="M12 12L20.183 26.8685L19.7242 27.1133L12 12Z" fill="#538AFF"/>
<path fill-rule="evenodd" clip-rule="evenodd" d="M12 12L19.8163 27.0643L19.3507 27.2986L12 12Z" fill="#528AFF"/>
<path fill-rule="evenodd" clip-rule="evenodd" d="M12 12L19.4438 27.2525L18.9734 27.4742L12 12Z" fill="#5189FF"/>
<path fill-rule="evenodd" clip-rule="evenodd" d="M12 12L19.0675 27.4301L18.5914 27.6413L12 12Z" fill="#5088FF"/>
<path fill-rule="evenodd" clip-rule="evenodd" d="M12 12L18.6864 27.599L18.2054 27.7978L12 12Z" fill="#4F88FF"/>
<path fill-rule="evenodd" clip-rule="evenodd" d="M12 12L18.3014 27.7584L17.8157 27.9456L12 12Z" fill="#4E87FF"/>
<path fill-rule="evenodd" clip-rule="evenodd" d="M12 12L17.9136 27.9082L17.423 28.0838L12 12Z" fill="#4D86FF"/>
<path fill-rule="evenodd" clip-rule="evenodd" d="M12 12L17.521 28.0483L17.0266 28.2115L12 12Z" fill="#4C86FF"/>
<path fill-rule="evenodd" clip-rule="evenodd" d="M12 12L17.1254 28.1789L16.6272 28.3306L12 12Z" fill="#4B85FF"/>
<path fill-rule="evenodd" clip-rule="evenodd" d="M12 12L16.727 28.2998L16.225 28.439L12 12Z" fill="#4A84FF"/>
<path fill-rule="evenodd" clip-rule="evenodd" d="M12 12L16.3258 28.4112L15.8198 28.5379L12 12Z" fill="#4984FF"/>
<path fill-rule="evenodd" clip-rule="evenodd" d="M12 12L15.9216 28.513L15.4138 28.6262L12 12Z" fill="#4883FF"/>
<path fill-rule="evenodd" clip-rule="evenodd" d="M12 12L15.5146 28.6032L15.0038 28.705L12 12Z" fill="#4782FF"/>
<path fill-rule="evenodd" clip-rule="evenodd" d="M12 12L15.1066 28.6848L14.5939 28.7741L12 12Z" fill="#4681FF"/>
<path fill-rule="evenodd" clip-rule="evenodd" d="M12 12L14.6957 28.7558L14.1811 28.8326L12 12Z" fill="#4581FF"/>
<path fill-rule="evenodd" clip-rule="evenodd" d="M12 12L14.2838 28.8173L13.7674 28.8806L12 12Z" fill="#4480FF"/>
<path fill-rule="evenodd" clip-rule="evenodd" d="M12 12L13.8701 28.8682L13.3526 28.919L12 12Z" fill="#437FFF"/>
<path fill-rule="evenodd" clip-rule="evenodd" d="M12 12L13.4563 28.9094L12.937 28.9478L12 12Z" fill="#427FFF"/>
<path fill-rule="evenodd" clip-rule="evenodd" d="M12 12L13.0406 28.9402L12.5203 28.9651L12 12Z" fill="#417EFF"/>
<path fill-rule="evenodd" clip-rule="evenodd" d="M12 12L12.625 28.9603L12.1037 28.9728L12 12Z" fill="#407DFF"/>
<path fill-rule="evenodd" clip-rule="evenodd" d="M12.0005 12L12.2088 28.9699H11.6875L12.0005 12Z" fill="#3F7DFF"/>
<path fill-rule="evenodd" clip-rule="evenodd" d="M12.0001 12L11.7918 28.9699L11.2715 28.9574L12.0001 12Z" fill="#3E7CFF"/>
<path fill-rule="evenodd" clip-rule="evenodd" d="M11.9998 12L11.3748 28.9603L10.8545 28.9344L11.9998 12Z" fill="#3D7BFF"/>
<path fill-rule="evenodd" clip-rule="evenodd" d="M12.0004 12L10.9598 28.9402L10.4404 28.9018L12.0004 12Z" fill="#3C7BFF"/>
<path fill-rule="evenodd" clip-rule="evenodd" d="M12.0001 12L10.5438 28.9094L10.0254 28.8586L12.0001 12Z" fill="#3B7AFF"/>
<path fill-rule="evenodd" clip-rule="evenodd" d="M11.9998 12L10.1288 28.8682L9.6123 28.8048L11.9998 12Z" fill="#3A79FF"/>
<path fill-rule="evenodd" clip-rule="evenodd" d="M12.0005 12L9.71669 28.8173L9.20117 28.7405L12.0005 12Z" fill="#3979FF"/>
<path fill-rule="evenodd" clip-rule="evenodd" d="M12.0003 12L9.30366 28.7558L8.79102 28.6675L12.0003 12Z" fill="#3878FF"/>
<path fill-rule="evenodd" clip-rule="evenodd" d="M12.0001 12L8.89353 28.6848L8.38281 28.583L12.0001 12Z" fill="#3777FF"/>
<path fill-rule="evenodd" clip-rule="evenodd" d="M11.9999 12L8.48536 28.6032L7.97656 28.4899L11.9999 12Z" fill="#3677FF"/>
<path fill-rule="evenodd" clip-rule="evenodd" d="M11.9998 12L8.0782 28.513L7.57324 28.3862L11.9998 12Z" fill="#3576FF"/>
<path fill-rule="evenodd" clip-rule="evenodd" d="M11.9997 12L7.67396 28.4112L7.17188 28.273L11.9997 12Z" fill="#3475FF"/>
<path fill-rule="evenodd" clip-rule="evenodd" d="M11.9997 12L7.27265 28.2998L6.77441 28.1491L11.9997 12Z" fill="#3375FF"/>
<path fill-rule="evenodd" clip-rule="evenodd" d="M11.9997 12L6.87428 28.1789L6.37988 28.0157L11.9997 12Z" fill="#3274FF"/>
<path fill-rule="evenodd" clip-rule="evenodd" d="M11.9998 12L6.47884 28.0483L5.98828 27.8736L11.9998 12Z" fill="#3173FF"/>
<path fill-rule="evenodd" clip-rule="evenodd" d="M11.9999 12L6.08635 27.9082L5.60059 27.721L11.9999 12Z" fill="#3073FF"/>
<path fill-rule="evenodd" clip-rule="evenodd" d="M12.0002 12L5.69776 27.7584L5.2168 27.5587L12.0002 12Z" fill="#2F72FF"/>
<path fill-rule="evenodd" clip-rule="evenodd" d="M12.0005 12L5.31309 27.599L4.83789 27.3878L12.0005 12Z" fill="#2E71FF"/>
<path fill-rule="evenodd" clip-rule="evenodd" d="M11.9998 12L4.93231 27.4301L4.46191 27.2074L11.9998 12Z" fill="#2D71FF"/>
<path fill-rule="evenodd" clip-rule="evenodd" d="M12.0003 12L4.55642 27.2525L4.09082 27.0182L12.0003 12Z" fill="#2C70FF"/>
<path fill-rule="evenodd" clip-rule="evenodd" d="M11.9998 12L4.18349 27.0643L3.72461 26.8195L11.9998 12Z" fill="#2B6FFF"/>
<path fill-rule="evenodd" clip-rule="evenodd" d="M12.0004 12L3.81736 26.8685L3.36328 26.6122L12.0004 12Z" fill="#2A6EFF"/>
<path fill-rule="evenodd" clip-rule="evenodd" d="M12.0001 12L3.45421 26.663L3.00781 26.3952L12.0001 12Z" fill="#296EFF"/>
<path fill-rule="evenodd" clip-rule="evenodd" d="M11.9999 12L3.09689 26.449L2.65625 26.1706L11.9999 12Z" fill="#286DFF"/>
<path fill-rule="evenodd" clip-rule="evenodd" d="M11.9998 12L2.74448 26.2262L2.31152 25.9363L11.9998 12Z" fill="#276CFF"/>
<path fill-rule="evenodd" clip-rule="evenodd" d="M11.9999 12L2.39794 25.9949L1.97266 25.6954L11.9999 12Z" fill="#266CFF"/>
<path fill-rule="evenodd" clip-rule="evenodd" d="M12 12L2.05821 25.7549L1.63965 25.4448L12 12Z" fill="#256BFF"/>
<path fill-rule="evenodd" clip-rule="evenodd" d="M12.0002 12L1.72338 25.5072L1.3125 25.1866L12.0002 12Z" fill="#246AFF"/>
<path fill-rule="evenodd" clip-rule="evenodd" d="M12.0005 12L1.3954 25.2509L0.993164 24.9206L12.0005 12Z" fill="#236AFF"/>
<path fill-rule="evenodd" clip-rule="evenodd" d="M12 12L1.07327 24.9859L0.678711 24.6461L12 12Z" fill="#2269FF"/>
<path fill-rule="evenodd" clip-rule="evenodd" d="M12.0006 12L0.75799 24.7142L0.37207 24.3648L12.0006 12Z" fill="#2168FF"/>
<path fill-rule="evenodd" clip-rule="evenodd" d="M12.0003 12L0.449546 24.4349L0.0722656 24.0758L12.0003 12Z" fill="#2068FF"/>
<path fill-rule="evenodd" clip-rule="evenodd" d="M12.0001 12L0.147937 24.1469L-0.220703 23.7792L12.0001 12Z" fill="#1F67FF"/>
<path fill-rule="evenodd" clip-rule="evenodd" d="M12.0001 12L-0.147779 23.8522L-0.505859 23.4758L12.0001 12Z" fill="#1E66FF"/>
<path fill-rule="evenodd" clip-rule="evenodd" d="M12.0001 12L-0.43474 23.5507L-0.78418 23.1648L12.0001 12Z" fill="#1D66FF"/>
<path fill-rule="evenodd" clip-rule="evenodd" d="M12.0004 12L-0.713871 23.2426L-1.05371 22.848L12.0004 12Z" fill="#1C65FF"/>
<path fill-rule="evenodd" clip-rule="evenodd" d="M11.9998 12L-0.986166 22.9267L-1.31641 22.5245L11.9998 12Z" fill="#1B64FF"/>
<path fill-rule="evenodd" clip-rule="evenodd" d="M12.0002 12L-1.25063 22.6051L-1.57031 22.1942L12.0002 12Z" fill="#1A64FF"/>
<path fill-rule="evenodd" clip-rule="evenodd" d="M11.9999 12L-1.5073 22.2768L-1.81738 21.8582L11.9999 12Z" fill="#1963FF"/>
<path fill-rule="evenodd" clip-rule="evenodd" d="M11.9997 12L-1.75517 21.9418L-2.05469 21.5165L11.9997 12Z" fill="#1862FF"/>
<path fill-rule="evenodd" clip-rule="evenodd" d="M11.9997 12L-1.99522 21.6019L-2.28418 21.168L11.9997 12Z" fill="#1762FF"/>
<path fill-rule="evenodd" clip-rule="evenodd" d="M11.9998 12L-2.22648 21.2554L-2.50488 20.8147L11.9998 12Z" fill="#1661FF"/>
<path fill-rule="evenodd" clip-rule="evenodd" d="M12 12L-2.44896 20.903L-2.7168 20.4566L12 12Z" fill="#1560FF"/>
<path fill-rule="evenodd" clip-rule="evenodd" d="M12.0004 12L-2.66263 20.5459L-2.91895 20.0928L12.0004 12Z" fill="#1460FF"/>
<path fill-rule="evenodd" clip-rule="evenodd" d="M12 12L-2.8685 20.183L-3.11426 19.7242L12 12Z" fill="#135FFF"/>
<path fill-rule="evenodd" clip-rule="evenodd" d="M11.9997 12L-3.06555 19.8163L-3.29883 19.3507L11.9997 12Z" fill="#125EFF"/>
<path fill-rule="evenodd" clip-rule="evenodd" d="M12.0006 12L-3.25187 19.4438L-3.47363 18.9734L12.0006 12Z" fill="#115EFF"/>
<path fill-rule="evenodd" clip-rule="evenodd" d="M11.9997 12L-3.4304 19.0675L-3.6416 18.5914L11.9997 12Z" fill="#105DFF"/>
<path fill-rule="evenodd" clip-rule="evenodd" d="M11.9999 12L-3.59915 18.6864L-3.79883 18.2054L11.9999 12Z" fill="#0F5CFF"/>
<path fill-rule="evenodd" clip-rule="evenodd" d="M12.0003 12L-3.75811 18.3014L-3.94531 17.8157L12.0003 12Z" fill="#0E5BFF"/>
<path fill-rule="evenodd" clip-rule="evenodd" d="M11.9999 12L-3.9083 17.9136L-4.08398 17.423L11.9999 12Z" fill="#0D5BFF"/>
<path fill-rule="evenodd" clip-rule="evenodd" d="M12.0006 12L-4.0487 17.521L-4.21094 17.0266L12.0006 12Z" fill="#0C5AFF"/>
<path fill-rule="evenodd" clip-rule="evenodd" d="M12.0005 12L-4.17936 17.1254L-4.33008 16.6272L12.0005 12Z" fill="#0B59FF"/>
<path fill-rule="evenodd" clip-rule="evenodd" d="M12.0006 12L-4.30024 16.727L-4.43848 16.225L12.0006 12Z" fill="#0A59FF"/>
<path fill-rule="evenodd" clip-rule="evenodd" d="M11.9998 12L-4.41137 16.3258L-4.53809 15.8198L11.9998 12Z" fill="#0958FF"/>
<path fill-rule="evenodd" clip-rule="evenodd" d="M12.0003 12L-4.5127 15.9216L-4.62598 15.4138L12.0003 12Z" fill="#0857FF"/>
<path fill-rule="evenodd" clip-rule="evenodd" d="M11.9999 12L-4.60428 15.5146L-4.70508 15.0038L11.9999 12Z" fill="#0757FF"/>
<path fill-rule="evenodd" clip-rule="evenodd" d="M11.9997 12L-4.68513 15.1066L-4.77441 14.5939L11.9997 12Z" fill="#0656FF"/>
<path fill-rule="evenodd" clip-rule="evenodd" d="M12.0006 12L-4.75523 14.6957L-4.83203 14.1811L12.0006 12Z" fill="#0555FF"/>
<path fill-rule="evenodd" clip-rule="evenodd" d="M11.9998 12L-4.8175 14.2838L-4.88086 13.7674L11.9998 12Z" fill="#0455FF"/>
<path fill-rule="evenodd" clip-rule="evenodd" d="M12.0001 12L-4.86807 13.8701L-4.91895 13.3526L12.0001 12Z" fill="#0354FF"/>
<path fill-rule="evenodd" clip-rule="evenodd" d="M12.0006 12L-4.90887 13.4563L-4.94727 12.937L12.0006 12Z" fill="#0253FF"/>
<path fill-rule="evenodd" clip-rule="evenodd" d="M12.0003 12L-4.93988 13.0406L-4.96484 12.5203L12.0003 12Z" fill="#0153FF"/>
<path fill-rule="evenodd" clip-rule="evenodd" d="M12.0001 12L-4.96018 12.625L-4.97266 12.1037L12.0001 12Z" fill="#0052FF"/>
<path fill-rule="evenodd" clip-rule="evenodd" d="M12.0002 12.0001L-4.9707 12.2084V11.7917L12.0002 12.0001Z" fill="white"/>
</g>
</g>
</g>
<defs>
<clipPath id="clip0_534_4902">
<rect width="24" height="24" fill="white"/>
</clipPath>
<clipPath id="clip1_534_4902">
<rect width="24" height="24" fill="white"/>
</clipPath>
</defs>
</svg>
