<svg width="24" height="24" viewBox="0 0 24 24" fill="none" xmlns="http://www.w3.org/2000/svg">
<mask id="mask0_534_4321" style="mask-type:luminance" maskUnits="userSpaceOnUse" x="0" y="0" width="24" height="24">
<path d="M0 0H23.984V24H0V0Z" fill="white"/>
</mask>
<g mask="url(#mask0_534_4321)">
<path d="M6.00032 3.69984L12.4006 0L18.801 3.69984L16.401 4.99968L12.4006 2.69952L8.30048 4.99968L6.00032 3.69984ZM18.7002 8.30016L16.4 7.00032L12.4006 9.30048L8.30048 7.00032L6.00032 8.30016V11.0006L10.0006 13.3008V18.001L12.3008 19.4006L14.601 18.001V13.4006L18.6013 11.1005V8.30016H18.7002ZM18.7002 15.6998V13.0003L16.401 14.4V16.9997L18.7002 15.6998ZM20.4003 16.6003L16.4 18.9005V21.6L22.8003 17.9002V10.5005L20.4003 12V16.6003ZM18.1011 6L20.4013 7.39968V10.1002L22.7014 8.70048V6L20.4013 4.60032L18.1011 6ZM10.0006 19.8998V22.5994L12.3008 23.999L14.601 22.5994V19.8998L12.3008 21.2995L10.0006 19.8998ZM6.00032 15.6998L8.30048 16.9997V14.3002L6.00032 12.9005V15.6998ZM10.0006 6L12.3008 7.39968L14.7008 6L12.4006 4.60032L10.0006 6ZM4.30016 7.39968L6.70016 6L4.30016 4.60032L2.00096 6V8.69952L4.30112 10.0992L4.30016 7.39968ZM4.30016 12L2 10.6003V18L8.40032 21.6998V19.0003L4.4 16.7002V12H4.30016Z" fill="#F0B90B"/>
</g>
</svg>
