<svg width="24" height="24" viewBox="0 0 24 24" fill="none" xmlns="http://www.w3.org/2000/svg">
<g clip-path="url(#clip0_534_4197)">
<path d="M12 24C18.6274 24 24 18.6274 24 12C24 5.37258 18.6274 0 12 0C5.37258 0 0 5.37258 0 12C0 18.6274 5.37258 24 12 24Z" fill="#1969FF"/>
<path d="M11.2734 3.8156C11.6766 3.60232 12.293 3.60232 12.6961 3.8156L16.8211 5.9906C17.0648 6.11951 17.1984 6.30935 17.2219 6.50857H17.2266V17.4398C17.2219 17.6554 17.0859 17.8687 16.8211 18.0094L12.6961 20.1844C12.293 20.3976 11.6766 20.3976 11.2734 20.1844L7.14844 18.0094C6.88594 17.8711 6.75938 17.6554 6.75234 17.4398C6.75234 17.4187 6.75234 17.4 6.75234 17.3859V6.58357C6.75234 6.56951 6.75234 6.5531 6.75234 6.53904V6.51091H6.75469C6.77344 6.31169 6.9 6.12419 7.14844 5.99294L11.2734 3.8156ZM16.5703 12.5859L12.6937 14.6367C12.2906 14.85 11.6766 14.85 11.2711 14.6367L7.40391 12.5906V17.407L11.2711 19.4414C11.5008 19.5633 11.7375 19.6828 11.9695 19.6875H11.9836C12.2156 19.6875 12.4383 19.5703 12.6656 19.4601L16.5703 17.3883V12.5859ZM6.10312 17.2031C6.10312 17.6226 6.15234 17.8969 6.24609 18.0914C6.32578 18.2531 6.44531 18.375 6.66328 18.525L6.675 18.5344C6.72187 18.5672 6.77578 18.6 6.83906 18.6398L6.91406 18.6867L7.14609 18.8273L6.81562 19.3828L6.55547 19.2258L6.51094 19.1976C6.43594 19.1508 6.37266 19.1109 6.31641 19.0711C5.69531 18.6492 5.46563 18.1898 5.46094 17.2312V17.2031H6.10312ZM11.6719 9.67966C11.6414 9.68904 11.6133 9.7031 11.5875 9.71482L7.46953 11.8969C7.46484 11.8992 7.46016 11.9015 7.45781 11.9039L7.45312 11.9062L7.46016 11.9109L7.46953 11.9156L11.5875 14.0976C11.6133 14.1117 11.6414 14.1234 11.6719 14.1328V9.67966ZM12.3281 9.67966V14.1328C12.3586 14.1234 12.3867 14.1094 12.4125 14.0976L16.5305 11.9156C16.5352 11.9133 16.5398 11.9109 16.5422 11.9086L16.5445 11.9062L16.5375 11.9015L16.5281 11.8969L12.4102 9.71482C12.3867 9.7031 12.3586 9.68904 12.3281 9.67966ZM16.5703 7.28904L12.8672 9.23435L16.5703 11.1797V7.28904ZM7.40625 7.28904V11.1797L11.1094 9.23435L7.40625 7.28904ZM12.4078 4.39685C12.1945 4.28435 11.8055 4.28435 11.5922 4.39685L7.46953 6.57654C7.46484 6.57888 7.46016 6.58123 7.45781 6.58357L7.45312 6.58591L7.46016 6.5906L7.46953 6.59529L11.5922 8.77498C11.8055 8.88748 12.1945 8.88748 12.4078 8.77498L16.5305 6.59529C16.5352 6.59294 16.5398 6.5906 16.5422 6.58826L16.5445 6.58591L16.5375 6.58123L16.5281 6.57654L12.4078 4.39685ZM17.1844 4.61716L17.4445 4.77419L17.4891 4.80232C17.5641 4.84919 17.6273 4.88904 17.6836 4.92888C18.3047 5.35076 18.5344 5.81013 18.5391 6.76873V6.79685H17.8969C17.8969 6.37732 17.8477 6.1031 17.7539 5.90857C17.6742 5.74685 17.5547 5.62498 17.3367 5.47498L17.325 5.4656C17.2781 5.43279 17.2242 5.39998 17.1609 5.36013L17.0859 5.31326L16.8539 5.17263L17.1844 4.61716Z" fill="white"/>
</g>
<defs>
<clipPath id="clip0_534_4197">
<rect width="24" height="24" fill="white"/>
</clipPath>
</defs>
</svg>
