<svg width="24" height="24" viewBox="0 0 24 24" fill="none" xmlns="http://www.w3.org/2000/svg">
<path d="M12 24C18.6274 24 24 18.6274 24 12C24 5.37258 18.6274 0 12 0C5.37258 0 0 5.37258 0 12C0 18.6274 5.37258 24 12 24Z" fill="#072723"/>
<path d="M20.5,11.9184c0.0,5.5972,-3.4365,7.3935,-5.2588,5.8055 -1.4839,-1.3017,-1.9265,-4.0612,-4.1654,-4.3476 -2.8377,-0.3384,-3.098,3.4364,-4.9724,3.4364 -2.1868,0.0,-2.6034,-3.1501,-2.6034,-4.7902 0.0,-1.6662,0.4686,-3.9311,2.317,-3.9311 2.1608,0.0,2.291,3.2542,4.9985,3.072 2.6815,-0.1822,2.7335,-3.5666,4.5038,-4.9985 1.5359,-1.2757,5.1807,0.0781,5.1807,5.7534Z" fill="#97FCE4"/>
</svg>
