<svg width="24" height="24" viewBox="0 0 24 24" fill="none" xmlns="http://www.w3.org/2000/svg">
<g clip-path="url(#clip0_534_5756)">
<g clip-path="url(#clip1_534_5756)">
<g clip-path="url(#clip2_534_5756)">
<rect width="24" height="24" rx="12" fill="white"/>
<path d="M24 0H0V24H24V0Z" fill="#FFEEDA"/>
<path d="M18.0212 14.1622V5.97844C18.0104 5.29195 17.4644 4.7406 16.778 4.7406H8.23741C6.39417 4.76763 4.91309 6.27574 4.91309 8.12438C4.91309 8.74601 5.08065 9.28114 5.33471 9.75141C5.55092 10.1406 5.89146 10.5082 6.2266 10.7838C6.3239 10.8595 6.27525 10.8271 6.56714 11.0055C6.96714 11.2487 7.4266 11.373 7.4266 11.373L7.42119 16.2703C7.432 16.5028 7.45363 16.7244 7.51849 16.9352C7.70768 17.6271 8.18876 18.1568 8.83741 18.4109C9.10768 18.519 9.41579 18.5892 9.74552 18.5947L16.5671 18.6163C17.9239 18.6163 19.0266 17.5136 19.0266 16.1514C19.032 15.3406 18.6266 14.6163 18.0212 14.1622Z" fill="#FFEEDA"/>
<path d="M18.189 16.2109C18.162 17.0811 17.4431 17.7838 16.562 17.7838L11.8701 17.7676C12.2431 17.3352 12.4701 16.773 12.4701 16.1568C12.4701 15.1947 11.8971 14.5298 11.8971 14.5298H16.5674C17.4647 14.5298 18.1944 15.2595 18.1944 16.1568L18.189 16.2109Z" fill="#EBC28E"/>
<path d="M6.67525 10.0922C6.13471 9.57865 5.75633 8.91919 5.75633 8.13V8.04892C5.79957 6.70838 6.90228 5.6273 8.24282 5.58946H16.7834C17.005 5.60027 17.1834 5.75703 17.1834 5.98405V13.2111C17.378 13.2435 17.4752 13.2705 17.6644 13.3408C17.8158 13.3949 18.0212 13.5138 18.0212 13.5138V5.98405C18.0104 5.29757 17.4644 4.74622 16.778 4.74622H8.23741C6.39417 4.77324 4.91309 6.28135 4.91309 8.13C4.91309 9.20567 5.40498 10.1246 6.20498 10.7678C6.25903 10.8111 6.31309 10.8705 6.45363 10.8705C6.70228 10.8705 6.88065 10.6705 6.86984 10.4543C6.86984 10.2705 6.78876 10.2057 6.67525 10.0922Z" fill="#101010"/>
<path d="M16.5617 13.6865H9.86437C9.41572 13.6919 9.05356 14.0541 9.05356 14.5028V15.4649C9.06437 15.9082 9.44275 16.2865 9.8968 16.2865H10.3941V15.4649H9.8914V14.5244C9.8914 14.5244 10.0157 14.5244 10.1617 14.5244C11.0103 14.5244 11.6319 15.3082 11.6319 16.1514C11.6319 16.8973 10.9509 17.8487 9.81572 17.773C8.81031 17.7082 8.26437 16.8109 8.26437 16.1514V7.98924C8.26437 7.62167 7.96167 7.31897 7.5941 7.31897H6.92383V8.15681H7.42113V16.1568C7.3941 17.7838 8.57788 18.6001 9.81572 18.6001L16.5671 18.6217C17.9238 18.6217 19.0265 17.519 19.0265 16.1568C19.0319 14.7946 17.9238 13.6865 16.5617 13.6865ZM18.1887 16.2109C18.1617 17.0811 17.4427 17.7838 16.5617 17.7838L11.8698 17.7676C12.2427 17.3352 12.4698 16.773 12.4698 16.1568C12.4698 15.1946 11.8968 14.5298 11.8968 14.5298H16.5671C17.4644 14.5298 18.1941 15.2595 18.1941 16.1568L18.1887 16.2109Z" fill="#101010"/>
<path d="M14.7567 8.30817H9.70801V7.47034H14.7567C14.9837 7.47034 15.1729 7.65412 15.1729 7.88655C15.1783 8.11899 14.9945 8.30817 14.7567 8.30817Z" fill="#101010"/>
<path d="M14.7567 12.2379H9.70801V11.4055H14.7567C14.9837 11.4055 15.1729 11.5893 15.1729 11.8217C15.1783 12.0488 14.9945 12.2379 14.7567 12.2379Z" fill="#101010"/>
<path d="M15.6485 10.2703H9.70801V9.4325H15.6431C15.8702 9.4325 16.0594 9.61628 16.0594 9.84871C16.0702 10.0811 15.881 10.2703 15.6485 10.2703Z" fill="#101010"/>
</g>
</g>
</g>
<defs>
<clipPath id="clip0_534_5756">
<rect width="24" height="24" fill="white"/>
</clipPath>
<clipPath id="clip1_534_5756">
<rect width="24" height="24" fill="white"/>
</clipPath>
<clipPath id="clip2_534_5756">
<rect width="24" height="24" rx="12" fill="white"/>
</clipPath>
</defs>
</svg>
