<svg width="120" height="80" viewBox="0 0 120 80" fill="none" xmlns="http://www.w3.org/2000/svg">
<mask id="mask0_1836_18583" style="mask-type:alpha" maskUnits="userSpaceOnUse" x="0" y="0" width="120" height="80">
<rect width="120" height="80" fill="#D9D9D9"/>
</mask>
<g mask="url(#mask0_1836_18583)">
<path d="M120 96.2732H111.345L90.3376 46.5385H90.0735C90.1518 48.2148 90.2202 49.9905 90.2789 51.8657C90.3572 53.7409 90.4158 55.6729 90.455 57.6617C90.5136 59.6505 90.5625 61.6677 90.6017 63.7134V96.2732H84.2056V33.9663H92.8021L113.78 83.3601H113.986C113.946 81.9111 113.898 80.249 113.839 78.3738C113.78 76.4986 113.721 74.5666 113.663 72.5778C113.624 70.5606 113.594 68.6144 113.575 66.7392V33.9663H120V96.2732Z" fill="white" fill-opacity="0.6"/>
<path d="M74.9631 64.5231C74.9631 71.5408 74.0634 77.4078 72.2639 82.1242C70.4643 86.8121 67.8531 90.3493 64.4301 92.7359C61.0071 95.0941 56.88 96.2732 52.0487 96.2732H40.1367V33.9663H53.3397C57.7798 33.9663 61.6135 35.1312 64.8409 37.4609C68.0683 39.7623 70.5621 43.1859 72.3225 47.7318C74.0829 52.2492 74.9631 57.8463 74.9631 64.5231ZM67.6282 64.8214C67.6282 59.7073 67.0707 55.5024 65.9558 52.2066C64.8604 48.9109 63.237 46.4675 61.0854 44.8764C58.9533 43.2569 56.3225 42.4472 53.193 42.4472H47.1783V87.7071H52.1661C57.3494 87.7071 61.2223 85.7893 63.7846 81.9537C66.347 78.1181 67.6282 72.4074 67.6282 64.8214Z" fill="white" fill-opacity="0.6"/>
<path d="M20.3325 41.7653C18.2787 41.7653 16.4401 42.3051 14.8166 43.3847C13.2127 44.4644 11.8533 46.027 10.7384 48.0727C9.62347 50.0899 8.77262 52.5475 8.18582 55.4455C7.59902 58.3151 7.30562 61.554 7.30562 65.1623C7.30562 69.9923 7.77506 74.1546 8.71394 77.6493C9.65281 81.1155 11.0807 83.7862 12.9976 85.6614C14.9144 87.5081 17.3399 88.4315 20.2738 88.4315C22.0929 88.4315 23.8631 88.1758 25.5844 87.6644C27.3056 87.153 29.0856 86.4569 30.9242 85.5761V94.2701C29.1834 95.2645 27.423 95.989 25.643 96.4436C23.8631 96.8982 21.8093 97.1255 19.4817 97.1255C15.1002 97.1255 11.4621 95.8043 8.56724 93.1621C5.69193 90.5198 3.54034 86.7978 2.11247 81.9963C0.704157 77.1947 0 71.5692 0 65.1197C0 60.4034 0.449878 56.0848 1.34963 52.164C2.24939 48.2431 3.5599 44.8621 5.28117 42.021C7.00245 39.1514 9.12469 36.9495 11.6479 35.4153C14.1907 33.8526 17.0954 33.0713 20.3619 33.0713C22.5134 33.0713 24.6259 33.4264 26.6993 34.1367C28.7922 34.8186 30.7286 35.7988 32.5086 37.0773L30.044 45.5156C28.5575 44.4928 27.0024 43.612 25.379 42.8733C23.7555 42.1346 22.0734 41.7653 20.3325 41.7653Z" fill="white" fill-opacity="0.6"/>
</g>
</svg>
