<svg width="120" height="80" viewBox="0 0 120 80" fill="none" xmlns="http://www.w3.org/2000/svg">
<mask id="mask0_1836_505" style="mask-type:alpha" maskUnits="userSpaceOnUse" x="0" y="0" width="120" height="80">
<rect width="120" height="80" fill="#D9D9D9"/>
</mask>
<g mask="url(#mask0_1836_505)">
<path d="M82.479 14C86.3914 14 89.563 17.1716 89.563 21.084V51.208C89.563 53.0868 88.8163 54.8893 87.4878 56.2178L56.2183 87.4873C53.4518 90.2537 48.9662 90.2537 46.1997 87.4873L16.0757 57.3633C13.3092 54.5968 13.3092 50.1112 16.0757 47.3447L47.3452 16.0752C48.6737 14.7467 50.4762 14 52.355 14H82.479ZM61.3159 54.4795C60.9013 54.4795 60.5499 54.6065 60.2622 54.8604C59.9745 55.1058 59.8306 55.5248 59.8306 56.1172C59.8306 56.7011 59.9745 57.1286 60.2622 57.3994C60.5499 57.6618 60.9013 57.7929 61.3159 57.793C61.7475 57.793 62.1115 57.6617 62.4077 57.3994C62.7039 57.1286 62.8521 56.7012 62.8521 56.1172C62.8521 55.5247 62.7039 55.1058 62.4077 54.8604C62.1115 54.6065 61.7475 54.4795 61.3159 54.4795ZM68.146 54.4795C67.7313 54.4795 67.38 54.6065 67.0923 54.8604C66.8046 55.1058 66.6606 55.5248 66.6606 56.1172C66.6606 56.7011 66.8046 57.1286 67.0923 57.3994C67.38 57.6618 67.7313 57.7929 68.146 57.793C68.5776 57.793 68.9416 57.6617 69.2378 57.3994C69.534 57.1286 69.6821 56.7012 69.6821 56.1172C69.6821 55.5247 69.534 55.1058 69.2378 54.8604C68.9416 54.6065 68.5776 54.4795 68.146 54.4795ZM74.9761 54.4795C74.5614 54.4795 74.2101 54.6065 73.9224 54.8604C73.6346 55.1058 73.4907 55.5248 73.4907 56.1172C73.4907 56.7011 73.6346 57.1286 73.9224 57.3994C74.2101 57.6618 74.5614 57.7929 74.9761 57.793C75.4077 57.793 75.7717 57.6617 76.0679 57.3994C76.3641 57.1286 76.5122 56.7012 76.5122 56.1172C76.5122 55.5247 76.3641 55.1058 76.0679 54.8604C75.7717 54.6065 75.4077 54.4795 74.9761 54.4795ZM36.8521 38.585C35.3794 38.585 34.1945 38.9701 33.2974 39.7402C32.4003 40.502 31.7485 41.598 31.3423 43.0283C30.9445 44.4502 30.7456 46.1514 30.7456 48.1318C30.7456 50.1461 30.9657 51.8685 31.4058 53.2988C31.8543 54.7207 32.5272 55.8083 33.4243 56.5615C34.3299 57.3148 35.4725 57.6914 36.8521 57.6914C37.9438 57.6914 38.8791 57.4798 39.6577 57.0566C40.4363 56.625 41.0711 55.9987 41.562 55.1777C42.0529 54.3568 42.4126 53.3538 42.6411 52.1689C42.8696 50.9841 42.9839 49.6383 42.9839 48.1318C42.9839 46.1344 42.7638 44.4248 42.3237 43.0029C41.8836 41.5726 41.2108 40.4808 40.3052 39.7275C39.3996 38.9659 38.2485 38.585 36.8521 38.585ZM45.0405 43.5234L49.8521 50.3154L44.812 57.4375H47.1987L51.1216 51.7627L55.019 57.4375H57.4312L52.353 50.3154L57.1646 43.5234H54.7778L51.1216 48.8809L47.4526 43.5234H45.0405ZM36.8521 40.4004C37.8253 40.4004 38.604 40.6924 39.188 41.2764C39.772 41.8519 40.1951 42.7152 40.4575 43.8662C40.7199 45.0088 40.8511 46.4307 40.8511 48.1318C40.8511 49.8669 40.7157 51.3099 40.4448 52.4609C40.1825 53.612 39.755 54.471 39.1626 55.0381C38.5786 55.6051 37.8084 55.8887 36.8521 55.8887C35.8957 55.8886 35.1212 55.6051 34.5288 55.0381C33.9449 54.4626 33.5216 53.5992 33.2593 52.4482C32.9969 51.2972 32.8657 49.8584 32.8657 48.1318C32.8657 46.4307 32.9927 45.0088 33.2466 43.8662C33.5089 42.7152 33.9322 41.8519 34.5161 41.2764C35.1001 40.6924 35.8788 40.4004 36.8521 40.4004ZM73.0337 23.4453C69.1213 23.4454 65.9497 26.6169 65.9497 30.5293C65.9497 34.4417 69.1213 37.6132 73.0337 37.6133C76.9461 37.6133 80.1177 34.4417 80.1177 30.5293C80.1177 26.6169 76.9461 23.4453 73.0337 23.4453Z" fill="white"/>
<path d="M99.998 21.3125C103.658 21.3125 106.626 24.2794 106.626 27.9395V56.1201C106.626 57.8777 105.927 59.5639 104.685 60.8066L75.4316 90.0586C72.8437 92.6466 68.6475 92.6466 66.0596 90.0586L60.001 84L87.5 56.1201C88.1667 55.5799 89.5 53.7999 89.5 51V21.3125H99.998ZM91.6621 31C91.0881 31 90.5311 31.0728 90 31.21V44.0439C90.5311 44.1812 91.0881 44.2539 91.6621 44.2539C95.3221 44.2539 98.29 41.287 98.29 37.627C98.29 33.9669 95.3221 31 91.6621 31Z" fill="#8B8B8B"/>
</g>
</svg>
