<svg width="120" height="80" viewBox="0 0 120 80" fill="none" xmlns="http://www.w3.org/2000/svg">
<mask id="mask0_1836_1625" style="mask-type:alpha" maskUnits="userSpaceOnUse" x="0" y="0" width="120" height="80">
<rect width="120" height="80" fill="#D9D9D9"/>
</mask>
<g mask="url(#mask0_1836_1625)">
<path d="M98.2812 11C103.096 11 107 14.9035 107 19.7188V56.7949C107 59.1073 106.081 61.3249 104.446 62.96L65.9599 101.446C62.555 104.851 57.0347 104.851 53.6298 101.446L16.5536 64.3701C13.1488 60.9653 13.1488 55.4449 16.5536 52.0401L55.04 13.5537C56.675 11.9186 58.8927 11 61.205 11H98.2812ZM72.2343 60.3594C71.7239 60.3594 71.2916 60.5157 70.9374 60.8281C70.5832 61.1302 70.4062 61.6458 70.4062 62.375C70.4062 63.0938 70.5832 63.6198 70.9374 63.9531C71.2916 64.276 71.7239 64.4375 72.2343 64.4375C72.7655 64.4375 73.2135 64.276 73.578 63.9531C73.9426 63.6198 74.1249 63.0937 74.1249 62.375C74.1249 61.6459 73.9426 61.1302 73.578 60.8281C73.2135 60.5157 72.7655 60.3594 72.2343 60.3594ZM80.6405 60.3594C80.1301 60.3594 79.6978 60.5157 79.3437 60.8281C78.9895 61.1302 78.8124 61.6458 78.8124 62.375C78.8124 63.0938 78.9895 63.6198 79.3437 63.9531C79.6978 64.276 80.1301 64.4375 80.6405 64.4375C81.1718 64.4375 81.6197 64.276 81.9843 63.9531C82.3488 63.6198 82.5312 63.0937 82.5312 62.375C82.5312 61.6459 82.3488 61.1302 81.9843 60.8281C81.6197 60.5157 81.1718 60.3594 80.6405 60.3594ZM89.0468 60.3594C88.5364 60.3594 88.1041 60.5157 87.7499 60.8281C87.3958 61.1302 87.2187 61.6458 87.2187 62.375C87.2187 63.0938 87.3958 63.6198 87.7499 63.9531C88.1041 64.276 88.5364 64.4375 89.0468 64.4375C89.578 64.4375 90.026 64.276 90.3905 63.9531C90.7551 63.6198 90.9374 63.0937 90.9374 62.375C90.9374 61.6459 90.7551 61.1302 90.3905 60.8281C90.026 60.5157 89.578 60.3594 89.0468 60.3594ZM42.1249 40.7969C40.3125 40.7969 38.8541 41.2709 37.7499 42.2188C36.6458 43.1563 35.8437 44.5052 35.3437 46.2656C34.8541 48.0156 34.6093 50.1094 34.6093 52.5469C34.6093 55.0261 34.8801 57.1458 35.4218 58.9063C35.9739 60.6562 36.802 61.9948 37.9062 62.9219C39.0208 63.8489 40.427 64.3125 42.1249 64.3125C43.4686 64.3125 44.6197 64.0521 45.578 63.5313C46.5364 63 47.3176 62.2292 47.9218 61.2188C48.526 60.2084 48.9687 58.974 49.2499 57.5156C49.5312 56.0573 49.6718 54.401 49.6718 52.5469C49.6718 50.0886 49.401 47.9844 48.8593 46.2344C48.3176 44.474 47.4895 43.1302 46.3749 42.2031C45.2604 41.2656 43.8436 40.7969 42.1249 40.7969ZM52.203 46.875L58.1249 55.2344L51.9218 64H54.8593L59.6874 57.0156L64.4843 64H67.453L61.203 55.2344L67.1249 46.875H64.1874L59.6874 53.4688L55.1718 46.875H52.203ZM42.1249 43.0313C43.3228 43.0313 44.2812 43.3906 44.9999 44.1094C45.7187 44.8177 46.2395 45.8802 46.5624 47.2969C46.8853 48.7031 47.0468 50.4531 47.0468 52.5469C47.0468 54.6823 46.8801 56.4583 46.5468 57.875C46.2239 59.2916 45.6978 60.349 44.9687 61.0469C44.2499 61.7448 43.302 62.0937 42.1249 62.0938C40.9479 62.0938 39.9947 61.7448 39.2656 61.0469C38.5468 60.3386 38.026 59.276 37.7031 57.8594C37.3801 56.4427 37.2187 54.6719 37.2187 52.5469C37.2187 50.4531 37.3749 48.7031 37.6874 47.2969C38.0103 45.8802 38.5312 44.8177 39.2499 44.1094C39.9687 43.3907 40.927 43.0313 42.1249 43.0313ZM86.6562 22.625C81.8409 22.625 77.9374 26.5285 77.9374 31.3438C77.9374 36.159 81.8409 40.0625 86.6562 40.0625C91.4714 40.0625 95.3749 36.159 95.3749 31.3438C95.3749 26.5285 91.4714 22.625 86.6562 22.625Z" fill="white"/>
</g>
</svg>
