<svg width="120" height="80" viewBox="0 0 120 80" fill="none" xmlns="http://www.w3.org/2000/svg">
<mask id="mask0_1836_1223" style="mask-type:alpha" maskUnits="userSpaceOnUse" x="0" y="0" width="120" height="80">
<rect width="120" height="80" fill="#D9D9D9"/>
</mask>
<g mask="url(#mask0_1836_1223)">
<path d="M57.6362 136.296C59.0989 137.14 60.9011 137.14 62.3638 136.296L117.636 104.425C119.099 103.581 120 102.023 120 100.336V36.593C120 34.9062 119.099 33.3474 117.636 32.504L62.3638 0.632599C60.9011 -0.210846 59.0989 -0.210846 57.6362 0.632599L2.36382 32.504C0.901082 33.3474 0 34.9062 0 36.593V100.336C0 102.023 0.901082 103.581 2.36382 104.425L57.6362 136.296ZM60 132.207L4.72763 100.336V36.593L60 4.72169L115.272 36.593V100.336L60 132.207Z" fill="white"/>
<path fill-rule="evenodd" clip-rule="evenodd" d="M44.6096 39.1185L80.0398 40.6831L94.3841 72.1717L74.147 100.95L38.5241 98.6962L23.9199 64.5786L44.6096 39.1185ZM67.5204 92.8598L48.7538 97.6969L70.8232 99.0905L67.5204 92.8598ZM87.6876 79.1621L71.2602 91.2301L74.5244 97.5209L87.6876 79.1621ZM40.0513 73.7777L40.5896 95.0103L62.3032 89.4469L40.0513 73.7777ZM26.2532 67.0139L36.4927 90.8026L36.0666 69.0628L26.2532 67.0139ZM75.4874 57.1039L71.4851 86.2825L90.6509 72.2777L75.4874 57.1039ZM70.459 57.5055L44.839 68.5441L66.7425 85.2448L70.459 57.5055ZM41.4967 45.2649L26.8891 63.4547L36.6555 65.4946L41.4967 45.2649ZM79.9173 45.3689L76.7267 51.8282L88.6029 63.7333L79.9173 45.3689ZM47.0182 43.2805L42.7173 61.5594L67.4928 51.9742L47.0182 43.2805ZM55.087 41.443L72.2898 48.8633L75.9419 42.2778L55.087 41.443Z" fill="white"/>
<path fill-rule="evenodd" clip-rule="evenodd" d="M117.138 35.967L99.309 46.2563L98.9525 45.6386L116.782 35.3493L117.138 35.967ZM20.8602 91.7025L3.74412 101.579L3.3877 100.961L20.5038 91.0848L20.8602 91.7025Z" fill="white"/>
<path fill-rule="evenodd" clip-rule="evenodd" d="M116.78 101.58L99.0164 91.1754L99.3768 90.56L117.14 100.964L116.78 101.58ZM20.4306 45.9576L2.66867 35.2518L3.03683 34.641L20.7987 45.3468L20.4306 45.9576Z" fill="white"/>
<path fill-rule="evenodd" clip-rule="evenodd" d="M59.9725 134.076L59.9723 113.383L60.6855 113.383L60.6857 134.076L59.9725 134.076ZM59.8392 22.721L59.8391 2.85179L60.5523 2.85179L60.5523 22.721L59.8392 22.721Z" fill="white"/>
</g>
</svg>
