<svg viewBox="0 0 480 314" fill="none" xmlns="http://www.w3.org/2000/svg">
    <g clip-path="url(#clip0_973_1808)">
        <path d="M283.426 20.7137H230.379V21.7243H283.426V20.7137Z" fill="#CCCCCC" />
        <path d="M188.952 20.7137H20.7148V21.7243H188.952V20.7137Z" fill="#CCCCCC" />
        <path
            d="M20.7137 41.9324C32.1535 41.9324 41.4273 32.6585 41.4273 21.2187C41.4273 9.77883 32.1535 0.505005 20.7137 0.505005C9.27383 0.505005 0 9.77883 0 21.2187C0 32.6585 9.27383 41.9324 20.7137 41.9324Z"
            fill="#7186FF" />
        <path
            d="M115.19 41.9324C126.63 41.9324 135.904 32.6585 135.904 21.2187C135.904 9.77883 126.63 0.505005 115.19 0.505005C103.75 0.505005 94.4766 9.77883 94.4766 21.2187C94.4766 32.6585 103.75 41.9324 115.19 41.9324Z"
            fill="#3F3D56" />
        <path
            d="M209.661 42.4385C205.464 42.4385 201.361 41.194 197.872 38.8624C194.382 36.5308 191.663 33.2168 190.057 29.3395C188.451 25.4622 188.03 21.1957 188.849 17.0796C189.668 12.9634 191.689 9.18254 194.656 6.21498C197.624 3.24742 201.405 1.22648 205.521 0.407733C209.637 -0.411016 213.904 0.00918964 217.781 1.61522C221.658 3.22126 224.972 5.94098 227.304 9.43047C229.635 12.92 230.88 17.0225 230.88 21.2192C230.88 26.8469 228.644 32.2441 224.665 36.2235C220.686 40.2029 215.288 42.4385 209.661 42.4385ZM209.661 1.01058C205.664 1.01058 201.757 2.1958 198.433 4.41636C195.11 6.63692 192.52 9.79308 190.99 13.4857C189.461 17.1784 189.061 21.2417 189.84 25.1618C190.62 29.0819 192.545 32.6827 195.371 35.5089C198.197 38.3352 201.798 40.2598 205.718 41.0396C209.638 41.8194 213.702 41.4192 217.394 39.8896C221.087 38.3601 224.243 35.7699 226.464 32.4466C228.684 29.1233 229.869 25.2161 229.869 21.2192C229.869 15.8596 227.74 10.7194 223.95 6.92957C220.16 3.13971 215.02 1.01058 209.661 1.01058Z"
            fill="#CCCCCC" />
        <path
            d="M304.137 42.4385C299.94 42.4385 295.838 41.194 292.348 38.8624C288.859 36.5308 286.139 33.2168 284.533 29.3395C282.927 25.4622 282.507 21.1957 283.326 17.0796C284.144 12.9634 286.165 9.18254 289.133 6.21498C292.101 3.24742 295.881 1.22648 299.998 0.407733C304.114 -0.411016 308.38 0.00918964 312.257 1.61522C316.135 3.22126 319.449 5.94098 321.78 9.43047C324.112 12.92 325.356 17.0225 325.356 21.2192C325.356 26.8469 323.121 32.2441 319.141 36.2235C315.162 40.2029 309.765 42.4385 304.137 42.4385ZM304.137 1.01058C300.14 1.01058 296.233 2.1958 292.91 4.41636C289.587 6.63692 286.996 9.79308 285.467 13.4857C283.937 17.1784 283.537 21.2417 284.317 25.1618C285.097 29.0819 287.021 32.6827 289.848 35.5089C292.674 38.3352 296.275 40.2598 300.195 41.0396C304.115 41.8194 308.178 41.4192 311.871 39.8896C315.563 38.3601 318.72 35.7699 320.94 32.4466C323.161 29.1233 324.346 25.2161 324.346 21.2192C324.346 18.5654 323.823 15.9376 322.808 13.4857C321.792 11.0339 320.303 8.80611 318.427 6.92957C316.55 5.05302 314.323 3.56445 311.871 2.54887C309.419 1.53329 306.791 1.01058 304.137 1.01058Z"
            fill="#CCCCCC" />
        <path
            d="M19.1191 27.3948C18.7552 27.3951 18.4011 27.2771 18.1102 27.0585L18.0922 27.0451L14.2904 24.1372C13.9348 23.8646 13.7021 23.4619 13.6435 23.0177C13.5848 22.5734 13.705 22.1241 13.9776 21.7686C14.2503 21.413 14.653 21.1803 15.0972 21.1216C15.5414 21.063 15.9907 21.1832 16.3463 21.4558L18.8085 23.3441L24.627 15.7528C24.8995 15.3974 25.3021 15.1648 25.7461 15.1061C26.19 15.0475 26.6391 15.1676 26.9946 15.44L26.9587 15.4899L26.9957 15.44C27.3508 15.7129 27.5831 16.1155 27.6416 16.5595C27.7002 17.0035 27.5801 17.4525 27.3079 17.8081L20.4637 26.7329C20.3052 26.9386 20.1013 27.1051 19.868 27.2193C19.6347 27.3335 19.3782 27.3924 19.1185 27.3914L19.1191 27.3948Z"
            fill="white" />
        <path
            d="M368.009 109.835C368.396 110.012 368.768 110.219 369.122 110.456L404.52 95.3482L405.783 86.0238L419.927 85.9369L419.091 107.324L372.37 119.682C372.271 120.006 372.153 120.324 372.016 120.634C371.341 122.076 370.254 123.285 368.893 124.111C367.533 124.937 365.958 125.343 364.368 125.277C362.777 125.211 361.242 124.676 359.954 123.741C358.666 122.805 357.684 121.509 357.13 120.017C356.576 118.525 356.475 116.902 356.841 115.353C357.206 113.803 358.021 112.397 359.183 111.309C360.345 110.221 361.803 109.501 363.373 109.239C364.943 108.977 366.556 109.185 368.008 109.836L368.009 109.835Z"
            fill="#FEB8B8" />
        <path d="M425.072 303.632H415.396L410.793 266.312H425.073L425.072 303.632Z" fill="#FEB8B8" />
        <path
            d="M408.483 300.868H427.143V312.613H396.734C396.734 309.497 397.972 306.509 400.176 304.305C402.379 302.102 405.367 300.864 408.483 300.864V300.868Z"
            fill="#2F2E41" />
        <path d="M462.7 300.899L453.071 301.846L444.832 265.157L459.043 263.761L462.7 300.899Z"
            fill="#FEB8B8" />
        <path
            d="M445.915 299.775L464.482 297.947L465.633 309.637L435.377 312.617C435.072 309.517 436.01 306.422 437.986 304.014C439.962 301.606 442.814 300.081 445.914 299.775H445.915Z"
            fill="#2F2E41" />
        <path
            d="M427.763 46.4394C438.468 46.4394 447.146 37.761 447.146 27.0557C447.146 16.3505 438.468 7.67212 427.763 7.67212C417.057 7.67212 408.379 16.3505 408.379 27.0557C408.379 37.761 417.057 46.4394 427.763 46.4394Z"
            fill="#FEB8B8" />
        <path
            d="M413.232 296.085C412.4 296.086 411.595 295.794 410.957 295.26C410.32 294.726 409.891 293.984 409.747 293.164C404.743 265.369 388.37 174.467 387.978 171.947C387.969 171.889 387.965 171.831 387.965 171.772V164.994C387.964 164.747 388.041 164.506 388.185 164.305L390.348 161.279C390.45 161.133 390.585 161.013 390.742 160.927C390.898 160.842 391.072 160.793 391.25 160.785C403.581 160.208 443.957 158.513 445.908 160.95C447.867 163.397 447.171 170.821 447.013 172.283L447.02 172.436L465.161 288.448C465.303 289.374 465.075 290.318 464.526 291.076C463.977 291.835 463.152 292.347 462.228 292.501L450.898 294.367C450.055 294.503 449.19 294.331 448.462 293.883C447.734 293.435 447.192 292.741 446.932 291.926C443.428 280.729 431.678 243.06 427.605 228.484C427.583 228.388 427.526 228.303 427.445 228.248C427.363 228.192 427.264 228.169 427.167 228.183C427.069 228.197 426.98 228.247 426.918 228.324C426.856 228.4 426.825 228.498 426.831 228.596C427.035 242.491 427.526 277.94 427.7 290.184L427.717 291.503C427.725 292.395 427.397 293.258 426.799 293.921C426.201 294.584 425.376 294.998 424.487 295.082L413.562 296.072C413.452 296.082 413.342 296.086 413.232 296.085Z"
            fill="#2F2E41" />
        <path
            d="M415.461 54.0615C412.078 56.0726 410.054 59.7674 408.893 63.5339C406.742 70.4957 405.448 77.6935 405.038 84.9684L403.81 106.749L388.613 164.495C401.785 175.64 409.381 173.106 427.111 163.991C444.842 154.876 446.867 167.03 446.867 167.03L450.412 117.895L455.478 64.2037C454.34 62.8346 453.053 61.5974 451.64 60.5151C446.959 56.8737 441.511 54.3424 435.709 53.112C429.907 51.8816 423.901 51.9841 418.145 53.4119L415.461 54.0615Z"
            fill="#E6E6E6" />
        <path
            d="M410.524 121.497C410.933 121.65 411.329 121.835 411.708 122.05L446.709 104.529L447.29 95.0382L461.728 94.0427L462.501 115.678L415.728 131.148C415.346 132.787 414.475 134.271 413.229 135.402C411.983 136.534 410.423 137.259 408.755 137.482C407.087 137.705 405.39 137.414 403.891 136.65C402.392 135.885 401.162 134.682 400.363 133.2C399.565 131.719 399.236 130.029 399.421 128.357C399.607 126.684 400.297 125.107 401.4 123.837C402.503 122.566 403.967 121.661 405.597 121.242C407.227 120.824 408.946 120.912 410.525 121.494L410.524 121.497Z"
            fill="#FEB8B8" />
        <path
            d="M455.226 64.4458C463.837 67.4848 465.355 100.413 465.355 100.413C455.224 94.8415 443.067 103.959 443.067 103.959C443.067 103.959 440.534 95.3471 437.495 84.2038C436.577 81.0692 436.467 77.7534 437.176 74.5649C437.884 71.3765 439.388 68.4191 441.547 65.9681C441.547 65.9681 446.614 61.4051 455.226 64.4458Z"
            fill="#E6E6E6" />
        <path
            d="M445.14 32.1803C442.725 30.2483 439.43 33.7587 439.43 33.7587L437.498 16.3743C437.498 16.3743 425.423 17.821 417.694 15.8912C409.964 13.9614 408.758 22.8974 408.758 22.8974C408.359 19.2886 408.278 15.6517 408.516 12.0288C408.999 7.68159 415.278 3.3344 426.387 0.436074C437.497 -2.46225 443.293 10.0968 443.293 10.0968C451.026 13.958 447.558 34.1146 445.14 32.1803Z"
            fill="#2F2E41" />
        <path d="M480 312.616H66.6992V313.844H480V312.616Z" fill="#E6E6E6" />
        <path
            d="M106.57 290.94C108.338 291.561 110.237 291.717 112.083 291.392C113.929 291.067 115.661 290.271 117.11 289.083C120.802 285.984 121.96 280.879 122.901 276.152L125.687 262.171L119.855 266.187C115.661 269.074 111.373 272.055 108.468 276.238C105.564 280.421 104.296 286.131 106.63 290.657"
            fill="#E6E6E6" />
        <path
            d="M107.472 308.84C106.738 303.492 105.983 298.076 106.498 292.67C106.955 287.869 108.42 283.181 111.401 279.336C112.984 277.3 114.91 275.555 117.092 274.18C117.661 273.821 118.185 274.722 117.618 275.08C113.842 277.466 110.92 280.99 109.275 285.144C107.459 289.763 107.168 294.798 107.482 299.704C107.671 302.671 108.072 305.619 108.476 308.562C108.508 308.696 108.488 308.836 108.42 308.955C108.353 309.074 108.243 309.163 108.112 309.204C107.979 309.239 107.837 309.221 107.716 309.153C107.596 309.085 107.508 308.972 107.471 308.839L107.472 308.84Z"
            fill="#F2F2F2" />
        <path
            d="M112.754 300.259C113.512 301.412 114.555 302.35 115.781 302.983C117.007 303.616 118.376 303.922 119.755 303.873C123.299 303.705 126.254 301.231 128.914 298.884L136.781 291.939L131.574 291.69C127.83 291.51 123.989 291.343 120.42 292.498C116.852 293.653 113.565 296.432 112.913 300.121"
            fill="#E6E6E6" />
        <path
            d="M105.396 311.915C108.927 305.662 113.029 298.712 120.353 296.491C122.389 295.875 124.525 295.655 126.644 295.841C127.312 295.897 127.145 296.929 126.476 296.871C122.924 296.576 119.378 297.514 116.436 299.527C113.605 301.454 111.401 304.133 109.536 306.974C108.393 308.711 107.37 310.528 106.346 312.339C106.02 312.918 105.067 312.5 105.396 311.915Z"
            fill="#F2F2F2" />
        <path
            d="M354.714 160H177.286C176.415 159.998 175.579 159.457 174.964 158.495C174.348 157.533 174.001 156.229 174 154.868V86.131C174.001 84.7705 174.348 83.4662 174.964 82.5043C175.579 81.5423 176.415 81.0011 177.286 80.9995H354.714C355.585 81.0011 356.421 81.5423 357.037 82.5043C357.652 83.4662 357.999 84.7705 358 86.131V154.868C357.999 156.229 357.652 157.533 357.037 158.495C356.421 159.457 355.585 159.998 354.714 160ZM177.286 83.0526C176.763 83.0535 176.262 83.3782 175.892 83.9555C175.523 84.5328 175.315 85.3154 175.314 86.1318V154.869C175.314 155.685 175.522 156.468 175.892 157.046C176.262 157.623 176.763 157.947 177.286 157.948H354.714C355.237 157.947 355.738 157.623 356.108 157.046C356.478 156.468 356.686 155.685 356.686 154.869V86.131C356.686 85.3145 356.478 84.5317 356.108 83.9544C355.738 83.3771 355.237 83.0524 354.714 83.0517L177.286 83.0526Z"
            fill="#E6E6E6" />
        <path
            d="M255.485 144V132.64H259.421C260.637 132.64 261.65 132.896 262.461 133.408C263.282 133.909 263.896 134.592 264.301 135.456C264.706 136.309 264.909 137.258 264.909 138.304C264.909 139.456 264.685 140.458 264.237 141.312C263.789 142.165 263.154 142.826 262.333 143.296C261.512 143.765 260.541 144 259.421 144H255.485ZM263.453 138.304C263.453 137.45 263.293 136.693 262.973 136.032C262.664 135.37 262.21 134.853 261.613 134.48C261.016 134.106 260.285 133.92 259.421 133.92H256.925V142.72H259.421C260.296 142.72 261.032 142.528 261.629 142.144C262.226 141.749 262.68 141.221 262.989 140.56C263.298 139.888 263.453 139.136 263.453 138.304ZM270.41 144.16C269.781 144.16 269.205 144.048 268.682 143.824C268.17 143.589 267.722 143.274 267.338 142.88C266.965 142.474 266.671 142.01 266.458 141.488C266.255 140.965 266.154 140.41 266.154 139.824C266.154 139.034 266.335 138.314 266.698 137.664C267.061 137.013 267.562 136.49 268.202 136.096C268.853 135.701 269.594 135.504 270.426 135.504C271.269 135.504 271.999 135.706 272.618 136.112C273.247 136.506 273.733 137.029 274.074 137.68C274.426 138.32 274.602 139.013 274.602 139.76C274.602 139.866 274.597 139.973 274.586 140.08C274.586 140.176 274.581 140.25 274.57 140.304H267.642C267.685 140.848 267.834 141.333 268.09 141.76C268.357 142.176 268.698 142.506 269.114 142.752C269.53 142.986 269.978 143.104 270.458 143.104C270.97 143.104 271.45 142.976 271.898 142.72C272.357 142.464 272.671 142.128 272.842 141.712L274.058 142.048C273.877 142.453 273.605 142.816 273.242 143.136C272.89 143.456 272.469 143.706 271.978 143.888C271.498 144.069 270.975 144.16 270.41 144.16ZM267.594 139.328H273.29C273.247 138.784 273.093 138.304 272.826 137.888C272.559 137.472 272.218 137.146 271.802 136.912C271.386 136.677 270.927 136.56 270.426 136.56C269.935 136.56 269.482 136.677 269.066 136.912C268.65 137.146 268.309 137.472 268.042 137.888C267.786 138.304 267.637 138.784 267.594 139.328ZM280.663 144.16C279.981 144.16 279.373 143.989 278.839 143.648C278.306 143.306 277.885 142.874 277.575 142.352V147.408H276.167V135.648H277.415V137.216C277.746 136.704 278.178 136.293 278.711 135.984C279.245 135.664 279.826 135.504 280.455 135.504C281.031 135.504 281.559 135.621 282.039 135.856C282.519 136.09 282.935 136.41 283.287 136.816C283.639 137.221 283.911 137.685 284.103 138.208C284.306 138.72 284.407 139.258 284.407 139.824C284.407 140.613 284.247 141.338 283.927 142C283.618 142.661 283.181 143.189 282.615 143.584C282.05 143.968 281.399 144.16 280.663 144.16ZM280.231 142.944C280.647 142.944 281.021 142.858 281.351 142.688C281.693 142.506 281.981 142.272 282.215 141.984C282.461 141.685 282.647 141.349 282.775 140.976C282.903 140.602 282.967 140.218 282.967 139.824C282.967 139.408 282.893 139.013 282.743 138.64C282.605 138.266 282.402 137.936 282.135 137.648C281.879 137.36 281.575 137.136 281.223 136.976C280.882 136.805 280.509 136.72 280.103 136.72C279.847 136.72 279.581 136.768 279.303 136.864C279.037 136.96 278.781 137.098 278.535 137.28C278.29 137.45 278.082 137.648 277.911 137.872C277.741 138.096 277.629 138.336 277.575 138.592V140.976C277.735 141.338 277.949 141.669 278.215 141.968C278.482 142.266 278.791 142.506 279.143 142.688C279.495 142.858 279.858 142.944 280.231 142.944ZM289.784 144.16C289.155 144.16 288.584 144.048 288.072 143.824C287.56 143.589 287.117 143.274 286.744 142.88C286.371 142.474 286.083 142.01 285.88 141.488C285.677 140.965 285.576 140.416 285.576 139.84C285.576 139.253 285.677 138.698 285.88 138.176C286.083 137.653 286.371 137.194 286.744 136.8C287.117 136.394 287.56 136.08 288.072 135.856C288.595 135.621 289.165 135.504 289.784 135.504C290.413 135.504 290.984 135.621 291.496 135.856C292.008 136.08 292.451 136.394 292.824 136.8C293.208 137.194 293.501 137.653 293.704 138.176C293.907 138.698 294.008 139.253 294.008 139.84C294.008 140.416 293.907 140.965 293.704 141.488C293.501 142.01 293.213 142.474 292.84 142.88C292.467 143.274 292.019 143.589 291.496 143.824C290.984 144.048 290.413 144.16 289.784 144.16ZM287.016 139.856C287.016 140.432 287.139 140.954 287.384 141.424C287.64 141.893 287.976 142.266 288.392 142.544C288.808 142.81 289.272 142.944 289.784 142.944C290.296 142.944 290.76 142.805 291.176 142.528C291.603 142.25 291.939 141.877 292.184 141.408C292.44 140.928 292.568 140.4 292.568 139.824C292.568 139.248 292.44 138.725 292.184 138.256C291.939 137.786 291.603 137.413 291.176 137.136C290.76 136.858 290.296 136.72 289.784 136.72C289.272 136.72 288.808 136.864 288.392 137.152C287.976 137.429 287.64 137.802 287.384 138.272C287.139 138.741 287.016 139.269 287.016 139.856ZM298.578 144.16C297.885 144.16 297.234 144.048 296.626 143.824C296.018 143.589 295.495 143.242 295.058 142.784L295.602 141.792C296.082 142.24 296.562 142.56 297.042 142.752C297.522 142.944 298.013 143.04 298.514 143.04C299.09 143.04 299.559 142.933 299.922 142.72C300.285 142.496 300.466 142.17 300.466 141.744C300.466 141.434 300.37 141.205 300.178 141.056C299.997 140.906 299.735 140.784 299.394 140.688C299.053 140.581 298.647 140.464 298.178 140.336C297.602 140.165 297.117 139.984 296.722 139.792C296.327 139.6 296.029 139.36 295.826 139.072C295.623 138.784 295.522 138.421 295.522 137.984C295.522 137.45 295.661 137.002 295.938 136.64C296.215 136.266 296.594 135.984 297.074 135.792C297.565 135.6 298.119 135.504 298.738 135.504C299.357 135.504 299.917 135.6 300.418 135.792C300.919 135.984 301.351 136.266 301.714 136.64L301.074 137.616C300.743 137.274 300.381 137.024 299.986 136.864C299.591 136.693 299.149 136.608 298.658 136.608C298.37 136.608 298.087 136.645 297.81 136.72C297.533 136.784 297.303 136.906 297.122 137.088C296.941 137.258 296.85 137.504 296.85 137.824C296.85 138.09 296.919 138.304 297.058 138.464C297.207 138.613 297.421 138.741 297.698 138.848C297.986 138.954 298.333 139.072 298.738 139.2C299.367 139.381 299.911 139.562 300.37 139.744C300.839 139.925 301.202 140.16 301.458 140.448C301.714 140.736 301.842 141.136 301.842 141.648C301.842 142.437 301.543 143.056 300.946 143.504C300.349 143.941 299.559 144.16 298.578 144.16ZM303.527 144V135.648H304.935V144H303.527ZM303.527 134.08V132.32H304.935V134.08H303.527ZM311.534 143.584C311.417 143.637 311.257 143.706 311.054 143.792C310.851 143.877 310.617 143.952 310.35 144.016C310.083 144.08 309.801 144.112 309.502 144.112C309.161 144.112 308.846 144.053 308.558 143.936C308.27 143.808 308.041 143.616 307.87 143.36C307.699 143.093 307.614 142.762 307.614 142.368V136.752H306.478V135.648H307.614V132.864H309.022V135.648H310.894V136.752H309.022V141.936C309.043 142.234 309.145 142.458 309.326 142.608C309.507 142.746 309.721 142.816 309.966 142.816C310.243 142.816 310.499 142.768 310.734 142.672C310.969 142.576 311.123 142.506 311.198 142.464L311.534 143.584ZM312.727 137.504V135.712H313.895V137.504H312.727ZM312.727 144V142.208H313.895V144H312.727ZM323.529 143.376L324.425 143.392V145.712H323.529V143.376ZM323.609 143.2V133.456L324.329 133.344V143.232L323.609 143.2ZM323.529 130.96H324.425V133.248L323.529 133.36V130.96ZM327.097 135.024C326.969 134.874 326.798 134.73 326.585 134.592C326.371 134.453 326.131 134.33 325.865 134.224C325.598 134.106 325.305 134.016 324.985 133.952C324.675 133.877 324.35 133.84 324.009 133.84C323.134 133.84 322.489 134.005 322.073 134.336C321.657 134.666 321.449 135.12 321.449 135.696C321.449 136.101 321.555 136.421 321.769 136.656C321.982 136.89 322.307 137.082 322.745 137.232C323.193 137.381 323.758 137.536 324.441 137.696C325.23 137.866 325.913 138.074 326.489 138.32C327.065 138.565 327.507 138.896 327.817 139.312C328.126 139.717 328.281 140.261 328.281 140.944C328.281 141.488 328.174 141.962 327.961 142.368C327.758 142.762 327.47 143.093 327.097 143.36C326.723 143.616 326.286 143.808 325.785 143.936C325.283 144.053 324.739 144.112 324.153 144.112C323.577 144.112 323.011 144.053 322.457 143.936C321.913 143.808 321.395 143.626 320.905 143.392C320.414 143.157 319.955 142.864 319.529 142.512L320.217 141.296C320.387 141.477 320.606 141.658 320.873 141.84C321.15 142.01 321.459 142.17 321.801 142.32C322.153 142.469 322.531 142.592 322.937 142.688C323.342 142.773 323.758 142.816 324.185 142.816C324.995 142.816 325.625 142.672 326.073 142.384C326.521 142.085 326.745 141.653 326.745 141.088C326.745 140.661 326.617 140.32 326.361 140.064C326.115 139.808 325.747 139.594 325.257 139.424C324.766 139.253 324.169 139.082 323.465 138.912C322.697 138.72 322.051 138.512 321.529 138.288C321.006 138.053 320.611 137.749 320.345 137.376C320.089 137.002 319.961 136.517 319.961 135.92C319.961 135.194 320.137 134.581 320.489 134.08C320.841 133.578 321.326 133.2 321.945 132.944C322.563 132.688 323.262 132.56 324.041 132.56C324.553 132.56 325.027 132.613 325.465 132.72C325.913 132.826 326.329 132.976 326.713 133.168C327.097 133.36 327.449 133.589 327.769 133.856L327.097 135.024ZM333.482 143.376L334.378 143.392V145.712H333.482V143.376ZM333.562 143.2V133.456L334.282 133.344V143.232L333.562 143.2ZM333.482 130.96H334.378V133.248L333.482 133.36V130.96ZM337.05 135.024C336.922 134.874 336.751 134.73 336.538 134.592C336.325 134.453 336.085 134.33 335.818 134.224C335.551 134.106 335.258 134.016 334.938 133.952C334.629 133.877 334.303 133.84 333.962 133.84C333.087 133.84 332.442 134.005 332.026 134.336C331.61 134.666 331.402 135.12 331.402 135.696C331.402 136.101 331.509 136.421 331.722 136.656C331.935 136.89 332.261 137.082 332.698 137.232C333.146 137.381 333.711 137.536 334.394 137.696C335.183 137.866 335.866 138.074 336.442 138.32C337.018 138.565 337.461 138.896 337.77 139.312C338.079 139.717 338.234 140.261 338.234 140.944C338.234 141.488 338.127 141.962 337.914 142.368C337.711 142.762 337.423 143.093 337.05 143.36C336.677 143.616 336.239 143.808 335.738 143.936C335.237 144.053 334.693 144.112 334.106 144.112C333.53 144.112 332.965 144.053 332.41 143.936C331.866 143.808 331.349 143.626 330.858 143.392C330.367 143.157 329.909 142.864 329.482 142.512L330.17 141.296C330.341 141.477 330.559 141.658 330.826 141.84C331.103 142.01 331.413 142.17 331.754 142.32C332.106 142.469 332.485 142.592 332.89 142.688C333.295 142.773 333.711 142.816 334.138 142.816C334.949 142.816 335.578 142.672 336.026 142.384C336.474 142.085 336.698 141.653 336.698 141.088C336.698 140.661 336.57 140.32 336.314 140.064C336.069 139.808 335.701 139.594 335.21 139.424C334.719 139.253 334.122 139.082 333.418 138.912C332.65 138.72 332.005 138.512 331.482 138.288C330.959 138.053 330.565 137.749 330.298 137.376C330.042 137.002 329.914 136.517 329.914 135.92C329.914 135.194 330.09 134.581 330.442 134.08C330.794 133.578 331.279 133.2 331.898 132.944C332.517 132.688 333.215 132.56 333.994 132.56C334.506 132.56 334.981 132.613 335.418 132.72C335.866 132.826 336.282 132.976 336.666 133.168C337.05 133.36 337.402 133.589 337.722 133.856L337.05 135.024Z"
            fill="white" />
        <path
            d="M235.846 95.6849C235.256 95.6849 234.69 95.9193 234.273 96.3365C233.855 96.7537 233.621 97.3196 233.621 97.9096C233.621 98.4996 233.855 99.0654 234.273 99.4826C234.69 99.8998 235.256 100.134 235.846 100.134H340.719C341.309 100.134 341.875 99.8998 342.292 99.4826C342.709 99.0654 342.943 98.4996 342.943 97.9096C342.943 97.3196 342.709 96.7537 342.292 96.3365C341.875 95.9193 341.309 95.6849 340.719 95.6849H235.846Z"
            fill="#E6E6E6" />
        <path
            d="M235.846 109.033C235.256 109.033 234.69 109.268 234.273 109.685C233.855 110.102 233.621 110.668 233.621 111.258C233.621 111.848 233.855 112.414 234.273 112.831C234.69 113.248 235.256 113.482 235.846 113.482H280.973C281.563 113.482 282.129 113.248 282.546 112.831C282.963 112.414 283.197 111.848 283.197 111.258C283.197 110.668 282.963 110.102 282.546 109.685C282.129 109.268 281.563 109.033 280.973 109.033H235.846Z"
            fill="#E6E6E6" />
        <path
            d="M205.145 117.83C212.516 117.83 218.492 111.854 218.492 104.483C218.492 97.1108 212.516 91.1349 205.145 91.1349C197.773 91.1349 191.797 97.1108 191.797 104.483C191.797 111.854 197.773 117.83 205.145 117.83Z"
            fill="#E6E6E6" />
        <path
            d="M203.048 111.901C202.6 111.901 202.163 111.756 201.804 111.487L201.782 111.47L197.097 107.886C196.659 107.55 196.372 107.054 196.299 106.506C196.227 105.959 196.375 105.405 196.711 104.966C197.047 104.528 197.543 104.241 198.091 104.168C198.638 104.096 199.192 104.244 199.631 104.579L202.665 106.906L209.836 97.5514C210.172 97.1135 210.668 96.8268 211.215 96.7545C211.762 96.6822 212.315 96.8301 212.753 97.1658L212.709 97.2275L212.755 97.1658C213.192 97.502 213.479 97.9981 213.551 98.5452C213.623 99.0922 213.475 99.6455 213.14 100.084L204.706 111.089C204.511 111.342 204.26 111.547 203.973 111.688C203.686 111.828 203.37 111.901 203.05 111.9L203.048 111.901Z"
            fill="#7186FF" />
    </g>
    <defs>
        <clipPath id="clip0_973_1808">
            <rect width="480" height="313.844" fill="white" />
        </clipPath>
    </defs>
</svg>
    