<svg viewBox="0 0 326 222" fill="none" xmlns="http://www.w3.org/2000/svg">
<g clip-path="url(#clip0_2905_217)">
<path d="M146.792 102.994C137.326 102.994 128.073 100.188 120.202 94.9286C112.332 89.6697 106.197 82.195 102.575 73.4498C98.9524 64.7045 98.0046 55.0815 99.8513 45.7976C101.698 36.5137 106.256 27.9858 112.949 21.2925C119.643 14.5992 128.171 10.041 137.455 8.19429C146.738 6.34761 156.361 7.2954 165.107 10.9178C173.852 14.5402 181.327 20.6745 186.586 28.545C191.845 36.4156 194.651 45.6688 194.651 55.1346C194.637 67.8234 189.59 79.9884 180.618 88.9607C171.645 97.9331 159.48 102.98 146.792 102.994ZM146.792 8.02838C137.475 8.02838 128.367 10.7911 120.621 15.9672C112.874 21.1433 106.836 28.5003 103.271 37.1078C99.7058 45.7153 98.7729 55.1868 100.59 64.3245C102.408 73.4622 106.895 81.8557 113.482 88.4437C120.07 95.0316 128.464 99.518 137.602 101.336C146.739 103.153 156.211 102.22 164.818 98.655C173.426 95.0896 180.783 89.0519 185.959 81.3054C191.135 73.5588 193.898 64.4513 193.898 55.1346C193.884 42.6456 188.916 30.6721 180.085 21.8411C171.254 13.01 159.281 8.04249 146.792 8.02838Z" fill="#F2F2F2"/>
<path d="M150.443 65.6071H181.131C181.231 65.6071 181.327 65.5674 181.398 65.4967C181.468 65.426 181.508 65.3302 181.508 65.2302C181.508 65.1303 181.468 65.0344 181.398 64.9638C181.327 64.8931 181.231 64.8534 181.131 64.8534H150.443C150.343 64.8534 150.247 64.8931 150.177 64.9638C150.106 65.0344 150.066 65.1303 150.066 65.2302C150.066 65.3302 150.106 65.426 150.177 65.4967C150.247 65.5674 150.343 65.6071 150.443 65.6071Z" fill="#3F3D56"/>
<path d="M188.777 64.4766C186.215 64.4795 183.759 65.4983 181.948 67.3096C180.137 69.1208 179.118 71.5766 179.115 74.1381V115.111C179.118 117.672 180.137 120.128 181.948 121.939C183.759 123.751 186.215 124.77 188.777 124.772H252.361C254.922 124.77 257.378 123.751 259.189 121.939C261 120.128 262.019 117.672 262.022 115.111V74.1381C262.019 71.5766 261 69.1208 259.189 67.3096C257.378 65.4983 254.922 64.4795 252.361 64.4766H188.777Z" fill="white"/>
<path d="M252.36 125.149H188.777C186.115 125.146 183.564 124.088 181.682 122.206C179.8 120.324 178.741 117.772 178.738 115.111V74.1381C178.741 71.4767 179.8 68.9252 181.682 67.0432C183.564 65.1613 186.115 64.1028 188.777 64.0997H252.36C255.022 64.1028 257.573 65.1613 259.455 67.0432C261.337 68.9252 262.396 71.4767 262.399 74.1381V115.111C262.396 117.772 261.337 120.324 259.455 122.206C257.573 124.088 255.022 125.146 252.36 125.149ZM188.777 64.8534C186.315 64.8562 183.955 65.8353 182.214 67.5759C180.474 69.3165 179.495 71.6765 179.492 74.1381V115.111C179.495 117.573 180.474 119.933 182.214 121.673C183.955 123.414 186.315 124.393 188.777 124.396H252.36C254.822 124.393 257.182 123.414 258.923 121.673C260.663 119.933 261.642 117.573 261.645 115.111V74.1381C261.642 71.6765 260.663 69.3165 258.923 67.5759C257.182 65.8353 254.822 64.8562 252.36 64.8534H188.777Z" fill="#3F3D56"/>
<path d="M149.354 62.0794C148.403 62.2446 147.554 62.7741 146.988 63.5553C146.422 64.3366 146.183 65.3079 146.322 66.2627C146.354 66.4563 146.401 66.647 146.464 66.8328L127.506 83.5407L134.528 88.4594L151.282 68.9422C152.033 68.6222 152.656 68.0627 153.055 67.3512C153.454 66.6397 153.606 65.8161 153.488 65.009C153.416 64.5504 153.255 64.1104 153.013 63.7142C152.771 63.3179 152.454 62.9732 152.079 62.6996C151.704 62.4261 151.278 62.2291 150.827 62.1199C150.376 62.0106 149.908 61.9914 149.449 62.0631C149.417 62.0681 149.385 62.0736 149.354 62.0794Z" fill="#A0616A"/>
<path d="M142.161 80.9863C142.161 80.9863 137.884 85.9117 132.676 91.4891C132.314 91.8735 131.953 92.2617 131.579 92.6536C128.414 96.0075 125.003 99.4896 122.045 102.192C118.891 105.082 116.249 107.094 114.968 107.143C114.861 107.15 114.754 107.139 114.651 107.11C110.819 105.956 113.977 107.328 112.337 109.668C110.691 112.012 110.894 108.937 107.205 107.11C103.523 105.282 105.483 107.098 104.013 109.985C103.557 110.889 99.5548 110.705 94.2789 110.026C93.6834 104.995 92.8167 100.654 92.8167 100.654C92.8059 97.6366 93.1141 94.6264 93.7362 91.6738C102.928 91.508 110.529 91.4137 110.917 91.5343C111.919 91.8396 114.075 91.067 116.456 89.7217C116.796 89.5295 117.436 89.0848 118.284 88.4592C119.034 87.909 119.939 87.2232 120.945 86.4544C122.075 85.5801 124.001 85.1015 124.627 83.579C126.443 79.185 125.821 82.4636 126.307 82.2601C126.861 82.0264 127.841 81.936 128.414 81.6006C128.571 81.532 128.7 81.4123 128.78 81.2611C128.86 81.1099 128.886 80.936 128.855 80.7677C128.827 80.6247 128.779 80.4864 128.712 80.357C128.192 79.3131 128.983 79.2113 129.729 79.1021C130.038 79.0868 130.339 78.9976 130.607 78.842C133.603 76.4528 135.872 74.6176 135.872 74.6176L136.686 75.4466L136.69 75.4504L141.506 80.3268L142.161 80.9863Z" fill="#3F3D56"/>
<path d="M138.053 221.537H90.4277C88.3891 221.537 86.7305 219.443 86.7305 216.87V166.264C86.7305 163.69 88.3891 161.597 90.4277 161.597H138.053C140.092 161.597 141.75 163.69 141.75 166.264V216.87C141.75 219.443 140.092 221.537 138.053 221.537Z" fill="#F2F2F2"/>
<path d="M0.0046009 221.5C-0.0182913 221.619 0.0448485 221.737 0.180493 221.831C0.316137 221.924 0.513485 221.985 0.730198 222H325.274C325.481 221.974 325.665 221.91 325.797 221.819C325.928 221.728 326 221.616 326 221.5C326 221.384 325.928 221.272 325.797 221.181C325.665 221.09 325.481 221.026 325.274 221H0.730161C0.513458 221.015 0.316127 221.076 0.180493 221.169C0.0448577 221.263 -0.018284 221.381 0.0046009 221.5Z" fill="#CCCCCC"/>
<path d="M171.124 214.519L175.926 214.519L178.21 195.997L171.123 195.998L171.124 214.519Z" fill="#A0616A"/>
<path d="M170.955 219.528L185.722 219.528V219.341C185.721 217.817 185.116 216.355 184.038 215.277C182.96 214.199 181.498 213.594 179.974 213.594L177.277 211.547L172.244 213.594L170.955 213.594L170.955 219.528Z" fill="#2F2E41"/>
<path d="M141.299 212.311L145.921 213.612L153.14 196.403L146.318 194.482L141.299 212.311Z" fill="#A0616A"/>
<path d="M139.779 217.087L153.993 221.088L154.044 220.909C154.457 219.441 154.27 217.87 153.525 216.541C152.779 215.211 151.536 214.232 150.069 213.819L148.027 211.118L142.628 211.724L141.387 211.375L139.779 217.087Z" fill="#2F2E41"/>
<path d="M128.995 133.44C128.995 133.44 127.457 133.287 131.399 134.651C135.665 136.132 142.139 135.94 148.338 138.163C150.253 138.849 152.193 139.55 154.119 140.251C154.507 140.391 154.895 140.534 155.284 140.673C157.79 141.589 160.254 142.505 162.583 143.379C162.911 143.503 163.235 143.628 163.555 143.748C163.563 143.752 163.571 143.752 163.574 143.756C171.168 146.642 177.141 149.115 178.128 150.102C179.183 151.157 179.621 158.287 179.741 167.098C179.96 183.427 179.097 205.533 179.097 205.533L170.214 205.499C170.214 205.499 170.158 205.303 170.049 204.937C169.853 204.263 169.487 203.008 169.001 201.369C166.981 194.521 162.915 180.951 160.669 174.737C160.036 172.98 159.546 171.812 159.286 171.548C157.778 170.003 159.286 169.321 160.793 168.341C162.301 167.362 160.793 167.06 159.685 165.779C158.577 164.498 160.1 161.611 160.1 161.611C160.1 161.611 159.097 161.585 157.499 161.543C155.14 161.483 151.47 161.392 147.796 161.302C147.792 161.306 147.792 161.306 147.792 161.302C146.409 161.268 145.026 161.234 143.714 161.204C142.697 161.178 141.721 161.155 140.816 161.132C138.107 161.072 136.057 161.031 135.544 161.031C133.871 161.031 135.171 161.031 134.161 159.708C134.006 159.51 133.839 159.323 133.66 159.146C133.407 158.864 133.129 158.604 132.831 158.37C132.62 158.272 132.906 158.879 132.748 159.666C132.661 160.093 132.459 160.488 132.164 160.808C130.668 162.47 126.078 160.676 126.078 160.676C118.526 164.452 112.33 164.181 107.559 162.414C104.132 161.093 101.058 158.996 98.5791 156.286C97.5978 155.254 96.717 154.131 95.9487 152.932L95.3268 152.815C95.3268 152.815 94.4902 124.784 95.4549 122.888C96.9586 119.934 119.196 122.135 119.196 122.135L128.995 133.44Z" fill="#2F2E41"/>
<path d="M170.416 20.0083H201.104C201.204 20.0083 201.3 19.9686 201.37 19.898C201.441 19.8273 201.481 19.7314 201.481 19.6315C201.481 19.5315 201.441 19.4357 201.37 19.365C201.3 19.2943 201.204 19.2546 201.104 19.2546H170.416C170.316 19.2546 170.22 19.2943 170.149 19.365C170.079 19.4357 170.039 19.5315 170.039 19.6315C170.039 19.7314 170.079 19.8273 170.149 19.898C170.22 19.9686 170.316 20.0083 170.416 20.0083Z" fill="#3F3D56"/>
<path d="M211.964 49.9781C205.742 41.702 202.146 32.4473 202.028 21.8961C201.828 21.3275 201.861 20.7026 202.12 20.1585C202.38 19.6144 202.845 19.1955 203.413 18.9938L224.621 11.4898C225.19 11.2893 225.815 11.3226 226.359 11.5823C226.903 11.842 227.322 12.3069 227.524 12.8751L237.46 40.957C237.66 41.5256 237.627 42.1505 237.367 42.6947C237.108 43.2388 236.643 43.6577 236.075 43.8594L214.866 51.3634C214.298 51.5639 213.673 51.5306 213.129 51.2709C212.585 51.0112 212.166 50.5463 211.964 49.9781Z" fill="#E6E6E6"/>
<path d="M210.589 40.9206C206.847 37.1369 205.245 30.3884 204.201 22.8669C204.014 22.3344 204.045 21.7491 204.288 21.2396C204.531 20.73 204.967 20.3377 205.499 20.1488L223.725 13.6997C224.258 13.5119 224.843 13.5431 225.353 13.7863C225.862 14.0295 226.255 14.4649 226.444 14.997L235.285 39.9862C235.473 40.5187 235.442 41.104 235.199 41.6135C234.956 42.1231 234.52 42.5154 233.988 42.7043L222.697 46.6994C220.325 47.5357 217.718 47.3969 215.448 46.3136C213.178 45.2302 211.431 43.2907 210.589 40.9206Z" fill="white"/>
<path d="M226.688 28.4588L212.49 33.5268C212.378 33.5667 212.259 33.5842 212.141 33.5783C212.022 33.5724 211.906 33.5432 211.798 33.4923C211.691 33.4414 211.595 33.3699 211.515 33.2818C211.435 33.1938 211.374 33.0908 211.334 32.979C211.294 32.8671 211.276 32.7485 211.282 32.6298C211.288 32.5112 211.318 32.3949 211.368 32.2875C211.419 32.1802 211.491 32.0839 211.579 32.0042C211.667 31.9245 211.77 31.863 211.882 31.823L226.08 26.755C226.192 26.7151 226.31 26.6976 226.429 26.7035C226.547 26.7094 226.664 26.7387 226.771 26.7895C226.878 26.8404 226.975 26.9119 227.054 27C227.134 27.0881 227.196 27.191 227.236 27.3028C227.276 27.4147 227.293 27.5334 227.287 27.652C227.281 27.7706 227.252 27.8869 227.201 27.9943C227.15 28.1016 227.079 28.1979 226.991 28.2776C226.903 28.3573 226.8 28.4189 226.688 28.4588Z" fill="#CD9DFF"/>
<path d="M213.947 27.74L210.823 28.855C210.597 28.9354 210.349 28.9228 210.132 28.82C209.915 28.7172 209.748 28.5327 209.668 28.3069C209.587 28.0811 209.6 27.8326 209.702 27.6159C209.805 27.3992 209.989 27.2321 210.215 27.1512L213.338 26.0363C213.564 25.9556 213.813 25.968 214.03 26.0708C214.247 26.1735 214.414 26.3582 214.494 26.5841C214.575 26.81 214.563 27.0587 214.46 27.2755C214.357 27.4923 214.172 27.6594 213.947 27.74Z" fill="#CD9DFF"/>
<path d="M229.362 35.949L215.164 41.017C215.052 41.0569 214.933 41.0744 214.815 41.0685C214.696 41.0626 214.58 41.0333 214.472 40.9825C214.365 40.9316 214.269 40.8601 214.189 40.772C214.109 40.6839 214.048 40.581 214.008 40.4692C213.968 40.3573 213.95 40.2386 213.956 40.12C213.962 40.0014 213.991 39.8851 214.042 39.7777C214.093 39.6704 214.165 39.5741 214.253 39.4944C214.341 39.4147 214.444 39.3531 214.556 39.3132L228.754 34.2452C228.865 34.2051 228.984 34.1875 229.103 34.1933C229.222 34.1992 229.338 34.2284 229.445 34.2792C229.553 34.33 229.649 34.4016 229.729 34.4897C229.809 34.5778 229.87 34.6808 229.91 34.7927C229.95 34.9047 229.968 35.0234 229.962 35.1421C229.956 35.2608 229.927 35.3772 229.876 35.4846C229.825 35.5919 229.753 35.6882 229.665 35.7679C229.577 35.8476 229.474 35.9091 229.362 35.949Z" fill="#CD9DFF"/>
<path d="M228.026 32.2039L213.828 37.2718C213.602 37.3525 213.353 37.3401 213.136 37.2373C212.92 37.1346 212.752 36.95 212.672 36.724C212.591 36.4981 212.604 36.2494 212.706 36.0326C212.809 35.8158 212.994 35.6487 213.22 35.5681L227.418 30.5001C227.643 30.4197 227.892 30.4323 228.109 30.5351C228.325 30.6379 228.492 30.8224 228.573 31.0482C228.653 31.274 228.641 31.5225 228.538 31.7392C228.436 31.9559 228.251 32.123 228.026 32.2039Z" fill="#CD9DFF"/>
<path d="M203.233 24.9073C205.315 24.9073 207.002 23.2201 207.002 21.1389C207.002 19.0576 205.315 17.3704 203.233 17.3704C201.152 17.3704 199.465 19.0576 199.465 21.1389C199.465 23.2201 201.152 24.9073 203.233 24.9073Z" fill="#CD9DFF"/>
<path d="M135.055 12.8482H104.367C104.267 12.8482 104.171 12.8085 104.101 12.7378C104.03 12.6671 103.99 12.5713 103.99 12.4713C103.99 12.3714 104.03 12.2755 104.101 12.2049C104.171 12.1342 104.267 12.0945 104.367 12.0945H135.055C135.155 12.0945 135.251 12.1342 135.322 12.2049C135.392 12.2755 135.432 12.3714 135.432 12.4713C135.432 12.5713 135.392 12.6671 135.322 12.7378C135.251 12.8085 135.155 12.8482 135.055 12.8482Z" fill="#3F3D56"/>
<path d="M64.6844 26.2156C67.3496 16.2104 72.4064 7.66566 80.6313 1.05567C80.9546 0.546802 81.4666 0.186973 82.055 0.0551191C82.6433 -0.0767349 83.2599 0.0301568 83.7695 0.352345L102.771 12.3958C103.28 12.7192 103.639 13.2311 103.771 13.8195C103.903 14.4078 103.796 15.0244 103.474 15.534L87.5272 40.6939C87.2038 41.2027 86.6918 41.5626 86.1035 41.6944C85.5152 41.8263 84.8986 41.7194 84.389 41.3972L65.3877 29.3537C64.8788 29.0304 64.519 28.5184 64.3871 27.9301C64.2553 27.3418 64.3622 26.7252 64.6844 26.2156Z" fill="#E6E6E6"/>
<path d="M70.9581 19.5401C71.6222 14.26 75.9399 8.83184 81.2102 3.36504C81.5131 2.88846 81.9926 2.55145 82.5435 2.42796C83.0945 2.30448 83.672 2.40459 84.1492 2.70634L100.479 13.0567C100.956 13.3595 101.293 13.839 101.416 14.39C101.54 14.941 101.44 15.5184 101.138 15.9957L86.9474 38.3846C86.6446 38.8612 86.1651 39.1982 85.6141 39.3217C85.0631 39.4451 84.4856 39.345 84.0084 39.0432L73.8923 32.6314C71.7694 31.2826 70.2683 29.1467 69.7182 26.6925C69.1682 24.2382 69.6141 21.666 70.9581 19.5401Z" fill="white"/>
<path d="M90.7006 24.5027L77.9451 16.4675C77.7423 16.3395 77.5987 16.1362 77.5458 15.9024C77.4928 15.6686 77.5349 15.4233 77.6626 15.2205C77.7904 15.0177 77.9935 14.8738 78.2272 14.8207C78.461 14.7675 78.7063 14.8092 78.9093 14.9368L91.6648 22.972C91.7654 23.0353 91.8526 23.1178 91.9214 23.2147C91.9901 23.3117 92.0391 23.4213 92.0655 23.5372C92.0918 23.6531 92.0951 23.773 92.0751 23.8902C92.0551 24.0073 92.0122 24.1194 91.9488 24.22C91.8854 24.3206 91.8029 24.4077 91.7059 24.4763C91.6088 24.5449 91.4992 24.5938 91.3833 24.6201C91.2674 24.6463 91.1474 24.6495 91.0302 24.6293C90.9131 24.6092 90.8011 24.5662 90.7006 24.5027Z" fill="#CD9DFF"/>
<path d="M83.3954 14.0381L80.5892 12.2703C80.4886 12.2071 80.4014 12.1246 80.3326 12.0276C80.2639 11.9307 80.2149 11.8211 80.1886 11.7052C80.1622 11.5893 80.1589 11.4694 80.1789 11.3522C80.1989 11.235 80.2419 11.123 80.3052 11.0224C80.3686 10.9218 80.4511 10.8347 80.5482 10.7661C80.6452 10.6974 80.7548 10.6486 80.8707 10.6223C80.9867 10.5961 81.1066 10.5929 81.2238 10.613C81.3409 10.6332 81.4529 10.6762 81.5534 10.7397L84.3597 12.5074C84.4603 12.5707 84.5475 12.6531 84.6162 12.7501C84.685 12.8471 84.7339 12.9566 84.7603 13.0725C84.7867 13.1884 84.79 13.3084 84.7699 13.4256C84.7499 13.5427 84.707 13.6548 84.6437 13.7554C84.5803 13.8559 84.4978 13.943 84.4007 14.0117C84.3037 14.0803 84.1941 14.1292 84.0781 14.1554C83.9622 14.1817 83.8422 14.1848 83.7251 14.1647C83.608 14.1446 83.4959 14.1015 83.3954 14.0381Z" fill="#CD9DFF"/>
<path d="M86.4619 31.2319L73.7064 23.1966C73.6058 23.1334 73.5186 23.0509 73.4498 22.9539C73.3811 22.857 73.3321 22.7474 73.3058 22.6315C73.2794 22.5156 73.2761 22.3956 73.2961 22.2785C73.3161 22.1613 73.3591 22.0492 73.4224 21.9487C73.4858 21.8481 73.5683 21.761 73.6653 21.6923C73.7624 21.6237 73.872 21.5748 73.9879 21.5486C74.1038 21.5223 74.2238 21.5192 74.341 21.5393C74.4581 21.5595 74.5701 21.6025 74.6706 21.6659L87.4261 29.7012C87.6289 29.8292 87.7725 30.0324 87.8254 30.2662C87.8784 30.5 87.8364 30.7453 87.7086 30.9481C87.5808 31.151 87.3777 31.2948 87.144 31.348C86.9102 31.4012 86.6649 31.3594 86.4619 31.2319Z" fill="#CD9DFF"/>
<path d="M88.5811 27.8672L75.8255 19.832C75.7249 19.7687 75.6377 19.6863 75.569 19.5893C75.5002 19.4923 75.4513 19.3828 75.4249 19.2669C75.3985 19.151 75.3952 19.031 75.4153 18.9138C75.4353 18.7967 75.4782 18.6846 75.5415 18.584C75.6049 18.4835 75.6874 18.3964 75.7845 18.3277C75.8815 18.2591 75.9911 18.2102 76.1071 18.184C76.223 18.1577 76.3429 18.1546 76.4601 18.1747C76.5772 18.1948 76.6893 18.2379 76.7898 18.3013L89.5453 26.3366C89.7483 26.4644 89.8922 26.6677 89.9453 26.9016C89.9984 27.1356 89.9564 27.381 89.8285 27.584C89.7652 27.6845 89.6827 27.7716 89.5858 27.8402C89.4888 27.9088 89.3793 27.9577 89.2635 27.984C89.0295 28.0371 88.784 27.9951 88.5811 27.8672Z" fill="#CD9DFF"/>
<path d="M102.239 17.7472C104.32 17.7472 106.008 16.06 106.008 13.9787C106.008 11.8974 104.32 10.2102 102.239 10.2102C100.158 10.2102 98.4707 11.8974 98.4707 13.9787C98.4707 16.06 100.158 17.7472 102.239 17.7472Z" fill="#CD9DFF"/>
<path d="M183.261 70.5061C185.342 70.5061 187.029 68.8189 187.029 66.7376C187.029 64.6563 185.342 62.9691 183.261 62.9691C181.179 62.9691 179.492 64.6563 179.492 66.7376C179.492 68.8189 181.179 70.5061 183.261 70.5061Z" fill="#CD9DFF"/>
<path d="M165.619 160.906C164.048 169.468 157.389 189.535 153.364 201.281C151.529 206.648 151.378 204.628 151.378 204.628L149.287 203.968L145.759 202.853L144.471 202.446L142.91 201.952C142.91 201.952 142.145 188.303 141.9 178.064C141.818 174.763 141.674 172.403 141.437 171.936C140.457 170.014 142.096 169.811 143.826 169.325C145.56 168.838 144.207 168.107 143.532 166.547C143.076 165.507 143.973 164.124 144.61 163.333C144.785 163.11 144.973 162.898 145.171 162.696C145.171 162.696 140.762 161.196 135.777 159.504C135.773 159.508 135.773 159.504 135.773 159.504C135.272 159.334 134.767 159.165 134.262 158.991C136.018 158.358 137.186 157.868 137.45 157.608C138.995 156.101 139.677 157.608 140.657 159.116C141.637 160.623 141.938 159.116 143.219 158.008C144.501 156.9 147.387 158.422 147.387 158.422C147.387 158.422 147.414 157.42 147.455 155.822C147.515 153.463 147.606 149.792 147.696 146.118C147.693 146.114 147.693 146.114 147.696 146.114C147.73 144.731 147.764 143.348 147.794 142.037C150.451 144.072 153.029 146.069 155.365 147.916C155.369 147.92 155.377 147.923 155.377 147.931C160.995 152.37 165.212 155.935 165.804 157.066C166.072 157.578 165.981 158.939 165.619 160.906Z" fill="#2F2E41"/>
<path d="M129.371 128.918L127.985 129.818L124.435 132.125L119.619 135.249L93.9476 151.906C93.9476 151.906 90.7745 145.439 93.68 139.816C94.0539 139.105 94.3581 138.359 94.5882 137.589C95.764 133.557 93.5029 131.808 93.5029 131.808C93.5029 131.808 89.7344 128.141 93.3484 124.761C94.0908 124.068 94.5053 122.647 94.6937 120.823C95.0103 117.823 94.7201 113.738 94.2792 110.026C93.6838 104.995 92.817 100.654 92.817 100.654C92.8062 97.6366 93.1144 94.6264 93.7365 91.6737C94.4262 88.4931 95.5341 85.4708 97.1734 82.961C97.7746 82.0297 98.4677 81.1611 99.2423 80.3682C100.326 79.2572 101.595 78.3429 102.992 77.6662C105.087 76.6563 108.679 77.263 111.844 77.7039C112.481 77.7906 113.099 77.8735 113.683 77.9338C114.262 78.0011 114.845 78.0376 115.428 78.0431L116.739 82.8291L117.237 84.6417L117.486 85.5499L118.051 87.6151L118.285 88.4592L122.045 102.192L125.117 113.392L126.813 119.579L129.349 128.831L129.371 128.918Z" fill="#3F3D56"/>
<path d="M108.361 74.7477C114.679 74.7477 119.801 69.6262 119.801 63.3084C119.801 56.9906 114.679 51.869 108.361 51.869C102.043 51.869 96.9219 56.9906 96.9219 63.3084C96.9219 69.6262 102.043 74.7477 108.361 74.7477Z" fill="#A0616A"/>
<path d="M106.218 72.764L105.286 75.7435C103.22 74.7235 101.126 73.6851 99.4055 72.1523C97.6851 70.6195 96.3545 68.5043 96.273 66.2015C96.2309 65.0122 96.5189 63.8125 96.3213 62.639C96.098 61.313 95.2796 60.1635 94.905 58.872C94.5545 57.5194 94.6864 56.0868 95.278 54.8209C95.8697 53.555 96.884 52.5348 98.1465 51.936C100.043 51.1026 102.211 51.3366 104.272 51.1352C106.334 50.9337 108.633 50.0012 109.214 48.0129C109.431 47.2695 109.406 46.393 110.07 45.9062C110.404 45.6831 110.808 45.5915 111.205 45.6489C111.603 45.7064 111.965 45.9088 112.222 46.2173C113.192 47.3195 112.953 48.7709 112.699 50.0904C114.036 49.9159 115.322 49.464 116.474 48.7636C117.626 48.0632 118.619 47.1298 119.389 46.0233C119.751 46.3619 120.041 46.7689 120.245 47.2207C120.448 47.6725 120.56 48.1601 120.574 48.6553C120.588 49.1506 120.503 49.6437 120.325 50.1061C120.147 50.5685 119.88 50.9911 119.537 51.3493C120.187 51.3496 120.818 51.1308 121.329 50.7283C121.839 50.3257 122.199 49.763 122.35 49.1308C123.14 50.2212 123.95 51.3583 124.204 52.6803C124.458 54.0023 123.987 55.5659 122.774 56.1509C122.155 56.3955 121.491 56.5042 120.827 56.4698L115.744 56.5664C114.233 56.5951 112.792 57.2106 111.726 58.2828C110.66 59.355 110.053 60.7997 110.034 62.3113C108.555 62.1693 107.032 62.0303 105.634 62.6531C104.982 62.9273 104.433 63.399 104.064 64.0016C103.14 65.589 104.057 67.2389 104.87 68.6827C105.564 69.9169 106.223 71.4032 105.646 72.6968" fill="#2F2E41"/>
<path d="M158.438 188.913L137.23 181.409C136.661 181.208 136.197 180.789 135.937 180.245C135.677 179.701 135.644 179.076 135.844 178.507L145.781 150.425C145.982 149.857 146.401 149.392 146.945 149.132C147.489 148.873 148.114 148.839 148.683 149.04L169.891 156.544C170.459 156.746 170.924 157.164 171.184 157.709C171.443 158.253 171.477 158.878 171.276 159.446C171.158 169.997 167.562 179.252 161.34 187.528C161.138 188.096 160.72 188.561 160.175 188.821C159.631 189.081 159.006 189.114 158.438 188.913Z" fill="#E6E6E6"/>
<path d="M150.608 184.249L139.317 180.254C138.785 180.065 138.35 179.673 138.106 179.164C137.863 178.654 137.832 178.069 138.02 177.536L146.862 152.547C147.051 152.015 147.443 151.58 147.952 151.336C148.462 151.093 149.047 151.062 149.58 151.25L167.806 157.699C168.339 157.888 168.774 158.28 169.017 158.79C169.26 159.299 169.292 159.884 169.104 160.417C168.06 167.938 166.458 174.687 162.716 178.471C161.874 180.841 160.127 182.78 157.857 183.864C155.587 184.947 152.98 185.086 150.608 184.249Z" fill="white"/>
<path d="M146.07 164.853C146.151 164.627 146.318 164.443 146.535 164.34C146.751 164.237 147 164.225 147.226 164.305L161.424 169.373C161.536 169.413 161.639 169.474 161.727 169.554C161.815 169.634 161.887 169.73 161.938 169.838C161.989 169.945 162.018 170.061 162.024 170.18C162.03 170.299 162.013 170.417 161.973 170.529C161.933 170.641 161.871 170.744 161.791 170.832C161.711 170.92 161.615 170.992 161.508 171.043C161.4 171.094 161.284 171.123 161.165 171.129C161.046 171.135 160.928 171.117 160.816 171.077L146.618 166.009C146.392 165.928 146.208 165.761 146.105 165.544C146.002 165.327 145.99 165.079 146.07 164.853Z" fill="#CD9DFF"/>
<path d="M158.81 164.134C158.891 163.908 159.058 163.724 159.275 163.621C159.492 163.519 159.74 163.506 159.966 163.586L163.09 164.701C163.202 164.741 163.304 164.803 163.393 164.883C163.481 164.962 163.552 165.058 163.603 165.166C163.654 165.273 163.683 165.389 163.689 165.508C163.695 165.627 163.677 165.745 163.637 165.857C163.598 165.969 163.536 166.072 163.456 166.16C163.377 166.248 163.28 166.32 163.173 166.371C163.066 166.421 162.949 166.451 162.831 166.457C162.712 166.463 162.593 166.445 162.482 166.405L159.358 165.29C159.132 165.209 158.948 165.042 158.845 164.825C158.742 164.609 158.73 164.36 158.81 164.134Z" fill="#CD9DFF"/>
<path d="M143.396 172.343C143.477 172.117 143.644 171.933 143.861 171.83C144.078 171.727 144.326 171.715 144.552 171.795L158.75 176.863C158.862 176.903 158.965 176.965 159.053 177.044C159.141 177.124 159.213 177.22 159.264 177.328C159.315 177.435 159.344 177.551 159.35 177.67C159.356 177.789 159.339 177.908 159.299 178.02C159.259 178.131 159.197 178.234 159.117 178.323C159.038 178.411 158.941 178.482 158.834 178.533C158.726 178.584 158.61 178.613 158.491 178.619C158.373 178.625 158.254 178.607 158.142 178.567L143.944 173.499C143.718 173.418 143.534 173.251 143.431 173.034C143.328 172.818 143.316 172.569 143.396 172.343Z" fill="#CD9DFF"/>
<path d="M144.732 168.598C144.813 168.372 144.98 168.188 145.197 168.085C145.413 167.982 145.662 167.97 145.888 168.05L160.086 173.118C160.198 173.158 160.301 173.22 160.389 173.299C160.477 173.379 160.549 173.475 160.6 173.583C160.651 173.69 160.68 173.806 160.686 173.925C160.692 174.044 160.675 174.162 160.635 174.274C160.595 174.386 160.533 174.489 160.453 174.577C160.374 174.666 160.277 174.737 160.17 174.788C160.062 174.839 159.946 174.868 159.827 174.874C159.708 174.88 159.59 174.862 159.478 174.822L145.28 169.754C145.054 169.673 144.87 169.506 144.767 169.289C144.664 169.073 144.652 168.824 144.732 168.598Z" fill="#CD9DFF"/>
<path d="M152.009 149.448C151.737 148.523 151.115 147.739 150.275 147.265C149.435 146.791 148.443 146.664 147.51 146.91C147.321 146.963 147.137 147.032 146.959 147.115L128.214 130.169L124.121 137.703L145.409 152.141C145.811 152.851 146.438 153.407 147.19 153.723C147.942 154.038 148.777 154.096 149.566 153.888C150.014 153.764 150.432 153.554 150.799 153.269C151.165 152.984 151.472 152.63 151.701 152.226C151.93 151.823 152.078 151.378 152.136 150.917C152.193 150.457 152.159 149.989 152.036 149.542C152.028 149.51 152.018 149.479 152.009 149.448Z" fill="#A0616A"/>
<path d="M138.024 137.472L137.293 138.377L132.989 143.717L132.409 144.44C132.409 144.44 126.263 140.22 119.619 135.249C111.645 129.276 102.954 122.217 103.343 120.066C104.055 116.128 103.049 119.417 100.535 118.053C98.0252 116.685 101.1 116.538 102.498 112.668C103.9 108.802 102.318 110.953 99.2839 109.823C97.2602 109.069 98.3192 91.7793 99.2424 80.3683C100.326 79.2572 101.595 78.343 102.992 77.6663C105.506 76.4529 110.182 77.5721 113.683 77.9339C115.666 92.5443 118.526 113.915 118.398 114.59C118.202 115.619 119.219 117.673 120.825 119.889C121.578 120.936 125.464 124.919 129.349 128.831C133.683 133.195 138.024 137.472 138.024 137.472Z" fill="#3F3D56"/>
<path d="M230.42 83.6854H190.52C190.407 83.6856 190.295 83.6635 190.191 83.6204C190.086 83.5772 189.991 83.5139 189.911 83.434C189.831 83.354 189.767 83.2591 189.724 83.1546C189.681 83.0501 189.658 82.9381 189.658 82.8249C189.658 82.7118 189.681 82.5997 189.724 82.4952C189.767 82.3907 189.831 82.2958 189.911 82.2159C189.991 82.1359 190.086 82.0726 190.191 82.0295C190.295 81.9863 190.407 81.9642 190.52 81.9645H230.42C230.648 81.965 230.866 82.0558 231.027 82.2171C231.188 82.3784 231.279 82.597 231.279 82.8249C231.279 83.0528 231.188 83.2714 231.027 83.4327C230.866 83.594 230.648 83.6849 230.42 83.6854Z" fill="#CD9DFF"/>
<path d="M250.618 91.5518H190.52C190.407 91.552 190.295 91.53 190.191 91.4868C190.086 91.4437 189.991 91.3803 189.911 91.3004C189.831 91.2205 189.767 91.1256 189.724 91.0211C189.681 90.9165 189.658 90.8045 189.658 90.6914C189.658 90.5782 189.681 90.4662 189.724 90.3617C189.767 90.2572 189.831 90.1622 189.911 90.0823C189.991 90.0024 190.086 89.939 190.191 89.8959C190.295 89.8528 190.407 89.8307 190.52 89.8309H250.618C250.846 89.8314 251.064 89.9223 251.225 90.0836C251.386 90.2449 251.477 90.4635 251.477 90.6914C251.477 90.9193 251.386 91.1378 251.225 91.2992C251.064 91.4605 250.846 91.5513 250.618 91.5518Z" fill="#F2F2F2"/>
<path d="M250.619 97.696H190.519C190.291 97.696 190.072 97.7868 189.91 97.9483C189.749 98.1097 189.658 98.3288 189.658 98.5571C189.658 98.7855 189.749 99.0045 189.91 99.166C190.072 99.3275 190.291 99.4182 190.519 99.4182H250.619C250.848 99.4182 251.067 99.3275 251.228 99.166C251.39 99.0045 251.48 98.7855 251.48 98.5571C251.48 98.3288 251.39 98.1097 251.228 97.9483C251.067 97.7868 250.848 97.696 250.619 97.696Z" fill="#F2F2F2"/>
<path d="M250.618 107.285H190.52C190.407 107.285 190.295 107.263 190.191 107.22C190.086 107.176 189.991 107.113 189.911 107.033C189.831 106.953 189.767 106.858 189.724 106.754C189.681 106.649 189.658 106.537 189.658 106.424C189.658 106.311 189.681 106.199 189.724 106.094C189.767 105.99 189.831 105.895 189.911 105.815C189.991 105.735 190.086 105.672 190.191 105.629C190.295 105.586 190.407 105.563 190.52 105.564H250.618C250.846 105.564 251.064 105.655 251.225 105.816C251.386 105.978 251.477 106.196 251.477 106.424C251.477 106.652 251.386 106.871 251.225 107.032C251.064 107.193 250.846 107.284 250.618 107.285Z" fill="#F2F2F2"/>
</g>
<defs>
<clipPath id="clip0_2905_217">
<rect width="326" height="222" fill="white"/>
</clipPath>
</defs>
</svg>
