<svg viewBox="0 0 326 222" fill="none" xmlns="http://www.w3.org/2000/svg">
<g clip-path="url(#clip0_2905_192)">
<path d="M189.856 87.4853H177.851V103.229L158.165 87.4853H33.9414V1.0603H189.856V87.4853Z" fill="#E5E5E5"/>
<path d="M164.289 41.932H59.5059V46.6134H164.289V41.932Z" fill="white"/>
<path d="M164.289 57.4164H59.5059V62.0978H164.289V57.4164Z" fill="white"/>
<path d="M183.036 116.294C185.212 116.294 186.977 114.53 186.977 112.353C186.977 110.177 185.212 108.413 183.036 108.413C180.86 108.413 179.096 110.177 179.096 112.353C179.096 114.53 180.86 116.294 183.036 116.294Z" fill="#E6E6E6"/>
<path d="M275.219 216.971H270.804L268.703 199.94H275.219L275.219 216.971Z" fill="#9F616A"/>
<path d="M276.344 221.251L262.107 221.25V221.07C262.108 219.601 262.691 218.191 263.73 217.152C264.77 216.113 266.179 215.529 267.649 215.529L276.344 215.529L276.344 221.251Z" fill="#2F2E41"/>
<path d="M232.186 216.621L228 215.217L231.422 198.402L237.6 200.473L232.186 216.621Z" fill="#9F616A"/>
<path d="M231.894 221.037L218.396 216.511L218.454 216.34C218.921 214.947 219.922 213.796 221.238 213.141C222.554 212.486 224.075 212.381 225.469 212.848L233.713 215.612L231.894 221.037Z" fill="#2F2E41"/>
<path d="M237.629 128.953L228.068 209.838L237.446 210.629C237.446 210.629 252.196 131.104 256.744 140.524C261.291 149.945 266.863 208.864 266.863 208.864H276.17C276.17 208.864 278.556 116.934 268.812 112.386L237.629 128.953Z" fill="#2F2E41"/>
<path d="M262.411 62.3151C263.313 57.1913 259.892 52.3059 254.768 51.4032C249.645 50.5006 244.76 53.9225 243.857 59.0463C242.954 64.1701 246.376 69.0555 251.499 69.9582C256.623 70.8608 261.508 67.4389 262.411 62.3151Z" fill="#9F616A"/>
<path d="M247.536 73.5677L259.554 74.5422C259.554 74.5422 269.136 74.7047 273.034 77.3034C276.932 79.9021 269.298 95.9817 269.298 95.9817C269.298 95.9817 267.314 102.357 268.811 105.24C273.669 114.593 272.949 121.796 272.949 121.796C272.949 121.796 262.964 124.08 245.749 128.628C245.749 128.628 235.03 132.851 235.355 130.577C235.68 128.303 238.928 102.316 238.928 102.316V75.3543L247.536 73.5677Z" fill="#3F3D56"/>
<path d="M268.56 59.6598C268.08 56.9772 267.002 53.1716 264.603 50.2863C264.678 50.2868 264.754 50.2901 264.829 50.2879C265.654 50.2638 266.592 50.0037 266.933 49.2523C267.043 48.9513 267.07 48.6264 267.013 48.3112C266.955 47.996 266.814 47.702 266.604 47.4597C266.179 46.981 265.67 46.5835 265.103 46.2865C265.681 46.6378 266.499 46.9642 266.961 46.4693C267.08 46.32 267.154 46.1401 267.174 45.9504C267.194 45.7608 267.16 45.5694 267.075 45.3986C266.899 45.0598 266.653 44.7628 266.353 44.5277C265.38 43.6672 264.315 42.916 263.179 42.2877C262.298 41.8014 261.141 41.4109 260.351 42.033C259.546 42.6667 259.675 43.9008 259.882 44.9042C259.431 44.6407 258.924 44.4877 258.403 44.4579C258.143 44.4505 257.888 44.5331 257.681 44.6919C257.474 44.8506 257.329 45.0758 257.269 45.3294C257.261 45.5295 257.306 45.7281 257.398 45.9061C257.489 46.0841 257.626 46.2353 257.793 46.3452C254.687 45.8344 250.719 46.414 245.645 48.7616C245.645 48.7616 240.726 50.4015 240.476 56.8776C240.451 57.9134 240.566 58.9478 240.818 59.9528C241.095 61.1268 242.081 66.8861 240.898 69.2137L246.822 71.3247L246.89 67.7759C242.286 61.129 244.56 58.6899 246.353 54.6922C246.356 54.6849 246.361 54.6786 246.367 54.674C246.374 54.6694 246.381 54.6666 246.389 54.666C246.397 54.6654 246.405 54.667 246.412 54.6707C246.419 54.6743 246.425 54.6798 246.429 54.6865C246.76 55.2551 248.03 57.2038 252.399 57.2038L250.71 55.5154C250.71 55.5154 258.139 58.5546 260.84 58.5546C260.84 58.5546 262.866 59.9053 260.84 61.9315C258.814 63.9576 254.38 66.9398 256.744 70.6543C259.108 74.3689 258.904 75.6868 258.904 75.6868L264.307 72.6476C264.307 72.6476 267.606 66.1182 268.192 64.1955C268.673 62.7342 268.799 61.1796 268.56 59.6598Z" fill="#2F2E41"/>
<path d="M203.643 132.866H311.12V192.442H297.468V208.826L282.761 192.442H203.643V132.866Z" fill="#CD9DFF"/>
<path d="M293.497 165.17H221.266V168.397H293.497V165.17Z" fill="white"/>
<path d="M293.497 175.845H221.266V179.072H293.497V175.845Z" fill="white"/>
<path d="M274.212 94.6929L267.908 96.2254L267.86 108.985L260.77 133.458C260.202 133.907 259.768 134.503 259.516 135.181C259.263 135.859 259.2 136.593 259.335 137.304C259.47 138.015 259.797 138.675 260.281 139.213C260.764 139.751 261.386 140.147 262.079 140.357C262.771 140.566 263.508 140.582 264.209 140.403C264.91 140.223 265.548 139.856 266.055 139.339C266.561 138.822 266.917 138.177 267.082 137.472C267.248 136.768 267.218 136.032 266.994 135.343L275.471 110.008L274.212 94.6929Z" fill="#9F616A"/>
<path d="M232.254 94.4246L239.817 96.5855L239.864 109.345L246.955 133.818C247.522 134.267 247.956 134.863 248.209 135.541C248.462 136.219 248.524 136.953 248.389 137.664C248.255 138.375 247.928 139.035 247.444 139.573C246.96 140.112 246.338 140.507 245.646 140.717C244.953 140.926 244.217 140.942 243.516 140.763C242.815 140.584 242.176 140.216 241.67 139.699C241.163 139.182 240.808 138.537 240.642 137.832C240.476 137.128 240.507 136.392 240.73 135.704L232.254 110.368V94.4246Z" fill="#9F616A"/>
<path d="M264.752 76.0039L266.314 75.4945C267.191 75.2085 268.145 75.2747 268.975 75.6791C268.975 75.6791 273.522 76.0039 274.172 79.2523C274.821 82.5007 276.401 110.894 276.401 110.894L266.769 107.829L264.752 76.0039Z" fill="#3F3D56"/>
<path d="M242.827 76.0039L240.062 75.8649L239.186 75.427C239.186 75.427 234.057 76.0039 233.407 79.2523C232.757 82.5008 230.867 111.769 230.867 111.769L240.499 109.142L242.827 76.0039Z" fill="#3F3D56"/>
<path d="M83.965 191.088L88.5307 187.105C88.3354 184.244 87.979 181.397 87.463 178.576L84.9434 179.642L87.281 177.602C86.6083 174.121 85.9424 171.857 85.9424 171.857C85.9424 171.857 76.7305 180.038 71.5756 190.018L73.837 197.457L70.383 192.538C69.8693 193.726 69.4309 194.944 69.0703 196.187C65.4759 208.726 66.6571 220.065 71.7086 221.514C76.7601 222.962 83.769 213.971 87.3634 201.431C88.4122 197.415 88.8392 193.261 88.6294 189.115L83.965 191.088Z" fill="#F1F1F1"/>
<path d="M96.0544 200.838L102.022 199.789C103.333 197.239 104.5 194.617 105.516 191.935L102.808 191.545L105.863 191.008C107.087 187.68 107.687 185.398 107.687 185.398C107.687 185.398 95.5727 187.639 86.0016 193.518L84.0924 201.055L83.6782 195.059C82.6247 195.81 81.6196 196.626 80.6686 197.503C71.1105 206.38 66.2608 216.697 69.8366 220.548C73.4125 224.399 84.0596 220.325 93.6178 211.449C96.5917 208.553 99.1041 205.218 101.067 201.56L96.0544 200.838Z" fill="#F1F1F1"/>
<path d="M325.307 222H0.525536C0.386155 222 0.252475 221.946 0.153917 221.849C0.0553604 221.752 0 221.621 0 221.484C0 221.347 0.0553604 221.216 0.153917 221.119C0.252475 221.022 0.386155 220.968 0.525536 220.968H325.307C325.446 220.968 325.58 221.022 325.678 221.119C325.777 221.216 325.832 221.347 325.832 221.484C325.832 221.621 325.777 221.752 325.678 221.849C325.58 221.946 325.446 222 325.307 222Z" fill="#CBCBCB"/>
<path d="M60.5908 27.5134V23.2654C60.5908 21.9214 61.2628 21.2494 62.6068 21.2494H64.2628C65.6068 21.2494 66.2788 21.9214 66.2788 23.2654V27.5134C66.2788 28.8574 65.6068 29.5294 64.2628 29.5294H62.6068C61.2628 29.5294 60.5908 28.8574 60.5908 27.5134ZM62.3188 27.6094C62.3188 27.8494 62.4388 27.9694 62.6788 27.9694H64.1908C64.4308 27.9694 64.5508 27.8494 64.5508 27.6094V23.1694C64.5508 22.9294 64.4308 22.8094 64.1908 22.8094H62.6788C62.4388 22.8094 62.3188 22.9294 62.3188 23.1694V27.6094ZM67.2403 29.2534L69.3163 26.3254L67.3003 23.4694L67.4323 23.1934H68.9563L70.2403 25.0894L71.5243 23.1934H73.0483L73.1803 23.4694L71.1763 26.3254L73.2403 29.2534L73.1083 29.5294H71.5843L70.2403 27.5734L68.8963 29.5294H67.3723L67.2403 29.2534ZM74.3523 29.5294V27.8134H76.1403V29.5294H74.3523ZM77.6921 29.5294V27.8134H79.4801V29.5294H77.6921ZM81.032 29.5294V27.8134H82.82V29.5294H81.032ZM84.3718 29.5294V27.8134H86.1598V29.5294H84.3718ZM87.5796 28.9894V28.0894H90.3396C90.6116 28.0894 90.7476 27.9374 90.7476 27.6334C90.7476 27.3214 90.6356 27.1454 90.4116 27.1054L89.1156 26.8894C88.0916 26.7134 87.5796 26.1214 87.5796 25.1134C87.5796 23.8334 88.2276 23.1934 89.5236 23.1934H91.3836L92.1036 23.7334V24.6334H89.6196C89.3476 24.6334 89.2116 24.7854 89.2116 25.0894C89.2116 25.4094 89.3356 25.5894 89.5836 25.6294L90.8676 25.8454C91.8836 26.0134 92.3916 26.5974 92.3916 27.5974C92.3916 28.8854 91.7396 29.5294 90.4356 29.5294H88.2996L87.5796 28.9894ZM93.5294 28.9054V27.9694H97.2494C97.4894 27.9694 97.6094 27.8494 97.6094 27.6094V26.2894C97.6094 26.0494 97.4894 25.9294 97.2494 25.9294H93.6494V21.2494H98.9774V22.8094H95.3774V24.3694H97.3214C98.6654 24.3694 99.3374 25.0414 99.3374 26.3854V27.5134C99.3374 28.8574 98.6654 29.5294 97.3214 29.5294H94.3334L93.5294 28.9054ZM100.827 29.5294V20.6494H102.483V23.1934H104.331C105.627 23.1934 106.275 23.8414 106.275 25.1374V27.5854C106.275 28.8814 105.627 29.5294 104.331 29.5294H100.827ZM102.483 28.0894H104.235C104.491 28.0894 104.619 27.9614 104.619 27.7054V25.0174C104.619 24.7614 104.491 24.6334 104.235 24.6334H102.483V28.0894ZM109.513 29.5294C108.217 29.5294 107.569 28.8934 107.569 27.6214C107.569 26.3494 108.217 25.7134 109.513 25.7134H111.169V25.0174C111.169 24.7614 111.041 24.6334 110.785 24.6334H108.241V23.7334L108.961 23.1934H110.881C112.177 23.1934 112.825 23.8414 112.825 25.1374V29.5294H109.513ZM109.225 27.7054C109.225 27.9614 109.353 28.0894 109.609 28.0894H111.169V26.9854H109.609C109.353 26.9854 109.225 27.1134 109.225 27.3694V27.7054Z" fill="white"/>
<path d="M221.852 155.173V151.633C221.852 150.513 222.412 149.953 223.532 149.953H224.912C226.032 149.953 226.592 150.513 226.592 151.633V155.173C226.592 156.293 226.032 156.853 224.912 156.853H223.532C222.412 156.853 221.852 156.293 221.852 155.173ZM223.292 155.253C223.292 155.453 223.392 155.553 223.592 155.553H224.852C225.052 155.553 225.152 155.453 225.152 155.253V151.553C225.152 151.353 225.052 151.253 224.852 151.253H223.592C223.392 151.253 223.292 151.353 223.292 151.553V155.253ZM227.393 156.623L229.123 154.183L227.443 151.803L227.553 151.573H228.823L229.893 153.153L230.963 151.573H232.233L232.343 151.803L230.673 154.183L232.393 156.623L232.283 156.853H231.013L229.893 155.223L228.773 156.853H227.503L227.393 156.623ZM233.32 156.853V155.423H234.81V156.853H233.32ZM236.103 156.853V155.423H237.593V156.853H236.103ZM238.886 156.853V155.423H240.376V156.853H238.886ZM241.67 156.853V155.423H243.16V156.853H241.67ZM244.423 156.333V155.553H247.323C247.523 155.553 247.623 155.453 247.623 155.253V154.253C247.623 154.053 247.523 153.953 247.323 153.953H245.163V152.653H247.323C247.523 152.653 247.623 152.553 247.623 152.353V151.553C247.623 151.353 247.523 151.253 247.323 151.253H244.523V150.473L245.193 149.953H247.383C248.503 149.953 249.063 150.513 249.063 151.633V152.273C249.063 152.54 248.979 152.756 248.813 152.923L248.463 153.273L248.813 153.623C248.979 153.79 249.063 154.006 249.063 154.273V155.173C249.063 156.293 248.503 156.853 247.383 156.853H245.093L244.423 156.333ZM250.104 155.173V151.973C250.104 150.626 250.777 149.953 252.124 149.953H253.774L254.444 150.473V151.253H252.084C251.724 151.253 251.544 151.433 251.544 151.793V152.553H253.164C254.284 152.553 254.844 153.113 254.844 154.233V155.173C254.844 156.293 254.284 156.853 253.164 156.853H251.784C250.664 156.853 250.104 156.293 250.104 155.173ZM251.544 155.253C251.544 155.453 251.644 155.553 251.844 155.553H253.104C253.304 155.553 253.404 155.453 253.404 155.253V154.153C253.404 153.953 253.304 153.853 253.104 153.853H251.544V155.253ZM257.425 156.853C256.345 156.853 255.805 156.323 255.805 155.263C255.805 154.203 256.345 153.673 257.425 153.673H258.805V153.093C258.805 152.88 258.699 152.773 258.485 152.773H256.365V152.023L256.965 151.573H258.565C259.645 151.573 260.185 152.113 260.185 153.193V156.853H257.425ZM257.185 155.333C257.185 155.546 257.292 155.653 257.505 155.653H258.805V154.733H257.505C257.292 154.733 257.185 154.84 257.185 155.053V155.333Z" fill="white"/>
</g>
<defs>
<clipPath id="clip0_2905_192">
<rect width="326" height="222" fill="white"/>
</clipPath>
</defs>
</svg>
