<svg width="136" height="48" viewBox="0 0 136 48" fill="none" xmlns="http://www.w3.org/2000/svg">
<path fill-rule="evenodd" clip-rule="evenodd" d="M65.3725 0.626652L65.1741 0L64.988 0.0773505L64.7772 0.163669C64.7683 0.163669 64.6999 0.191695 64.6035 0.233173C63.0952 0.871107 62.1537 1.36754 60.8467 2.05673L60.8466 2.05676C60.5459 2.21532 60.2258 2.3841 59.875 2.56714L59.8231 2.59365L59.8175 2.59653L59.8167 2.59692L59.8161 2.59725L59.8153 2.59764C59.7411 2.63556 59.6662 2.67381 59.5858 2.71624C58.2405 3.41688 55.3192 4.9482 55.3192 4.9482L55.2452 4.91793L54.8797 4.80583C47.8105 2.74651 40.636 1.69835 33.5567 1.69835H33.5511C26.4786 1.69835 18.8657 2.74539 10.9345 4.80695L10.5544 4.9056V24.926C10.5544 28.6885 11.5193 31.8045 13.5084 34.4442L13.5016 34.4558L13.5202 34.4611C13.5211 34.462 13.522 34.463 13.5229 34.4638L13.5239 34.4648L13.5252 34.4659L13.5016 34.4592L11.0118 33.6744L10.9188 33.6442L4.2498 40.3815L4.23859 40.3927L0 46.7097L0.695035 46.703C1.4169 46.6948 2.13468 46.5934 2.83059 46.4014C3.67867 46.1689 4.48245 45.7977 5.2094 45.3028C5.29011 45.2501 5.3697 45.1907 5.45378 45.1279C5.95978 44.7534 6.41465 44.3144 6.80686 43.8219L6.91896 43.6874L6.58265 42.0675L7.52095 42.0059L10.9647 38.3065L11.2125 38.3682L9.75515 40.8467V48L10.3157 47.6637C10.6339 47.4674 10.9377 47.2486 11.2248 47.009L11.2383 46.9978L11.2966 46.9485L11.3492 46.9048C12.2057 46.1761 13.3245 44.9631 13.7942 43.3175L13.8514 43.1235L12.9176 42.0855L13.6429 41.4353L13.6698 41.4106L15.1809 37.6911L18.2861 38.8737L18.748 39.1809L18.9128 39.2852L19.4329 39.6024L19.5944 39.7011C21.6033 41.0194 23.1816 41.7951 25.8138 43.0552L32.8987 46.4451L39.9892 43.044C44.0697 41.0866 48.2399 38.8625 51.0873 35.8638C53.9347 32.8651 55.2463 29.4056 55.2463 24.926V22.2624C55.4141 22.2137 55.5788 22.1549 55.7395 22.0864C55.9972 21.9849 56.2303 21.8298 56.4234 21.6313C56.5839 21.462 56.6741 21.2379 56.6756 21.0046C56.6764 20.876 56.6512 20.7485 56.6015 20.6298C56.5518 20.5112 56.4786 20.4038 56.3864 20.3141C56.3207 20.2491 56.2477 20.1919 56.1689 20.1437C56.2978 20.1022 56.42 20.0596 56.5388 20.0148C57.1711 19.776 57.6599 19.4924 57.9849 19.1718C58.2311 18.9459 58.3988 18.6475 58.4636 18.3198C58.4842 18.2056 58.4784 18.0883 58.4468 17.9767C58.4131 17.8667 58.3535 17.7664 58.273 17.6842C58.1468 17.5625 57.9929 17.4733 57.8246 17.4241C58.1602 17.3015 58.4543 17.1819 58.7069 17.0653C59.356 16.7638 59.7808 16.4544 60.0039 16.1158C60.1542 15.8803 60.226 15.6033 60.2091 15.3244C60.211 15.2254 60.1899 15.1274 60.1472 15.0381C60.1046 14.9487 60.0417 14.8706 59.9636 14.8098C59.8231 14.7043 59.6593 14.6339 59.486 14.6047C59.4434 14.5957 59.3986 14.589 59.3526 14.5823C59.7327 14.3816 60.0997 14.157 60.4512 13.9097C61.8749 12.8929 61.8884 12.116 61.8289 11.8313C61.8096 11.7401 61.7709 11.6542 61.7153 11.5793C61.6598 11.5045 61.5888 11.4424 61.5072 11.3974C61.2862 11.2854 61.0394 11.2339 60.792 11.2484H60.6933C61.7404 10.5062 62.5262 9.76188 63.0475 9.02312C63.1282 8.91102 63.1977 8.79892 63.2582 8.6969C63.3623 8.52336 63.4526 8.34195 63.5284 8.15433C63.5452 8.11174 63.5597 8.06834 63.5721 8.02429C63.6123 7.87499 63.6245 7.71953 63.608 7.56579C63.5952 7.40783 63.5485 7.2545 63.4711 7.11619C63.3937 6.97789 63.2875 6.85786 63.1596 6.76426C62.9825 6.64166 62.7645 6.593 62.552 6.62861C62.2904 6.6742 62.0289 6.72652 61.7673 6.78556L61.8401 6.7239C62.2785 6.34836 62.6708 5.98403 63.0049 5.64211C63.0744 5.57261 63.1417 5.50199 63.2067 5.43248C64.349 4.2285 65.0631 3.07833 65.3366 1.99542L65.3434 1.96403C65.535 1.15241 65.3893 0.678219 65.3725 0.626652ZM11.5701 24.926V5.69256C19.2839 3.71731 26.677 2.71624 33.55 2.71624H33.5567C40.4174 2.71624 47.37 3.71395 54.2284 5.68135C53.2654 6.18917 52.0312 6.84161 50.8732 7.45929L50.8362 7.47723C47.361 9.3314 44.5338 10.8728 42.4442 12.0577L42.3119 12.1272L42.2491 12.1687C40.2448 13.3088 38.9208 14.2774 38.3939 14.7C37.7 15.2605 37.1059 16.2212 36.542 17.2996L36.5252 17.1461C36.4737 16.7048 36.395 16.2672 36.2898 15.8356C36.1926 15.4233 36.0698 15.0174 35.9221 14.6204C35.6542 13.9038 35.3035 13.221 34.8773 12.5857C34.634 12.2224 34.3674 11.8753 34.0791 11.5465C33.8121 11.2412 33.5276 10.9515 33.2271 10.6789C33.1285 10.5892 33.0287 10.5006 32.9278 10.4143L32.9179 10.4057C32.9063 10.3894 32.8931 10.3743 32.8785 10.3605C32.8585 10.3426 32.8365 10.327 32.8129 10.314C32.8086 10.3101 32.8044 10.3062 32.8 10.3022C32.6296 10.161 32.4536 10.0242 32.2765 9.89304C31.6122 9.40509 30.9067 8.97599 30.1679 8.61058C30.0322 8.54108 29.8865 8.47046 29.7385 8.40207C29.5704 8.3236 29.3888 8.24177 29.1713 8.14648C28.835 8.00299 28.5076 7.86959 28.1881 7.74852C27.8429 7.61848 27.501 7.50077 27.1725 7.39876C26.844 7.29674 26.5212 7.20258 26.1849 7.11738C25.8161 7.02321 25.4506 6.9425 25.1008 6.8786C24.7511 6.8147 24.4282 6.7665 24.0998 6.72726H24.0886C23.694 6.6813 23.3038 6.65216 22.9328 6.6387C22.7646 6.63198 22.5965 6.62861 22.4261 6.62861C21.7125 6.62922 21.0002 6.6877 20.2961 6.80349C19.8623 6.87612 19.4328 6.97192 19.0092 7.09048C18.5848 7.20878 18.1671 7.35024 17.7581 7.51422C17.3362 7.68386 16.9245 7.87775 16.525 8.09491C15.7734 8.50276 15.0686 8.99143 14.4231 9.55224C14.121 9.81137 13.8395 10.0936 13.5812 10.3964L13.3122 10.7125L17.1517 13.2202L16.7021 13.8357L16.6719 13.8772V14.9018L13.9814 19.9408L13.9467 20.0069L14.9074 22.4732L16.553 22.5685L17.0911 23.0169L17.173 23.037C17.254 23.0544 17.3367 23.0627 17.4196 23.0617C17.6843 23.0595 17.9445 22.9926 18.1774 22.8666C18.5539 22.6524 18.8642 22.3386 19.0742 21.9597L19.1527 21.8331L18.9711 21.0752L20.7076 19.4879H20.7591C21.2075 19.4879 22.2736 19.4386 23.1828 19.0159C23.2001 20.186 23.1496 21.3561 23.0314 22.5202C22.9491 23.3284 22.8094 24.1298 22.6133 24.9181C22.4025 25.7432 22.1346 26.418 21.8174 26.9236C20.2479 29.4201 19.6482 31.7653 20.0237 33.8986L14.6787 32.6599L14.5666 32.633L14.0666 33.4872C12.3896 31.0994 11.5701 28.2969 11.5701 24.926ZM48.676 19.8971C48.5068 20.0076 48.3155 20.0799 48.1155 20.1089L47.9888 20.1313C47.5639 20.2008 46.9507 20.2311 46.0012 20.2311C45.2064 20.2311 44.1594 20.2098 42.4139 20.1583C42.4115 20.048 42.3883 19.9392 42.3456 19.8376C43.1998 19.6515 44.2513 19.563 45.2781 19.4778L45.3 19.4759C46.3134 19.3902 47.3608 19.3016 48.2713 19.1157C48.4697 19.0742 48.6569 19.0305 48.8318 18.9823C48.8354 18.9826 48.839 18.9828 48.8425 18.9829L48.8447 18.983L48.8477 18.9831L48.8511 18.9831C48.8589 18.9832 48.8666 18.9829 48.8744 18.9823C48.9516 18.971 49.0295 18.9653 49.1076 18.9655C49.2006 18.9625 49.2935 18.9735 49.3833 18.998C49.3406 19.1027 49.282 19.2003 49.2096 19.2872L49.1109 19.4161L49.0919 19.4419C48.9767 19.6142 48.8357 19.7677 48.6737 19.8971H48.676ZM33.1509 30.5389C33.2765 30.4179 33.4502 30.2576 33.5803 30.1421C33.7774 30.2999 33.9828 30.4469 34.1957 30.5827C34.4208 30.7321 34.6604 30.8583 34.9109 30.9593C34.962 30.9795 35.0325 30.9948 35.0974 31.0089C35.1407 31.0184 35.1815 31.0272 35.2125 31.0367C35.2349 31.113 35.244 31.1926 35.2394 31.2721C35.1824 31.2961 35.1217 31.3101 35.06 31.3136H34.9558C34.8071 31.3137 34.6595 31.2879 34.5197 31.2373C34.5184 31.2369 34.5171 31.2367 34.5157 31.2367C34.5149 31.2367 34.5141 31.2368 34.5133 31.2369L34.5126 31.2371L34.5118 31.2373C34.5 31.2335 34.4884 31.229 34.4771 31.2239C34.4313 31.2059 34.3867 31.1849 34.3437 31.1611L33.1509 30.5389ZM34.1722 31.8326C34.067 31.8987 33.9455 31.9344 33.8213 31.9357C33.6253 31.9262 33.437 31.8566 33.2821 31.7362C33.0329 31.5488 32.814 31.3242 32.633 31.0703L32.6644 31.0367L34.0276 31.7496C34.0724 31.7732 34.1161 31.7956 34.1621 31.8158C34.1672 31.8214 34.1714 31.8278 34.1744 31.8348L34.1722 31.8326ZM42.4554 15.1417C42.5316 15.1327 42.5955 15.2302 42.609 15.2695C42.6322 15.3536 42.6226 15.4433 42.5821 15.5206C42.5821 15.5206 42.5485 15.6327 42.1337 15.9017L42.1225 15.9085C42.0967 15.9197 42.0725 15.9344 42.0507 15.9522C41.7085 16.1568 41.356 16.3439 40.9947 16.5127C40.4118 16.7918 39.6999 17.099 38.9769 17.3837C39.0084 17.343 39.0402 17.3012 39.0722 17.259L39.0723 17.2589C39.2271 17.0552 39.3873 16.8443 39.5452 16.719C39.8791 16.4541 40.213 16.3273 40.5962 16.1818L40.6046 16.1786C41.107 16.0073 41.5849 15.771 42.0261 15.4757C42.1773 15.3753 42.3208 15.2636 42.4554 15.1417ZM40.9196 17.2896C41.4089 17.0707 41.8844 16.8221 42.3433 16.5452C42.3993 16.5442 42.4537 16.5642 42.4958 16.6012C42.5305 16.6494 42.5473 16.8254 42.3904 17.1842C42.3411 17.2963 42.1987 17.4745 41.7985 17.7099C41.7783 17.7223 41.7559 17.7357 41.7324 17.748C41.2611 18.0003 40.7685 18.2108 40.2604 18.3769C39.5138 18.6359 38.691 18.8601 38.0363 19.017C38.1462 18.7824 38.2624 18.5518 38.385 18.3254C38.8894 18.1404 39.9264 17.7458 40.9196 17.2896ZM39.9824 19.1718C40.6841 18.9665 41.3641 18.6932 42.0126 18.3556C42.048 18.3561 42.083 18.3636 42.1155 18.3777C42.148 18.3917 42.1774 18.412 42.2021 18.4375C42.2265 18.4939 42.2293 18.5574 42.2099 18.6157C42.1787 18.7521 42.1285 18.8834 42.0608 19.0058C41.8938 19.3208 41.4129 19.5776 40.6338 19.767C39.9198 19.9214 39.1968 20.0304 38.4691 20.0932C38.0845 20.1347 37.7729 20.1695 37.5252 20.2053C37.537 20.174 37.5491 20.1446 37.5615 20.1144L37.5616 20.1142L37.5617 20.1141C37.5728 20.0871 37.5842 20.0594 37.5958 20.0293L37.7011 19.7749C38.0745 19.6953 39.0083 19.48 39.9824 19.1718ZM37.6933 20.8533C37.9523 20.8163 38.2639 20.7827 38.5397 20.7535L38.5562 20.7517L38.5562 20.7517C39.2708 20.6747 40.1553 20.5793 40.9095 20.3813C41.1905 20.3105 41.4647 20.2152 41.729 20.0966C41.7469 20.1358 41.8131 20.3679 41.414 21.0091V21.0147L41.4005 21.0405V21.0461C41.3786 21.0847 41.3502 21.1193 41.3165 21.1481C41.2169 21.2373 41.1001 21.3052 40.9734 21.3477C40.9537 21.3544 40.9335 21.3593 40.9129 21.3622L40.8759 21.3701C40.7941 21.3835 40.6517 21.4015 40.3983 21.4216C40.1001 21.4441 39.7257 21.4665 39.3726 21.4867H39.3659C38.6854 21.5259 37.9758 21.5685 37.4433 21.629C37.2819 21.647 37.1395 21.666 37.014 21.6884C37.0891 21.4362 37.1687 21.1874 37.255 20.9407C37.3988 20.9022 37.5453 20.8744 37.6933 20.8578V20.8533ZM37.2763 30.0905C37.2795 30.0905 37.3436 30.127 37.4102 30.165L37.4103 30.165L37.411 30.1654C37.4827 30.2063 37.557 30.2486 37.561 30.2486C38.0879 30.4963 38.5083 30.697 38.8323 30.8595C38.8804 30.8829 38.9272 30.9056 38.9726 30.9276C39.2713 31.0726 39.5107 31.1888 39.7111 31.2754C39.793 31.3102 39.9051 31.4436 39.7952 31.4918C39.7393 31.5136 39.682 31.5316 39.6237 31.5456C39.4915 31.5798 39.3556 31.5975 39.219 31.5983C39.0592 31.5976 38.9006 31.5711 38.7493 31.5198C38.6966 31.5019 38.6428 31.4806 38.5868 31.4571C38.5542 31.4436 38.5206 31.4279 38.4859 31.4111C38.4063 31.3707 38.3233 31.3259 38.2348 31.2732C37.8039 31.0332 37.3917 30.7611 37.0016 30.4593L37.1137 30.3887C37.1802 30.3389 37.2274 30.2676 37.2471 30.1869C37.2595 30.1491 37.2723 30.1132 37.2774 30.0993L37.2774 30.0995C37.2806 30.0908 37.2801 30.0918 37.2774 30.0993L37.2763 30.0905ZM38.3513 32.1173L38.2908 32.1285C38.2706 32.1285 38.2468 32.1321 38.225 32.1353C38.2206 32.1359 38.2162 32.1366 38.212 32.1372C38.2083 32.1377 38.2046 32.1382 38.2011 32.1386C37.9708 32.1659 37.7374 32.1386 37.5195 32.059H37.5128C37.5049 32.0558 37.4967 32.0526 37.4885 32.0493L37.4797 32.0458C37.4361 32.0284 37.3899 32.01 37.348 31.9895C37.3383 31.984 37.3282 31.9791 37.3178 31.975C36.8888 31.7606 36.4819 31.5049 36.1026 31.2115L36.1373 31.2015C36.3253 31.1431 36.5033 31.0565 36.6653 30.9447C37.0548 31.2697 37.4649 31.5693 37.8928 31.8416C38.0049 31.9099 38.1171 31.9682 38.2213 32.0187C38.2481 32.032 38.2736 32.0477 38.2975 32.0658L38.3513 32.1173ZM39.1271 30.2598C38.7908 30.095 38.3895 29.8988 37.894 29.6634L37.6574 29.5513C37.6623 29.5441 37.6668 29.5366 37.6709 29.5289C37.7381 29.4208 37.7767 29.2973 37.783 29.1702C37.7865 29.1063 37.7816 29.0422 37.7684 28.9796C37.7947 29.0038 37.8246 29.0238 37.857 29.039C39.6091 29.854 40.5116 30.2093 41.1203 30.3069C41.1363 30.3245 41.1506 30.3436 41.1629 30.3641C41.1702 30.3746 41.1741 30.3871 41.1741 30.3999C41.1728 30.409 41.1698 30.4178 41.1651 30.4257C41.1025 30.5135 41.0183 30.5838 40.9207 30.6297L40.9132 30.634C40.6943 30.7565 40.5965 30.8113 40.4723 30.8113C40.3317 30.7989 40.1946 30.7609 40.0676 30.6992L40.0419 30.688C39.8232 30.595 39.5329 30.4537 39.1271 30.2553V30.2598ZM37.7628 28.9661C37.7617 28.9608 37.7603 28.9556 37.7587 28.9504H37.7617C37.7642 28.9585 37.7661 28.9667 37.7673 28.9751C37.7602 28.9691 37.7541 28.962 37.7493 28.9541C37.7515 28.9566 37.7539 28.9589 37.7564 28.9611C37.7576 28.9622 37.7589 28.9632 37.7602 28.9642C37.7611 28.9649 37.7619 28.9655 37.7628 28.9661ZM42.3153 29.2968C42.3052 29.3226 42.2581 29.3798 42.1236 29.4504C41.8803 29.576 41.7189 29.6578 41.4633 29.6578C40.9869 29.6578 40.1719 29.3641 38.3928 28.5446C38.5429 28.402 38.656 28.225 38.7224 28.029C40.4858 28.7184 41.525 29.0468 42.2133 29.1242C42.2145 29.124 42.2157 29.1238 42.217 29.1237C42.2182 29.1236 42.2194 29.1235 42.2206 29.1235C42.2245 29.1233 42.2284 29.1236 42.2323 29.1242C42.2653 29.1359 42.2924 29.16 42.3079 29.1914C42.3234 29.2228 42.3261 29.259 42.3153 29.2924V29.2968ZM38.7056 27.6153L38.7165 27.6027L38.7179 27.6018L38.7179 27.6016L38.7179 27.6011L38.7202 27.5985V27.6052L38.7056 27.6153ZM41.303 28.2453C40.7425 28.0783 39.9757 27.8059 38.9769 27.4158C39.0408 27.3586 39.1069 27.2936 39.1775 27.2229L39.1966 27.2039C39.3139 27.0928 39.4074 26.9589 39.4712 26.8104L39.6579 26.8677C39.9508 26.9575 40.2212 27.0404 40.4678 27.1164H40.4734L40.5841 27.1507C41.8846 27.5526 42.6578 27.7915 43.1975 27.8799C43.2441 27.881 43.29 27.8905 43.3332 27.9079C43.3488 27.918 43.3612 27.9323 43.3689 27.9492C43.3767 27.966 43.3794 27.9848 43.3769 28.0032C43.3769 28.0278 43.3399 28.0839 43.2435 28.1713C43.035 28.3597 42.8724 28.4841 42.5081 28.4841H42.4095H42.3669C42.0033 28.4407 41.6452 28.3596 41.2985 28.242L41.303 28.2453ZM42.6538 27.0638C42.1752 26.936 41.5261 26.7375 40.6618 26.4707L40.4959 26.4192L39.6921 26.1669C39.8312 26.0996 39.9548 26.0041 40.0553 25.8867C40.0934 25.8407 40.1282 25.7948 40.1596 25.7499C40.3341 25.7651 40.7698 25.8726 41.1684 25.9709L41.2088 25.9808H41.2144C41.7458 26.112 42.3668 26.2622 42.9375 26.3687C43.3997 26.4639 43.8693 26.5197 44.341 26.5358C44.3874 26.5337 44.4339 26.5405 44.4777 26.5559C44.4973 26.5655 44.5137 26.5806 44.5248 26.5993C44.536 26.618 44.5414 26.6395 44.5405 26.6613C44.5405 26.6781 44.5114 26.7611 44.3331 26.9135C44.231 27.0088 44.1181 27.092 43.9968 27.1613C43.8866 27.2161 43.7645 27.2427 43.6415 27.2386C43.3063 27.2211 42.9746 27.1624 42.6538 27.0638ZM44.4329 25.8744C43.911 25.8595 43.3917 25.7965 42.8814 25.686C42.331 25.5739 41.7996 25.445 41.3736 25.3385C40.9476 25.232 40.6214 25.1535 40.3938 25.1143C40.3915 25.0374 40.3755 24.9615 40.3468 24.8901C40.3468 24.8843 40.3437 24.8791 40.3408 24.8741L40.3399 24.8726L40.339 24.871C40.3386 24.8703 40.3382 24.8695 40.3378 24.8688C40.4876 24.7741 40.6212 24.656 40.7335 24.519C42.6393 24.8677 43.9666 25.0291 44.9037 25.0291C45.0248 25.0291 45.1391 25.0291 45.249 25.0213C45.3092 25.0178 45.3692 25.0306 45.4228 25.0582C45.4445 25.0778 45.4615 25.1019 45.4728 25.1289C45.484 25.1558 45.4891 25.1849 45.4878 25.2141C45.4878 25.2164 45.4879 25.219 45.488 25.2221C45.4895 25.2687 45.4939 25.4068 45.2468 25.6771C45.1627 25.7656 44.9542 25.8744 44.4329 25.8744ZM45.3084 24.3486H45.2412C45.1928 24.3486 45.1428 24.3502 45.0914 24.3518L45.0912 24.3519C45.0367 24.3536 44.9805 24.3554 44.9228 24.3554C44.3486 24.3475 43.7755 24.3048 43.2065 24.2276C42.6101 24.1536 41.9263 24.046 41.1236 23.9036C41.1889 23.7455 41.2076 23.572 41.1774 23.4036C43.165 23.5572 44.4542 23.6278 45.3409 23.6278C45.6234 23.6278 45.8723 23.6211 46.0909 23.6065C46.1577 23.6039 46.2244 23.6145 46.2871 23.6379C46.3078 23.6465 46.328 23.6562 46.3476 23.6671C46.3966 23.6898 46.4382 23.726 46.4676 23.7713C46.4765 23.7982 46.4676 23.8666 46.3846 23.9742C46.2651 24.1159 46.1018 24.2138 45.9205 24.2522C45.7204 24.3057 45.5153 24.338 45.3084 24.3486ZM45.3443 22.9597C44.4979 22.9597 43.2592 22.8958 41.4667 22.7613C41.4835 22.7299 41.5003 22.6985 41.516 22.6671V22.6615C41.5317 22.6301 41.5496 22.5965 41.5664 22.5651C41.6392 22.4401 41.6857 22.3017 41.7032 22.1582C41.7033 22.1563 41.7034 22.1544 41.7035 22.1525C41.7036 22.1492 41.7037 22.1459 41.7037 22.1425L41.7036 22.1396L41.7036 22.1378C41.7036 22.1341 41.7034 22.1304 41.7032 22.1268C42.4968 22.1403 43.1839 22.1557 43.7982 22.1694L43.7985 22.1694L43.9453 22.1727H43.9755C44.8118 22.1918 45.4721 22.2064 46.0247 22.2064C46.3465 22.2064 46.6211 22.2064 46.8588 22.1895H47.0482H47.0595C47.1088 22.191 47.1573 22.2028 47.2018 22.2243C47.2201 22.2324 47.2364 22.2444 47.2496 22.2594C47.2628 22.2745 47.2726 22.2922 47.2783 22.3114C47.2839 22.3306 47.2853 22.3508 47.2824 22.3706C47.2794 22.3904 47.2722 22.4094 47.2612 22.4261L47.2585 22.4302C47.1412 22.6039 47.0633 22.7194 46.8341 22.8061C46.5673 22.916 46.0909 22.9597 45.3443 22.9597ZM37.7281 22.2747C38.2505 22.2232 38.8592 22.1895 39.3961 22.1626C40.1326 22.1212 40.6371 22.0909 40.9443 22.0427C40.9793 22.0507 41.0125 22.0656 41.0418 22.0864C41.0357 22.144 41.0161 22.1993 40.9846 22.2478C40.9745 22.2656 40.9652 22.283 40.9561 22.3L40.9561 22.3001L40.9561 22.3001L40.956 22.3002L40.956 22.3003L40.9559 22.3004L40.9559 22.3004C40.9451 22.3207 40.9345 22.3405 40.923 22.3599C40.8894 22.4501 40.8363 22.5317 40.7675 22.5989C40.6987 22.6662 40.6159 22.7174 40.525 22.7489C40.2145 22.8678 39.6652 22.9238 38.7953 22.9238C38.2348 22.9238 37.5509 22.9003 36.7023 22.8532C36.7359 22.7052 36.7707 22.5595 36.8066 22.4171C37.1089 22.3426 37.4173 22.295 37.7281 22.2747ZM38.7471 23.5886C39.5071 23.5886 40.0564 23.5493 40.4544 23.463C40.4827 23.478 40.5054 23.5015 40.5194 23.5303C40.5194 23.532 40.5196 23.5343 40.5198 23.5372C40.5226 23.5713 40.5326 23.6925 40.3333 23.9507C40.2323 24.1069 40.094 24.2356 39.9309 24.3251C39.7773 24.3957 39.5576 24.426 39.1944 24.426C38.8524 24.426 38.3917 24.4002 37.7281 24.361H37.7146L37.6576 24.3576C37.306 24.337 36.8894 24.3126 36.4142 24.2881C36.4209 24.259 36.4254 24.2298 36.431 24.2018V24.1794L36.4355 24.1557L36.4356 24.1552L36.4358 24.1537L36.4359 24.1532C36.4748 23.9462 36.5147 23.733 36.5588 23.5157C37.4411 23.5639 38.1585 23.5886 38.7471 23.5886ZM37.6888 25.0269L37.765 25.0313C38.3592 25.0663 38.8331 25.0941 39.1966 25.0941H39.1966C39.3491 25.0941 39.4825 25.0941 39.6013 25.0784C39.6222 25.084 39.6428 25.0907 39.6629 25.0986C39.6863 25.107 39.7079 25.1195 39.7268 25.1356C39.7268 25.167 39.6966 25.278 39.5396 25.4719C39.4351 25.575 39.3025 25.6452 39.1585 25.6737C38.9996 25.7184 38.8372 25.7499 38.6731 25.7679C38.6626 25.7672 38.6521 25.7672 38.6417 25.7679C38.4011 25.7921 38.1593 25.8037 37.9175 25.8026C37.7886 25.8026 37.6518 25.8026 37.5117 25.7948C36.968 25.7735 36.4534 25.7163 36.1239 25.6737C36.1844 25.4338 36.236 25.1917 36.2875 24.9495C36.7511 24.9714 37.1578 24.995 37.5091 25.0154H37.5092L37.5169 25.0158C37.5758 25.0192 37.6331 25.0225 37.6888 25.0257V25.0269ZM37.8906 26.473C38.1478 26.4741 38.4049 26.4618 38.6607 26.436C38.6949 26.4489 38.7279 26.4646 38.7594 26.4831C38.7937 26.4999 38.8242 26.5236 38.8491 26.5526C38.8208 26.6204 38.777 26.6807 38.7213 26.7286L38.7011 26.7488C38.4511 26.9987 38.3648 27.0851 38.0498 27.0851C37.7348 27.0851 37.1788 26.9886 36.1855 26.8149L35.7988 26.7465C35.8503 26.6075 35.8985 26.4663 35.9423 26.325C36.5878 26.4167 37.2386 26.4657 37.8906 26.4719V26.473ZM35.8929 27.4393L36.0701 27.4707C37.079 27.6478 37.6507 27.7476 38.0464 27.7532C38.0622 27.766 38.0738 27.7832 38.0801 27.8025C38.0801 27.835 38.0565 27.9303 37.9097 28.0794C37.8447 28.1591 37.7626 28.2229 37.6694 28.2662C37.5761 28.3096 37.4743 28.3311 37.3716 28.3294H37.2595H37.2539H37.2124C36.8402 28.2834 36.2775 28.0917 35.3448 27.7689C35.4109 27.6456 35.4726 27.5189 35.5331 27.3922L35.8929 27.4393ZM35.0174 28.3462L35.0679 28.3641C35.9008 28.6567 36.4882 28.863 36.9456 28.9504C36.9855 28.9566 37.0225 28.975 37.0514 29.0031C37.0803 29.0312 37.0998 29.0677 37.107 29.1074C37.1075 29.1149 37.1075 29.1223 37.107 29.1298C37.107 29.178 37.0521 29.2419 36.9635 29.3036C36.9174 29.3338 36.8628 29.3484 36.8077 29.345H36.7046C36.3939 29.2816 36.0867 29.2023 35.7842 29.1074C35.3694 28.9729 35.1374 28.8832 35.078 28.8529L35.041 28.8383C35.041 28.8383 34.9972 28.8193 34.9939 28.8159C34.8246 28.7509 34.8134 28.7195 34.8134 28.7195C34.8272 28.6789 34.8862 28.5747 34.9378 28.4838L34.9379 28.4836C34.9702 28.4267 34.9996 28.375 35.0129 28.3473L35.0174 28.3462ZM35.1519 29.6533H35.162C35.3311 29.7246 35.504 29.7863 35.6799 29.8383C35.8358 29.8854 36.005 29.9302 36.1878 29.9751C36.2154 30.0128 36.2401 30.0525 36.2618 30.0939C36.3089 30.1659 36.3309 30.2514 36.3245 30.3371V30.3439C36.3224 30.35 36.3198 30.3561 36.3167 30.3618C36.2421 30.442 36.144 30.4966 36.0364 30.5176C35.9576 30.5398 35.8761 30.5507 35.7943 30.5501C35.6888 30.549 35.5838 30.5354 35.4815 30.5098L35.4445 30.5008H35.4367C35.0934 30.3981 34.7682 30.2426 34.4726 30.0401C34.291 29.9224 34.1296 29.8035 34.0074 29.7038C34.1195 29.5748 34.2215 29.4448 34.3213 29.3159C34.5219 29.4045 34.8224 29.53 35.1564 29.6511L35.1519 29.6533ZM34.6082 32.3516C34.6174 32.346 34.626 32.3396 34.634 32.3326C34.9088 32.5442 35.1955 32.74 35.4927 32.9189C35.6048 32.9861 35.7169 33.0478 35.8212 33.1038C35.8823 33.1859 35.9338 33.2747 35.9748 33.3684C36.0263 33.4906 36.0207 33.5578 36.005 33.5735C35.9691 33.5965 35.9263 33.6064 35.884 33.6016H35.8683C35.7562 33.6016 35.532 33.5545 35.1531 33.3123C34.8204 33.0886 34.5162 32.825 34.2473 32.5276C34.3743 32.4837 34.4955 32.4246 34.6082 32.3516ZM35.7999 32.3236C35.5903 32.1958 35.4008 32.0658 35.2562 31.9626C35.369 31.9438 35.4778 31.9059 35.5779 31.8505C35.6538 31.8094 35.7208 31.7538 35.7752 31.6869C36.1503 31.9732 36.5494 32.2267 36.968 32.4447C37.0595 32.4897 37.1408 32.553 37.2068 32.6308C37.2348 32.6655 37.2628 32.7014 37.2875 32.7373C37.3146 32.776 37.3393 32.8165 37.3615 32.8583C37.3303 32.8637 37.2989 32.867 37.2673 32.8684H37.2202C36.8806 32.8751 36.3884 32.6846 35.7988 32.3236H35.7999ZM37.4512 33.541C37.5552 33.5161 37.6557 33.4785 37.7505 33.4289C37.8148 33.3955 37.8722 33.3503 37.9198 33.2955C38.123 33.451 38.3188 33.5911 38.5072 33.7159C38.6316 33.7977 38.6081 33.9984 38.5498 34.1363C38.545 34.1472 38.5394 34.1577 38.533 34.1677C38.5183 34.177 38.5019 34.1831 38.4847 34.1856C38.4616 34.1875 38.4384 34.1875 38.4152 34.1856C38.2813 34.1804 38.1495 34.1507 38.0262 34.0982C37.7592 33.9879 37.5081 33.8424 37.2796 33.6655C37.2415 33.6363 37.2045 33.6061 37.1675 33.5747C37.1866 33.5814 37.431 33.5455 37.45 33.541H37.4512ZM38.3637 32.7956C38.4861 32.781 38.6062 32.7513 38.7213 32.707C38.8259 32.6664 38.9193 32.6015 38.9937 32.5175C39.3461 32.745 39.7192 32.9386 40.108 33.096C40.2338 33.2027 40.35 33.3201 40.4555 33.4469C40.4822 33.48 40.5071 33.5089 40.5292 33.5345L40.5292 33.5346L40.5296 33.535L40.5297 33.5351C40.5997 33.6162 40.6405 33.6635 40.6192 33.7069C40.6192 33.7182 40.5923 33.7316 40.5844 33.735C40.5072 33.7626 40.4252 33.774 40.3434 33.7686C40.0699 33.7686 39.7179 33.6509 39.2964 33.4188C38.9704 33.2341 38.6583 33.0257 38.3626 32.7956H38.3637ZM40.4824 32.522C40.2348 32.4307 39.9943 32.3213 39.7627 32.1947H39.7885C39.9713 32.1542 40.1442 32.078 40.2974 31.9705C40.3471 31.9341 40.392 31.8916 40.4308 31.8438C40.8494 32.0546 41.232 32.2298 41.5788 32.3696C41.6683 32.4035 41.7413 32.4705 41.7828 32.5568C41.7891 32.5722 41.7918 32.5889 41.7908 32.6056C41.7898 32.6222 41.7851 32.6384 41.7771 32.653C41.769 32.6676 41.7578 32.6803 41.7443 32.69C41.7307 32.6997 41.7151 32.7063 41.6987 32.7092C41.6283 32.7201 41.557 32.7254 41.4857 32.7249C41.1417 32.7156 40.8019 32.647 40.4813 32.522H40.4824ZM40.9566 31.3562C41.0563 31.3099 41.1535 31.2586 41.2481 31.2026C41.3939 31.1235 41.5251 31.02 41.6359 30.8965C42.0884 31.2184 42.5777 31.4852 43.0933 31.6913C43.2606 31.7574 43.4312 31.8146 43.6045 31.8629C43.6296 31.8721 43.6514 31.8887 43.667 31.9105C43.6826 31.9323 43.6913 31.9583 43.6919 31.9851C43.6893 32.0066 43.6784 32.0263 43.6616 32.04C43.6336 32.068 43.5495 32.1297 43.2962 32.1297C42.9599 32.1297 42.5115 32.0086 42.0384 31.8292C41.6841 31.6958 41.3131 31.5299 40.9555 31.3562H40.9566ZM43.3253 31.0636C43.0527 30.9553 42.7885 30.8268 42.535 30.6791C42.3173 30.5531 42.1066 30.4154 41.9039 30.2665C42.0854 30.2095 42.2608 30.1344 42.4274 30.0423C42.5735 29.971 42.7039 29.8712 42.8108 29.7486C42.8315 29.7233 42.8505 29.6967 42.868 29.669C43.2479 29.8939 43.6402 30.0975 44.0428 30.2789C44.3494 30.418 44.6647 30.537 44.9867 30.6353C45.0459 30.6511 45.0999 30.6822 45.1432 30.7255C45.1865 30.7688 45.2176 30.8228 45.2333 30.882C45.2568 30.9837 45.2465 31.0903 45.2042 31.1858C45.1974 31.2037 45.1481 31.2575 45.0001 31.2979C44.877 31.3289 44.7504 31.3436 44.6235 31.3416C44.3693 31.3378 44.1167 31.3024 43.8713 31.2362L43.8163 31.2216C43.6497 31.1775 43.4854 31.1248 43.3242 31.0636H43.3253ZM43.1157 29.0401C43.3287 28.9493 43.5233 28.8201 43.6897 28.659C43.7622 28.594 43.8276 28.5215 43.8847 28.4426C44.5194 28.7451 45.1773 28.9963 45.8521 29.1937C45.9452 29.2195 46.0371 29.2442 46.1268 29.2666C46.3259 29.3129 46.5115 29.4046 46.6693 29.5345C46.7432 29.5929 46.8062 29.6638 46.8554 29.7441C46.8711 29.7663 46.8812 29.792 46.8847 29.819C46.8882 29.8459 46.8851 29.8733 46.8756 29.8988C46.8108 29.9983 46.7092 30.0681 46.5931 30.0928C46.4451 30.1366 46.2912 30.1578 46.1369 30.1555C45.8854 30.1511 45.6355 30.1161 45.3925 30.0513L45.3465 30.039C44.5259 29.8282 43.6437 29.3551 43.1146 29.0401H43.1157ZM46.5494 28.6792L46.5012 28.6702H46.4911C45.6812 28.4806 44.8955 28.1993 44.1493 27.8317C44.3759 27.7332 44.5841 27.5967 44.7647 27.4281C44.8931 27.3219 45.0033 27.1954 45.0909 27.0537C46.0242 27.4931 47.0086 27.8147 48.0213 28.011C48.1594 28.0356 48.2892 28.0942 48.3991 28.1814L48.4719 28.2408C48.4891 28.255 48.5029 28.2728 48.5124 28.293C48.5219 28.3132 48.5268 28.3351 48.5268 28.3574C48.5268 28.3797 48.5219 28.4017 48.5124 28.4218C48.5029 28.442 48.4891 28.4598 48.4719 28.474C48.4253 28.5103 48.3758 28.543 48.324 28.5715C48.1039 28.6854 47.8619 28.7508 47.6144 28.7632C47.5792 28.7632 47.5432 28.7654 47.5065 28.7676H47.5064H47.5064H47.5064C47.4683 28.7699 47.4295 28.7722 47.3902 28.7722C47.1071 28.7694 46.8251 28.7382 46.5483 28.6792H46.5494ZM48.361 27.3877C47.4552 27.2566 46.4272 26.9292 45.2994 26.4124C45.4667 26.3526 45.6173 26.2538 45.7389 26.1243C45.8923 25.9666 46.0141 25.7809 46.0976 25.5773C46.1085 25.5498 46.1178 25.5217 46.1256 25.4932C47.2209 25.7824 48.1827 25.9988 48.991 26.14C49.4876 26.2264 49.9371 26.2869 50.3362 26.3183C50.4195 26.3896 50.4897 26.475 50.5436 26.5705C50.6119 26.6915 50.6536 26.8256 50.6658 26.964V26.9718C50.6658 26.9898 50.6501 27.0324 50.6041 27.0839C50.4315 27.2644 49.973 27.4561 49.2029 27.4561C49.0392 27.4561 48.8665 27.4483 48.6872 27.4303C48.6565 27.4263 48.6259 27.4221 48.5955 27.4179L48.5953 27.4179C48.5169 27.4072 48.4389 27.3966 48.3598 27.3877H48.361ZM50.5268 25.6692H50.4618C50.0731 25.6401 49.6247 25.5806 49.1165 25.491C48.324 25.3508 47.3655 25.1334 46.2669 24.843C46.5317 24.7571 46.7635 24.5915 46.9305 24.3688C46.9687 24.3159 47.0031 24.2605 47.0337 24.2029C48.3908 24.3887 49.758 24.4913 51.1277 24.5101C51.4001 24.5101 51.6579 24.5033 51.8989 24.4888C51.9865 24.539 52.0701 24.596 52.1489 24.6592C52.2586 24.736 52.3451 24.8415 52.3989 24.9641C52.4065 24.9843 52.4091 25.0061 52.4065 25.0275C52.404 25.049 52.3964 25.0695 52.3843 25.0874L52.3765 25.102C52.3033 25.2599 52.1867 25.3937 52.0402 25.4876C51.816 25.6232 51.4595 25.6894 50.9673 25.6894C50.8291 25.6871 50.6822 25.6804 50.5268 25.6692ZM50.946 23.824C49.6574 23.8063 48.371 23.7098 47.0942 23.5348C47.0823 23.5035 47.0681 23.4731 47.0516 23.444L47.0998 23.4272C47.4067 23.3058 47.6638 23.0847 47.8296 22.7994C47.8627 22.7499 47.893 22.6986 47.9204 22.6458C48.8654 22.6895 49.7499 22.7119 50.5526 22.7119C51.4124 22.7119 52.1949 22.6862 52.8764 22.6357C52.9458 22.6314 53.0138 22.6259 53.0795 22.6205L53.0807 22.6204L53.0864 22.6199L53.1061 22.6183C53.1174 22.6173 53.1287 22.6164 53.1399 22.6155C53.3226 22.6576 53.5015 22.715 53.6746 22.7871C53.8087 22.8315 53.9275 22.9126 54.0177 23.0213C53.9493 23.2052 53.7598 23.3577 53.4571 23.4888C52.922 23.7116 52.0782 23.8237 50.946 23.824ZM47.6233 21.4351C47.296 21.5091 46.8296 21.5405 46.0629 21.5405C45.5113 21.5405 44.8297 21.5259 43.971 21.5057H43.952L43.7585 21.5013L43.7577 21.5013L43.7571 21.5013L43.7568 21.5013L43.7564 21.5013L43.7556 21.5013C43.2101 21.4889 42.607 21.4752 41.9263 21.4642C41.9518 21.4286 41.9747 21.3911 41.9947 21.3521C42.1006 21.1831 42.1929 21.0057 42.2704 20.8219C44.0932 20.8757 45.1761 20.8981 46.0012 20.8981C46.9944 20.8981 47.6413 20.8645 48.102 20.786L48.2074 20.7681C48.2573 20.7581 48.3088 20.7581 48.3587 20.7681C48.3701 20.7711 48.3802 20.7735 48.3893 20.7756C48.4172 20.7821 48.436 20.7865 48.4529 20.8017C48.4726 20.8412 48.4125 20.9136 48.3352 21.0068L48.335 21.007L48.3334 21.0089L48.3317 21.011L48.3159 21.0301C48.3115 21.0354 48.3071 21.0407 48.3027 21.0461C48.227 21.14 48.1347 21.219 48.0303 21.2793C47.902 21.3521 47.7632 21.4047 47.6188 21.4351H47.6233ZM49.2455 18.1449C48.8707 18.2907 48.4829 18.4007 48.0874 18.4734C47.2231 18.6449 46.2086 18.7301 45.2277 18.8097L45.2001 18.812C44.3737 18.8819 43.5276 18.9534 42.7671 19.0776C42.8597 18.8735 42.9016 18.65 42.8892 18.4263C45.9328 18.0597 48.0964 17.6315 49.473 17.1214C49.4898 17.1225 49.5067 17.1225 49.5235 17.1214C49.5395 17.1225 49.5556 17.1225 49.5717 17.1214C49.7031 17.1023 49.8357 17.093 49.9685 17.0934C50.1272 17.0854 50.2861 17.1067 50.4371 17.1561C50.4198 17.1994 50.398 17.2407 50.3721 17.2795C50.2798 17.4127 50.1739 17.5359 50.056 17.6472C49.8187 17.8638 49.542 18.0327 49.241 18.1449H49.2455ZM49.5717 16.3692C48.7733 16.6837 47.9478 16.9243 47.1054 17.0878C45.9541 17.3321 44.5069 17.5608 42.7996 17.766C42.8811 17.6788 42.9477 17.5788 42.9969 17.47C43.0378 17.4573 43.0798 17.4486 43.1224 17.4443C43.1345 17.4443 43.1406 17.4422 43.1476 17.4399C43.1488 17.4395 43.15 17.4391 43.1513 17.4387C43.1531 17.4381 43.1549 17.4376 43.157 17.437C43.1594 17.4364 43.162 17.4358 43.165 17.4353L43.2031 17.4286C43.9396 17.2918 45.2871 16.9342 47.2444 16.3434C48.3576 16.0071 49.352 15.6932 49.8441 15.5374L49.8743 15.5273C49.8964 15.5186 49.9186 15.5101 49.9407 15.5018L50.1187 15.4455L50.1445 15.4365L50.194 15.4142L50.201 15.412L50.2109 15.4089C50.2176 15.4069 50.2242 15.4049 50.2308 15.4029C50.4538 15.3299 50.6831 15.2781 50.9158 15.2482C50.8434 15.4206 50.7405 15.5786 50.612 15.7145C50.3889 15.9499 50.0459 16.164 49.5672 16.3692H49.5717ZM50.3026 10.6654L50.2555 10.7002L50.2376 10.7125C50.1842 10.7523 50.1278 10.7922 50.0704 10.8308L50.0937 10.8146L50.0939 10.8144L50.0939 10.8144L50.094 10.8144C50.1426 10.7806 50.1912 10.7468 50.2398 10.7091C50.1737 10.7585 50.103 10.8078 50.0313 10.8549V10.8568L50.029 10.8582L49.9169 10.9345C49.8788 10.9591 49.8396 10.9849 49.8048 11.0085C49.7701 11.032 49.7006 11.0735 49.6479 11.1049C49.5952 11.1363 49.5179 11.1811 49.4517 11.217L49.4192 11.236L49.3284 11.2853H49.3183L49.2757 11.3066L49.2096 11.3392L49.084 11.4019L49.0313 11.4277L48.9596 11.4636L48.8968 11.4939C48.8942 11.4931 48.8915 11.4931 48.889 11.4939L48.852 11.5118L48.7701 11.5522L48.7006 11.5858L48.5644 11.6524L48.5627 11.6532C48.2965 11.7832 47.9739 11.9409 47.6166 12.1138C47.6084 12.1176 47.6004 12.1215 47.5924 12.1254L47.5807 12.1311L47.5807 12.1311L47.5807 12.1311L47.5806 12.1311L47.5806 12.1312L47.5806 12.1312C47.5597 12.1414 47.539 12.1516 47.5168 12.1609C47.3315 12.2511 47.1377 12.344 46.9378 12.4398L46.9374 12.44C46.7747 12.518 46.6079 12.5979 46.4384 12.6799L46.3936 12.7012C46.3614 12.7164 46.3294 12.7316 46.2974 12.7469C46.2325 12.7779 46.1678 12.8087 46.1032 12.838L45.8095 12.9781L45.6627 13.0465C45.2972 13.2199 44.9542 13.3798 44.6336 13.5263L44.1235 13.7583C43.8421 13.885 43.582 14.0016 43.3455 14.1047L43.2502 14.1451L43.2043 14.1653L43.1762 14.1765L43.1583 14.1854L43.1157 14.2034L43.1583 14.1843L43.1673 14.1529C43.2505 13.8751 43.2659 13.5814 43.2121 13.2965C43.1611 13.0396 43.0895 12.7874 42.998 12.542C45.0251 11.3979 47.5987 10.0164 50.8265 8.2933C50.8576 8.32966 50.9237 8.40333 50.9847 8.47126L50.9848 8.47134L50.985 8.47157L50.9859 8.47256C51.0414 8.53445 51.0924 8.59134 51.1086 8.61058C51.2685 8.77924 51.3579 9.0026 51.3586 9.23499C51.3507 9.52982 51.1803 9.85156 50.8519 10.1901C50.695 10.3503 50.5266 10.4987 50.3478 10.634L50.3351 10.6396L50.2589 10.6968L50.3059 10.6621L50.3332 10.6444L50.3026 10.6654ZM50.001 14.7706L49.9929 14.7744L49.9821 14.7779L49.959 14.7855C49.8631 14.8169 49.7626 14.8498 49.6589 14.8936L49.6468 14.8973C49.1793 15.0464 48.1558 15.3692 47.0236 15.7111C45.2299 16.2504 43.9083 16.608 43.1818 16.7582C43.1882 16.6484 43.1753 16.5384 43.1437 16.4331C43.5204 16.2918 44.2928 15.9993 45.2299 15.6226C47.3958 14.7538 48.7488 14.1171 49.5044 13.7337L49.5593 13.7068L49.576 13.6979L49.5762 13.6978L49.5763 13.6977L49.7589 13.6126C50.0952 13.4568 50.4315 13.3166 50.7331 13.2101C50.9408 13.1307 51.1544 13.0677 51.372 13.0218C51.3484 13.2964 51.2638 13.5622 51.1243 13.7998C50.9102 14.1888 50.5268 14.5173 50.0044 14.7706H50.001ZM51.2801 11.8358L51.2711 11.8459L51.2521 11.8627C51.033 12.0622 50.795 12.2397 50.5414 12.3929C50.205 12.6026 49.7869 12.8413 49.2881 13.0924L49.2298 13.1205C47.8845 13.802 46.1817 14.5161 44.9923 14.9937C44.276 15.2807 43.6527 15.5206 43.2345 15.6798V15.6708C43.2763 15.5202 43.287 15.3627 43.2659 15.2078C43.2504 15.1015 43.2122 14.9998 43.1538 14.9096L43.2659 14.8648L43.378 14.8177L43.4901 14.7672L43.6022 14.7168C43.6032 14.7174 43.6044 14.7177 43.6056 14.7177C43.6068 14.7177 43.6079 14.7174 43.6089 14.7168L43.8018 14.6338L43.9038 14.5879L44.045 14.5262L44.2311 14.4422L44.3802 14.3749L44.5439 14.3009C44.789 14.1895 45.0506 14.0692 45.3286 13.9399L45.9698 13.6406L46.7142 13.2886C46.8167 13.2393 46.9182 13.1906 47.0183 13.1426L47.0194 13.1421C47.2077 13.0518 47.3911 12.9639 47.5673 12.8783L47.7489 12.7909L47.8868 12.7247C47.9446 12.6958 48.0014 12.6685 48.0572 12.6416L48.0958 12.623L48.1172 12.6126L48.1356 12.6037L48.3139 12.5174C48.3394 12.5038 48.365 12.4913 48.3899 12.4791C48.4021 12.4731 48.4142 12.4672 48.426 12.4613L48.5908 12.3817L48.6939 12.3313L49.4405 11.9658L49.482 11.9445L49.5616 11.9053L49.5862 11.8929L49.5986 11.8862L49.6143 11.8784H49.6255L49.7376 11.8156C49.7992 11.7808 49.8587 11.7472 49.9169 11.7125C49.9286 11.7058 49.9399 11.6985 49.9513 11.6913L49.9513 11.6912C49.9705 11.6789 49.9896 11.6667 50.01 11.6575C50.0762 11.6283 50.1832 11.5634 50.3006 11.4923L50.3007 11.4922C50.4176 11.4213 50.5449 11.3441 50.6523 11.2898L50.6927 11.2685L50.7375 11.2484C50.7753 11.2345 50.8157 11.2184 50.8576 11.2017C51.0122 11.1402 51.188 11.0701 51.3362 11.0701C51.4606 11.0701 51.4953 11.0993 51.4987 11.1026C51.5021 11.106 51.5581 11.264 51.4146 11.6407C51.3835 11.7133 51.339 11.7795 51.2835 11.8358H51.2801ZM33.7305 19.804C33.5294 19.1314 33.3086 18.489 33.068 17.877L35.7293 16.7033C35.7584 16.8781 35.7831 17.0541 35.8033 17.2301C35.8436 17.5664 35.8694 17.9285 35.8784 18.2962V18.7805C35.8411 18.8727 35.8047 18.9708 35.7669 19.0728L35.7506 19.1168L35.7248 19.1874C35.7158 19.2099 35.708 19.2312 35.7001 19.2536L35.6205 19.4778L33.7305 19.804ZM35.3616 20.2603L35.3578 20.2734L35.3575 20.2741C35.343 20.3239 35.3277 20.3764 35.3134 20.4194C35.31 20.4306 35.3068 20.4418 35.3035 20.453C35.2971 20.4755 35.2906 20.4979 35.2831 20.5203C35.2125 20.7636 35.1542 20.9688 35.0993 21.1817C35.0858 21.2322 35.0712 21.2871 35.0555 21.3488C35.0342 21.4317 35.0129 21.5147 34.995 21.5932C34.995 21.6023 34.9919 21.611 34.9888 21.6199C34.9869 21.6251 34.985 21.6303 34.9838 21.6358C34.9816 21.6494 34.9786 21.6628 34.9748 21.6761L34.9681 21.7019C34.9457 21.7927 34.9244 21.879 34.9053 21.9631C34.9053 21.9766 34.9013 21.99 34.8973 22.0035C34.8954 22.0102 34.8934 22.0169 34.8919 22.0236L34.8917 22.0265L34.8916 22.0291C34.8915 22.0336 34.8916 22.0382 34.8919 22.0427C34.8919 22.0529 34.8886 22.0625 34.8853 22.0721C34.8836 22.0773 34.8818 22.0824 34.8807 22.0875C34.8807 22.0947 34.8784 22.1022 34.8762 22.1097C34.8754 22.1121 34.8747 22.1146 34.8741 22.117C34.8736 22.1188 34.8732 22.1205 34.8728 22.1223C34.8713 22.1298 34.8718 22.1338 34.8723 22.1377C34.8726 22.1395 34.8728 22.1414 34.8728 22.1436C34.8683 22.1663 34.8634 22.1879 34.8585 22.2092L34.8553 22.2233C34.8529 22.234 34.8505 22.2448 34.8481 22.2557V22.2803C34.8347 22.342 34.8179 22.4194 34.8011 22.5046L34.7943 22.5359C34.7943 22.5525 34.7898 22.5707 34.7851 22.5893L34.7851 22.5893C34.7828 22.5983 34.7805 22.6075 34.7786 22.6167C34.7758 22.6306 34.773 22.6438 34.7703 22.6569L34.7702 22.6571L34.7675 22.6699C34.7656 22.6788 34.7637 22.6879 34.7618 22.6974C34.7327 22.8431 34.6991 23.0191 34.6654 23.2108C34.6624 23.2281 34.6595 23.2452 34.6567 23.2621L34.6567 23.2622L34.6567 23.2624C34.6533 23.2827 34.65 23.3028 34.6464 23.3229L34.6329 23.3487V23.4148C34.6307 23.4262 34.6286 23.4374 34.6266 23.4483L34.6266 23.4484C34.6201 23.4829 34.6139 23.5157 34.6071 23.5471C34.5982 23.4843 34.5869 23.4216 34.5757 23.3588C34.5387 23.1402 34.4973 22.9171 34.4535 22.6918C34.4507 22.6783 34.4482 22.6648 34.4457 22.6513C34.4432 22.6379 34.4407 22.6245 34.4379 22.6111C34.4361 22.6027 34.4345 22.5944 34.4329 22.5861L34.4316 22.5794L34.429 22.5659C34.4268 22.5543 34.4246 22.5425 34.4222 22.5303C34.4042 22.4384 34.3852 22.3442 34.365 22.2512C34.3571 22.2086 34.347 22.1649 34.337 22.1212C34.3325 22.0943 34.3269 22.0674 34.3201 22.0405C34.3201 22.0215 34.3141 22.0014 34.3082 21.9818L34.3082 21.9818L34.3082 21.9816C34.3061 21.9746 34.304 21.9677 34.3022 21.9609C34.1946 21.4609 34.0765 20.9751 33.948 20.5035L35.3616 20.2603ZM29.8887 9.29441C30.5722 9.6355 31.2252 10.0345 31.8404 10.4872C31.9268 10.55 32.0131 10.615 32.0972 10.6811L30.0659 12.9232C29.9896 12.8402 29.91 12.7595 29.8304 12.6799C29.4485 12.2946 29.0361 11.9407 28.5973 11.6217L29.8887 9.29441ZM28.0043 11.2259L27.9 11.1609C27.6758 11.0309 27.4516 10.9053 27.2218 10.7921C27.0481 10.7058 26.8687 10.6239 26.6849 10.5488L27.3687 8.23728C27.5536 8.30006 27.7409 8.36732 27.9292 8.43795C28.2397 8.55565 28.5592 8.68457 28.8787 8.82246C29.0166 8.88187 29.1377 8.93456 29.2498 8.98725L28.0043 11.2259ZM32.6577 11.1508L32.7339 11.2203C33.0141 11.474 33.2791 11.7438 33.5276 12.0286C33.7968 12.3338 34.0455 12.6567 34.2719 12.9949C34.2899 13.0218 34.3078 13.0487 34.3246 13.0756L31.5703 14.8838C31.539 14.834 31.507 14.7846 31.4751 14.7353C31.4509 14.6981 31.4269 14.6609 31.4032 14.6238C31.2519 14.3996 31.0927 14.1697 30.9302 13.9511C30.8091 13.7897 30.6835 13.6309 30.5535 13.4747L32.6577 11.1508ZM34.6923 13.6888C34.7327 13.7617 34.7708 13.8334 34.8044 13.9074C34.9662 14.2218 35.1088 14.5456 35.2315 14.8771C35.3668 15.2374 35.4791 15.6058 35.5678 15.9802L32.7843 17.2133C32.7148 17.0497 32.6409 16.8893 32.5669 16.7302C32.4548 16.4992 32.3427 16.2694 32.2306 16.0441C32.1364 15.8625 32.0377 15.6813 31.9346 15.5004L34.6923 13.6888ZM26.6703 8.0142L25.9977 10.2932C25.8755 10.254 25.7533 10.2159 25.6277 10.1811C25.3531 10.1027 25.0672 10.0343 24.769 9.98048C24.6054 9.94909 24.4327 9.92218 24.2713 9.90088L24.3901 7.5075C24.5796 7.5344 24.7724 7.56691 24.9663 7.60278C25.3026 7.66332 25.649 7.74067 26.0021 7.82699C26.2275 7.88752 26.4506 7.94918 26.6703 8.0142ZM23.6614 7.4223L23.5426 9.82577L23.4384 9.81905C23.4056 9.81905 23.3703 9.81472 23.337 9.81064C23.3166 9.80815 23.297 9.80575 23.2792 9.80447C23.2551 9.46541 23.1795 9.132 23.055 8.81573C22.9308 8.50453 22.7721 8.20822 22.5819 7.93236C22.4452 7.73565 22.2954 7.54839 22.1335 7.37185H22.4294C22.5898 7.37185 22.7512 7.37185 22.9104 7.38082C23.1503 7.3797 23.398 7.39764 23.6614 7.4223ZM16.4028 9.00519C16.5523 8.91326 16.707 8.82507 16.8669 8.74062C17.2423 8.5365 17.6294 8.35458 18.0261 8.19581C18.2144 8.11958 18.4072 8.04895 18.6 7.98281L19.5518 10.5522C19.4924 10.5858 19.4329 10.6206 19.3747 10.6576C19.3436 10.6773 19.3173 10.6935 19.2926 10.7087C19.2709 10.7221 19.2504 10.7348 19.2289 10.7484C19.1561 10.7977 19.0843 10.8481 19.0159 10.8997C18.8882 10.9946 18.7655 11.096 18.6482 11.2035C18.6079 11.2394 18.5642 11.2797 18.5137 11.3291L16.4028 9.00519ZM18.1 11.8952L18.0944 11.9042L17.8545 12.2405L17.5687 12.6261L14.4074 10.56C14.561 10.4009 14.7224 10.2484 14.8894 10.106C15.1806 9.85202 15.4856 9.61437 15.8031 9.39418L18.0451 11.8604H18.0507C18.0659 11.8737 18.0824 11.8854 18.1 11.8952ZM19.2211 7.78999C19.6111 7.68148 20.0066 7.59392 20.406 7.52768C20.638 7.48956 20.8701 7.45817 21.1044 7.43351C20.7319 7.92042 20.4346 8.4604 20.2221 9.03545C20.1216 9.31946 20.0513 9.61331 20.0125 9.91209L19.2211 7.78999ZM10.7237 37.4893L7.1824 41.3008L5.6948 41.3983L6.13424 43.4968C5.803 43.888 5.42672 44.2387 5.01322 44.5416C4.93923 44.5966 4.86973 44.647 4.80022 44.6941C4.13839 45.1436 3.40703 45.4811 2.63553 45.6929C2.23158 45.8044 1.81915 45.8824 1.4024 45.9261L4.7935 40.868L11.1239 34.4782L13.1193 35.106L12.514 36.1441L12.2999 36.5162L11.5959 37.7135L10.7237 37.4893ZM32.8998 45.3062L26.2544 42.1258C25.158 41.6001 24.2444 41.1595 23.4081 40.729L25.2264 41.1887L25.2623 41.1976L26.2992 40.9734C27.5251 41.3823 28.7738 41.7191 30.039 41.9823C31.1835 42.2267 32.3427 42.4207 33.4861 42.5574C34.8479 42.7233 36.2183 42.8075 37.5902 42.8097H38.1327L32.8998 45.3062ZM52.391 32.4548C52.3446 32.5408 52.2955 32.6202 52.2458 32.7006C52.2308 32.725 52.2156 32.7495 52.2005 32.7743C52.1108 32.92 52.0181 33.0639 51.9225 33.2059H51.7128H49.5907C49.5094 32.8774 49.3104 32.5902 49.0313 32.3988C48.7523 32.2073 48.4127 32.125 48.0769 32.1675C47.7412 32.2099 47.4328 32.3741 47.2101 32.6289C46.9874 32.8837 46.8661 33.2114 46.869 33.5498C46.872 33.8881 46.9991 34.2136 47.2262 34.4645C47.4533 34.7154 47.7646 34.8742 48.101 34.9107C48.4374 34.9472 48.7755 34.859 49.0511 34.6627C49.3268 34.4664 49.5208 34.1758 49.5963 33.846H51.4651C51.12 34.3055 50.7475 34.7439 50.3497 35.1587C50.0507 35.4763 49.7331 35.7846 49.3968 36.0835C49.3183 36.1564 49.2387 36.2281 49.158 36.2965C48.8867 36.5364 48.6065 36.7673 48.3184 36.996C48.2343 37.0622 48.1502 37.1283 48.065 37.1933C47.7661 37.422 47.4627 37.6462 47.1547 37.8659L44.3096 35.3066H27.77C27.6892 34.9662 27.5042 34.6594 27.2408 34.4291C26.9774 34.1987 26.6487 34.0563 26.3005 34.0216C25.9523 33.9869 25.602 34.0618 25.2983 34.2356C24.9947 34.4095 24.7528 34.6738 24.6065 34.9916C24.5743 35.0599 24.5469 35.1303 24.5246 35.2024L23.0359 34.6284L22.5303 30.9649L25.8351 24.7488L25.8788 24.667V19.4868C25.8816 19.437 25.8742 19.3872 25.857 19.3404C25.8399 19.2936 25.8134 19.2508 25.7791 19.2146C25.7448 19.1783 25.7036 19.1495 25.6578 19.1298C25.612 19.1101 25.5627 19.0999 25.5128 19.0999C25.463 19.0999 25.4137 19.1101 25.3679 19.1298C25.3221 19.1495 25.2808 19.1783 25.2465 19.2146C25.2123 19.2508 25.1858 19.2936 25.1686 19.3404C25.1515 19.3872 25.1441 19.437 25.1468 19.4868V24.4854L21.8286 30.7273L21.7725 30.8315L22.3566 35.06L22.3689 35.1542L24.4641 35.9647C24.5245 36.359 24.7232 36.719 25.0246 36.9803L24.6984 37.616L15.96 35.319C15.9298 35.3104 15.8984 35.3063 15.867 35.3066C15.7708 35.2945 15.6737 35.321 15.5971 35.3804C15.5204 35.4398 15.4705 35.5272 15.4584 35.6233C15.4462 35.7195 15.4727 35.8166 15.5321 35.8932C15.5915 35.9699 15.6789 36.0198 15.775 36.0319L24.6311 38.3603C24.6614 38.3689 24.6927 38.373 24.7242 38.3726C24.7969 38.3723 24.8679 38.35 24.9278 38.3089C24.9878 38.2677 25.034 38.2095 25.0605 38.1417L25.5033 37.2808C25.7011 37.3599 25.9124 37.4003 26.1255 37.3996C26.5153 37.4002 26.8932 37.2654 27.1947 37.0182C27.4961 36.771 27.7022 36.4267 27.7778 36.0443H44.0248L46.5292 38.2975L46.5135 38.3076C46.0987 38.5845 45.6716 38.8547 45.2389 39.117C45.1167 39.191 44.9945 39.265 44.8712 39.3412C44.1336 39.7784 43.3747 40.1988 42.6045 40.6035C42.3422 40.7425 42.0787 40.8793 41.8142 41.0138C41.1539 41.3501 40.4858 41.6797 39.821 42.0014L39.4197 42.0283C38.8199 42.0664 38.2022 42.0844 37.5834 42.0844C36.327 42.0806 35.0717 42.0061 33.8235 41.8613C32.7597 41.7413 31.6768 41.5709 30.6051 41.3546C29.7722 41.1864 28.9471 40.9914 28.1556 40.775C27.622 40.6281 27.1972 40.4981 26.8956 40.4006C27.0934 40.1688 27.2725 39.9218 27.4315 39.6618C27.446 39.6394 27.4595 39.617 27.4729 39.5946H42.5429C42.5926 39.5973 42.6424 39.5899 42.6892 39.5727C42.736 39.5556 42.7789 39.5291 42.8151 39.4948C42.8513 39.4606 42.8801 39.4193 42.8998 39.3735C42.9195 39.3277 42.9297 39.2784 42.9297 39.2285C42.9297 39.1787 42.9195 39.1294 42.8998 39.0836C42.8801 39.0378 42.8513 38.9965 42.8151 38.9623C42.7789 38.928 42.736 38.9015 42.6892 38.8844C42.6424 38.8672 42.5926 38.8598 42.5429 38.8625H27.8698C27.971 38.6433 28.0604 38.4187 28.1377 38.1899C28.1557 38.1508 28.1693 38.1099 28.1781 38.0677L28.2184 37.95H28.1825C28.178 37.9104 28.165 37.8721 28.1444 37.8379C28.0805 37.7258 27.9482 37.6574 27.7509 37.6384L27.622 37.626L27.5458 37.8671C27.3837 38.3739 27.1577 38.8579 26.8732 39.3076C26.6818 39.6239 26.4562 39.9182 26.2006 40.1853L26.0784 40.2694L25.2242 40.4039L20.6739 38.9881L19.1146 38.3951L14.774 36.7404L13.0566 40.9645L11.884 42.0171L13.0353 43.2939C12.848 43.8538 12.5786 44.3827 12.236 44.8634C11.9202 45.3076 11.5587 45.7175 11.1575 46.0864C11.0555 46.1817 10.9479 46.277 10.8212 46.379L10.7943 46.4014L10.7517 46.4373C10.6665 46.509 10.578 46.5785 10.4894 46.6469V41.0418L14.9298 33.4659L20.7591 34.8168L21.0203 34.8773L20.8623 34.2888C20.3017 32.2059 20.8331 29.8585 22.4317 27.3126C22.814 26.7039 23.1278 25.8979 23.3655 24.9159C23.5748 24.0177 23.7179 23.1053 23.7937 22.1862C23.899 20.9688 23.9319 19.7462 23.8924 18.5249C24.1257 18.2671 24.3347 17.9883 24.5168 17.692C24.7128 17.3768 24.8719 17.0402 24.991 16.6887C25.1285 16.285 25.1956 15.8607 25.1894 15.4343C25.167 14.4164 24.6872 13.4848 23.7612 12.6631C23.7257 12.6283 23.6835 12.6011 23.6372 12.5831C23.5908 12.5651 23.5413 12.5567 23.4917 12.5585C23.442 12.5602 23.3932 12.5721 23.3482 12.5933C23.3032 12.6145 23.2631 12.6446 23.2301 12.6818C23.1972 12.719 23.1721 12.7625 23.1565 12.8097C23.1409 12.8569 23.1351 12.9068 23.1393 12.9563C23.1436 13.0059 23.1579 13.054 23.1814 13.0978C23.2048 13.1417 23.237 13.1802 23.2758 13.2113C24.0415 13.8906 24.4394 14.6428 24.4574 15.4477C24.4641 15.7954 24.4091 16.1416 24.2948 16.4701C24.1919 16.7684 24.0549 17.0539 23.8868 17.3209C23.7141 17.6026 23.5128 17.8655 23.2859 18.1057H23.2803C22.4642 18.6987 21.1156 18.7446 20.721 18.7446H20.5854L20.434 18.7379L18.2301 20.7502L18.1595 20.8152L18.3725 21.6941C18.2358 21.9089 18.0483 22.0868 17.8265 22.212C17.7015 22.2816 17.5615 22.32 17.4185 22.3241H17.4073L17.1987 22.1526C17.3999 21.9597 17.5593 21.7275 17.6669 21.4704C17.7745 21.2134 17.8281 20.9369 17.8243 20.6582C17.8224 20.584 17.7914 20.5136 17.738 20.462C17.6851 20.4107 17.6144 20.3818 17.5407 20.3813H17.5306C17.4553 20.384 17.3842 20.4162 17.3326 20.471C17.2809 20.5257 17.253 20.5987 17.2548 20.6739C17.2599 20.8568 17.2263 21.0386 17.1561 21.2075C17.095 21.3538 17.0131 21.4905 16.9129 21.6133C16.8464 21.6937 16.7737 21.7687 16.6954 21.8375L15.4163 21.7624L14.7504 20.0506L17.3848 15.1181L17.4028 15.0823V14.1114L17.9521 13.3492L17.9711 13.3211L18.5776 12.4904L19.0484 11.8391C19.2281 11.6645 19.4232 11.5066 19.6314 11.3672L19.6403 11.3605H19.6482C19.7816 11.2733 19.9193 11.1928 20.0607 11.1194C20.1189 11.4077 20.2286 11.683 20.3847 11.9322C20.4396 12.0116 20.5236 12.0661 20.6185 12.084C20.7133 12.1018 20.8114 12.0815 20.8914 12.0275C20.9709 11.9727 21.0257 11.8889 21.044 11.7941C21.0622 11.6993 21.0424 11.6011 20.9889 11.5208C20.8315 11.2468 20.7409 10.9395 20.7244 10.6239C20.7244 10.5836 20.7221 10.5421 20.7176 10.4995C20.7083 10.1035 20.7713 9.70919 20.9037 9.33589C21.0833 8.83718 21.3361 8.36794 21.6537 7.94358C21.99 8.33145 22.5359 9.08926 22.5572 9.96142C22.5729 10.6284 22.2792 11.2618 21.6817 11.8459C21.647 11.8791 21.6193 11.919 21.6 11.963C21.5808 12.0071 21.5704 12.0545 21.5696 12.1026C21.5687 12.1749 21.5893 12.2459 21.6288 12.3065C21.6682 12.3671 21.7248 12.4146 21.7913 12.4431C21.8578 12.4715 21.9312 12.4796 22.0023 12.4663C22.0734 12.453 22.139 12.4188 22.1907 12.3683C22.5377 12.0387 22.8205 11.6476 23.0247 11.2147C23.1214 10.9996 23.1925 10.7738 23.2366 10.5421L23.3644 10.5544H23.3857C23.5426 10.5634 23.6872 10.5757 23.8274 10.5892H23.8442H23.8666C24.1244 10.6161 24.3823 10.6531 24.6323 10.7013C24.9058 10.7529 25.1737 10.8134 25.4271 10.8874C25.6176 10.9412 25.806 10.9995 25.9876 11.0667L26.1367 11.1206L26.2308 11.1576C26.455 11.2461 26.6792 11.3448 26.8945 11.4501C27.078 11.54 27.2566 11.6396 27.4303 11.7365L27.4706 11.759L27.4934 11.7717L27.52 11.7864C27.7218 11.8985 27.946 12.0555 28.15 12.2023C28.5625 12.5013 28.9501 12.8331 29.3092 13.1945C29.493 13.3783 29.6713 13.5689 29.8383 13.7628C29.9932 13.9427 30.15 14.1428 30.3052 14.3408L30.3416 14.3872C30.5061 14.597 30.6423 14.8023 30.7835 15.0152L30.7835 15.0153L30.79 15.0251C31.0778 15.4592 31.3424 15.9082 31.5826 16.3703C31.6947 16.5844 31.8068 16.8053 31.9077 17.0272C32.0086 17.2492 32.114 17.4824 32.2126 17.7167C32.2128 17.7548 32.2193 17.7927 32.2317 17.8288C32.2474 17.8797 32.2755 17.9259 32.3135 17.9633C32.8834 19.4001 33.3235 20.885 33.6285 22.4003C33.7047 22.7702 33.7742 23.1346 33.8347 23.4843C33.9323 24.0527 34.0186 24.6311 34.0892 25.204C34.0679 25.2567 34.0433 25.3161 34.0119 25.3889C33.7845 25.8879 33.4685 26.3414 33.0792 26.7275C32.5537 27.2539 31.9769 27.7263 31.3573 28.1377C30.8712 28.4705 30.4205 28.8522 30.012 29.2767C29.688 29.6133 29.3978 29.9809 29.1455 30.3741C28.8626 30.8085 28.6415 31.2801 28.4886 31.7754C27.9991 31.7937 27.5264 31.9589 27.1321 32.2496C26.9641 32.3727 26.8191 32.5245 26.7039 32.698C26.6703 32.7724 26.6649 32.8566 26.6887 32.9347C26.7125 33.0128 26.764 33.0796 26.8334 33.1226C26.9029 33.1655 26.9856 33.1818 27.0662 33.1682C27.1467 33.1546 27.2196 33.1122 27.2711 33.0489C27.3582 32.9273 27.4669 32.8228 27.5918 32.7406C27.7229 32.6512 27.8664 32.5813 28.0177 32.5332C28.2249 32.4688 28.4409 32.437 28.6579 32.4391H28.7374L29.0244 32.4458L29.076 32.1644C29.177 31.756 29.3375 31.3647 29.5524 31.003C29.7805 30.6039 30.0507 30.2303 30.3584 29.8887C30.7691 29.4357 31.2323 29.0334 31.7384 28.6904C32.3207 28.299 32.8683 27.8583 33.3751 27.3732C33.9782 26.7869 34.402 26.2084 34.6363 25.6546C34.6581 25.603 34.6793 25.5507 34.7015 25.4961L34.7016 25.4956L34.7017 25.4954L34.7019 25.495L34.702 25.4949L34.7027 25.493L34.7203 25.4495C34.7203 25.4405 34.7251 25.4315 34.7298 25.4226L34.7321 25.4182C34.7331 25.4163 34.7341 25.4144 34.7349 25.4125L34.7607 25.3452L34.7742 25.3105L34.7742 25.3104C34.7876 25.2745 34.8011 25.2387 34.8156 25.1984L34.8246 25.1726V25.1636C34.9914 24.715 35.1255 24.2549 35.2259 23.787L35.2394 23.7209L35.2674 23.5763C35.2674 23.5723 35.2692 23.5627 35.2711 23.5527L35.2711 23.5526C35.2734 23.5401 35.2759 23.5268 35.2753 23.5224L35.2876 23.4619V23.4372L35.2943 23.3935C35.3582 23.018 35.4288 22.6794 35.4647 22.5124C35.4647 22.4964 35.4694 22.4804 35.474 22.465C35.4764 22.4567 35.4788 22.4485 35.4804 22.4407C35.4808 22.4385 35.4812 22.4366 35.4815 22.4348C35.4824 22.429 35.4826 22.4254 35.4828 22.4227V22.4227C35.4831 22.4178 35.4832 22.4158 35.4871 22.4093V22.4025L35.5084 22.3039L35.5143 22.2784C35.5452 22.1439 35.5791 21.9967 35.6149 21.8555L35.6205 21.8331V21.8252L35.6687 21.6335C35.6687 21.62 35.6738 21.6065 35.6787 21.5935C35.6803 21.5892 35.6819 21.585 35.6833 21.5808C35.6867 21.5626 35.6912 21.5447 35.6968 21.527C35.7068 21.4844 35.7158 21.4519 35.7237 21.4216V21.4015C35.792 21.1436 35.8638 20.8847 35.9479 20.6168L35.9658 20.5607C35.9737 20.5327 35.9815 20.5046 35.9905 20.4766L36.0084 20.4217C36.0084 20.409 36.0135 20.3963 36.0184 20.3841C36.02 20.3801 36.0216 20.3762 36.023 20.3724C36.1048 20.1078 36.1911 19.8488 36.2786 19.6011C36.2808 19.5947 36.2829 19.5885 36.285 19.5823C36.2893 19.5698 36.2935 19.5574 36.2987 19.5439L36.3156 19.4968L36.3335 19.4475C36.3402 19.4307 36.347 19.4116 36.3526 19.3948C36.3963 19.2738 36.4445 19.1482 36.4994 19.0114L36.5375 18.9139L36.5835 18.8018L36.5947 18.7715C37.2449 17.2021 37.9814 15.9443 38.8222 15.2695C39.2812 14.8856 39.7642 14.5313 40.2683 14.209C40.4836 14.0769 40.7015 13.9363 40.932 13.7876L40.9322 13.7874L40.9323 13.7874C41.3666 13.5072 41.8454 13.1984 42.4341 12.8637C42.4825 13.0588 42.5199 13.2564 42.5462 13.4556C42.5777 13.6363 42.5662 13.8218 42.5126 13.9971C42.43 14.2446 42.2893 14.4687 42.1023 14.6507L42.0911 14.6619L42.0675 14.6832C41.9377 14.81 41.7966 14.9249 41.646 15.0262C41.2483 15.2906 40.818 15.5023 40.3658 15.6562C39.9477 15.8143 39.552 15.9645 39.1417 16.2851C38.6933 16.636 38.2919 17.1449 37.8794 17.8837C37.8704 17.8971 37.8615 17.9117 37.8536 17.9263C37.5991 18.3938 37.3637 18.8803 37.1552 19.3724C37.1339 19.423 37.1127 19.4749 37.091 19.5279C37.0555 19.6145 37.0189 19.7039 36.9792 19.795C36.8671 20.0686 36.7617 20.3432 36.6664 20.6145C36.6621 20.6227 36.6587 20.6313 36.6564 20.6403C36.4871 21.1178 36.3357 21.6089 36.2079 22.1043V22.1189C36.1261 22.4294 36.051 22.7501 35.9781 23.0942V23.1267C35.9086 23.4574 35.8492 23.7702 35.792 24.0751V24.0919C35.7734 24.1918 35.7538 24.2947 35.7341 24.3976L35.716 24.4929L35.7046 24.5527C35.7041 24.5568 35.7041 24.5609 35.7046 24.565C35.6228 25.0056 35.523 25.4461 35.4042 25.8732C35.4036 25.8751 35.4036 25.877 35.4042 25.8788C35.3081 26.2175 35.1913 26.55 35.0544 26.8743L35.0488 26.8844C34.9306 27.1631 34.7958 27.4345 34.6452 27.6971L34.6026 27.77C34.5973 27.7775 34.5924 27.7854 34.5881 27.7935C34.4017 28.1104 34.1977 28.4165 33.9771 28.7105V28.7173C33.7787 28.983 33.559 29.2531 33.3247 29.5222C32.9973 29.8002 32.6801 30.0984 32.3819 30.4078C32.2395 30.5557 32.114 30.6925 31.9985 30.8248C31.9788 30.8453 31.9618 30.8683 31.9481 30.8932C31.9437 30.8999 31.9399 30.907 31.9368 30.9145L31.9268 30.9369C31.9231 30.946 31.9201 30.9554 31.9178 30.9649C31.9145 30.9752 31.9119 30.9857 31.9099 30.9963C31.9021 31.037 31.9021 31.0789 31.9099 31.1196C31.9099 31.1286 31.9099 31.1376 31.9155 31.1476C31.9166 31.1511 31.9177 31.1545 31.9189 31.1578C31.9199 31.1608 31.9211 31.1638 31.9223 31.1667C31.922 31.1695 31.9219 31.1722 31.9219 31.175C31.922 31.1767 31.9221 31.1784 31.9223 31.1802C31.923 31.1821 31.9238 31.1841 31.9246 31.1861C31.9251 31.1873 31.9256 31.1886 31.9261 31.1898L31.9268 31.1914C31.9275 31.1928 31.9281 31.1942 31.9288 31.1956L31.93 31.1983C31.9307 31.1996 31.9314 31.201 31.9321 31.2024C31.9329 31.2039 31.9337 31.2055 31.9346 31.2071C31.9346 31.2136 31.9393 31.2201 31.9441 31.2266L31.9455 31.2285L31.9473 31.2312C31.948 31.2321 31.9486 31.233 31.9492 31.234C31.9495 31.2347 31.9499 31.2354 31.9502 31.2361L31.9511 31.2378L31.9521 31.2396C31.9536 31.2423 31.9552 31.2449 31.957 31.2474L31.9682 31.262C32.2135 31.6412 32.5191 31.9779 32.8729 32.2586C33.057 32.4009 33.2667 32.5067 33.4906 32.5702C33.4959 32.6407 33.5238 32.7075 33.5702 32.7608C33.918 33.1742 34.3182 33.5405 34.7607 33.8504C35.1632 34.1206 35.5353 34.2641 35.8638 34.2775H35.9098C36.0169 34.2816 36.1238 34.2644 36.2242 34.2269C36.3247 34.1894 36.4167 34.1323 36.4949 34.0589C36.5483 34.0067 36.5933 33.9466 36.6283 33.8807C36.7404 33.9816 36.8604 34.078 36.9815 34.1711C37.5565 34.5993 38.0857 34.8257 38.5128 34.8257C38.5801 34.8262 38.6473 34.8202 38.7134 34.8078C38.8135 34.792 38.9091 34.7551 38.9938 34.6994C39.0785 34.6437 39.1503 34.5706 39.2044 34.4849C39.2619 34.3894 39.3024 34.2848 39.3244 34.1755C39.4616 34.2388 39.6028 34.2931 39.747 34.3381C39.9476 34.4038 40.157 34.4386 40.3681 34.4412C40.5431 34.443 40.7169 34.4103 40.8793 34.3448C41.0052 34.2958 41.1153 34.2132 41.1976 34.106C41.2566 34.0261 41.2951 33.933 41.3097 33.8347C41.3265 33.6804 41.2976 33.5245 41.2268 33.3863C41.318 33.396 41.4097 33.4009 41.5014 33.4009C41.7542 33.4122 42.0054 33.3569 42.2301 33.2406C42.3001 33.1996 42.3607 33.1442 42.4078 33.0781C42.4549 33.0121 42.4876 32.9368 42.5036 32.8572C42.5146 32.8019 42.5184 32.7453 42.5148 32.6891C42.7778 32.7625 43.049 32.8028 43.322 32.809C43.7009 32.809 43.9946 32.6969 44.1818 32.4861C44.3043 32.3583 44.3757 32.19 44.3825 32.0131C44.471 32.0209 44.5573 32.0254 44.6414 32.0254C44.8282 32.0276 45.0144 32.005 45.1952 31.9582C45.3598 31.9186 45.5132 31.8419 45.6436 31.7339C45.7236 31.6533 45.7835 31.555 45.8185 31.447C45.9048 31.2493 45.9335 31.0313 45.9014 30.8181C45.9866 30.8248 46.0685 30.8282 46.1481 30.8282C46.3689 30.8302 46.5888 30.7992 46.8005 30.7362C47.0259 30.6721 47.2269 30.5421 47.3778 30.3629C48.1155 30.3999 50.77 30.5625 53.085 31.0692C52.8819 31.5447 52.6502 32.0074 52.391 32.4548ZM48.9899 33.5298V33.5422C48.9882 33.7358 48.91 33.9208 48.7722 34.0569C48.6344 34.1929 48.4484 34.2688 48.2548 34.268C48.0612 34.2672 47.8758 34.1897 47.7391 34.0525C47.6025 33.9153 47.5258 33.7296 47.5258 33.536C47.5258 33.3424 47.6025 33.1566 47.7391 33.0195C47.8758 32.8823 48.0612 32.8048 48.2548 32.804C48.4484 32.8032 48.6344 32.8791 48.7722 33.0151C48.91 33.1511 48.9882 33.3362 48.9899 33.5298ZM27.1153 35.6956V35.7338C27.1124 35.8565 27.085 35.9774 27.0347 36.0894C26.9845 36.2015 26.9124 36.3023 26.8227 36.3862C26.6363 36.5628 26.389 36.6608 26.1322 36.6597C26.0041 36.666 25.876 36.6461 25.7558 36.6014C25.6356 36.5566 25.5257 36.488 25.4328 36.3995C25.3399 36.311 25.266 36.2046 25.2154 36.0867C25.1649 35.9688 25.1388 35.8419 25.1388 35.7136C25.1388 35.5853 25.1649 35.4584 25.2154 35.3405C25.266 35.2225 25.3399 35.1161 25.4328 35.0277C25.5257 34.9392 25.6356 34.8705 25.7558 34.8258C25.876 34.781 26.0041 34.7612 26.1322 34.7674C26.3892 34.7662 26.6368 34.8646 26.8227 35.0421C26.9125 35.1261 26.9847 35.2271 27.0349 35.3394C27.0852 35.4516 27.1125 35.5727 27.1153 35.6956ZM54.2262 24.9248C54.2262 26.9808 53.9313 28.8081 53.3204 30.4661C52.7812 30.345 52.187 30.2351 51.548 30.1376C50.8855 30.0367 50.1725 29.9482 49.4293 29.8753C48.6121 29.7946 47.935 29.7509 47.5482 29.7296C47.531 29.6278 47.4969 29.5297 47.4473 29.4392C47.8409 29.4469 48.2309 29.3629 48.5863 29.1937C48.7886 29.0889 48.9713 28.9501 49.1266 28.7834L49.1434 28.7666C49.202 28.7089 49.2463 28.6383 49.2725 28.5604C49.2988 28.4825 49.3064 28.3996 49.2948 28.3182C49.2843 28.2485 49.2623 28.1811 49.2298 28.1186C49.5926 28.1216 49.9541 28.0737 50.3037 27.9763C50.5967 27.9021 50.8651 27.7521 51.0817 27.5413C51.1692 27.4529 51.2378 27.3476 51.2835 27.2319C51.3248 27.1249 51.3394 27.0095 51.3261 26.8956C51.3079 26.7053 51.2563 26.5198 51.1736 26.3474C51.7139 26.3295 52.1209 26.2353 52.4135 26.0492C52.6472 25.8956 52.8348 25.6813 52.956 25.4293L52.9628 25.4147C53.0192 25.3177 53.0546 25.2099 53.0668 25.0982C53.079 24.9866 53.0676 24.8737 53.0334 24.7668C52.9875 24.6262 52.9139 24.4962 52.817 24.3845C53.0742 24.3407 53.3271 24.2743 53.5726 24.1861C53.81 24.1026 54.0317 23.9798 54.2284 23.8229L54.2262 24.9248ZM55.6028 21.4149C55.3246 21.5476 55.0314 21.6462 54.7295 21.7086C54.2063 21.8233 53.676 21.9023 53.1421 21.9452H53.1186C53.0132 21.9553 52.9157 21.9631 52.8204 21.9698C52.1545 22.018 51.3889 22.0427 50.5447 22.0427C49.7992 22.0427 48.9753 22.0236 48.1054 21.9855C48.2063 21.9482 48.3031 21.9009 48.3946 21.8443C48.5533 21.746 48.6942 21.6217 48.8116 21.4766C48.93 21.3414 49.0204 21.184 49.0773 21.0136C51.4236 20.9676 53.3529 20.7894 54.8427 20.4845C55.0215 20.489 55.1994 20.5104 55.3741 20.5484C55.5718 20.5787 55.758 20.6611 55.9133 20.7871C55.9429 20.8147 55.9664 20.8482 55.982 20.8855C55.9977 20.9228 56.0052 20.9631 56.0041 21.0035C56.0063 21.0652 55.9671 21.2277 55.605 21.4149H55.6028ZM57.8056 18.2077C57.7573 18.4117 57.643 18.5942 57.4805 18.7267C57.1913 18.9969 56.735 19.2413 56.1252 19.4531C55.685 19.6033 55.2357 19.725 54.7799 19.8175L54.725 19.8287H54.716C53.2957 20.1201 51.4438 20.2928 49.1838 20.341C49.3482 20.1893 49.4955 20.0201 49.6232 19.8365L49.6423 19.8119L49.7365 19.6874C49.8141 19.5907 49.8827 19.4871 49.9416 19.378C52.4146 18.8904 54.4022 18.4375 55.9324 18.0137C56.213 17.9767 56.4957 17.958 56.7787 17.9577C56.9976 17.9548 57.2163 17.9713 57.4323 18.007C57.6733 18.0518 57.763 18.1135 57.7944 18.146C57.795 18.1471 57.7957 18.1481 57.7963 18.1491L57.7981 18.152C57.8065 18.165 57.8124 18.1744 57.8056 18.2077ZM59.5398 15.3255C59.5548 15.4887 59.5098 15.6517 59.4131 15.784C59.3181 15.904 59.2046 16.0081 59.0768 16.0923C58.8564 16.2408 58.623 16.3691 58.3796 16.4757C57.7069 16.7817 56.7227 17.1113 55.4436 17.4555C54.0233 17.8377 52.1926 18.2525 49.9943 18.6886L49.973 18.6494C49.9544 18.618 49.933 18.5883 49.9091 18.5608C50.3412 18.3275 50.706 17.9871 50.9685 17.5721C51.004 17.5124 51.0333 17.4493 51.0559 17.3837C53.4773 16.8053 55.5322 16.1932 57.1677 15.5621C57.1954 15.5512 57.223 15.5403 57.2505 15.5295L57.2523 15.5288L57.2571 15.5269C57.3999 15.4709 57.5402 15.4158 57.6767 15.3591C58.0908 15.2748 58.5119 15.2294 58.9345 15.2235C59.3638 15.2235 59.5017 15.293 59.5398 15.3278V15.3255ZM60.8066 11.9154C60.9306 11.9051 61.0552 11.9251 61.1698 11.9737C61.1707 12.1025 61.1357 12.229 61.0689 12.3391C60.8548 12.7516 60.3828 13.1395 60.0252 13.3929C59.4008 13.8334 58.5522 14.2774 57.4973 14.7123L57.4132 14.7471C57.254 14.8121 57.0904 14.8771 56.9222 14.9421C55.3259 15.5542 53.317 16.154 50.9449 16.7212C50.8647 16.6365 50.7662 16.5713 50.6568 16.5306C50.8255 16.4178 50.9805 16.2857 51.1187 16.1371C51.2801 15.9628 51.4112 15.7628 51.5066 15.5452C54.6409 14.478 57.2529 13.3873 59.2113 12.2393C59.454 12.1302 59.7105 12.0548 59.9736 12.0151C60.2477 11.9572 60.5265 11.9246 60.8066 11.9176V11.9154ZM62.4948 8.64197C61.8222 9.60381 60.6272 10.5926 58.9423 11.5824L58.9075 11.6015L58.8818 11.616C57.0052 12.7113 54.5423 13.7897 51.5559 14.8267C51.5404 14.8008 51.5215 14.777 51.4998 14.756C51.449 14.7065 51.3882 14.6683 51.3216 14.6439C51.4993 14.4613 51.6502 14.2545 51.77 14.0296C51.7778 14.015 51.7846 14.0005 51.7924 13.9848C52.0166 13.8985 53.4885 13.32 55.4918 12.3772C56.7373 11.7921 57.9323 11.1845 59.0477 10.5724C60.3817 9.83811 61.6036 9.09599 62.6798 8.36284C62.6249 8.45476 62.5654 8.54444 62.4948 8.64422V8.64197ZM62.7908 7.38306C62.7678 7.46093 62.715 7.5266 62.6439 7.56579L62.5901 7.60391C62.5397 7.63754 62.4892 7.67341 62.4399 7.70816C61.2394 8.5264 59.9988 9.28404 58.7226 9.97823C57.6206 10.5847 56.4391 11.1845 55.2082 11.764C53.8103 12.4221 52.6735 12.9007 52.048 13.1541C52.0636 13.0367 52.0704 12.9183 52.0682 12.7999C52.0671 12.7236 52.0465 12.6489 52.0084 12.5828C51.9704 12.5166 51.9161 12.4613 51.8507 12.4221C51.8062 12.3953 51.7578 12.3756 51.7072 12.3638C54.0916 11.3246 55.4828 10.6822 56.6621 10.0668C57.8891 9.42623 59.0779 8.71506 60.2225 7.93685C61.0172 7.64916 61.8358 7.43197 62.6686 7.28778C62.6838 7.28552 62.6993 7.28552 62.7145 7.28778C62.7359 7.29218 62.7564 7.30014 62.7751 7.31132C62.8054 7.33374 62.7908 7.38306 62.7908 7.38306ZM63.8602 3.57158C63.5212 4.06963 63.1406 4.53803 62.7224 4.97174C62.6798 5.01734 62.6372 5.06195 62.5946 5.10656L62.5945 5.10667L62.5663 5.13613C62.5545 5.14857 62.5426 5.16103 62.5307 5.17353C62.2112 5.49974 61.8334 5.84614 61.4097 6.21271C60.9283 6.62067 60.4229 6.99951 59.8963 7.34719C59.8835 7.35372 59.8715 7.36161 59.8604 7.37073C58.7723 8.1123 57.6436 8.79233 56.4794 9.40763C55.4144 9.96814 54.1522 10.5612 52.1747 11.4255C52.1902 11.3378 52.1974 11.2488 52.196 11.1598C52.1966 11.059 52.1771 10.959 52.1386 10.8659C52.1001 10.7727 52.0434 10.6882 51.9718 10.6172C51.9565 10.6021 51.9404 10.5879 51.9236 10.5746C54.086 9.44238 58.3426 7.07702 61.6092 4.91008L61.8491 4.75538C62.4647 4.34198 63.2321 3.658 63.8588 3.09938L63.859 3.09918L63.859 3.09914L63.8591 3.09909C64.1636 2.82771 64.4348 2.58593 64.6393 2.41917C64.5789 2.52133 64.2146 3.05413 64.002 3.36493C63.9347 3.46337 63.8826 3.53954 63.8602 3.5727V3.57158ZM60.6788 4.79238C57.652 6.75193 53.9874 8.7395 51.8922 9.83698C51.9699 9.65173 52.0129 9.45374 52.0189 9.25293C52.0234 9.04036 51.9821 8.8293 51.8978 8.63413C51.8253 8.47153 51.7294 8.32045 51.6131 8.18572C51.6118 8.18444 51.6074 8.18029 51.6009 8.17399L51.5907 8.16424C51.5285 8.10481 51.3642 7.94776 51.4214 7.99178C51.9176 7.72782 52.4514 7.43562 52.9993 7.13569L52.9994 7.13561C53.7103 6.74645 54.445 6.34428 55.1521 5.97394L55.2541 5.92013L55.29 5.89995C55.7835 5.64088 56.3018 5.36513 56.8469 5.07515L56.847 5.07509L56.848 5.07454L56.8493 5.07386C57.5677 4.69165 58.3326 4.2847 59.1486 3.85856L59.2539 3.80363C59.3122 3.77225 59.3739 3.74086 59.4344 3.71059C59.728 3.55249 60.0191 3.39524 60.3052 3.24069L60.3066 3.23994C62.4239 2.09623 64.2678 1.10027 64.794 0.99659L64.6819 1.25555C64.589 1.47468 64.4593 1.67636 64.2985 1.85193C64.1495 2.01448 63.9824 2.18824 63.9152 2.24877C63.5228 2.60862 62.7347 3.27563 62.5498 3.41912C61.9612 3.88323 60.9389 4.62422 60.6788 4.79238ZM70.1783 29.6231L73.0246 28.4303C73.4215 29.5334 73.9637 30.3555 74.6512 30.8965C75.3388 31.4376 76.1609 31.7089 77.1175 31.7104C78.0748 31.7104 78.8203 31.4301 79.3539 30.8696C79.8875 30.3091 80.154 29.5954 80.1532 28.7285C80.1576 28.3251 80.1028 27.9232 79.9907 27.5357C79.8697 27.1531 79.6661 26.8018 79.3943 26.5066C79.0393 26.1269 78.6334 25.7983 78.188 25.5302C77.5565 25.1437 76.9 24.7995 76.2229 24.5C75.4431 24.1502 74.6861 23.7518 73.9562 23.3072C73.3699 22.9545 72.8324 22.5264 72.3576 22.0337C71.9475 21.6055 71.6291 21.0982 71.4216 20.5428C71.2132 19.9418 71.1122 19.3089 71.1234 18.6729C71.1168 17.9676 71.261 17.269 71.5461 16.6239C71.8313 15.9788 72.2509 15.402 72.7769 14.932C73.3239 14.4501 73.9531 14.0704 74.6344 13.811C75.3835 13.5227 76.1804 13.3789 76.9829 13.3873C78.3745 13.3873 79.5628 13.7172 80.5478 14.3771C81.5316 15.0359 82.3295 15.9365 82.865 16.9925L80.2631 18.4834C79.8468 17.76 79.3857 17.2178 78.8797 16.8568C78.3738 16.4959 77.7415 16.315 76.9829 16.3143C76.6008 16.3093 76.2209 16.3738 75.8619 16.5048C75.5435 16.6215 75.2494 16.796 74.9943 17.0194C74.7566 17.2274 74.563 17.4809 74.4248 17.7649C74.2887 18.0481 74.2192 18.3587 74.2219 18.6729C74.2189 18.9656 74.2742 19.256 74.3844 19.5271C74.5274 19.8346 74.7355 20.1073 74.9943 20.3264C75.3626 20.6471 75.7666 20.9243 76.1982 21.1526C76.7034 21.4329 77.354 21.7538 78.1499 22.1156C78.992 22.4852 79.7994 22.9294 80.5624 23.4429C81.1618 23.8479 81.6962 24.3415 82.1475 24.9069C82.5491 25.4216 82.8441 26.0112 83.0152 26.6411C83.1948 27.3408 83.2811 28.0611 83.2719 28.7834C83.2834 29.6114 83.1219 30.4327 82.7977 31.1947C82.4969 31.8964 82.0488 32.5253 81.4839 33.0388C80.9149 33.5499 80.2521 33.9455 79.5322 34.2036C78.7583 34.4805 77.9416 34.6183 77.1197 34.6105C76.2923 34.6191 75.4689 34.4958 74.6804 34.245C73.9608 34.0118 73.2836 33.6639 72.6749 33.2148C72.0809 32.7768 71.5664 32.2403 71.1536 31.6286C70.7352 31.0096 70.4068 30.3344 70.1783 29.6231ZM85.4657 27.8339C85.4577 26.9022 85.6277 25.9776 85.9668 25.1098C86.2873 24.2926 86.7788 23.5534 87.4085 22.9418C88.0534 22.3226 88.8126 21.8348 89.6438 21.5057C90.558 21.144 91.534 20.9643 92.517 20.9766C93.1907 20.975 93.8614 21.0663 94.5102 21.2479C95.0652 21.3929 95.5983 21.6116 96.0953 21.8981V25.2858C95.6075 24.7784 95.0341 24.361 94.4014 24.0527C93.7736 23.7794 93.0939 23.6455 92.4094 23.6603C91.8471 23.6503 91.2887 23.7564 90.7693 23.972C90.3045 24.1692 89.8883 24.4653 89.5496 24.8396C89.2076 25.222 88.945 25.6686 88.7773 26.1535C88.5919 26.6848 88.5001 27.2443 88.506 27.807C88.5015 28.3587 88.584 28.9076 88.7503 29.4336C88.9007 29.9176 89.1495 30.3653 89.4812 30.7486C89.8156 31.1249 90.227 31.425 90.6875 31.6286C91.2134 31.8551 91.7819 31.966 92.3544 31.9537C93.0289 31.9672 93.6985 31.8381 94.3196 31.5748C94.9642 31.273 95.5621 30.8804 96.0953 30.4089V33.6352C95.5837 33.9594 95.0242 34.2008 94.4373 34.3504C93.8011 34.5226 93.1447 34.6093 92.4856 34.6082C91.5039 34.6203 90.5289 34.4457 89.6124 34.0937C88.7829 33.7743 88.0269 33.2895 87.3905 32.6689C86.7733 32.061 86.2886 31.332 85.9668 30.5277C85.6264 29.6709 85.4561 28.7559 85.4657 27.8339ZM98.964 25.0964C98.6363 25.9244 98.4707 26.8077 98.4763 27.6983C98.4673 28.6319 98.6308 29.5592 98.9584 30.4336C99.2614 31.2541 99.7326 32.0022 100.342 32.63C100.951 33.2578 101.684 33.7514 102.495 34.0791C103.376 34.44 104.321 34.6199 105.273 34.6082C106.248 34.6223 107.215 34.4425 108.119 34.0791C108.935 33.7495 109.677 33.2614 110.302 32.6431C110.913 32.0277 111.392 31.2947 111.711 30.4885C112.379 28.7617 112.379 26.8478 111.711 25.121C111.391 24.307 110.909 23.5665 110.294 22.9446C109.679 22.3227 108.943 21.8324 108.133 21.5035C107.244 21.1412 106.29 20.9612 105.33 20.9744C104.369 20.9614 103.415 21.1461 102.528 21.5169C101.719 21.857 100.983 22.3491 100.36 22.9664C99.7535 23.5734 99.2785 24.2983 98.964 25.0964ZM102.541 30.8158C101.855 30.058 101.512 29.0371 101.512 27.7532C101.507 27.1946 101.6 26.6395 101.787 26.1131C101.958 25.6309 102.225 25.1882 102.571 24.8116C102.912 24.443 103.328 24.152 103.791 23.9585C104.281 23.7558 104.806 23.6544 105.336 23.6603C106.508 23.6596 107.443 24.0433 108.138 24.8116C108.834 25.5799 109.182 26.5784 109.182 27.807C109.182 29.0543 108.83 30.0573 108.125 30.8158C107.42 31.5744 106.49 31.9537 105.334 31.9537C104.158 31.9529 103.227 31.5736 102.541 30.8158ZM114.82 21.3286H117.802V28.7274C117.802 30.8782 118.642 31.9533 120.322 31.9525C122.02 31.9525 122.87 30.8775 122.87 28.7274V21.3286H125.852V28.8103C125.852 30.6353 125.382 32.0583 124.443 33.0792C123.503 34.1001 122.13 34.6105 120.322 34.6105C119.553 34.6201 118.788 34.5011 118.058 34.2585C117.406 34.0387 116.813 33.6725 116.324 33.1879C115.825 32.6768 115.445 32.0611 115.213 31.3853C114.951 30.6619 114.82 29.8024 114.82 28.8069V21.3286ZM129.972 16.6125V21.3286H127.884V24.1211H129.972V34.2305H132.953V24.1211H135.257V21.3286H132.953V16.6125H129.972ZM20.5955 12.6026L20.6806 13.6989C20.6851 13.7505 20.7748 14.8726 20.0977 15.3278C19.7299 15.5753 19.306 15.7268 18.8646 15.7683L18.5855 15.7952L18.5552 15.5138C18.5294 15.2616 18.4689 14.4141 18.7715 14.0375C18.9666 13.7953 19.3388 13.7449 19.6684 13.7012C19.8321 13.6898 19.9934 13.6547 20.147 13.5969L20.5955 12.6026ZM19.9957 14.5621C20.0424 14.4486 20.0745 14.3295 20.091 14.2079C19.9745 14.2342 19.8566 14.2536 19.7379 14.2661C19.582 14.2841 19.2626 14.3323 19.211 14.3962C19.1359 14.4892 19.0922 14.793 19.0989 15.1529C19.3388 15.0946 19.5665 14.9944 19.7715 14.8569C19.8731 14.7824 19.951 14.68 19.9957 14.5621ZM15.9376 20.9867C15.9182 21.0087 15.8944 21.0263 15.8678 21.0385C15.8411 21.0507 15.8122 21.0571 15.7829 21.0573C15.739 21.0568 15.6963 21.0427 15.6607 21.017C15.6191 20.9864 15.5906 20.9411 15.581 20.8903C15.5715 20.8396 15.5815 20.7871 15.6091 20.7434C15.6091 20.7434 15.8053 20.4138 15.6248 20.1952C15.4757 20.0159 15.4141 19.8444 15.4421 19.6852C15.4506 19.6311 15.4705 19.5795 15.5005 19.5337C15.5304 19.4879 15.5698 19.449 15.6159 19.4195C15.6422 19.4036 15.6718 19.3938 15.7025 19.3909C15.7332 19.388 15.7641 19.392 15.793 19.4027C16.1472 19.535 16.2705 19.7569 16.3098 19.9184C16.432 20.4026 15.988 20.9284 15.9376 20.9867ZM50.4663 25.6647H50.5223C50.5037 25.6631 50.4849 25.6631 50.4663 25.6647ZM41.1573 30.3584C41.1556 30.3771 41.1556 30.3959 41.1573 30.4145V30.4201C41.1619 30.4122 41.165 30.4034 41.1662 30.3943C41.1669 30.3817 41.1638 30.3692 41.1573 30.3584ZM49.5762 13.7012L49.5212 13.7281L49.5963 13.6911L49.5762 13.7012ZM49.5739 13.7012L49.519 13.7281L49.5941 13.6911L49.5739 13.7012ZM49.5717 13.7012L49.5167 13.7281L49.5919 13.6911L49.5717 13.7012ZM45.2972 24.3475C45.2786 24.3459 45.2598 24.3459 45.2412 24.3475H45.2972ZM38.4881 31.4066C38.5219 31.4152 38.5541 31.4292 38.5834 31.4481L38.589 31.4526C38.5565 31.4391 38.5229 31.4234 38.4881 31.4066ZM28.0693 14.1215V25.0762L28.048 25.1143L24.5728 31.2104L24.9316 32.9547C24.9508 33.0495 24.9318 33.1481 24.8787 33.229C24.8255 33.3098 24.7426 33.3664 24.648 33.3863C24.6239 33.3907 24.5995 33.393 24.5751 33.3931C24.4911 33.3928 24.4098 33.3637 24.3447 33.3106C24.2796 33.2576 24.2347 33.1838 24.2175 33.1016L23.8027 31.0837L23.833 31.0322L27.3451 24.8789V14.1171C27.3451 14.0201 27.3836 13.9272 27.4522 13.8586C27.5207 13.7901 27.6137 13.7516 27.7106 13.7516C27.8075 13.7516 27.9005 13.7901 27.969 13.8586C28.0375 13.9272 28.076 14.0201 28.076 14.1171L28.0693 14.1215ZM23.2523 16.3782C23.0944 16.7183 22.8699 17.0232 22.592 17.275C22.3533 17.4894 22.08 17.6619 21.7837 17.785C21.3356 17.9692 20.8557 18.0636 20.3712 18.0631H20.2255L18.4128 19.6325C18.3599 19.6785 18.2949 19.7084 18.2255 19.7185C18.1561 19.7285 18.0852 19.7184 18.0214 19.6894C17.9576 19.6603 17.9035 19.6135 17.8655 19.5545C17.8276 19.4955 17.8074 19.4269 17.8075 19.3567C17.8069 19.3474 17.8069 19.338 17.8075 19.3287C17.811 19.2808 17.8238 19.2341 17.8454 19.1912C17.8669 19.1483 17.8967 19.1101 17.933 19.0787L19.9845 17.3075L20.147 17.3288C20.2349 17.3389 20.3232 17.3434 20.4116 17.3422C20.7861 17.3446 21.1573 17.2722 21.5035 17.1292C21.9863 16.9272 22.3748 16.55 22.5909 16.0732C22.7691 15.6955 22.8039 15.3535 22.6951 15.0576C22.6109 14.8415 22.4704 14.6518 22.2882 14.5083C22.2017 14.4371 22.1077 14.3754 22.0079 14.3244C21.9241 14.2813 21.8601 14.2075 21.8292 14.1183C21.7984 14.0292 21.8031 13.9316 21.8424 13.8459C21.8816 13.7601 21.9524 13.6928 22.0401 13.6579C22.1277 13.623 22.2254 13.6233 22.3129 13.6586C22.4699 13.7356 22.6174 13.8308 22.7523 13.9422C22.8796 14.0448 22.9951 14.1614 23.0965 14.2897C23.2168 14.4422 23.3128 14.6123 23.3812 14.7942C23.5606 15.2829 23.5168 15.8154 23.2523 16.3782ZM31.3662 24.2051V19.5944C31.3611 19.5008 31.3202 19.4128 31.2522 19.3484C31.1841 19.284 31.0939 19.2481 31.0002 19.2481C30.9065 19.2481 30.8164 19.284 30.7483 19.3484C30.6802 19.4128 30.6394 19.5008 30.6342 19.5944V23.9809L27.0245 29.3002C26.9707 29.381 26.9509 29.4797 26.9693 29.5749C26.9878 29.6702 27.0431 29.7543 27.1232 29.8091C27.1832 29.8503 27.2544 29.8722 27.3272 29.8719C27.3871 29.8719 27.446 29.8574 27.499 29.8294C27.5519 29.8015 27.5972 29.761 27.631 29.7116L31.3382 24.2466L31.3662 24.2051Z" fill="white"/>
</svg>
