<svg width="16" height="16" viewBox="0 0 16 16" fill="none" xmlns="http://www.w3.org/2000/svg">
<path fill-rule="evenodd" clip-rule="evenodd" d="M14.8443 8.13155L8.0128 2.01935L1.12388 8.13155H2.78056V11.1538L2.77778 11.1793V14.3452C2.77778 14.4346 2.8439 14.4762 2.88889 14.4762H3.32323L3.32906 14.4758L3.34882 14.4741L3.42488 14.4677L3.50103 14.4728C3.52328 14.4743 3.53568 14.4752 3.54666 14.4757C3.55223 14.476 3.55561 14.4761 3.5573 14.4762C3.55807 14.4762 3.55849 14.4762 3.5586 14.4762H5.11111C5.1561 14.4762 5.22222 14.4346 5.22222 14.3452V11.8571C5.22222 10.8212 6.05055 9.95238 7.11111 9.95238H8.88889C9.94945 9.95238 10.7778 10.8212 10.7778 11.8571V14.3452C10.7778 14.4346 10.8439 14.4762 10.8889 14.4762H12.4583C12.4793 14.4762 12.4896 14.4762 12.4985 14.476C12.5016 14.4759 12.5035 14.4759 12.5044 14.4759L12.5849 14.47L12.6515 14.4762L12.6667 14.4762H13.1111C13.1561 14.4762 13.2222 14.4346 13.2222 14.3452V13.8356L13.2281 13.7815C13.2339 13.729 13.236 13.6913 13.2361 13.6627C13.2361 13.6622 13.2361 13.6616 13.2361 13.661L13.2124 8.13155H14.8443ZM8.59444 1.19792L15.6889 7.54539C15.9111 7.7433 16.0222 7.96949 15.9944 8.22396C15.9944 8.7026 15.6259 9.0837 15.1892 9.12737C15.1616 9.13014 15.1337 9.13155 15.1056 9.13155H14.2167L14.2361 13.661C14.2361 13.7374 14.2306 13.8137 14.2222 13.89V14.3452C14.2222 14.9701 13.725 15.4762 13.1111 15.4762H12.6667C12.6361 15.4762 12.6056 15.4762 12.575 15.4734C12.5361 15.4762 12.4972 15.4762 12.4583 15.4762H10.8889C10.275 15.4762 9.77778 14.9701 9.77778 14.3452V11.8571C9.77778 11.3567 9.38056 10.9524 8.88889 10.9524H7.11111C6.61944 10.9524 6.22222 11.3567 6.22222 11.8571V14.3452C6.22222 14.9701 5.725 15.4762 5.11111 15.4762H3.55833C3.51667 15.4762 3.475 15.4734 3.43333 15.4705C3.4 15.4734 3.36667 15.4762 3.33333 15.4762H2.88889C2.275 15.4762 1.77778 14.9701 1.77778 14.3452V11.1786C1.77778 11.1531 1.77778 11.1249 1.78056 11.0994V9.13155H0.888889C0.388889 9.13155 0 8.73571 0 8.22396C0 7.96949 0.0833333 7.7433 0.277778 7.54539L7.4 1.22619C7.59444 1.02827 7.81667 1 8.01111 1C8.20555 1 8.42778 1.05655 8.59444 1.19792Z"/>
</svg>
