<svg width="64" height="64" viewBox="0 0 64 64" fill="none" xmlns="http://www.w3.org/2000/svg">
<circle cx="32" cy="32" r="32" fill="#363947"/>
<g clip-path="url(#clip0_1000_5556)">
<path d="M16 40.8312V43.5C16 45.7062 21.375 47.5 28 47.5C34.625 47.5 40 45.7062 40 43.5V40.8312C37.4188 42.65 32.7 43.5 28 43.5C23.3 43.5 18.5812 42.65 16 40.8312ZM36 23.5C42.625 23.5 48 21.7063 48 19.5C48 17.2938 42.625 15.5 36 15.5C29.375 15.5 24 17.2938 24 19.5C24 21.7063 29.375 23.5 36 23.5ZM16 34.275V37.5C16 39.7062 21.375 41.5 28 41.5C34.625 41.5 40 39.7062 40 37.5V34.275C37.4188 36.4 32.6938 37.5 28 37.5C23.3063 37.5 18.5812 36.4 16 34.275ZM42 34.9625C45.5812 34.2687 48 32.9813 48 31.5V28.8313C46.55 29.8562 44.4188 30.5563 42 30.9875V34.9625ZM28 25.5C21.375 25.5 16 27.7375 16 30.5C16 33.2625 21.375 35.5 28 35.5C34.625 35.5 40 33.2625 40 30.5C40 27.7375 34.625 25.5 28 25.5ZM41.7062 29.0188C45.4562 28.3438 48 27.0188 48 25.5V22.8313C45.7812 24.4 41.9688 25.2438 37.9562 25.4438C39.8 26.3375 41.1562 27.5375 41.7062 29.0188Z" fill="#7186FF"/>
</g>
<defs>
<clipPath id="clip0_1000_5556">
<rect width="32" height="32" fill="white" transform="translate(16 15.5)"/>
</clipPath>
</defs>
</svg>
