<svg width="64" height="64" viewBox="0 0 64 64" fill="none" xmlns="http://www.w3.org/2000/svg">
<circle cx="32" cy="32" r="32" fill="#363947"/>
<g clip-path="url(#clip0_1070_8342)">
<path d="M40.8 37.5H42.2C42.6 37.5 43 37.1 43 36.7V22.3C43 21.9 42.6 21.5 42.2 21.5H40.8C40.4 21.5 40 21.9 40 22.3V36.7C40 37.1 40.4 37.5 40.8 37.5ZM28.8 37.5H30.2C30.6 37.5 31 37.1 31 36.7V24.3C31 23.9 30.6 23.5 30.2 23.5H28.8C28.4 23.5 28 23.9 28 24.3V36.7C28 37.1 28.4 37.5 28.8 37.5ZM34.8 37.5H36.2C36.6 37.5 37 37.1 37 36.7V28.3C37 27.9 36.6 27.5 36.2 27.5H34.8C34.4 27.5 34 27.9 34 28.3V36.7C34 37.1 34.4 37.5 34.8 37.5ZM47 40.5H19V20.5C19 19.9475 18.5525 19.5 18 19.5H17C16.4475 19.5 16 19.9475 16 20.5V41.5C16 42.6044 16.8956 43.5 18 43.5H47C47.5525 43.5 48 43.0525 48 42.5V41.5C48 40.9475 47.5525 40.5 47 40.5ZM22.8 37.5H24.2C24.6 37.5 25 37.1 25 36.7V32.3C25 31.9 24.6 31.5 24.2 31.5H22.8C22.4 31.5 22 31.9 22 32.3V36.7C22 37.1 22.4 37.5 22.8 37.5Z" fill="#7186FF"/>
</g>
<defs>
<clipPath id="clip0_1070_8342">
<rect width="32" height="32" fill="white" transform="translate(16 15.5)"/>
</clipPath>
</defs>
</svg>
