<svg width="64" height="64" viewBox="0 0 64 64" fill="none" xmlns="http://www.w3.org/2000/svg">
<circle cx="32" cy="32" r="32" fill="url(#paint0_linear_1353_2879)"/>
<g clip-path="url(#clip0_1353_2879)">
<path d="M32 16C40.8357 16 48 23.1643 48 32C48 40.8357 40.8357 48 32 48C23.1643 48 16 40.8357 16 32C16 23.1643 23.1643 16 32 16ZM32 18.7139C24.6643 18.7139 18.7139 24.6643 18.7139 32C18.7139 39.3357 24.6643 45.2861 32 45.2861C39.3357 45.2861 45.2861 39.3357 45.2861 32C45.2861 24.6643 39.3357 18.7139 32 18.7139ZM38.6787 26.3203C38.9105 26.3205 39.046 26.5842 38.9072 26.7734L31.3857 37.2021C31.2807 37.3488 31.1419 37.4683 30.9814 37.5508C30.8209 37.6333 30.6424 37.6768 30.4619 37.6768C30.2816 37.6767 30.1038 37.6332 29.9434 37.5508C29.7829 37.4683 29.6441 37.3488 29.5391 37.2021L25.0889 31.0312C24.9532 30.842 25.0892 30.5772 25.3213 30.5771H26.9961C27.3639 30.5771 27.7066 30.7563 27.9209 31.0527L30.4639 34.5811L36.0781 26.7949C36.2924 26.495 36.6397 26.3203 37.0039 26.3203H38.6787Z" fill="white"/>
</g>
<defs>
<linearGradient id="paint0_linear_1353_2879" x1="64" y1="32" x2="0" y2="32" gradientUnits="userSpaceOnUse">
<stop stop-color="#1C3CF1"/>
<stop offset="1" stop-color="#8B5CF6"/>
</linearGradient>
<clipPath id="clip0_1353_2879">
<rect width="32" height="32" fill="white" transform="translate(16 16)"/>
</clipPath>
</defs>
</svg>
