<svg width="64" height="64" viewBox="0 0 64 64" fill="none" xmlns="http://www.w3.org/2000/svg">
<circle cx="32" cy="32" r="32" fill="url(#paint0_linear_1828_21351)" fill-opacity="0.48"/>
<g clip-path="url(#clip0_1828_21351)">
<path d="M45.6757 38V17C45.6757 16.1687 45.0147 15.5 44.1931 15.5H23.9305C20.6564 15.5 18 18.1875 18 21.5V41.5C18 44.8125 20.6564 47.5 23.9305 47.5H44.1931C45.0147 47.5 45.6757 46.8312 45.6757 46V45C45.6757 44.5312 45.4595 44.1062 45.1259 43.8312C44.8664 42.8687 44.8664 40.125 45.1259 39.1625C45.4595 38.8938 45.6757 38.4688 45.6757 38ZM25.9073 23.875C25.9073 23.6687 26.0741 23.5 26.278 23.5H39.3745C39.5784 23.5 39.7452 23.6687 39.7452 23.875V25.125C39.7452 25.3313 39.5784 25.5 39.3745 25.5H26.278C26.0741 25.5 25.9073 25.3313 25.9073 25.125V23.875ZM25.9073 27.875C25.9073 27.6687 26.0741 27.5 26.278 27.5H39.3745C39.5784 27.5 39.7452 27.6687 39.7452 27.875V29.125C39.7452 29.3313 39.5784 29.5 39.3745 29.5H26.278C26.0741 29.5 25.9073 29.3313 25.9073 29.125V27.875ZM41.5614 43.5H23.9305C22.8371 43.5 21.9537 42.6063 21.9537 41.5C21.9537 40.4 22.8432 39.5 23.9305 39.5H41.5614C41.444 40.5688 41.444 42.4312 41.5614 43.5Z" fill="#7186FF"/>
</g>
<defs>
<linearGradient id="paint0_linear_1828_21351" x1="64" y1="32" x2="0" y2="32" gradientUnits="userSpaceOnUse">
<stop stop-color="#1C3CF1"/>
<stop offset="1" stop-color="#8B5CF6"/>
</linearGradient>
<clipPath id="clip0_1828_21351">
<rect width="32" height="32" fill="white" transform="translate(16 15.5)"/>
</clipPath>
</defs>
</svg>
