<svg width="64" height="64" viewBox="0 0 64 64" fill="none" xmlns="http://www.w3.org/2000/svg">
<circle cx="32" cy="32" r="32" fill="url(#paint0_linear_1828_6854)" fill-opacity="0.48"/>
<path d="M18 44C18 45.1063 18.8937 46 20 46H30V36H18V44ZM34 46H44C45.1063 46 46 45.1063 46 44V36H34V46ZM46 26H43.3687C43.7563 25.2438 44 24.4062 44 23.5C44 20.4688 41.5312 18 38.5 18C35.9 18 34.2188 19.3313 32.0625 22.2688C29.9062 19.3313 28.225 18 25.625 18C22.5938 18 20.125 20.4688 20.125 23.5C20.125 24.4062 20.3625 25.2438 20.7562 26H18C16.8937 26 16 26.8938 16 28V33C16 33.55 16.45 34 17 34H47C47.55 34 48 33.55 48 33V28C48 26.8938 47.1063 26 46 26ZM25.6187 26C24.2375 26 23.1188 24.8812 23.1188 23.5C23.1188 22.1188 24.2375 21 25.6187 21C26.8625 21 27.7812 21.2063 31 26H25.6187ZM38.5 26H33.1187C36.3312 21.2188 37.225 21 38.5 21C39.8813 21 41 22.1188 41 23.5C41 24.8812 39.8813 26 38.5 26Z" fill="#7186FF"/>
<defs>
<linearGradient id="paint0_linear_1828_6854" x1="64" y1="32" x2="0" y2="32" gradientUnits="userSpaceOnUse">
<stop stop-color="#1C3CF1"/>
<stop offset="1" stop-color="#8B5CF6"/>
</linearGradient>
</defs>
</svg>
