<svg width="32" height="32" viewBox="0 0 32 32" fill="none" xmlns="http://www.w3.org/2000/svg">
<path d="M12.6667 9.75V12.25C12.6667 12.6642 12.3309 13 11.9167 13H8.75C8.33578 13 8 12.6642 8 12.25V9.75C8 9.33578 8.33578 9 8.75 9H11.9167C12.3309 9 12.6667 9.33578 12.6667 9.75ZM18.3333 17.25V14.75C18.3333 14.3358 17.9976 14 17.5833 14H14.4167C14.0024 14 13.6667 14.3358 13.6667 14.75V17.25C13.6667 17.6642 14.0024 18 14.4167 18H17.5833C17.9976 18 18.3333 17.6642 18.3333 17.25ZM19.3333 9.75V12.25C19.3333 12.6642 19.6691 13 20.0833 13H23.25C23.6642 13 24 12.6642 24 12.25V9.75C24 9.33578 23.6642 9 23.25 9H20.0833C19.6691 9 19.3333 9.33578 19.3333 9.75ZM18.3333 12.25V9.75C18.3333 9.33578 17.9976 9 17.5833 9H14.4167C14.0024 9 13.6667 9.33578 13.6667 9.75V12.25C13.6667 12.6642 14.0024 13 14.4167 13H17.5833C17.9976 13 18.3333 12.6642 18.3333 12.25ZM11.9167 14H8.75C8.33578 14 8 14.3358 8 14.75V17.25C8 17.6642 8.33578 18 8.75 18H11.9167C12.3309 18 12.6667 17.6642 12.6667 17.25V14.75C12.6667 14.3358 12.3309 14 11.9167 14ZM8 19.75V22.25C8 22.6642 8.33578 23 8.75 23H11.9167C12.3309 23 12.6667 22.6642 12.6667 22.25V19.75C12.6667 19.3358 12.3309 19 11.9167 19H8.75C8.33578 19 8 19.3358 8 19.75ZM20.0833 18H23.25C23.6642 18 24 17.6642 24 17.25V14.75C24 14.3358 23.6642 14 23.25 14H20.0833C19.6691 14 19.3333 14.3358 19.3333 14.75V17.25C19.3333 17.6642 19.6691 18 20.0833 18ZM20.0833 23H23.25C23.6642 23 24 22.6642 24 22.25V19.75C24 19.3358 23.6642 19 23.25 19H20.0833C19.6691 19 19.3333 19.3358 19.3333 19.75V22.25C19.3333 22.6642 19.6691 23 20.0833 23ZM13.6667 19.75V22.25C13.6667 22.6642 14.0024 23 14.4167 23H17.5833C17.9975 23 18.3333 22.6642 18.3333 22.25V19.75C18.3333 19.3358 17.9975 19 17.5833 19H14.4167C14.0024 19 13.6667 19.3358 13.6667 19.75Z" fill="currentColor"/>
</svg>
