<svg width="16" height="16" viewBox="0 0 16 16" fill="none" xmlns="http://www.w3.org/2000/svg">
<g clip-path="url(#clip0_790_1155)">
<path d="M4.50207 6.5C3.94895 6.5 3.50207 6.94688 3.50207 7.5C3.50207 8.05312 3.94895 8.5 4.50207 8.5C5.0552 8.5 5.50207 8.05312 5.50207 7.5C5.50207 6.94688 5.0552 6.5 4.50207 6.5ZM8.00207 6.5C7.44895 6.5 7.00207 6.94688 7.00207 7.5C7.00207 8.05312 7.44895 8.5 8.00207 8.5C8.5552 8.5 9.00207 8.05312 9.00207 7.5C9.00207 6.94688 8.5552 6.5 8.00207 6.5ZM11.5021 6.5C10.9489 6.5 10.5021 6.94688 10.5021 7.5C10.5021 8.05312 10.9489 8.5 11.5021 8.5C12.0552 8.5 12.5021 8.05312 12.5021 7.5C12.5021 6.94688 12.0552 6.5 11.5021 6.5ZM8.00207 1C3.58332 1 0.00207401 3.90937 0.00207401 7.5C0.00207401 8.9875 0.623949 10.35 1.6552 11.4469C1.18957 12.6781 0.220824 13.7219 0.205199 13.7344C-0.00105099 13.9531 -0.057301 14.2719 0.061449 14.5469C0.180199 14.8219 0.452074 15 0.752074 15C2.67395 15 4.18957 14.1969 5.09895 13.5531C6.00207 13.8375 6.97707 14 8.00207 14C12.4208 14 16.0021 11.0906 16.0021 7.5C16.0021 3.90937 12.4208 1 8.00207 1ZM8.00207 12.5C7.1677 12.5 6.3427 12.3719 5.55207 12.1219L4.8427 11.8969L4.23332 12.3281C3.78645 12.6438 3.17395 12.9969 2.43645 13.2344C2.66457 12.8562 2.88645 12.4312 3.05832 11.9781L3.38957 11.1L2.74582 10.4187C2.1802 9.81563 1.50207 8.81875 1.50207 7.5C1.50207 4.74375 4.4177 2.5 8.00207 2.5C11.5864 2.5 14.5021 4.74375 14.5021 7.5C14.5021 10.2563 11.5864 12.5 8.00207 12.5Z"/>
</g>
<defs>
<clipPath id="clip0_790_1155">
<rect width="16" height="16" fill="none"/>
</clipPath>
</defs>
</svg>
