<svg width="64" height="64" viewBox="0 0 64 64" fill="none" xmlns="http://www.w3.org/2000/svg">
<circle cx="32" cy="32" r="32" fill="url(#paint0_linear_1353_9644)"/>
<path d="M23.1604 34.9697C24.3717 35.5439 25.7045 35.8888 27.1301 35.8889C28.5562 35.8889 29.8963 35.5442 31.1021 34.9697H31.5822C35.2691 34.9697 38.26 37.9339 38.2603 41.5874V43.2424C38.2603 44.7645 37.0153 45.9995 35.4794 46H18.7831C17.2468 46 16 44.7648 16 43.2424V41.5874C16.0002 37.9339 18.9913 34.9698 22.6781 34.9697H23.1604ZM24.8113 42.8889L27.1301 45.1515L29.449 42.8889L27.1301 36.101L24.8113 42.8889ZM45.9189 18.011C47.0879 18.1272 48 19.0913 48 20.2626V38.3636L47.9887 38.5956C47.8776 39.66 47.0098 40.5068 45.9189 40.6152L38.455 40.6196L38.326 39.9479H45.6811C46.5776 39.9479 47.3048 39.2384 47.3048 38.3636V20.2626C47.3048 19.3879 46.5776 18.6783 45.6811 18.6783H29.449C28.7036 18.6785 28.0746 19.1701 27.8842 19.8384H27.1709C27.3602 18.8661 28.1874 18.1129 29.2112 18.011L29.449 18H45.6811L45.9189 18.011ZM29.449 39.042H34.0868V38.3636H29.449V39.042ZM43.3623 33.8384C44.6428 33.8384 45.6811 34.8515 45.6811 36.101C45.6811 37.3505 44.6428 38.3636 43.3623 38.3636C42.0817 38.3636 41.0434 37.3505 41.0434 36.101C41.0434 34.8515 42.0817 33.8384 43.3623 33.8384ZM39.8839 38.1383H38.0089L37.5651 37.4577H39.8839V38.1383ZM43.3623 34.2229C42.2991 34.2229 41.4374 35.0636 41.4374 36.101C41.4374 37.1384 42.2991 37.9792 43.3623 37.9792C44.4254 37.9792 45.2871 37.1384 45.2871 36.101C45.2871 35.0636 44.4254 34.2229 43.3623 34.2229ZM44.3292 35.2989C44.3629 35.2989 44.3834 35.3362 44.3632 35.363L43.2739 36.8368C43.2588 36.8574 43.2381 36.8738 43.2151 36.8854C43.1921 36.8969 43.1662 36.903 43.1403 36.9031C43.1142 36.9031 43.0866 36.8971 43.0633 36.8854C43.0407 36.8739 43.0217 36.857 43.0067 36.8368L42.3613 35.964C42.3417 35.9372 42.3617 35.8999 42.3953 35.8999H42.6376C42.6905 35.9001 42.7402 35.9247 42.7712 35.9662L43.1403 36.4656L43.9533 35.3652C43.9843 35.3229 44.0343 35.2991 44.0869 35.2989H44.3292ZM39.8839 36.7794H36.7861L36.4056 36.101H39.8839V36.7794ZM27.1301 20.2626C30.7186 20.2626 33.6225 23.1408 33.6225 26.697C33.6225 30.2531 30.7186 33.1313 27.1301 33.1313C23.5419 33.1311 20.6377 30.2529 20.6377 26.697C20.6377 23.141 23.5419 20.2629 27.1301 20.2626ZM43.3623 27.0505C44.6428 27.0505 45.6811 28.0636 45.6811 29.3131C45.6811 30.5626 44.6428 31.5758 43.3623 31.5758C42.0817 31.5758 41.0434 30.5626 41.0434 29.3131C41.0434 28.0636 42.0817 27.0505 43.3623 27.0505ZM39.8839 31.3504H34.0868V30.6698H39.8839V31.3504ZM43.3623 27.435C42.2991 27.435 41.4374 28.2758 41.4374 29.3131C41.4374 30.3505 42.2991 31.1913 43.3623 31.1913C44.4254 31.1913 45.2871 30.3505 45.2871 29.3131C45.2871 28.2758 44.4254 27.435 43.3623 27.435ZM44.3292 28.511C44.3629 28.511 44.3834 28.5484 44.3632 28.5751L43.2739 30.0489C43.2588 30.0695 43.2381 30.0859 43.2151 30.0975C43.1921 30.1091 43.1662 30.1151 43.1403 30.1152C43.1142 30.1152 43.0866 30.1092 43.0633 30.0975C43.0407 30.086 43.0217 30.0691 43.0067 30.0489L42.3613 29.1761C42.3417 29.1494 42.3617 29.1121 42.3953 29.1121H42.6376C42.6905 29.1122 42.7402 29.1369 42.7712 29.1783L43.1403 29.6777L43.9533 28.5773C43.9843 28.535 44.0343 28.5112 44.0869 28.511H44.3292ZM39.8839 29.9915H34.7933L35.2462 29.3131H39.8839V29.9915ZM43.3623 20.2626C44.6428 20.2626 45.6811 21.2758 45.6811 22.5253C45.6811 23.7747 44.6428 24.7879 43.3623 24.7879C42.0817 24.7879 41.0434 23.7747 41.0434 22.5253C41.0434 21.2758 42.0817 20.2626 43.3623 20.2626ZM39.8839 24.5625H35.1556L34.9926 23.8819H39.8839V24.5625ZM43.3623 20.6471C42.2991 20.6471 41.4374 21.4879 41.4374 22.5253C41.4374 23.5626 42.2991 24.4034 43.3623 24.4034C44.4254 24.4034 45.2871 23.5626 45.2871 22.5253C45.2871 21.4879 44.4254 20.6471 43.3623 20.6471ZM44.3292 21.7232C44.3629 21.7232 44.3834 21.7605 44.3632 21.7872L43.2739 23.261C43.2588 23.2816 43.2381 23.298 43.2151 23.3097C43.1921 23.3212 43.1662 23.3272 43.1403 23.3273C43.1142 23.3273 43.0866 23.3213 43.0633 23.3097C43.0407 23.2981 43.0217 23.2813 43.0067 23.261L42.3613 22.3883C42.3417 22.3615 42.3617 22.3242 42.3953 22.3242H42.6376C42.6905 22.3243 42.7402 22.349 42.7712 22.3905L43.1403 22.8898L43.9533 21.7895C43.9843 21.7472 44.0343 21.7233 44.0869 21.7232H44.3292ZM39.8839 23.2036H34.0868V22.5253H39.8839V23.2036Z" fill="white"/>
<defs>
<linearGradient id="paint0_linear_1353_9644" x1="64" y1="32" x2="0" y2="32" gradientUnits="userSpaceOnUse">
<stop stop-color="#1C3CF1"/>
<stop offset="1" stop-color="#8B5CF6"/>
</linearGradient>
</defs>
</svg>
