<svg width="64" height="64" viewBox="0 0 64 64" fill="none" xmlns="http://www.w3.org/2000/svg">
<circle cx="32" cy="32" r="32" fill="url(#paint0_linear_1000_4038)"/>
<path d="M30.4022 39.2211C30.5252 39.2213 30.6471 39.2457 30.7608 39.2929C30.8744 39.3402 30.9776 39.4094 31.0646 39.4966C31.1515 39.5837 31.2204 39.6872 31.2673 39.801C31.3143 39.9147 31.3383 40.0367 31.3382 40.1598C31.338 40.2828 31.3136 40.4047 31.2663 40.5184C31.219 40.632 31.1498 40.7352 31.0627 40.8222C30.9755 40.9091 30.8721 40.978 30.7583 41.0249C30.6445 41.0719 30.5226 41.0959 30.3995 41.0958C30.1509 41.0954 29.9126 40.9963 29.7371 40.8203C29.5615 40.6442 29.4631 40.4057 29.4635 40.1571C29.4638 39.9085 29.5629 39.6702 29.739 39.4947C29.915 39.3191 30.1536 39.2207 30.4022 39.2211ZM45.1008 33.4251C44.9777 33.425 44.8559 33.4007 44.7422 33.3535C44.6285 33.3063 44.5252 33.2372 44.4382 33.1501C44.3512 33.063 44.2823 32.9596 44.2352 32.8458C44.1882 32.7321 44.1641 32.6102 44.1642 32.4871C44.1642 32.364 44.1886 32.2421 44.2358 32.1284C44.2829 32.0147 44.3521 31.9115 44.4392 31.8245C44.5263 31.7375 44.6296 31.6685 44.7434 31.6215C44.8572 31.5745 44.9791 31.5503 45.1021 31.5504C45.3507 31.5506 45.5891 31.6495 45.7648 31.8254C45.9404 32.0013 46.039 32.2398 46.0388 32.4884C46.0386 32.737 45.9397 32.9754 45.7638 33.151C45.5879 33.3267 45.3494 33.4253 45.1008 33.4251ZM45.1008 29.5904C44.3323 29.5911 43.5954 29.8967 43.0519 30.4402C42.5085 30.9837 42.2029 31.7205 42.2022 32.4891C42.2022 32.7998 42.2542 33.1091 42.3555 33.4104L32.7808 38.5078C32.5153 38.1223 32.1601 37.8071 31.7457 37.5895C31.3313 37.3718 30.8702 37.2582 30.4022 37.2584C29.2968 37.2584 28.2902 37.8918 27.8022 38.8798L19.2008 34.3438C18.2915 33.8664 17.6115 32.3704 17.6835 31.0078C17.7208 30.2971 17.9662 29.7451 18.3408 29.5318C18.5782 29.3984 18.8635 29.4091 19.1675 29.5678L19.2235 29.5984C21.5035 30.7984 28.9622 34.7278 29.2768 34.8731C29.7608 35.0984 30.0302 35.1891 30.8568 34.7971L46.2755 26.7784C46.5022 26.6931 46.7662 26.4758 46.7662 26.1464C46.7662 25.6904 46.2941 25.5104 46.2928 25.5104C45.4155 25.0904 44.0675 24.4598 42.7528 23.8438C39.9422 22.5278 36.7568 21.0371 35.3582 20.3038C34.1502 19.6718 33.1782 20.2051 33.0048 20.3118L32.6688 20.4784C26.3728 23.5918 17.9462 27.7651 17.4662 28.0571C16.6088 28.5798 16.0768 29.6211 16.0075 30.9131C15.9008 32.9624 16.9448 35.0998 18.4395 35.8824L27.5355 40.5731C27.6357 41.2621 27.9804 41.8921 28.5068 42.3479C29.0331 42.8038 29.7059 43.055 30.4022 43.0558C31.1626 43.0545 31.8922 42.7548 32.434 42.2212C32.9758 41.6876 33.2866 40.9628 33.2995 40.2024L43.3182 34.7718C43.8248 35.1691 44.4555 35.3864 45.1008 35.3864C45.8694 35.3857 46.6063 35.0801 47.1497 34.5366C47.6932 33.9932 47.9988 33.2563 47.9995 32.4878C47.9988 31.7192 47.6932 30.9823 47.1497 30.4389C46.6063 29.8954 45.8694 29.5898 45.1008 29.5891" fill="white"/>
<defs>
<linearGradient id="paint0_linear_1000_4038" x1="64" y1="32" x2="0" y2="32" gradientUnits="userSpaceOnUse">
<stop stop-color="#1C3CF1"/>
<stop offset="1" stop-color="#8B5CF6"/>
</linearGradient>
</defs>
</svg>
