<svg width="14" height="14" viewBox="0 0 14 14" fill="none" xmlns="http://www.w3.org/2000/svg">
<g clip-path="url(#clip0_1232_7763)">
<path d="M2.34507 14L11.6551 14C12.0223 14 12.3201 13.7062 12.3201 13.3438L12.3201 12.9062C12.3201 12.5438 12.0223 12.25 11.6551 12.25C11.6551 9.76268 10.2415 7.66352 8.30674 7C10.2415 6.33648 11.6551 4.23732 11.6551 1.75C12.0223 1.75 12.3201 1.45619 12.3201 1.09375L12.3201 0.65625C12.3201 0.293809 12.0223 -2.6028e-08 11.6551 -5.81361e-08L2.34507 -8.72042e-07C1.9778 -9.0415e-07 1.68007 0.293808 1.68007 0.656249L1.68007 1.09375C1.68007 1.45619 1.9778 1.75 2.34507 1.75C2.34507 4.23732 3.75864 6.33648 5.6934 7C3.75864 7.66352 2.34507 9.76267 2.34507 12.25C1.9778 12.25 1.68007 12.5438 1.68007 12.9062L1.68007 13.3437C1.68007 13.7062 1.9778 14 2.34507 14ZM4.1184 1.75L9.88174 1.75C9.88174 3.86799 8.6015 5.6875 7.00007 5.6875C5.39892 5.6875 4.1184 3.86868 4.1184 1.75Z" fill="currentColor"/>
</g>
<defs>
<clipPath id="clip0_1232_7763">
<rect width="14" height="14" fill="white"/>
</clipPath>
</defs>
</svg>
