<svg width="16" height="16" viewBox="0 0 16 16" fill="none" xmlns="http://www.w3.org/2000/svg">
<g clip-path="url(#clip0_1794_20080)">
<path d="M8.03516 1C8.61452 1.78076 8.9043 2.45767 8.9043 3.03027C8.90426 3.45799 8.80758 3.70355 8.65137 3.84277L12.9688 5.13086C13.0869 5.02912 13.2407 4.96682 13.4092 4.9668C13.7818 4.9668 14.084 5.26847 14.084 5.63965C14.0838 5.90925 13.9235 6.14115 13.6934 6.24805L15.2051 10.5947C15.6833 10.6708 15.9996 10.7823 16 10.9307C16 11.5404 14.8058 12.0352 13.333 12.0352C11.8604 12.0351 10.667 11.5404 10.667 10.9307C10.6674 10.7731 11.024 10.6571 11.5527 10.5811L13.0703 6.21973C12.9312 6.13884 12.8232 6.00978 12.7705 5.85547C12.7197 5.6441 12.6018 5.51066 12.416 5.45508C11.9128 5.30491 11.4325 5.4556 10.6289 5.21582C10.1415 5.0704 9.41023 4.85236 8.43555 4.56152V9.03125C8.60636 9.15316 8.71777 9.35282 8.71777 9.57812C8.7177 9.72744 8.66872 9.86504 8.58594 9.97656C8.80863 10.1418 8.95311 10.4053 8.95312 10.7031C8.95312 11.0637 8.74154 11.3745 8.43555 11.5205V12.4551C9.43154 12.507 10.1904 12.7743 10.1904 13.0977C10.1904 13.1029 10.1879 13.108 10.1875 13.1133C11.7957 13.2517 12.9065 13.5469 12.9072 13.8887L12.915 14.3662C12.9136 14.8407 10.7757 15.2217 8.13379 15.2217C5.49186 15.2217 3.35399 14.8329 3.35254 14.3584L3.33691 13.8887C3.33765 13.5524 4.41286 13.2603 5.97949 13.1191C5.97872 13.1119 5.97658 13.1049 5.97656 13.0977C5.97656 12.7795 6.71052 12.515 7.68262 12.457V11.5352C7.35972 11.3959 7.13379 11.076 7.13379 10.7031C7.13382 10.4054 7.27835 10.1418 7.50098 9.97656C7.41826 9.86504 7.3692 9.72747 7.36914 9.57812C7.36914 9.33934 7.49428 9.12994 7.68262 9.01074V4.33691C6.57113 4.00523 5.73743 3.75668 5.18164 3.59082C4.82428 3.48418 4.11083 2.99873 3.64062 2.8584C3.46656 2.80646 3.28776 2.84346 3.10449 2.9707C3.0692 2.99944 3.03094 3.02466 2.99023 3.0459L4.49707 7.38184C4.99842 7.45801 5.3326 7.57299 5.33301 7.72559C5.33301 8.33529 4.13959 8.83 2.66699 8.83008C1.19424 8.83008 0 8.33534 0 7.72559C0.000398165 7.57775 0.314572 7.46673 0.790039 7.39062L2.31152 3.01465C2.12609 2.89488 2.00293 2.68675 2.00293 2.4502C2.00315 2.07923 2.30532 1.77836 2.67773 1.77832C2.98124 1.77832 3.23746 1.97831 3.32227 2.25293L7.2002 3.40918C7.17895 3.30218 7.16603 3.17703 7.16602 3.03027C7.16602 2.45772 7.45589 1.78068 8.03516 1ZM11.71 10.5615C12.6789 10.4435 14.1092 10.4464 15.0479 10.5723L13.5605 6.29395C13.512 6.30501 13.4611 6.31152 13.4092 6.31152C13.3359 6.3115 13.2653 6.29889 13.1992 6.27734L11.71 10.5615ZM0.946289 7.36816C1.90129 7.23935 3.36966 7.23754 4.34082 7.3623L2.8584 3.09766C2.80086 3.11355 2.74038 3.12305 2.67773 3.12305C2.59351 3.12304 2.51282 3.1062 2.43848 3.07812L0.946289 7.36816Z" fill="#7186FF"/>
</g>
<defs>
<clipPath id="clip0_1794_20080">
<rect width="16" height="16" fill="white"/>
</clipPath>
</defs>
</svg>
