<svg width="32" height="32" viewBox="0 0 32 32" fill="none" xmlns="http://www.w3.org/2000/svg">
<path d="M11 10.5C11 11.3284 10.3284 12 9.5 12C8.67156 12 8 11.3284 8 10.5C8 9.67156 8.67156 9 9.5 9C10.3284 9 11 9.67156 11 10.5ZM9.5 14C8.67156 14 8 14.6716 8 15.5C8 16.3284 8.67156 17 9.5 17C10.3284 17 11 16.3284 11 15.5C11 14.6716 10.3284 14 9.5 14ZM9.5 19C8.67156 19 8 19.6716 8 20.5C8 21.3284 8.67156 22 9.5 22C10.3284 22 11 21.3284 11 20.5C11 19.6716 10.3284 19 9.5 19ZM12.5 11.625H23.5C23.7762 11.625 24 11.4012 24 11.125V9.875C24 9.59884 23.7762 9.375 23.5 9.375H12.5C12.2238 9.375 12 9.59884 12 9.875V11.125C12 11.4012 12.2238 11.625 12.5 11.625ZM12.5 16.625H23.5C23.7762 16.625 24 16.4012 24 16.125V14.875C24 14.5988 23.7762 14.375 23.5 14.375H12.5C12.2238 14.375 12 14.5988 12 14.875V16.125C12 16.4012 12.2238 16.625 12.5 16.625ZM12.5 21.625H23.5C23.7762 21.625 24 21.4012 24 21.125V19.875C24 19.5988 23.7762 19.375 23.5 19.375H12.5C12.2238 19.375 12 19.5988 12 19.875V21.125C12 21.4012 12.2238 21.625 12.5 21.625Z" fill="currentColor"/>
</svg>
