<svg width="14" height="14" viewBox="0 0 14 14" fill="none" xmlns="http://www.w3.org/2000/svg">
<path d="M10.9375 1.75H8.75C8.75 0.784766 7.96523 0 7 0C6.03477 0 5.25 0.784766 5.25 1.75H3.0625C2.33789 1.75 1.75 2.33789 1.75 3.0625V12.6875C1.75 13.4121 2.33789 14 3.0625 14H10.9375C11.6621 14 12.25 13.4121 12.25 12.6875V3.0625C12.25 2.33789 11.6621 1.75 10.9375 1.75ZM4.375 11.5938C4.01133 11.5938 3.71875 11.3012 3.71875 10.9375C3.71875 10.5738 4.01133 10.2812 4.375 10.2812C4.73867 10.2812 5.03125 10.5738 5.03125 10.9375C5.03125 11.3012 4.73867 11.5938 4.375 11.5938ZM4.375 8.96875C4.01133 8.96875 3.71875 8.67617 3.71875 8.3125C3.71875 7.94883 4.01133 7.65625 4.375 7.65625C4.73867 7.65625 5.03125 7.94883 5.03125 8.3125C5.03125 8.67617 4.73867 8.96875 4.375 8.96875ZM4.375 6.34375C4.01133 6.34375 3.71875 6.05117 3.71875 5.6875C3.71875 5.32383 4.01133 5.03125 4.375 5.03125C4.73867 5.03125 5.03125 5.32383 5.03125 5.6875C5.03125 6.05117 4.73867 6.34375 4.375 6.34375ZM7 1.09375C7.36367 1.09375 7.65625 1.38633 7.65625 1.75C7.65625 2.11367 7.36367 2.40625 7 2.40625C6.63633 2.40625 6.34375 2.11367 6.34375 1.75C6.34375 1.38633 6.63633 1.09375 7 1.09375ZM10.5 11.1562C10.5 11.2766 10.4016 11.375 10.2812 11.375H6.34375C6.22344 11.375 6.125 11.2766 6.125 11.1562V10.7188C6.125 10.5984 6.22344 10.5 6.34375 10.5H10.2812C10.4016 10.5 10.5 10.5984 10.5 10.7188V11.1562ZM10.5 8.53125C10.5 8.65156 10.4016 8.75 10.2812 8.75H6.34375C6.22344 8.75 6.125 8.65156 6.125 8.53125V8.09375C6.125 7.97344 6.22344 7.875 6.34375 7.875H10.2812C10.4016 7.875 10.5 7.97344 10.5 8.09375V8.53125ZM10.5 5.90625C10.5 6.02656 10.4016 6.125 10.2812 6.125H6.34375C6.22344 6.125 6.125 6.02656 6.125 5.90625V5.46875C6.125 5.34844 6.22344 5.25 6.34375 5.25H10.2812C10.4016 5.25 10.5 5.34844 10.5 5.46875V5.90625Z" fill="#BEBEC5"/>
</svg>
