<svg width="65" height="64" viewBox="0 0 65 64" fill="none" xmlns="http://www.w3.org/2000/svg">
<circle cx="32.5" cy="32" r="32" fill="url(#paint0_linear_1000_906)"/>
<g clip-path="url(#clip0_1000_906)">
<path d="M16.5 40.8312V43.5C16.5 45.7062 21.875 47.5 28.5 47.5C35.125 47.5 40.5 45.7062 40.5 43.5V40.8312C37.9188 42.65 33.2 43.5 28.5 43.5C23.8 43.5 19.0812 42.65 16.5 40.8312ZM36.5 23.5C43.125 23.5 48.5 21.7063 48.5 19.5C48.5 17.2938 43.125 15.5 36.5 15.5C29.875 15.5 24.5 17.2938 24.5 19.5C24.5 21.7063 29.875 23.5 36.5 23.5ZM16.5 34.275V37.5C16.5 39.7062 21.875 41.5 28.5 41.5C35.125 41.5 40.5 39.7062 40.5 37.5V34.275C37.9188 36.4 33.1938 37.5 28.5 37.5C23.8063 37.5 19.0812 36.4 16.5 34.275ZM42.5 34.9625C46.0812 34.2687 48.5 32.9813 48.5 31.5V28.8313C47.05 29.8562 44.9188 30.5563 42.5 30.9875V34.9625ZM28.5 25.5C21.875 25.5 16.5 27.7375 16.5 30.5C16.5 33.2625 21.875 35.5 28.5 35.5C35.125 35.5 40.5 33.2625 40.5 30.5C40.5 27.7375 35.125 25.5 28.5 25.5ZM42.2062 29.0188C45.9562 28.3438 48.5 27.0188 48.5 25.5V22.8313C46.2812 24.4 42.4688 25.2438 38.4562 25.4438C40.3 26.3375 41.6562 27.5375 42.2062 29.0188Z" fill="white"/>
</g>
<defs>
<linearGradient id="paint0_linear_1000_906" x1="64.5" y1="32" x2="0.5" y2="32" gradientUnits="userSpaceOnUse">
<stop stop-color="#1C3CF1"/>
<stop offset="1" stop-color="#8B5CF6"/>
</linearGradient>
<clipPath id="clip0_1000_906">
<rect width="32" height="32" fill="white" transform="translate(16.5 15.5)"/>
</clipPath>
</defs>
</svg>
