<svg width="17" height="17" viewBox="0 0 17 17" fill="none" xmlns="http://www.w3.org/2000/svg">
<g clip-path="url(#clip0_1131_5021)">
<path d="M16.6738 14.333L13.5584 11.2177C13.4178 11.0771 13.2272 10.999 13.0272 10.999H12.5179C13.3803 9.89596 13.8928 8.50859 13.8928 6.99937C13.8928 3.40909 10.9837 0.5 7.39341 0.5C3.80313 0.5 0.894043 3.40909 0.894043 6.99937C0.894043 10.5896 3.80313 13.4987 7.39341 13.4987C8.90264 13.4987 10.29 12.9863 11.393 12.1239V12.6332C11.393 12.8332 11.4711 13.0238 11.6117 13.1644L14.7271 16.2797C15.0208 16.5734 15.4957 16.5734 15.7863 16.2797L16.6706 15.3954C16.9643 15.1017 16.9643 14.6267 16.6738 14.333ZM7.39341 10.999C5.18425 10.999 3.3938 9.21165 3.3938 6.99937C3.3938 4.79021 5.18112 2.99976 7.39341 2.99976C9.60257 2.99976 11.393 4.78708 11.393 6.99937C11.393 9.20852 9.60569 10.999 7.39341 10.999Z" fill="#C5ABFF"/>
</g>
<defs>
<clipPath id="clip0_1131_5021">
<rect width="16" height="16" fill="white" transform="translate(0.894043 0.5)"/>
</clipPath>
</defs>
</svg>
