<svg width="14" height="14" viewBox="0 0 14 14" fill="none" xmlns="http://www.w3.org/2000/svg">
<g clip-path="url(#clip0_533_7418)">
<path fill-rule="evenodd" clip-rule="evenodd" d="M3.97626 11.3542V3.49113H5.1963C5.7627 3.49113 6.04635 2.81791 5.64586 2.42418L3.3662 0.183066C3.11795 -0.061022 2.71541 -0.061022 2.46713 0.183066L0.187477 2.42418C-0.213016 2.81793 0.0706323 3.49113 0.637029 3.49113H1.8571V11.3542C1.8571 11.5267 1.99943 11.6667 2.17498 11.6667H3.65838C3.83393 11.6667 3.97626 11.5267 3.97626 11.3542ZM12.1429 2.64583V10.5089H13.363C13.9294 10.5089 14.213 11.1821 13.8125 11.5758L11.5329 13.8169C11.2846 14.061 10.8821 14.061 10.6338 13.8169L8.35414 11.5758C7.95365 11.1821 8.2373 10.5089 8.80369 10.5089H10.0238V2.64583C10.0238 2.47325 10.1661 2.33333 10.3416 2.33333H11.825C12.0006 2.33333 12.1429 2.47325 12.1429 2.64583Z" fill="#C5ABFF"/>
</g>
<defs>
<clipPath id="clip0_533_7418">
<rect width="14" height="14" fill="white"/>
</clipPath>
</defs>
</svg>
