<svg width="64" height="64" viewBox="0 0 64 64" fill="none" xmlns="http://www.w3.org/2000/svg">
<circle cx="32" cy="32" r="32" fill="url(#paint0_linear_1070_756)"/>
<g clip-path="url(#clip0_1070_756)">
<path d="M27.2086 22.6706H30.3701V38.0464C30.3701 38.2464 30.5241 38.41 30.7123 38.41H33.2791C33.4674 38.41 33.6214 38.2464 33.6214 38.0464V22.6706H36.7914C37.0781 22.6706 37.2364 22.3207 37.061 22.0843L32.2695 15.6395C32.2375 15.5961 32.1966 15.5609 32.1499 15.5367C32.1032 15.5126 32.0519 15.5 32 15.5C31.9481 15.5 31.8968 15.5126 31.8501 15.5367C31.8034 15.5609 31.7625 15.5961 31.7305 15.6395L26.939 22.0798C26.7636 22.3207 26.9219 22.6706 27.2086 22.6706ZM47.6578 36.6829H45.0909C44.9027 36.6829 44.7487 36.8465 44.7487 37.0465V44.0458H19.2513V37.0465C19.2513 36.8465 19.0973 36.6829 18.9091 36.6829H16.3422C16.154 36.6829 16 36.8465 16 37.0465V46.0456C16 46.8501 16.6118 47.5 17.369 47.5H46.631C47.3882 47.5 48 46.8501 48 46.0456V37.0465C48 36.8465 47.846 36.6829 47.6578 36.6829Z" fill="white"/>
</g>
<defs>
<linearGradient id="paint0_linear_1070_756" x1="64" y1="32" x2="0" y2="32" gradientUnits="userSpaceOnUse">
<stop stop-color="#1C3CF1"/>
<stop offset="1" stop-color="#8B5CF6"/>
</linearGradient>
<clipPath id="clip0_1070_756">
<rect width="32" height="32" fill="white" transform="translate(16 15.5)"/>
</clipPath>
</defs>
</svg>
